<svg width="12" height="12" viewBox="0 0 12 12" xmlns="http://www.w3.org/2000/svg" style="/*! fill: #000; */" fill="#\004795">
<path d="M11.3032 6.7193C11.5087 6.37125 11.625 6 11.625 5.55117C11.625 4.51957 10.7527 3.54539 9.61359 3.54539H8.75859C8.87391 3.24516 8.96601 2.88609 8.96601 2.45461C8.96601 0.7485 8.08266 0 6.73312 0C5.28921 0 5.37157 2.22499 5.05125 2.54531C4.51812 3.07845 3.8884 4.10266 3.43969 4.5H1.125C0.710789 4.5 0.375 4.83579 0.375 5.25V10.875C0.375 11.2892 0.710789 11.625 1.125 11.625H2.625C2.97405 11.625 3.26737 11.3865 3.35105 11.0637C4.39423 11.0871 5.11027 11.9998 7.51828 11.9998C7.6875 11.9998 7.875 12 8.03906 12C9.84649 12 10.6637 11.076 10.6861 9.7657C10.9983 9.33387 11.1619 8.75503 11.0925 8.19563C11.3235 7.76316 11.4127 7.25009 11.3032 6.7193ZM9.85594 7.98094C10.1503 8.47617 9.88547 9.13898 9.52922 9.33023C9.70969 10.4735 9.11653 10.8748 8.28422 10.8748H7.39781C5.71877 10.8748 4.63151 9.98836 3.375 9.98836V5.625H3.63094C4.29562 5.625 5.22422 3.96352 5.84672 3.34078C6.51141 2.67609 6.28992 1.5682 6.73312 1.125C7.84102 1.125 7.84102 1.89797 7.84102 2.45461C7.84102 3.37266 7.17633 3.78398 7.17633 4.67039H9.61359C10.1084 4.67039 10.4979 5.11359 10.5 5.5568C10.5021 5.99977 10.1995 6.44297 9.97805 6.44297C10.2942 6.7841 10.3617 7.50319 9.85594 7.98094ZM2.4375 10.125C2.4375 10.4357 2.18566 10.6875 1.875 10.6875C1.56434 10.6875 1.3125 10.4357 1.3125 10.125C1.3125 9.81434 1.56434 9.5625 1.875 9.5625C2.18566 9.5625 2.4375 9.81434 2.4375 10.125Z" fill="#004795"/>
</svg>