<svg width="12" height="12" viewBox="0 0 12 12" fill="none" xmlns="http://www.w3.org/2000/svg">
<path d="M11.3032 5.2807C11.4127 4.74991 11.3235 4.23684 11.0925 3.80438C11.1618 3.24497 10.9983 2.66613 10.6861 2.2343C10.6637 0.923977 9.84649 0 8.03906 0C7.875 0 7.6875 0.000234375 7.51828 0.000234375C5.09051 0.000234375 4.33587 0.9375 3.375 0.9375H3.12082C2.98863 0.820898 2.81515 0.75 2.625 0.75H1.125C0.710789 0.75 0.375 1.08579 0.375 1.5V7.125C0.375 7.53921 0.710789 7.875 1.125 7.875H2.625C2.90255 7.875 3.14473 7.72411 3.27441 7.5H3.43969C3.88842 7.89734 4.51812 8.92155 5.05125 9.45469C5.37157 9.77501 5.28921 12 6.73312 12C8.08266 12 8.96601 11.2515 8.96601 9.54539C8.96601 9.11391 8.87391 8.75484 8.75859 8.45461H9.61359C10.7527 8.45461 11.625 7.48043 11.625 6.44883C11.625 6 11.5087 5.62875 11.3032 5.2807ZM1.875 6.9375C1.56434 6.9375 1.3125 6.68566 1.3125 6.375C1.3125 6.06434 1.56434 5.8125 1.875 5.8125C2.18566 5.8125 2.4375 6.06434 2.4375 6.375C2.4375 6.68566 2.18566 6.9375 1.875 6.9375ZM9.61359 7.32961H7.17633C7.17633 8.21602 7.84102 8.62734 7.84102 9.54539C7.84102 10.102 7.84102 10.875 6.73312 10.875C6.28992 10.4318 6.51141 9.32391 5.84672 8.65922C5.22422 8.03648 4.29562 6.375 3.63094 6.375H3.375V2.01164C4.63151 2.01164 5.71877 1.12523 7.39781 1.12523H8.28422C9.11653 1.12523 9.70969 1.52648 9.52922 2.66977C9.88547 2.86102 10.1503 3.52383 9.85594 4.01906C10.3617 4.49681 10.2942 5.2159 9.97805 5.55703C10.1995 5.55703 10.5021 6.00023 10.5 6.4432C10.4979 6.88641 10.1084 7.32961 9.61359 7.32961Z" fill="#004795"/>
</svg>