<svg height='100px' width='100px'  fill="#ffffff" xmlns="http://www.w3.org/2000/svg" xmlns:xlink="http://www.w3.org/1999/xlink" version="1.1" x="0px" y="0px" viewBox="0 0 1024 1024" style="enable-background:new 0 0 1024 1024;" xml:space="preserve"><g><path d="M683,353.5c0,19.6-15.9,35.5-35.5,35.5h-271c-19.6,0-35.5-15.9-35.5-35.5v-271c0-19.6,15.9-35.5,35.5-35.5   h271c19.6,0,35.5,15.9,35.5,35.5V353.5z"></path><g><path d="M663,353.5c0,0.5,0,0.9,0,1.4c-0.2,2.3-0.1,1.8,0.3-1.2c0.2,0.2-0.6,2.9-0.7,3.3c-0.1,0.3-0.8,3.2-1,3.2    c0.3-0.8,0.7-1.6,1-2.3c-0.4,0.8-0.7,1.6-1.2,2.4c-0.4,0.8-0.9,1.5-1.3,2.3c-2,3.9,3-3,0,0.1c-0.8,0.8-1.5,1.6-2.2,2.4    c-0.5,0.5-0.9,0.9-1.4,1.3c-1.6,1.4-1.3,1.1,1-0.7c0-0.1-5.2,3.6-5.7,3.2c0.8-0.3,1.6-0.7,2.3-1c-0.8,0.3-1.7,0.6-2.5,0.8    c-0.9,0.2-1.7,0.4-2.6,0.6c-4.4,1.1,4.5,0-0.1-0.1c0.6,0-0.9,0-1.4,0c-0.1,0-0.2,0-0.3,0c-3.8,0.1-7.6,0-11.4,0    c-19.9,0-39.8,0-59.7,0c-53.6,0-107.1,0-160.7,0c-12.8,0-25.6,0.2-38.4,0c-0.2,0-0.3,0-0.5,0c-2,0-4.7-1.2-0.2,0.3    c-0.8-0.3-1.8-0.3-2.7-0.5c-0.3-0.1-3.9-0.9-3.8-1.1c2.7,1.2,3.1,1.4,1.1,0.5c-0.4-0.2-0.8-0.4-1.2-0.6c-0.3-0.1-3.4-1.9-3.3-2    c0.7,0.5,1.3,1,2,1.6c-0.7-0.5-1.3-1.1-2-1.7c-0.6-0.6-1.2-1.2-1.8-1.8c-0.3-0.3-0.6-0.6-0.9-1c-1.4-1.6-1.1-1.3,0.7,1    c-0.3,0.1-3.3-5.5-3.2-5.7c-0.2,0.3,1.4,4.3,0.4,0.4c-0.1-0.5-1.4-4.3-1-4.6c0.1,0.9,0.3,1.7,0.4,2.6c-0.1-0.9-0.1-1.8-0.1-2.8    c0,0,0,0,0,0c0-0.1,0-0.1,0-0.2c0-0.5,0-1,0-1.5c0-1.9,0-3.7,0-5.6c0-45.9,0-91.8,0-137.6c0-41.3,0-82.6,0-123.9    c0-1.2,0.1-2.3,0-3.5c-0.1-4.1,0,1.4-0.3,1.2c-0.3-0.2,0.8-3.6,0.8-3.9c0.1-0.4,0.3-0.9,0.4-1.3c0.7-2,0.5-1.7-0.6,1.1    c-0.1-0.1,1.2-2.5,1.2-2.4c0.1-0.3,1.9-3.4,2-3.3c0.3,0.1-2.9,3.2-0.7,1c0.9-0.9,1.7-1.9,2.7-2.8c3.6-3.3-0.1-0.3,0-0.1    c-0.1-0.2,3.1-1.9,3.3-2c0.4-0.2,0.8-0.4,1.2-0.6c2-0.9,1.6-0.7-1.1,0.5c0-0.2,6.3-2,6.5-1.6c0.2,0.3-4.5,0.3-1.2,0.3    c-0.6,0,1,0,1.4,0c0.1,0,0.2,0,0.3,0c1.3,0,2.6,0,3.9,0c16.4,0,32.9,0,49.3,0c54.1,0,108.2,0,162.4,0c16.9,0,33.8,0,50.6,0    c1.3,0,2.7,0,4,0c0.6,0,1.3,0,1.9,0c3.3-0.1-1.5,0-1.2-0.3c0.2-0.3,3.6,0.7,3.9,0.8c-0.2-0.1,2.5,0.7,2.5,0.8    c-2.7-1.2-3.1-1.4-1.1-0.5c0.8,0.4,1.6,0.8,2.3,1.2c-0.2-0.1,2.2,1.3,2.2,1.4c-0.7-0.5-1.3-1-2-1.6c0.7,0.5,1.3,1.1,2,1.7    c1,0.9,1.8,1.9,2.7,2.8c2.1,2.2-1-0.8-0.7-1c0,0,3.5,5.2,3.2,5.7c-0.3-0.8-0.7-1.6-1-2.3c0.3,0.8,0.6,1.7,0.8,2.5    c0.2,0.9,0.4,1.7,0.6,2.6c0.3,1.8,0.3,1.8,0,0c-0.1-0.4-0.1-0.9-0.2-1.3c0.1,0.9,0.1,1.8,0.1,2.8c0,0,0,0,0,0c0,0.1,0,0.2,0,0.3    c0,0.5,0,0.9,0,1.4c0.1,40.8,0,81.5,0,122.3c0,46.3,0,92.6,0,138.9C663,348.1,663,350.8,663,353.5c0,10.5,9.2,20.5,20,20    c10.8-0.5,20-8.8,20-20c0-36.7,0-73.4,0-110.2c0-49.7,0-99.4,0-149.1c0-3.8,0.1-7.6,0-11.5c-0.3-23.9-15.1-44.6-37.6-52.7    c-13.4-4.8-29.9-3-44-3c-53.6,0-107.1,0-160.7,0c-22.4,0-44.8,0-67.3,0c-5.1,0-10.3,0-15.4,0c-16.4,0.1-32.8,6.4-43.4,19.2    C325.3,57.4,321,70.5,321,85c0,5.8,0,11.6,0,17.4c0,23,0,46,0,69c0,53,0,106,0,159c0,17.4-1.6,35.3,7.6,51    c10.1,17.2,28.8,27.4,48.6,27.5c4.6,0,9.2,0,13.8,0c50.4,0,100.8,0,151.3,0c25.1,0,50.3,0,75.4,0c13.4,0,27.4,1.2,40.7-1.1    c26-4.5,44.2-28.6,44.7-54.4c0.2-10.5-9.3-20.5-20-20C672,334,663.2,342.3,663,353.5z"></path></g></g><g><path d="M406,941.5c0,19.6-15.9,35.5-35.5,35.5h-271C79.9,977,64,961.1,64,941.5v-271c0-19.6,15.9-35.5,35.5-35.5   h271c19.6,0,35.5,15.9,35.5,35.5V941.5z"></path><g><path d="M386,941.5c0,0.5,0,0.9,0,1.4c-0.2,2.3-0.1,1.8,0.3-1.2c0.2,0.2-0.6,2.9-0.7,3.3c-0.1,0.3-0.8,3.2-1,3.2    c0.3-0.8,0.7-1.6,1-2.3c-0.4,0.8-0.7,1.6-1.2,2.4c-0.4,0.8-0.9,1.5-1.3,2.3c-2,3.9,3-3,0,0.1c-0.8,0.8-1.5,1.6-2.2,2.4    c-0.5,0.5-0.9,0.9-1.4,1.3c-1.6,1.4-1.3,1.1,1-0.7c0-0.1-5.2,3.6-5.7,3.2c0.8-0.3,1.6-0.7,2.3-1c-0.8,0.3-1.7,0.6-2.5,0.8    c-0.9,0.2-1.7,0.4-2.6,0.6c-4.4,1.1,4.5,0-0.1-0.1c0.6,0-0.9,0-1.4,0c-0.1,0-0.2,0-0.3,0c-3.8,0.1-7.6,0-11.4,0    c-19.9,0-39.8,0-59.7,0c-53.6,0-107.1,0-160.7,0c-12.8,0-25.6,0.2-38.4,0c-0.2,0-0.3,0-0.5,0c-2,0-4.7-1.2-0.2,0.3    c-0.8-0.3-1.8-0.3-2.7-0.5c-0.3-0.1-3.9-0.9-3.8-1.1c2.7,1.2,3.1,1.4,1.1,0.5c-0.4-0.2-0.8-0.4-1.2-0.6c-0.3-0.1-3.4-1.9-3.3-2    c0.7,0.5,1.3,1,2,1.6c-0.7-0.5-1.3-1.1-2-1.7c-0.6-0.6-1.2-1.2-1.8-1.8c-0.3-0.3-0.6-0.6-0.9-1c-1.4-1.6-1.1-1.3,0.7,1    c-0.3,0.1-3.3-5.5-3.2-5.7c-0.2,0.3,1.4,4.3,0.4,0.4c-0.1-0.5-1.4-4.3-1-4.6c0.1,0.9,0.3,1.7,0.4,2.6c-0.1-0.9-0.1-1.8-0.1-2.8    c0,0,0,0,0,0c0-0.1,0-0.1,0-0.2c0-0.5,0-1,0-1.5c0-1.9,0-3.7,0-5.6c0-45.9,0-91.8,0-137.6c0-41.3,0-82.6,0-123.9    c0-1.2,0.1-2.3,0-3.5c-0.1-4.1,0,1.4-0.3,1.2c-0.3-0.2,0.8-3.6,0.8-3.9c0.1-0.4,0.3-0.9,0.4-1.3c0.7-2,0.5-1.7-0.6,1.1    c-0.1-0.1,1.2-2.5,1.2-2.4c0.1-0.3,1.9-3.4,2-3.3c0.3,0.1-2.9,3.2-0.7,1c0.9-0.9,1.7-1.9,2.7-2.8c3.6-3.3-0.1-0.3,0-0.1    c-0.1-0.2,3.1-1.9,3.3-2c0.4-0.2,0.8-0.4,1.2-0.6c2-0.9,1.6-0.7-1.1,0.5c0-0.2,6.3-2,6.5-1.6c0.2,0.3-4.5,0.3-1.2,0.3    c-0.6,0,1,0,1.4,0c0.1,0,0.2,0,0.3,0c1.3,0,2.6,0,3.9,0c16.4,0,32.9,0,49.3,0c54.1,0,108.2,0,162.4,0c16.9,0,33.8,0,50.6,0    c1.3,0,2.7,0,4,0c0.6,0,1.3,0,1.9,0c3.3-0.1-1.5,0-1.2-0.3c0.2-0.3,3.6,0.7,3.9,0.8c-0.2-0.1,2.5,0.7,2.5,0.8    c-2.7-1.2-3.1-1.4-1.1-0.5c0.8,0.4,1.6,0.8,2.3,1.2c-0.2-0.1,2.2,1.3,2.2,1.4c-0.7-0.5-1.3-1-2-1.6c0.7,0.5,1.3,1.1,2,1.7    c1,0.9,1.8,1.9,2.7,2.8c2.1,2.2-1-0.8-0.7-1c0,0,3.5,5.2,3.2,5.7c-0.3-0.8-0.7-1.6-1-2.3c0.3,0.8,0.6,1.7,0.8,2.5    c0.2,0.9,0.4,1.7,0.6,2.6c0.3,1.8,0.3,1.8,0,0c-0.1-0.4-0.1-0.9-0.2-1.3c0.1,0.9,0.1,1.8,0.1,2.8c0,0,0,0,0,0c0,0.1,0,0.2,0,0.3    c0,0.5,0,0.9,0,1.4c0.1,40.8,0,81.5,0,122.3c0,46.3,0,92.6,0,138.9C386,936.1,386,938.8,386,941.5c0,10.5,9.2,20.5,20,20    c10.8-0.5,20-8.8,20-20c0-36.7,0-73.4,0-110.2c0-49.7,0-99.4,0-149.1c0-3.8,0.1-7.6,0-11.5c-0.3-23.9-15.1-44.6-37.6-52.7    c-13.4-4.8-29.9-3-44-3c-53.6,0-107.1,0-160.7,0c-22.4,0-44.8,0-67.3,0c-5.1,0-10.3,0-15.4,0c-16.4,0.1-32.8,6.4-43.4,19.2    C48.3,645.4,44,658.5,44,673c0,5.8,0,11.6,0,17.4c0,23,0,46,0,69c0,53,0,106,0,159c0,17.4-1.6,35.3,7.6,51    c10.1,17.2,28.8,27.4,48.6,27.5c4.6,0,9.2,0,13.8,0c50.4,0,100.8,0,151.3,0c25.1,0,50.3,0,75.4,0c13.4,0,27.4,1.2,40.7-1.1    c26-4.5,44.2-28.6,44.7-54.4c0.2-10.5-9.3-20.5-20-20C395,922,386.2,930.3,386,941.5z"></path></g></g><g><path d="M960,941.5c0,19.6-15.9,35.5-35.5,35.5h-271c-19.6,0-35.5-15.9-35.5-35.5v-271c0-19.6,15.9-35.5,35.5-35.5   h271c19.6,0,35.5,15.9,35.5,35.5V941.5z"></path><g><path d="M940,941.5c0,0.5,0,0.9,0,1.4c-0.2,2.3-0.1,1.8,0.3-1.2c0.2,0.2-0.6,2.9-0.7,3.3c-0.1,0.3-0.8,3.2-1,3.2    c0.3-0.8,0.7-1.6,1-2.3c-0.4,0.8-0.7,1.6-1.2,2.4c-0.4,0.8-0.9,1.5-1.3,2.3c-2,3.9,3-3,0,0.1c-0.8,0.8-1.5,1.6-2.2,2.4    c-0.5,0.5-0.9,0.9-1.4,1.3c-1.6,1.4-1.3,1.1,1-0.7c0-0.1-5.2,3.6-5.7,3.2c0.8-0.3,1.6-0.7,2.3-1c-0.8,0.3-1.7,0.6-2.5,0.8    c-0.9,0.2-1.7,0.4-2.6,0.6c-4.4,1.1,4.5,0-0.1-0.1c0.6,0-0.9,0-1.4,0c-0.1,0-0.2,0-0.3,0c-3.8,0.1-7.6,0-11.4,0    c-19.9,0-39.8,0-59.7,0c-53.6,0-107.1,0-160.7,0c-12.8,0-25.6,0.2-38.4,0c-0.2,0-0.3,0-0.5,0c-2,0-4.7-1.2-0.2,0.3    c-0.8-0.3-1.8-0.3-2.7-0.5c-0.3-0.1-3.9-0.9-3.8-1.1c2.7,1.2,3.1,1.4,1.1,0.5c-0.4-0.2-0.8-0.4-1.2-0.6c-0.3-0.1-3.4-1.9-3.3-2    c0.7,0.5,1.3,1,2,1.6c-0.7-0.5-1.3-1.1-2-1.7c-0.6-0.6-1.2-1.2-1.8-1.8c-0.3-0.3-0.6-0.6-0.9-1c-1.4-1.6-1.1-1.3,0.7,1    c-0.3,0.1-3.3-5.5-3.2-5.7c-0.2,0.3,1.4,4.3,0.4,0.4c-0.1-0.5-1.4-4.3-1-4.6c0.1,0.9,0.3,1.7,0.4,2.6c-0.1-0.9-0.1-1.8-0.1-2.8    c0,0,0,0,0,0c0-0.1,0-0.1,0-0.2c0-0.5,0-1,0-1.5c0-1.9,0-3.7,0-5.6c0-45.9,0-91.8,0-137.6c0-41.3,0-82.6,0-123.9    c0-1.2,0.1-2.3,0-3.5c-0.1-4.1,0,1.4-0.3,1.2c-0.3-0.2,0.8-3.6,0.8-3.9c0.1-0.4,0.3-0.9,0.4-1.3c0.7-2,0.5-1.7-0.6,1.1    c-0.1-0.1,1.2-2.5,1.2-2.4c0.1-0.3,1.9-3.4,2-3.3c0.3,0.1-2.9,3.2-0.7,1c0.9-0.9,1.7-1.9,2.7-2.8c3.6-3.3-0.1-0.3,0-0.1    c-0.1-0.2,3.1-1.9,3.3-2c0.4-0.2,0.8-0.4,1.2-0.6c2-0.9,1.6-0.7-1.1,0.5c0-0.2,6.3-2,6.5-1.6c0.2,0.3-4.5,0.3-1.2,0.3    c-0.6,0,1,0,1.4,0c0.1,0,0.2,0,0.3,0c1.3,0,2.6,0,3.9,0c16.4,0,32.9,0,49.3,0c54.1,0,108.2,0,162.4,0c16.9,0,33.8,0,50.6,0    c1.3,0,2.7,0,4,0c0.6,0,1.3,0,1.9,0c3.3-0.1-1.5,0-1.2-0.3c0.2-0.3,3.6,0.7,3.9,0.8c-0.2-0.1,2.5,0.7,2.5,0.8    c-2.7-1.2-3.1-1.4-1.1-0.5c0.8,0.4,1.6,0.8,2.3,1.2c-0.2-0.1,2.2,1.3,2.2,1.4c-0.7-0.5-1.3-1-2-1.6c0.7,0.5,1.3,1.1,2,1.7    c1,0.9,1.8,1.9,2.7,2.8c2.1,2.2-1-0.8-0.7-1c0,0,3.5,5.2,3.2,5.7c-0.3-0.8-0.7-1.6-1-2.3c0.3,0.8,0.6,1.7,0.8,2.5    c0.2,0.9,0.4,1.7,0.6,2.6c0.3,1.8,0.3,1.8,0,0c-0.1-0.4-0.1-0.9-0.2-1.3c0.1,0.9,0.1,1.8,0.1,2.8c0,0,0,0,0,0c0,0.1,0,0.2,0,0.3    c0,0.5,0,0.9,0,1.4c0.1,40.8,0,81.5,0,122.3c0,46.3,0,92.6,0,138.9C940,936.1,940,938.8,940,941.5c0,10.5,9.2,20.5,20,20    c10.8-0.5,20-8.8,20-20c0-36.7,0-73.4,0-110.2c0-49.7,0-99.4,0-149.1c0-3.8,0.1-7.6,0-11.5c-0.3-23.9-15.1-44.6-37.6-52.7    c-13.4-4.8-29.9-3-44-3c-53.6,0-107.1,0-160.7,0c-22.4,0-44.8,0-67.3,0c-5.1,0-10.3,0-15.4,0c-16.4,0.1-32.8,6.4-43.4,19.2    c-9.3,11.2-13.7,24.3-13.7,38.8c0,5.8,0,11.6,0,17.4c0,23,0,46,0,69c0,53,0,106,0,159c0,17.4-1.6,35.3,7.6,51    c10.1,17.2,28.8,27.4,48.6,27.5c4.6,0,9.2,0,13.8,0c50.4,0,100.8,0,151.3,0c25.1,0,50.3,0,75.4,0c13.4,0,27.4,1.2,40.7-1.1    c26-4.5,44.2-28.6,44.7-54.4c0.2-10.5-9.3-20.5-20-20C949,922,940.2,930.3,940,941.5z"></path></g></g><g><g><path d="M262,635c0-11.7,0-23.3,0-35c0-12.4-1-25.3,0.7-37.7c-0.4,2.7-0.7,5.3-1.1,8c0.9-5.8,2.5-11.3,4.7-16.7    c-1,2.4-2,4.8-3,7.2c1.6-3.6,3.4-7.1,5.6-10.4c0.6-0.9,1.3-1.8,1.9-2.7c1.5-2.6-5.2,6.1-1.9,2.5c1.3-1.4,2.6-2.9,4-4.3    c1.4-1.4,2.9-2.6,4.3-4c3.1-2.8-3,2.4-3,2.3c0-0.3,2.4-1.7,2.7-1.9c3.5-2.3,7.1-4.3,10.9-6c-2.4,1-4.8,2-7.2,3    c5.4-2.3,10.9-3.8,16.7-4.7c-2.7,0.4-5.3,0.7-8,1.1c6.4-0.9,12.8-0.7,19.2-0.7c10.1,0,20.1,0,30.2,0c34.3,0,68.6,0,103,0    c41.9,0,83.8,0,125.7,0c36,0,71.9,0,107.9,0c16.5,0,33-0.1,49.4,0c3.3,0,6.6,0.2,9.9,0.7c-2.7-0.4-5.3-0.7-8-1.1    c5.8,0.9,11.3,2.5,16.7,4.7c-2.4-1-4.8-2-7.2-3c3.6,1.6,7.1,3.4,10.4,5.6c0.9,0.6,1.8,1.3,2.7,1.9c2.6,1.5-6.1-5.2-2.5-1.9    c1.4,1.3,2.9,2.6,4.3,4c1.4,1.4,2.6,2.9,4,4.3c2.8,3.1-2.4-3-2.3-3c0.3,0,1.7,2.4,1.9,2.7c2.3,3.5,4.3,7.1,6,10.9    c-1-2.4-2-4.8-3-7.2c2.3,5.4,3.8,10.9,4.7,16.7c-0.4-2.7-0.7-5.3-1.1-8c1.7,12.3,0.7,25.3,0.7,37.7c0,11.7,0,23.3,0,35    c0,15.7,13.8,30.7,30,30c16.3-0.7,30-13.2,30-30c0-11,0-22,0-33c0-11.3,0.6-22.9-0.1-34.2c-1.9-31.4-17.4-58.1-42.8-76.3    c-15.7-11.2-35.7-16.5-54.8-16.6c-35.7-0.1-71.4,0-107.1,0c-62.9,0-125.8,0-188.7,0c-41.7,0-83.3,0-125,0    c-8.4,0-16.6,0.7-24.9,2.2c-27,5-52.2,24.3-64.9,48.5c-9.1,17.3-11.8,35.6-11.8,54.9c0,14.8,0,29.6,0,44.4c0,3.3,0,6.7,0,10    c0,15.7,13.8,30.7,30,30C248.3,664.3,262,651.8,262,635L262,635z"></path></g></g><g><g><path d="M542,505c0-33.8,0-67.6,0-101.5c0-4.8,0-9.7,0-14.5c0-15.7-13.8-30.7-30-30c-16.3,0.7-30,13.2-30,30    c0,33.8,0,67.6,0,101.5c0,4.8,0,9.7,0,14.5c0,15.7,13.8,30.7,30,30C528.3,534.3,542,521.8,542,505L542,505z"></path></g></g></svg>