<svg xmlns="http://www.w3.org/2000/svg" height="35" width="157" viewBox="0 0 320.22 71.29"><defs><style>.cls-1{fill:#fff;}.cls-2{fill:#194072;}</style></defs><g id="Layer_2"><g id="Layer_1-2"><path class="cls-1" d="M121.53,0a35.65,35.65,0,1,0,35.64,35.64A35.65,35.65,0,0,0,121.53,0Z"/><path class="cls-2" d="M129.56,40.38a3,3,0,0,0,1.07,2.6,2.59,2.59,0,0,1,.82,1.63c.38,0,.52,0,.94,0,.94,0,.62,1.05-.14,1.2.11.45-.45.63-.68.69,0,0,0,.46-.76.46,0,.24-.48.47-1,.32,0,0-.17.49-1,.36a.93.93,0,0,1-1.11-.08s-.53.6-1.26-.19S125,45.13,124,44.58l-2.4,1.82a1,1,0,0,0-.1-.43L123,44.81a1.5,1.5,0,0,1-.11-1,2.71,2.71,0,0,1,1.26.51c.67-.09.8-.7.8-1.42,0-.45.23-.92.77-.86-1-.58-2-2-3.27-3.35l-1-.93a8.12,8.12,0,0,0-1.32-.94,4.6,4.6,0,0,1,.61.25c-.7-.69-1.29-1.3-1.63-1.7-1.06-1.25-3.6-1.69-5.78-1.59l0,.05a4.4,4.4,0,0,0-3.71,2.44c0,.09.19.29.14.43.85-1.52,2.67-2.64,6.34-2.24a2.6,2.6,0,0,1-.22.62A2.3,2.3,0,0,1,115.5,38c-.47.48-.91.48-1.12,1a3.72,3.72,0,0,0-2-.29c-.08,0-.14.19-.19.27a3.39,3.39,0,0,1,2.67,1.17,4.88,4.88,0,0,0,3,1.87s.42.13.57,1a2.45,2.45,0,0,0,.29,1c-.28.27-.84.79-1.07.81-.77.06-.85,0-1.28.48s-1.07,1.07-1,1.43a.85.85,0,0,0,.08.31h0c-.86.55-1.46,1.17-1,1.47S116,49,115.81,50c-.41.14-.84.26-1.27.36a1.41,1.41,0,0,0-.91-.84c-.43-.14.16-.89-.69-1.77s.42-1.23,1.33-1.53-.19-1.17,2.51-1.71l-1.24-1.29c-3.19.67-1.86,1.9-3.78,2.73-1,.44-.58,1.69.32,2.41a1.53,1.53,0,0,1,.53,1.45c0,.22.86.19.89.77-.39.07-.78.13-1.18.18-.2-.78-.9-.75-1-1.06-.22-1-.94-1.5-1-1.84s.15-.46.17-1.8.71-.78.93-1.68,1-1.88,3-2.32l-1.34-1.41c-.59.26-2.14.93-2.41,1.77s-1.53.43-1.24,3.16c-1.71-2.33-.67-2.24-.64-3.53,0-1.12,1.28-1.38,1.28-1.38a2.4,2.4,0,0,1-.34-2.89,2.16,2.16,0,0,1,0-.61l-9.12-9.5c-.19,1.18.16,2.08,0,3.44-.08.95-.75,2.1-.46,3.85.83,4.92-1.71,3.58,2.2,11.38,1.09,2.18,1.45,1.1,3.49,4.21,1.44,2.21,4.45,2.25,5.49,2a4.89,4.89,0,0,0,4.2-.68c-1,.79-1,.58-1.52,1.34-.83,1.19-.26,2.85-.47,4,.43-.25,2.18-1.31,2.59-1.46,0,0,0-.31.08-1.08a.69.69,0,0,1,.84-.72c.35,0,.63.23.6.89s-.3,3.3-.3,3.3a3.74,3.74,0,0,1-1.4-.14l0,.23c0,.37,1.41.48,1.81.29,0,0,.12-1.25.12-1.59a2.21,2.21,0,0,0,1.2,1.1,3,3,0,0,1,1.61-1.25s0-.14,0-.37c.06-1.16,1.78-2.3,2-3l.46.62c-.21,1.87-2.36,1.9-2.94,4.7a4.35,4.35,0,0,1,1,1c.8-2.29,3-3,3.41-6a12.27,12.27,0,0,1-2.28-2.86c.19,2,.11,1.71-1.43,3.05,0-1.33.15-1.63.27-1.76a2.31,2.31,0,0,0,.5-2.48c-.31-.6-.58-1.17-.79-1.66.67.62,2.26,3.65,3.75,5s4.5.58,6,1,6.64-1.6,7.57-5.17c.53-2.07,1.43-2.92,2.11-4.15a8.34,8.34,0,0,0,.93-4.15c.13-7.27,1.39-5.18,1.45-10.06Z"/><path class="cls-2" d="M111.29,40.88A1.93,1.93,0,0,1,110,38.17c.8.5,1.24.28,2.07-.18s1.35-.38,1.44,0a3.42,3.42,0,0,0-1.79,2.34,1.7,1.7,0,0,1,.6-2A1.64,1.64,0,0,0,111.29,40.88Z"/><path class="cls-2" d="M112.35,37.15a1.64,1.64,0,0,1,.48-.28c-1.1-.22-1.25,1-2,1.08a.84.84,0,0,0,1-.28c.32,0,.72-.19.48-.51Z"/><path class="cls-2" d="M100.53,26.72c.2-.16.51.06.63-.14s-.19-.48-.69-.52-.87-.58-1-.48.37.62.4,1.08.21.83.48.69S100.32,26.89,100.53,26.72Z"/><path class="cls-2" d="M142.9,29.53c-.17-.19-.51,0-.59-.24s.26-.45.75-.4.95-.45,1.07-.33-.47.56-.57,1-.33.78-.58.6S143.08,29.73,142.9,29.53Z"/><polygon class="cls-2" points="117.91 45.1 112.83 39.8 113.18 39.65 118.28 44.96 117.91 45.1"/><polygon class="cls-2" points="109.89 36.75 100.27 26.72 100.53 26.46 110.03 36.38 109.89 36.75"/><polygon class="cls-2" points="126.22 42.4 143.16 29.56 142.94 29.28 125.91 42.19 126.22 42.4"/><path class="cls-1" d="M111.72,40.33a1.7,1.7,0,0,1,.6-2,1.79,1.79,0,0,0-1.23,1.18A1.55,1.55,0,0,0,111.72,40.33Z"/><path class="cls-2" d="M130.65,44.43c-.41-1.29-1.83-1.23-2.31-3,0-.07-.1,0-.1,0l-1.56,1.17s0,.06,0,.08a14.55,14.55,0,0,0,3.9,1.9C130.69,44.53,130.71,44.49,130.65,44.43Z"/><path class="cls-1" d="M104.16,45.69a5.35,5.35,0,0,1,1.65.4,14.52,14.52,0,0,1,1.2,2.13c1,3.17,3.21,1.84,3.65,2.85-1.36.64-3.06.52-4.57-2.29C105.24,47.22,104.6,46.89,104.16,45.69Z"/><path class="cls-1" d="M107.61,46.44c.24.54.27,1.34.43,1.55a9.88,9.88,0,0,0,2.22,2.06C110.2,48.69,109,46.65,107.61,46.44Z"/><path class="cls-1" d="M102.7,32.76a2.89,2.89,0,0,0-.19.62,5.42,5.42,0,0,0-.54-.08c0,.13.5.5.45.57a.76.76,0,0,0-.1.69s.23-.37.41-.41a.85.85,0,0,0,.37.34l0-.53s.15-.3.33-.37a.92.92,0,0,0-.47-.21Z"/><path class="cls-1" d="M101.71,35.83a2.4,2.4,0,0,0,0,.64,5.37,5.37,0,0,0-.55-.24l.42.68a4.88,4.88,0,0,0,0,.74s.21-.25.33-.28l.35.4a4.9,4.9,0,0,0-.09-.66.5.5,0,0,1,.34-.12l-.51-.33A7.51,7.51,0,0,1,101.71,35.83Z"/><path class="cls-1" d="M102.36,38.69l0,.43-.55.17s.06.09.36.11c0,0,.14,0,.17.12s-.06.57,0,.9c0,0,.18-.43.29-.47a1,1,0,0,0,.38.28,2.34,2.34,0,0,0-.09-.43.36.36,0,0,1,.3-.13s.07-.05,0-.15a4.17,4.17,0,0,0-.45-.32A3.93,3.93,0,0,0,102.36,38.69Z"/><path class="cls-1" d="M102.57,42l.6.12.23.84a1.88,1.88,0,0,0,.24-.5,3.15,3.15,0,0,0,.47.14,2.41,2.41,0,0,0-.39-.64,1.77,1.77,0,0,1,.16-.6c-.24-.09-.33.16-.49.15L103,41l0,.63A2,2,0,0,0,102.57,42Z"/><path class="cls-1" d="M104.91,42.9l-.1.51h-.52l.49.32a1.52,1.52,0,0,0-.12.48,2.93,2.93,0,0,1,.43-.29s.08,0,.27.21a.78.78,0,0,0,.3.17,1.53,1.53,0,0,1-.1-.26,1.36,1.36,0,0,0-.14-.28s.18-.22.33-.21c0,0-.06-.07-.6-.14Z"/><path class="cls-1" d="M106.19,44.21l.06.3-.3-.06a1.1,1.1,0,0,0,.37.27,2.2,2.2,0,0,0,.17.54s0-.27.08-.3a3.34,3.34,0,0,1,.35.29c0-.13-.24-.37-.26-.43s.18,0,.19-.07a2.36,2.36,0,0,0-.36-.2S106.21,44.17,106.19,44.21Z"/><path class="cls-1" d="M106.89,43.33h-.47a2.42,2.42,0,0,0,.46.45,1.73,1.73,0,0,0,.05.6c.06.05.27-.37.35-.34s.45.17.45.17l-.21-.42a1.68,1.68,0,0,0,.21-.32,1.41,1.41,0,0,0-.46-.13l-.28-.42Z"/><path class="cls-1" d="M107.7,42.66s-.1-.29-.15-.32a1.4,1.4,0,0,0,0-.39l-.14.2a1.21,1.21,0,0,0-.38-.33,3.32,3.32,0,0,1,.21.39l-.11.08.31.09S107.62,42.67,107.7,42.66Z"/><path class="cls-1" d="M106.55,40.51a4.77,4.77,0,0,0,.84,1,3.91,3.91,0,0,0,0-.41,1.64,1.64,0,0,0,.23-.07,1.22,1.22,0,0,1,.28-.07,1.06,1.06,0,0,0-.52-.17l-.08-.36-.19.27A1.05,1.05,0,0,1,106.55,40.51Z"/><path class="cls-1" d="M107.81,39.44a1.65,1.65,0,0,0-.13-.69s.24-.17.27-.35h-.52a4.49,4.49,0,0,0-.32-.43,2.33,2.33,0,0,1-.07.51h-.45a1.93,1.93,0,0,0,.43.37,3,3,0,0,0-.11.68l.46-.4A1.1,1.1,0,0,1,107.81,39.44Z"/><path class="cls-1" d="M107.45,37.24a2.39,2.39,0,0,0-.46-.54l.19-.65-.53.29a1.47,1.47,0,0,0-.38-.3l.07.53a4.38,4.38,0,0,0-.37.34l.42.13.08.61a3.1,3.1,0,0,1,.32-.54A2.69,2.69,0,0,1,107.45,37.24Z"/><path class="cls-1" d="M104.93,34.35a3.25,3.25,0,0,1,.17.56s-.3.45-.36.5.35,0,.47,0,.12.44.17.55.15-.35.25-.54a.81.81,0,0,0,.28,0,.79.79,0,0,1,.31,0,3.08,3.08,0,0,0-.49-.55l0-.7a1.69,1.69,0,0,0-.36.4A1.77,1.77,0,0,0,104.93,34.35Z"/><path class="cls-1" d="M104,32.74a2.52,2.52,0,0,0,0,.58,1.37,1.37,0,0,0-.28.28,1.18,1.18,0,0,1-.3.27.59.59,0,0,0,.49.1l.06.61.33-.61a.88.88,0,0,1,.41.31,3.06,3.06,0,0,0-.15-.71.71.71,0,0,1,.42-.52,3.51,3.51,0,0,0-.59.08,3.39,3.39,0,0,0-.31-.41S104,32.63,104,32.74Z"/><polygon class="cls-1" points="134.21 37.12 134.08 37.69 133.52 38.1 133.95 38.26 133.99 39 134.27 38.4 134.84 38.28 134.64 37.91 134.94 37.22 134.4 37.49 134.21 37.12"/><polygon class="cls-1" points="136.64 35.3 136.53 35.73 136.04 36.05 136.5 36.31 136.39 36.69 136.71 36.19 137.23 36.36 137.01 35.79 137.28 35.34 136.86 35.48 136.64 35.3"/><polygon class="cls-1" points="131.34 39.69 131.12 40.19 130.39 40.48 131 40.72 131.05 41.41 131.52 40.88 132.17 40.88 131.83 40.44 132.2 39.95 131.65 40.02 131.34 39.69"/><polygon class="cls-1" points="133.41 39.56 133.3 40.03 132.76 40.35 133.31 40.33 133.16 41.04 133.5 40.4 134.15 40.29 133.85 40.01 134.21 39.52 133.69 39.74 133.41 39.56"/><polygon class="cls-1" points="136.11 37.28 136.05 37.72 135.66 38.01 135.91 38.04 135.83 38.23 136.32 37.9 136.4 37.72 136.64 37.36 136.24 37.45 136.11 37.28"/><path class="cls-1" d="M132.43,42l-.19.66-.54.36h.39l-.07.53.27-.5s.35-.06.48.06l-.23-.42.26-.51-.33.25Z"/><path class="cls-1" d="M132.72,43.47l-.36.4s.1,0,.08.16a1.87,1.87,0,0,1-.32.49l.48-.52a1.7,1.7,0,0,0,.54,0l-.35-.25s.53-.32.55-.46A1.58,1.58,0,0,1,132.72,43.47Z"/><polygon class="cls-1" points="133.69 43.61 134.12 43.77 134.16 44.16 134.44 43.62 134.75 43.51 134.45 43.52 134.22 43.05 134.07 43.42 133.69 43.61"/><polygon class="cls-1" points="135.19 44.55 135.21 44.02 135.71 43.64 135.11 43.7 135.16 43.32 134.8 43.81 134.44 44.25 134.96 44.08 135.19 44.55"/><path class="cls-1" d="M134.14,41.47l.65-.4.35.34,0-.59.55-.41-.65.05,0-.53-.28.55a1.4,1.4,0,0,0-.56.12.64.64,0,0,1,.33.14Z"/><path class="cls-1" d="M135.36,39.48l.42-.19.27.19,0-.45.44-.33-.4,0,.05-.38a3.28,3.28,0,0,0-.54.66Z"/><path class="cls-1" d="M137.5,37.62l.29-.65.64-.3-.55,0,.38-.54s-.54.64-.77.87a2.15,2.15,0,0,1-.44.37l.41-.17Z"/><polygon class="cls-1" points="137.54 38.02 137.43 38.44 136.87 38.95 137.29 38.82 137.39 39.47 137.58 38.81 138.03 38.77 137.83 38.45 138.11 38.25 137.65 38.37 137.54 38.02"/><polygon class="cls-1" points="134.07 45.26 133.77 45.66 133.25 45.84 133.57 46.03 133.4 46.54 133.85 46.16 134.21 46.36 134.09 45.85 134.63 45.53 134.12 45.61 134.07 45.26"/><path class="cls-1" d="M132.88,47s-.6.41-.68.65l-.38.19.2-.32-.36.05.6-.35.27-.56-.11.48Z"/><path class="cls-1" d="M130.45,48.68l-.58.27-.62.16.28.09.07.25.44-.33.36-.1A.27.27,0,0,1,130.45,48.68Z"/><polygon class="cls-1" points="131.17 47.9 130.81 48.05 130.71 48.38 130.6 48.11 130.36 48.04 130.68 47.88 131.17 47.9"/><polygon class="cls-2" points="133.83 46.89 133.69 47.16 133.33 47.31 133.51 47.04 133.83 46.89"/><path class="cls-1" d="M134.66,45.88l.3.34a3.88,3.88,0,0,0-.36.79l.6-.41.35.34,0-.68.61-.46-.56.07a.6.6,0,0,0-.07-.5l-.38.54Z"/><path class="cls-1" d="M136.3,44.75l.54-.32a1.82,1.82,0,0,1,.39.4l0-.59.5-.37-.52-.12.07-.53-.47.52-.53-.07.34.39Z"/><path class="cls-1" d="M138.22,45.21l.44-.72-.08.63.58.07-.56.46a1.41,1.41,0,0,0-.08.88l-.47-.51-.62.26.42-.54-.34-.48Z"/><path class="cls-1" d="M138.49,43.24l.67-.5s.37.5.58.43l-.24-.76L140,42l-.6.06-.17-.56-.24.65-.67.21.51.21Z"/><polygon class="cls-1" points="136.61 42.54 136.93 42.01 137.4 42.21 137.23 41.7 137.59 41.21 137.17 41.4 136.99 40.93 136.75 41.58 136.26 41.86 136.62 41.91 136.61 42.54"/><polygon class="cls-1" points="138.12 42.01 138.22 41.43 138.8 41.08 138.31 41.02 138.25 40.42 137.97 40.97 137.64 40.87 137.87 41.32 137.62 41.7 137.94 41.61 138.12 42.01"/><polygon class="cls-1" points="139.13 40.44 139.68 40.08 139.91 40.26 140.01 39.88 140.34 39.58 139.95 39.57 140.02 39.05 139.65 39.63 139.03 39.79 139.46 39.9 139.13 40.44"/><path class="cls-1" d="M138.58,39.83l.11-.48.41-.09-.29-.38,0-.53-.48.61-.38.59.42-.19A1,1,0,0,0,138.58,39.83Z"/><path class="cls-1" d="M140,38.26l0-.45.56-.46-.56.07v-.29l-.45.38-.62.16.42.15-.23.61.44-.34A2.11,2.11,0,0,0,140,38.26Z"/><polygon class="cls-1" points="139.52 36.78 139.03 36.99 138.93 36.59 138.76 37.11 138.32 37.44 138.62 37.38 138.51 37.86 138.97 37.38 139.33 37.29 139.16 37.07 139.52 36.78"/><path class="cls-1" d="M136.57,40l.12.26-.29.26.36-.1.15.36a1.35,1.35,0,0,1,.09-.44,1.3,1.3,0,0,1,.43-.07l-.32-.19.11-.43-.36.34Z"/><path class="cls-1" d="M135.9,40.93l.11.26-.28.25.36-.1.15.37s.06-.39.08-.46.43-.06.43-.06a1.07,1.07,0,0,0-.32-.19,3.34,3.34,0,0,1,.11-.43l-.39.34Z"/><polygon class="cls-1" points="135.6 42.35 135.5 42.68 135.31 43.05 135.66 42.92 135.95 42.42 135.78 42.48 135.6 42.35"/><polygon class="cls-1" points="138.83 33.79 138.63 34.15 137.97 34.6 138.53 34.53 138.57 34.98 138.92 34.54 139.56 34.62 139.26 34.24 139.62 33.85 139.05 34.02 138.83 33.79"/><polygon class="cls-1" points="138.76 36.42 139.16 36.04 139.54 36.48 139.35 35.77 139.79 35.39 139.28 35.52 139.22 35.27 139.03 35.64 138.66 35.77 138.93 35.91 138.76 36.42"/><polygon class="cls-1" points="137.92 35.38 138.17 35.7 138.5 35.41 138.35 35.78 138.51 35.82 137.93 36.31 137.86 36.1 137.56 36.11 137.9 35.87 137.92 35.38"/><path class="cls-2" d="M139.93,36.54l.35-.35a.81.81,0,0,1-.38-.15Z"/><path class="cls-2" d="M140.68,35.76l.24-.26a.39.39,0,0,0,.27.18A.71.71,0,0,1,140.68,35.76Z"/><path class="cls-1" d="M140.76,34.5l-.1.38-.41.08.42.16,0,.25a.42.42,0,0,0,.25-.36,2.28,2.28,0,0,1,.11-.47S140.92,34.81,140.76,34.5Z"/><polygon class="cls-1" points="141 32.13 140.79 32.88 140.1 33.23 140.65 33.16 140.5 33.92 141.05 33.16 141.91 32.99 141.38 32.87 141.48 32.59 141.17 32.64 141 32.13"/><path class="cls-2" d="M141.33,33.64s0,.39-.12.48l.49-.32A.36.36,0,0,1,141.33,33.64Z"/><path class="cls-1" d="M126.63,48.21a1.91,1.91,0,0,1,.94.67,1.39,1.39,0,0,0-.7.74c-.16.51-1.12,0-1.12,1.13,0,.37,1.2.69-.11,1,0,0-.67-.38-.75-.56s-.41-1.18.24-1.53C126.52,49,125.49,48.8,126.63,48.21Z"/><path class="cls-1" d="M122.88,49.84a4.5,4.5,0,0,0,1,.77v-.08c.22-.64-.35-1,.06-1.6s.79,0,1-1.15c.13-.64.67-.24.59-.62a6.91,6.91,0,0,0-1.45-1.95,6,6,0,0,0-1,.83c0,.13,1.28.94,1.15,1.2s-.73.17-.7.7S122.3,48,122.88,49.84Z"/><path class="cls-1" d="M112.59,51.87a23.92,23.92,0,0,0,4.12-1.61s.09.55-1.71,1.37A2.75,2.75,0,0,1,112.59,51.87Z"/><path class="cls-2" d="M114.69,52.46a4.64,4.64,0,0,0-.63,2.81,2.36,2.36,0,0,1-.26,1.7c-.85.59-1,.51-1,.51a18.61,18.61,0,0,0,.54-2.74A3.06,3.06,0,0,1,114.69,52.46Z"/><path class="cls-1" d="M137,48.28c0,1.37-.72,1.21-.77,2.33,0,.51-2,1.66-2.31,1.26s.1-.33.32-1.34c.16-.72,1.26-.29,1.75-2.25A5.68,5.68,0,0,1,137,48.28Z"/><path class="cls-1" d="M135,47.88c-1,1-.16,1.74-.93,2s-2.46,1.18-1.74,1.88-1.87,1.31-1.63.77-1.21-.46-.59-1.39,2.49-.72,2.86-1.31.24-1.07.91-2.09A1.79,1.79,0,0,1,135,47.88Z"/><path class="cls-1" d="M132.41,48.07c-.08.88-.44,2-2.62,2.33-1.26.21-1.21,1.18-1,1.29s0,.53-.16.77a7.16,7.16,0,0,1-1.29-.32s.43-.43.27-.51-1-.43.3-1.29,2.08.67,3.21-1.54A2.55,2.55,0,0,1,132.41,48.07Z"/><path class="cls-1" d="M119,56.4a4,4,0,0,0,1.39,0s0-2.65,0-3.31-.31-.84-.66-.85A.69.69,0,0,0,119,53C119,53.8,119,56.4,119,56.4Z"/><path class="cls-1" d="M120.48,44.75c-.36.25-1.17.75-1.15.94a6.42,6.42,0,0,1,0,1.24c-.09.31-.41.28-.65.32a.76.76,0,0,0,.21-.67c0-.25-.32-.78-.61-.46s-.66,1-.26,1.12c-.41.18-.67,0-.66-.39a3,3,0,0,1,.25-.71c.08-.23-.27-.24-.52-.1s-.67.65-.59.84.24.21.24.21a.5.5,0,0,1-.78-.35h0c0-.26,0-.31.21-.55a8,8,0,0,1,.82-.79c.19-.13.57,0,.89-.15a7.32,7.32,0,0,0,1.78-1.32l.17.45.69-.07Z"/><path class="cls-2" d="M130.84,45.55a13.13,13.13,0,0,1-5-2.08c-.26-.18-.17-.64.09-.46a18.55,18.55,0,0,0,4.89,2.48C131,45.51,130.94,45.55,130.84,45.55Z"/><path class="cls-2" d="M128.55,46a16.87,16.87,0,0,1-3-1.82c-.27-.27,0-.58.21-.41A20.68,20.68,0,0,0,128.59,46C128.65,46,128.62,46,128.55,46Z"/><path class="cls-2" d="M127.25,46.68c-.72-.64-1-1-2.12-1.89-.27-.28,0-.57.21-.39a29,29,0,0,1,2,2.25C127.34,46.7,127.3,46.72,127.25,46.68Z"/><path class="cls-1" d="M117.08,49.52a4.1,4.1,0,0,1-.64.27c.22-.35.48-.92-.44-1.41-.34-.19-.22-.12.27-.43.13-.08,0,.63.87.72.11,0,.23-.06.23.14S117.12,49.09,117.08,49.52Z"/><path class="cls-1" d="M117.72,53.12a.6.6,0,1,1-.6-.61A.6.6,0,0,1,117.72,53.12Z"/><path class="cls-1" d="M120.35,51.5a.61.61,0,0,1-.6.61.6.6,0,0,1-.6-.6.6.6,0,0,1,1.2,0Z"/><path class="cls-1" d="M116.75,52.45c.26-.37,1,0,.89-.78C117.38,51.88,116.58,51.64,116.75,52.45Z"/><path class="cls-1" d="M119.26,50.94c.2-.43,1.09-.2.78-1C119.81,50.24,118.93,50.17,119.26,50.94Z"/><path class="cls-1" d="M119.23,50.23c.19-.43,1.09-.24.74-1C119.75,49.51,118.87,49.48,119.23,50.23Z"/><path class="cls-1" d="M119.17,49.55c.16-.44,1.07-.29.68-1C119.65,48.81,118.76,48.82,119.17,49.55Z"/><path class="cls-1" d="M119.8,48.26c-.12.25-.62.28-.73.61-.33-.56.12-.71.43-.89C119.55,48.13,119.8,48.26,119.8,48.26Z"/><path class="cls-1" d="M116.93,51.67c.28-.36,1,.08.93-.74C117.59,51.13,116.81,50.86,116.93,51.67Z"/><path class="cls-1" d="M117.07,50.92c.31-.34,1,.14,1-.68C117.77,50.43,117,50.1,117.07,50.92Z"/><path class="cls-1" d="M117.34,50.2c.34-.33,1,.2,1-.62C118.08,49.74,117.35,49.38,117.34,50.2Z"/><path class="cls-1" d="M117.59,49.5c.36-.31,1,.24,1.07-.58C118.35,49.07,117.64,48.68,117.59,49.5Z"/><path class="cls-1" d="M117.92,48.8c.38-.3,1,.27,1.14-.54C118.74,48.4,118,48,117.92,48.8Z"/><path class="cls-1" d="M118.21,48.11c.39-.26,1,.35,1.14-.45C119,47.78,118.37,47.31,118.21,48.11Z"/><path class="cls-1" d="M120,47.39c-.32,0-.54.37-.16.64a.39.39,0,0,0,.64-.17C120.14,47.87,119.9,47.59,120,47.39Z"/><path class="cls-1" d="M117.24,48.23c-.28.16-.64-.15-.39-.54a.4.4,0,0,1,.66-.08C117.17,47.74,117.05,48.08,117.24,48.23Z"/><path class="cls-1" d="M117.86,48.49c-.28.17-.65-.14-.41-.53a.39.39,0,0,1,.65-.1C117.77,48,117.66,48.34,117.86,48.49Z"/><path class="cls-1" d="M120.25,46.9c-.31.12-.29.59.18.64s.53-.24.47-.45C120.59,47.27,120.24,47.15,120.25,46.9Z"/><path class="cls-1" d="M120.2,46.39c-.21.25,0,.65.49.47a.38.38,0,0,0,.18-.62C120.68,46.55,120.32,46.61,120.2,46.39Z"/><path class="cls-1" d="M119.91,46c-.06.3.37.53.66.17a.38.38,0,0,0-.16-.63C120.41,45.87,120.12,46.1,119.91,46Z"/><path class="cls-2" d="M121.12,24.17l-.55-1.71h-1.81l1.46-1.06-.55-1.71,1.45,1.06,1.46-1.06L122,21.4l1.45,1.06h-1.79l-.56,1.71Z"/><path class="cls-2" d="M117.13,21.27l-.55-1.71h-1.8l1.46-1.06-.56-1.71,1.45,1.06,1.46-1.06L118,18.5l1.46,1.06h-1.8l-.56,1.71Z"/><path class="cls-2" d="M118.66,16.59l-.56-1.72h-1.8l1.46-1-.56-1.72,1.46,1.06,1.45-1.06-.55,1.72,1.45,1h-1.8l-.55,1.72Z"/><path class="cls-2" d="M123.58,16.59,123,14.87h-1.8l1.46-1-.56-1.72,1.45,1.06L125,12.1l-.56,1.72,1.46,1h-1.8l-.56,1.72Z"/><path class="cls-2" d="M125.11,21.27l-.56-1.71h-1.8l1.46-1.06-.56-1.71,1.46,1.06,1.45-1.06L126,18.5l1.46,1.06h-1.8l-.55,1.71Z"/><path class="cls-2" d="M121.21.79a34.86,34.86,0,1,0,34.86,34.85A34.85,34.85,0,0,0,121.21.79Zm-.07,59.6A24.79,24.79,0,1,1,145.92,35.6,24.79,24.79,0,0,1,121.14,60.39Z"/><path class="cls-1" d="M94.89,37.11c0-.67-.42-.79-1.08-.84-.11,0-.23,0-.33,0a3,3,0,0,0-.52.06c-.58.11-.87.34-.85.89a.51.51,0,0,0,.09.27s.14,0,.2,0l2.15-.1a.48.48,0,0,0,.29-.06.31.31,0,0,0,0-.24l.24,0,.07,1.45-.24,0a1.69,1.69,0,0,0,0-.33.1.1,0,0,0,0-.05l-.06,0a.43.43,0,0,0-.16,0l-2.33.11c-.07,0-.12,0-.14.09a.48.48,0,0,0,0,.24v.09l-.24,0-.07-1.38v-.38a1.28,1.28,0,0,1,.08-.58,1.38,1.38,0,0,1,.31-.46,1.71,1.71,0,0,1,1.12-.41,2.16,2.16,0,0,1,.84.11,1.32,1.32,0,0,1,.75.64,2.24,2.24,0,0,1,.15.85Z"/><path class="cls-1" d="M95.26,32.43l-.2,2.75-.24,0c0-.11.07-.38-.09-.42a.8.8,0,0,0-.15,0l-2.3-.17a.17.17,0,0,0-.1,0,.09.09,0,0,0-.08.07,1.21,1.21,0,0,0,0,.34l-.24,0,.2-2.72,1.17.06v.2c-.67.12-1,.31-1,1a.57.57,0,0,0,0,.29.15.15,0,0,0,.08.08.58.58,0,0,0,.23,0l.85.07c.06-.4-.18-.61-.59-.69l0-.21,1.56.1,0,.22c-.43,0-.72.19-.74.59l1,.08c.2,0,.29,0,.33-.17a1.46,1.46,0,0,0,0-.22c0-.64-.25-.88-.89-1.1l0-.21Z"/><path class="cls-1" d="M94.18,30.49l.89.18a.88.88,0,0,0,.26-.09c0-.06.07-.3.07-.3l.23,0-.31,1.56-.23-.05a2.17,2.17,0,0,0,0-.25c0-.17-.07-.19-.22-.22,0,0-2.29-.5-2.31-.49s-.13.05-.14.08a1.24,1.24,0,0,0-.09.33l-.24-.05s.36-1.75.38-1.8a1.16,1.16,0,0,1,.36-.68.83.83,0,0,1,.75-.15c.78.15.77.92.65,1.47l-.09.41-.23,0,0-.22c.1-.48,0-.75-.56-.87s-.68,0-.77.48a.44.44,0,0,0,0,.3.35.35,0,0,0,.22.1l1.08.21Z"/><path class="cls-1" d="M95.68,24.33a2.55,2.55,0,0,0,.13-.29.55.55,0,0,0-.33-.84.49.49,0,0,0-.75.28.94.94,0,0,0-.1.28c0,.09.12.14.2.18l.85.39.22.1.93.44.14.06c.1,0,.13,0,.17-.07a2.41,2.41,0,0,0,.14-.27l.22.1-.67,1.44-.22-.1a.72.72,0,0,0,.09-.2c.08-.18,0-.21-.15-.3l-1.89-.87c-.07,0-.24-.11-.34-.06a1,1,0,0,0-.22.27l-.22-.1.67-1.46.14-.27a1.08,1.08,0,0,1,.44-.53.83.83,0,0,1,.69,0,.82.82,0,0,1,.37,1.13h0a.78.78,0,0,1,.87-.27s.48.11.58.12h.07c.16-.16-.16-.33-.28-.4l.08-.19a.88.88,0,0,1,.23.14.68.68,0,0,1-.18,1.18.8.8,0,0,1-.5-.06l-.25-.1c-.35-.14-.6-.23-.79.11,0,.05-.13.27-.13.27Z"/><path class="cls-1" d="M96.42,22.25l-1-.69,1.39-2.29,1.07.58-.1.17c-.39-.16-1-.31-1.22.08,0,0,0,.13,0,.17l.16.1,2,1.18c.14.09.17.11.27,0a1.45,1.45,0,0,0,.17-.26l.2.13-.85,1.4-.2-.13a3.18,3.18,0,0,0,.16-.32.11.11,0,0,0,0-.11.49.49,0,0,0-.14-.11L96.34,21l-.17-.09c-.06,0-.12,0-.14.07-.24.39.17.86.49,1.12Z"/><path class="cls-1" d="M100.77,19.4l-.12.16-2.86-1.11h0l1.58,1.27c.29.23.54.39.79.05l.18.16-.72.89-.18-.15c.22-.29.1-.46-.17-.69l-1.49-1.21c-.06,0-.15-.14-.23-.11s-.15.13-.2.18l-.07.08-.18-.15.82-1,1.93.75h0L98.7,16.8l.82-1,.18.15-.08.1c-.05.06-.13.14-.1.25a1.65,1.65,0,0,0,.24.22l1.69,1.36.07,0c.12.07.22-.08.28-.15l.07-.08.18.15-1,1.2-.18-.16.15-.18s0-.06,0-.09a.12.12,0,0,0,0-.1.52.52,0,0,0-.11-.1L99,16.84h0Z"/><path class="cls-1" d="M104.3,15.73l-2,1.88-.16-.17c.07-.09.31-.22.22-.37a.41.41,0,0,0-.1-.13l-1.56-1.68s-.05,0-.08-.06a.11.11,0,0,0-.11,0,1.33,1.33,0,0,0-.26.21l-.17-.17,2-1.86.82.83-.15.14c-.58-.36-.92-.43-1.39,0a.6.6,0,0,0-.18.23.22.22,0,0,0,0,.11.49.49,0,0,0,.14.18l.58.62c.31-.24.28-.56,0-.9l.15-.14,1.08,1.13-.16.15a.61.61,0,0,0-.94-.06l.67.72c.14.15.2.23.36.1l.17-.14c.47-.43.41-.82.09-1.41l.16-.13Z"/><path class="cls-1" d="M103.67,13.07l1,1.35c.22.3.4.41.71.2l.14.19-1,.68-.14-.19c.3-.23.28-.36.06-.68L103.29,13a.48.48,0,0,0-.49.05l-.14-.19.83-.6L106,13,105.21,12c-.21-.3-.39-.36-.67-.16l-.14-.2.93-.67.14.2c-.15.14-.25.26-.15.5a3.53,3.53,0,0,0,.21.32l1.37,1.9-.2.15Z"/><path class="cls-1" d="M106.23,11.81l-.54-1.09L108,9.41l.64,1-.17.11c-.26-.34-.7-.76-1.11-.54,0,0-.1.09-.07.15l.09.16,1.11,2c.08.14.1.17.25.12s.18-.1.27-.15l.12.21-1.44.8-.11-.21a2.61,2.61,0,0,0,.3-.2.12.12,0,0,0,0-.12.39.39,0,0,0-.06-.15l-1.09-1.95a1.4,1.4,0,0,0-.1-.16.11.11,0,0,0-.16,0c-.4.22-.27.84-.12,1.22Z"/><path class="cls-1" d="M113.11,10.7c.46-.15.38-.69.31-1.11a3,3,0,0,0-.13-.49c-.16-.5-.52-1.37-1.13-1.17s-.41,1.12-.24,1.65a2.93,2.93,0,0,0,.45.88.63.63,0,0,0,.74.24l0,.24a1.35,1.35,0,0,1-1.17-.15,1.87,1.87,0,0,1-.77-1,1.79,1.79,0,0,1,0-1.31,1.48,1.48,0,0,1,.87-.78,1.39,1.39,0,0,1,1.2.13,1.81,1.81,0,0,1,.78,1,1.87,1.87,0,0,1-.06,1.32,1.43,1.43,0,0,1-.9.77Z"/><path class="cls-1" d="M114.61,10.39l0-.23.24-.05.11,0,0,0a.09.09,0,0,1,0,0,.64.64,0,0,0,0-.2l-.44-2.19c0-.08,0-.19-.13-.19a.6.6,0,0,0-.23,0l-.11,0,0-.24,2.62-.53.26,1.16-.2,0c-.25-.56-.55-.85-1.13-.73a.48.48,0,0,0-.32.13.28.28,0,0,0,0,.22l.18.92c.43-.07.51-.29.5-.74l.21,0,.3,1.53-.2,0a1.37,1.37,0,0,0-.13-.31.5.5,0,0,0-.59-.25h0l.19,1c0,.24.06.29.29.25l.26,0,0,.24Z"/><path class="cls-1" d="M119,6.39l1.47,0V6.6c-.09,0-.28,0-.33.09a.3.3,0,0,0,0,.18l.69,1.84L121.39,7a1,1,0,0,0,0-.17c0-.22-.24-.29-.4-.28V6.35l1.19,0v.24c-.31,0-.47.35-.57.63l-.86,2.47h-.33L119.4,7c-.06-.15-.1-.3-.27-.33H119Z"/><path class="cls-1" d="M125.09,9.87l-2.74-.27,0-.24c.12,0,.38.08.43-.08a.25.25,0,0,0,0-.15l.24-2.29v-.1a.09.09,0,0,0-.07-.08,1.35,1.35,0,0,0-.34-.06l0-.24,2.71.28-.09,1.17-.21,0c-.1-.68-.27-1-.92-1a.71.71,0,0,0-.29,0,.14.14,0,0,0-.07.08.59.59,0,0,0,0,.23l-.09.85c.4.07.62-.16.71-.58l.2,0-.15,1.57-.21,0c0-.43-.17-.72-.57-.75l-.1,1c0,.2,0,.29.15.34l.22,0c.64.06.9-.23,1.13-.87l.2,0Z"/><path class="cls-1" d="M125.87,7.94l.33-1.18,2.61.58-.2,1.21-.2,0c0-.43,0-1-.47-1.13,0,0-.13,0-.15,0a1.33,1.33,0,0,0-.05.19l-.49,2.22c0,.16,0,.2.1.26a2.64,2.64,0,0,0,.3.07l-.06.23L126,10.05l0-.23.35,0a.12.12,0,0,0,.1-.07.48.48,0,0,0,0-.17L127,7.46c0-.06,0-.13,0-.19s-.07-.11-.12-.12c-.44-.09-.76.45-.9.83Z"/><path class="cls-1" d="M130.88,11.46l-2.61-.9.08-.23c.11,0,.34.17.43,0a1,1,0,0,0,.07-.15L129.6,8s0-.06,0-.09a.11.11,0,0,0-.05-.11,1.44,1.44,0,0,0-.31-.13l.08-.22,2.57.89-.35,1.12-.2-.07c.06-.68-.05-1-.66-1.22a.69.69,0,0,0-.28-.05.15.15,0,0,0-.09.06.45.45,0,0,0-.1.21l-.28.81c.37.16.63,0,.81-.4l.2.07-.5,1.48-.21-.07a.61.61,0,0,0-.38-.86l-.33.93c-.06.19-.1.28.08.36a.88.88,0,0,0,.2.09c.61.21.93,0,1.3-.58l.19.09Z"/><path class="cls-1" d="M132.89,10.67l-.46.92-.06.14c0,.1,0,.13.06.17l.19.1.09.05-.11.22-1.43-.71.11-.21a1.21,1.21,0,0,0,.2.09c.18.09.21,0,.3-.14l.91-1.88c0-.06.16-.26.14-.33s-.14-.13-.21-.17l-.12-.06.1-.21,1.44.7.27.15a1.07,1.07,0,0,1,.52.45.8.8,0,0,1,0,.69.81.81,0,0,1-1.13.34h0a.76.76,0,0,1,.25.87l-.06.28a1.59,1.59,0,0,0-.06.3.2.2,0,0,0,0,.07c.14.17.33-.15.4-.27l.18.09a1.09,1.09,0,0,1-.14.23.63.63,0,0,1-.85.17.59.59,0,0,1-.32-.38.73.73,0,0,1,.07-.5l.1-.25c.15-.35.25-.6-.08-.79l-.17-.09-.11-.05.1-.22c.1.06.2.09.3.14a.55.55,0,0,0,.84-.31.47.47,0,0,0-.26-.75.75.75,0,0,0-.28-.11c-.09,0-.15.12-.19.2l-.41.83Z"/><path class="cls-1" d="M135.48,12.73a1.64,1.64,0,0,0-.35.3c-.14.21,0,.38.17.48l-.13.2-1-.64.13-.21c.29.16.61-.07.86-.25l2.09-1.48.25.17-.66,2.85c-.06.27-.08.34.14.5l-.13.2-1.18-.78.13-.2c.07,0,.19.14.27.12s.08-.1.1-.17l.14-.52-.86-.57.25-.17.68.45.29-1.15-1,.7Z"/><path class="cls-1" d="M139.28,13.62l-1.1,1.26c-.25.29-.31.49,0,.74l-.16.18-.87-.77.15-.19c.3.24.42.19.68-.09l1.33-1.5a.52.52,0,0,0-.16-.48l.16-.18.77.68-.19,2.6.86-1c.25-.28.27-.46,0-.69l.16-.18.86.76-.16.17c-.17-.11-.31-.18-.51,0a1.85,1.85,0,0,0-.28.28L139.24,17l-.18-.16Z"/><path class="cls-1" d="M140.6,16.53l.13.14a1.35,1.35,0,0,0-.06,1.52.52.52,0,0,0,.77.1.45.45,0,0,0,.07-.64l-.15-.26a1.62,1.62,0,0,1-.29-.82,1,1,0,0,1,.31-.76,1,1,0,0,1,1.49.11,1.16,1.16,0,0,1,.29.7l.31,0,.12.12-.85.83-.13-.15a1.21,1.21,0,0,0,0-1.4.51.51,0,0,0-.72-.1c-.24.22-.13.48,0,.69l.13.23c.29.52.52,1.06-.07,1.58a1.06,1.06,0,0,1-.82.29,1.12,1.12,0,0,1-.68-.39,1.19,1.19,0,0,1-.32-.8h-.38l-.11-.13Z"/><path class="cls-1" d="M143.59,20.6a1.5,1.5,0,0,0-.44.14c-.21.14-.15.35,0,.51l-.21.13-.61-1,.2-.13c.2.26.58.18.89.12l2.5-.5.17.25-1.77,2.34c-.17.22-.21.28-.07.52l-.2.13-.76-1.21.2-.12c.05.06.11.2.2.21s.11-.05.16-.1l.33-.42-.55-.88.3-.05.43.69.74-.94-1.17.25Z"/><path class="cls-1" d="M144.13,23.38l.22-.1.11.22a.21.21,0,0,0,.06.1l0,0h.05l.2-.08,2-.95c.07,0,.17-.08.15-.16a.57.57,0,0,0-.07-.22l0-.1.21-.1,1.13,2.42-1.06.53-.08-.19c.49-.38.7-.73.44-1.27a.47.47,0,0,0-.2-.28c-.07,0-.16,0-.22.05l-.84.39c.17.41.4.43.83.32l.09.19-1.41.66-.09-.19a.9.9,0,0,0,.27-.2.5.5,0,0,0,.11-.64l0,0-.91.42c-.21.1-.26.13-.17.34l.09.23-.21.1Z"/><path class="cls-1" d="M145.29,25.84l.22-.08.08.23a.6.6,0,0,0,.06.11s0,0,0,0h.05a.73.73,0,0,0,.2-.05l2.1-.73c.08,0,.18-.06.18-.15a.86.86,0,0,0-.05-.23l0-.1.22-.08.87,2.53-1.11.41-.06-.19c.52-.33.76-.66.57-1.22a.44.44,0,0,0-.17-.3c-.07,0-.16,0-.23,0l-.88.3c.13.41.36.46.81.4l.06.2-1.47.51-.07-.2a1.28,1.28,0,0,0,.3-.17.51.51,0,0,0,.17-.62l0,0-.95.33c-.22.07-.27.09-.2.31l.07.25-.23.07Z"/><path class="cls-1" d="M147.21,28.52a1.35,1.35,0,0,0-.45,0c-.26.06-.26.28-.21.47l-.23.06L146,27.9l.23,0c.11.3.51.35.81.39l2.54.33.07.29-2.42,1.65c-.23.16-.29.21-.23.47l-.24.06-.33-1.38.23-.06c0,.08.05.23.11.27a.21.21,0,0,0,.2-.05l.45-.29-.25-1,.3.05.19.79,1-.65-1.19-.14Z"/><path class="cls-1" d="M146.82,31.37l.24,0,0,.25c0,.19.15.15.33.13l2.17-.29.14,0c.06,0,.09,0,.1-.08a.54.54,0,0,0,0-.22V31l.24,0,.2,1.57-.23,0,0-.12c0-.09,0-.2-.09-.25l-.09,0-.15,0-2.23.3c-.07,0-.17,0-.2.1v.06c0,.07,0,.13,0,.2l0,.09-.24,0Z"/><path class="cls-1" d="M148.93,34.38c0,.12,0,.22,0,.33,0,.39.18.62.66.6s.56-.22.55-.59a1,1,0,0,0,0-.29.28.28,0,0,0-.27-.07l-.93,0h-.23l-1,0h-.15c-.09,0-.12,0-.12.13a1.55,1.55,0,0,0,0,.21v.11h-.23l-.05-1.59h.24a1.7,1.7,0,0,1,0,.22c0,.2.09.2.27.2l2.08-.06a.9.9,0,0,0,.37,0c.07-.08,0-.17.05-.27V33.2h.24l.05,1.59v.31a1.15,1.15,0,0,1-.16.67.83.83,0,0,1-.62.31c-.55,0-.78-.41-.83-.84h0a.78.78,0,0,1-.66.62l-.28.08a1.38,1.38,0,0,0-.29.08l-.06,0c-.08.21.29.23.43.23v.21a1.23,1.23,0,0,1-.27,0,.62.62,0,0,1-.55-.67.6.6,0,0,1,.18-.47.79.79,0,0,1,.48-.16l.27,0c.37,0,.64-.06.66-.45v-.31Z"/><path class="cls-1" d="M148.38,36.9l0,.2c-.52.12-1.1.45-1.15,1a.53.53,0,0,0,.46.63.45.45,0,0,0,.51-.39l.09-.29a1.68,1.68,0,0,1,.4-.77.92.92,0,0,1,.76-.27,1,1,0,0,1,.94,1.16,1.15,1.15,0,0,1-.31.68l.2.24v.17l-1.19,0,0-.21c.49-.1,1-.41,1.06-.91a.5.5,0,0,0-.42-.59c-.32,0-.43.23-.51.46l-.08.25c-.18.56-.42,1.1-1.21,1a1.11,1.11,0,0,1-.76-.41,1,1,0,0,1-.18-.76,1.22,1.22,0,0,1,.37-.78l-.26-.28,0-.18Z"/><path class="cls-1" d="M94.86,28.18l.25-.78-1.19.05.94.73.23.19a1.73,1.73,0,0,0,.39.25c.24.07.36-.11.42-.3l.22.07-.35,1.11-.22-.07c.06-.32-.24-.56-.49-.75l-2-1.6.09-.29,2.92-.15c.28,0,.36,0,.45-.28l.22.07-.42,1.35-.23-.07c0-.07.08-.22,0-.28s-.11-.06-.19-.06H95.4l-.31,1Z"/><path class="cls-1" d="M96.28,43.58,96.8,45l-.22.09c-.06-.1-.07-.27-.2-.32a.49.49,0,0,0-.2.05l-1.4.53a2.37,2.37,0,0,0-.53.26.5.5,0,0,0-.19.35.8.8,0,0,0,.06.37.62.62,0,0,0,.47.41,1.18,1.18,0,0,0,.71-.13l1.09-.42c.21-.08.44-.17.42-.4a.45.45,0,0,0,0-.2l.22-.09.4,1-.23.08c-.14-.34-.37-.29-.72-.18l-1.2.47a1.43,1.43,0,0,1-.42.1,1,1,0,0,1-.74-.19,1.33,1.33,0,0,1-.35-.55,1.37,1.37,0,0,1-.08-.85,1,1,0,0,1,.68-.61L96,44.09c.06,0,.1-.05.1-.11a1.14,1.14,0,0,0-.09-.31Z"/><path class="cls-1" d="M97.21,47.79l-1.47.81c-.33.18-.46.34-.29.65l-.21.12-.53-1,.21-.12c.18.31.31.3.66.12l1.75-1a.46.46,0,0,0,0-.48l.21-.11.47.84L96.93,50l1.14-.63c.33-.18.41-.34.26-.63l.21-.11.52.95-.21.12c-.12-.16-.22-.27-.47-.19a2.72,2.72,0,0,0-.35.16L96,50.8l-.11-.21Z"/><path class="cls-1" d="M96.66,51.79l.2-.14.13.2c.12.13.2.06.35,0l1.8-1.25a.52.52,0,0,0,.11-.1s.07-.06,0-.11a.58.58,0,0,0-.1-.19l-.06-.09.19-.14.85,1.23-.19.13-.07-.1c0-.07-.09-.16-.19-.17l-.09,0a.24.24,0,0,0-.12.07l-1.85,1.29c-.07,0-.15.1-.14.18l0,0,.1.15,0,.08-.2.14Z"/><path class="cls-1" d="M99.47,52.27l1-.74,1.63,1.94-.89.83-.13-.15c.29-.31.62-.82.34-1.15,0,0-.1-.09-.15,0l-.15.12-1.74,1.47c-.13.1-.15.13-.08.25s.12.15.19.24l-.19.15-1-1.18.18-.16.24.24a.13.13,0,0,0,.12,0A.78.78,0,0,0,99,54l1.7-1.44.14-.12s0-.12,0-.16c-.27-.33-.85-.07-1.19.15Z"/><path class="cls-1" d="M102.1,58l-1.9-1.77.16-.18c.09.07.23.29.37.19a.6.6,0,0,0,.12-.11l1.56-1.68s.06,0,.06-.08,0-.07,0-.11a1.2,1.2,0,0,0-.22-.23l.16-.18,1.89,1.76-.78.87-.14-.13c.33-.59.38-.93-.07-1.34a.49.49,0,0,0-.23-.15.22.22,0,0,0-.11,0,.83.83,0,0,0-.17.15l-.58.63c.25.28.56.22.88-.06l.14.13-1.06,1.16-.15-.14c.28-.33.31-.67,0-.92l-.68.72c-.13.15-.2.21-.08.36l.14.15c.44.41.82.32,1.38,0l.13.14Z"/><path class="cls-1" d="M104,59.12a.31.31,0,0,1-.15-.18.66.66,0,0,1,.14-.26l1.27-1.74s.09-.13.14-.14a.32.32,0,0,1,.25.09c.43.31.41.67.14,1.19a4.78,4.78,0,0,1-.29.44c-.06.08-.13.18-.2.26-.45.48-.79.71-1.3.34l-.13.21a2.15,2.15,0,0,0,.73.39,1.34,1.34,0,0,0,.94-.2,2.14,2.14,0,0,0,.6-.6,1.81,1.81,0,0,0,.4-1.12,1.31,1.31,0,0,0-.15-.51,1.12,1.12,0,0,0-.37-.41l-.28-.22-1-.76-.15.19.08,0a.65.65,0,0,1,.17.16.14.14,0,0,1,0,.16l-1.38,1.89a.58.58,0,0,1-.1.12l-.06,0h-.06a1.92,1.92,0,0,1-.26-.17l-.14.19,1.1.81Z"/><path class="cls-1" d="M107.54,60.28l.17.09c-.09.53,0,1.18.43,1.41a.52.52,0,0,0,.74-.2.45.45,0,0,0-.16-.61l-.21-.18a1.51,1.51,0,0,1-.53-.64,1,1,0,0,1,0-.81,1,1,0,0,1,1.37-.46,1.09,1.09,0,0,1,.48.53l.28-.11.15.08-.49,1.07-.17-.08c.09-.5,0-1.09-.41-1.3a.48.48,0,0,0-.68.18c-.14.29,0,.48.21.63L109,60c.44.37.81.77.46,1.48a1.11,1.11,0,0,1-.65.56A1,1,0,0,1,108,62a1.07,1.07,0,0,1-.55-.61l-.33.13-.16-.07Z"/><path class="cls-1" d="M110.27,60.76l.49-1.12,2.36.9-.38,1.16-.18-.06c.1-.42.15-1-.26-1.18,0,0-.12,0-.15,0l-.07.19-.82,2.12c-.05.16-.07.2.06.27l.27.11-.09.22-1.44-.55.08-.22a2,2,0,0,0,.33.09.1.1,0,0,0,.1,0,.48.48,0,0,0,.08-.16l.79-2.08.07-.18c0-.07-.05-.11-.09-.13-.4-.15-.79.35-1,.7Z"/><path class="cls-1" d="M113.25,62.63l.68-1,.07,1.19-.75-.21-.17.24.94.26,0,.53c0,.08,0,.14-.05.2s-.2,0-.27,0l-.06.23,1.29.35.07-.22c-.25-.08-.26-.16-.28-.43l-.21-2.91-.28-.07-1.47,2.08c-.17.25-.4.57-.7.52l-.07.23,1.07.29.06-.23c-.18,0-.36-.15-.29-.4a1.44,1.44,0,0,1,.23-.4Z"/><path class="cls-1" d="M115.23,62.38l.27-1.18,2.49.43-.15,1.21-.19,0c0-.43-.05-1-.48-1.1,0,0-.13,0-.14.06a1.62,1.62,0,0,0,0,.19l-.39,2.25c0,.16,0,.2.1.25a2.47,2.47,0,0,1,.29.06l0,.23-1.52-.27,0-.23.33,0a.13.13,0,0,0,.1-.08.94.94,0,0,0,0-.16l.38-2.2,0-.19c0-.07-.07-.1-.11-.11-.43-.07-.71.49-.82.88Z"/><path class="cls-1" d="M120.89,65.07l-2.6-.14V64.7c.11,0,.36.06.4-.1a.8.8,0,0,0,0-.15l.12-2.3a.31.31,0,0,0,0-.1s0-.07-.07-.08a.85.85,0,0,0-.32,0v-.24l2.57.13L121,63l-.19,0c-.13-.66-.3-.95-.92-1a.8.8,0,0,0-.27,0s-.06,0-.07.09a.85.85,0,0,0,0,.23l0,.85c.38,0,.58-.19.64-.61h.19l-.06,1.57H120c0-.44-.19-.72-.57-.72l-.06,1c0,.2,0,.29.17.32l.2,0c.61,0,.84-.27,1-.91l.2,0Z"/><path class="cls-1" d="M121.49,63.84h.19c.17.5.56,1,1.07,1a.5.5,0,0,0,.53-.54.42.42,0,0,0-.43-.44l-.27-.06a1.5,1.5,0,0,1-.78-.3,1,1,0,0,1,.61-1.79,1,1,0,0,1,.68.21l.19-.23h.16l.11,1.18h-.19c-.17-.48-.52-.95-1-.93a.49.49,0,0,0-.51.49c0,.33.28.41.5.45l.25,0c.55.11,1.08.28,1.12,1.06a1.18,1.18,0,0,1-.29.82,1.06,1.06,0,0,1-.69.28,1.1,1.1,0,0,1-.78-.27l-.23.29h-.16Z"/><path class="cls-1" d="M128.1,64.08c.47-.13.41-.68.37-1.1,0-.16-.06-.34-.1-.49-.14-.52-.45-1.4-1.07-1.23s-.48,1.09-.33,1.63a3.23,3.23,0,0,0,.4.91.66.66,0,0,0,.73.28l0,.23a1.38,1.38,0,0,1-1.16-.2,1.93,1.93,0,0,1-.71-1,1.79,1.79,0,0,1,.12-1.31,1.45,1.45,0,0,1,.9-.73,1.39,1.39,0,0,1,1.2.18,1.89,1.89,0,0,1,.73,1.05,1.93,1.93,0,0,1-.14,1.32,1.42,1.42,0,0,1-.94.72Z"/><path class="cls-1" d="M129.83,63.83l-.08-.22.23-.08a.3.3,0,0,0,.11-.06l0,0v0c0-.07,0-.13-.05-.2l-.73-2.1c0-.08-.07-.18-.16-.18a1,1,0,0,0-.23.05l-.1,0-.08-.23,2.53-.88L131.7,61l-.19.07c-.32-.52-.66-.76-1.22-.57a.46.46,0,0,0-.3.17c0,.07,0,.16,0,.23l.31.87c.41-.12.46-.35.4-.8l.19-.06.51,1.47-.19.06a1,1,0,0,0-.18-.28.5.5,0,0,0-.62-.18l0,0,.33.94c.08.23.1.28.32.21l.24-.07.08.23Z"/><path class="cls-1" d="M134.5,60.48l-.2-1.17.87.79-.67.38.05.3.85-.48.39.36c.05.05.11.09.1.17s-.15.13-.21.18l.12.2,1.17-.66-.12-.21c-.23.12-.29.07-.5-.1l-2.19-1.92-.25.14.42,2.51c0,.3.11.68-.14.87l.12.2,1-.54-.12-.2a.32.32,0,0,1-.49-.08,1.89,1.89,0,0,1-.11-.44Z"/><path class="cls-1" d="M138.62,59.38l-.15.11L136,57.67h0l1.2,1.63c.22.3.43.51.73.27l.14.19-.87.65-.14-.2c.28-.21.2-.4,0-.7L136,58c0-.07-.11-.18-.19-.18a.46.46,0,0,0-.23.12l-.08.06-.14-.19,1-.74L138,58.28h0l-.72-1.92,1-.74.14.19-.1.07c-.06,0-.16.1-.15.21a1,1,0,0,0,.18.28l1.28,1.74.06.06c.1.1.23,0,.3-.07L140,58l.14.19L139,59.1l-.14-.19.18-.13s0-.06.05-.08a.09.09,0,0,0,0-.1.33.33,0,0,0-.07-.13l-1.46-2h0Z"/><path class="cls-1" d="M142.64,55.86l-1.86,1.82-.17-.17c.06-.08.29-.22.2-.36a.38.38,0,0,0-.1-.12l-1.61-1.65s0-.06-.07-.06-.07,0-.11,0a1.21,1.21,0,0,0-.24.21l-.17-.17,1.84-1.8.83.83-.13.12c-.57-.35-.91-.42-1.34,0a.52.52,0,0,0-.17.22.2.2,0,0,0,0,.11.52.52,0,0,0,.15.18l.59.62c.3-.25.25-.56,0-.89l.14-.14,1.1,1.12-.15.14c-.31-.3-.65-.34-.91-.07l.69.71c.13.14.2.21.35.1l.16-.13c.43-.42.36-.8,0-1.38l.15-.12Z"/><path class="cls-1" d="M142.43,53.36l-.73-.58c-.06-.06-.16-.14-.15-.23a.73.73,0,0,1,.16-.23c.22-.27.43-.34.78-.07a.54.54,0,0,1,.12.87,1.5,1.5,0,0,1-.18.24l.18.15.08-.09.11-.13c.25-.27.47-.11.78.11l.22.16a.76.76,0,0,0,.46.18.52.52,0,0,0,.43-.2.6.6,0,0,0,0-.84l-.19-.19-.13.15c.11.1.38.35.19.44h-.07a.93.93,0,0,1-.27-.12l-.26-.14a.78.78,0,0,0-.89,0h0a.82.82,0,0,0-.77-1.32,1,1,0,0,0-.54.37l-.19.22-.95,1.17.19.15.07-.09c.06-.07.1-.16.2-.16s.24.16.3.2L143,54.71c.14.12.2.17.08.31a.7.7,0,0,1-.13.17l.19.15,1-1.16L143.9,54l-.05.08-.14.14c-.06.06-.09.06-.18,0l-.12-.09-.8-.66Z"/><path class="cls-1" d="M145.21,52.71l-.2-.13.14-.2c.08-.16,0-.21-.16-.3l-1.82-1.23-.12-.08c-.06,0-.09,0-.14,0a1.12,1.12,0,0,0-.13.16l-.06.1-.2-.14.83-1.23.2.13-.07.1c0,.07-.11.15-.08.24s0,0,0,.07a.52.52,0,0,0,.11.1l1.87,1.25c.06,0,.15.1.21.06l0,0,.12-.15,0-.07.19.13Z"/><path class="cls-1" d="M144.56,47.44l.08-.14,1.15.6-.08.18c-.48-.15-1.13-.22-1.37.22a.55.55,0,0,0,0,.59,1.75,1.75,0,0,0,.46.48,5.4,5.4,0,0,0,.47.3,4.59,4.59,0,0,0,.64.28,1,1,0,0,0,.56,0,.61.61,0,0,0,.41-.32c.24-.42,0-.89-.44-1.22l.16-.17A1.2,1.2,0,0,1,147,50a1.26,1.26,0,0,1-.91.64A2.09,2.09,0,0,1,144,49.37a1.24,1.24,0,0,1,.06-1.1,1,1,0,0,1,.53-.5l0,0Z"/><path class="cls-1" d="M146.88,47.29l-.87-.8,1.17.09-.3.71.21.21.39-.9.53,0c.07,0,.14,0,.18.07s0,.21-.06.27l.22.1.53-1.24-.22-.09c-.11.23-.18.23-.46.21l-2.9-.19-.11.27L147,47.79c.22.21.51.47.42.77l.22.09.43-1-.22-.09c-.06.17-.2.33-.43.23a1.72,1.72,0,0,1-.37-.28Z"/><path class="cls-1" d="M118.71,66.81a6.1,6.1,0,0,1,1.07,1,6.6,6.6,0,0,0,1.45,1.3,1.75,1.75,0,0,0,2.1-.18,7.16,7.16,0,0,1-1.13-1,7.61,7.61,0,0,0-1.43-1.25,1.68,1.68,0,0,0-2.06.14Z"/><path class="cls-1" d="M115.57,66.41a6.55,6.55,0,0,1,1,1.11A6.43,6.43,0,0,0,117.84,69,1.76,1.76,0,0,0,120,69a7.2,7.2,0,0,1-1-1.12,7.34,7.34,0,0,0-1.31-1.39,1.66,1.66,0,0,0-2.06-.08Z"/><path class="cls-1" d="M112.53,65.71a6.32,6.32,0,0,1,.85,1.21,6.53,6.53,0,0,0,1.16,1.56,1.73,1.73,0,0,0,2.09.24,6.9,6.9,0,0,1-.89-1.22A7.88,7.88,0,0,0,114.58,66a1.68,1.68,0,0,0-2-.28Z"/><path class="cls-1" d="M109.59,64.72a6.52,6.52,0,0,1,.72,1.29,6.84,6.84,0,0,0,1,1.67,1.74,1.74,0,0,0,2,.44,7.2,7.2,0,0,1-.77-1.31,7.51,7.51,0,0,0-1-1.61,1.67,1.67,0,0,0-2-.48Z"/><path class="cls-1" d="M106.75,63.43a7,7,0,0,1,.59,1.35,6.6,6.6,0,0,0,.83,1.77,1.73,1.73,0,0,0,2,.64,7.26,7.26,0,0,1-.64-1.36,7.44,7.44,0,0,0-.83-1.72,1.69,1.69,0,0,0-2-.68Z"/><path class="cls-1" d="M104.05,61.88a6.75,6.75,0,0,1,.46,1.4,6.52,6.52,0,0,0,.65,1.84,1.76,1.76,0,0,0,1.93.84,7.54,7.54,0,0,1-.51-1.43,7.11,7.11,0,0,0-.66-1.78,1.65,1.65,0,0,0-1.87-.87Z"/><path class="cls-1" d="M101.53,60.06a6.78,6.78,0,0,1,.31,1.44,6.71,6.71,0,0,0,.46,1.89,1.72,1.72,0,0,0,1.84,1,7.23,7.23,0,0,1-.36-1.46,7.35,7.35,0,0,0-.48-1.85,1.67,1.67,0,0,0-1.77-1Z"/><path class="cls-1" d="M99.2,58a6.73,6.73,0,0,1,.16,1.47,6.66,6.66,0,0,0,.27,1.93,1.75,1.75,0,0,0,1.73,1.21,7.31,7.31,0,0,1-.21-1.5,7,7,0,0,0-.3-1.88A1.66,1.66,0,0,0,99.2,58Z"/><path class="cls-1" d="M97.08,55.71a6.48,6.48,0,0,1,0,1.48,6.43,6.43,0,0,0,.08,1.94,1.71,1.71,0,0,0,1.59,1.37,7.05,7.05,0,0,1,0-1.5,7.63,7.63,0,0,0-.11-1.9,1.67,1.67,0,0,0-1.53-1.39Z"/><path class="cls-1" d="M95.2,53.23a6.22,6.22,0,0,1-.13,1.47A6.63,6.63,0,0,0,95,56.65a1.73,1.73,0,0,0,1.45,1.52,6.8,6.8,0,0,1,.09-1.5,7.42,7.42,0,0,0,.08-1.91,1.66,1.66,0,0,0-1.38-1.53Z"/><path class="cls-1" d="M93.57,50.58A6.45,6.45,0,0,1,93.3,52,6.62,6.62,0,0,0,93,54a1.73,1.73,0,0,0,1.29,1.66,7.13,7.13,0,0,1,.24-1.49,7.48,7.48,0,0,0,.27-1.89,1.66,1.66,0,0,0-1.23-1.65Z"/><path class="cls-1" d="M92.23,47.77a7.19,7.19,0,0,1-.42,1.41,6.73,6.73,0,0,0-.5,1.89,1.73,1.73,0,0,0,1.13,1.78,6.87,6.87,0,0,1,.38-1.46,7,7,0,0,0,.46-1.85,1.68,1.68,0,0,0-1-1.77Z"/><path class="cls-1" d="M91.16,44.85a6.67,6.67,0,0,1-.55,1.36A6.59,6.59,0,0,0,89.92,48a1.75,1.75,0,0,0,.94,1.88,7.67,7.67,0,0,1,.53-1.41,7.24,7.24,0,0,0,.64-1.8,1.66,1.66,0,0,0-.87-1.86Z"/><path class="cls-1" d="M90.39,41.83a7,7,0,0,1-.69,1.31,6.68,6.68,0,0,0-.86,1.74,1.73,1.73,0,0,0,.75,2,6.46,6.46,0,0,1,.67-1.35,7.76,7.76,0,0,0,.81-1.72,1.67,1.67,0,0,0-.68-2Z"/><path class="cls-1" d="M89.92,38.76A6.73,6.73,0,0,1,89.11,40a6.42,6.42,0,0,0-1,1.66,1.72,1.72,0,0,0,.55,2,7,7,0,0,1,.79-1.27,7.46,7.46,0,0,0,1-1.64,1.66,1.66,0,0,0-.49-2Z"/><path class="cls-1" d="M89.76,35.64a6.22,6.22,0,0,1-.93,1.14,6.7,6.7,0,0,0-1.19,1.55A1.74,1.74,0,0,0,88,40.41a7.57,7.57,0,0,1,.92-1.2,7.72,7.72,0,0,0,1.14-1.52,1.68,1.68,0,0,0-.29-2Z"/><path class="cls-1" d="M89.91,32.54a6.35,6.35,0,0,1-1,1A7.05,7.05,0,0,0,87.53,35a1.75,1.75,0,0,0,.14,2.1,7.33,7.33,0,0,1,1-1.1A7.43,7.43,0,0,0,90,34.6a1.66,1.66,0,0,0-.08-2.06Z"/><path class="cls-1" d="M90.37,29.46a7.41,7.41,0,0,1-1.14.94,6.7,6.7,0,0,0-1.47,1.27,1.74,1.74,0,0,0-.07,2.11,7,7,0,0,1,1.14-1,6.8,6.8,0,0,0,1.41-1.27,1.65,1.65,0,0,0,.13-2.05Z"/><path class="cls-1" d="M91.13,26.44a6.23,6.23,0,0,1-1.23.82,6.81,6.81,0,0,0-1.59,1.13A1.74,1.74,0,0,0,88,30.47a7.14,7.14,0,0,1,1.24-.87,8,8,0,0,0,1.54-1.13,1.66,1.66,0,0,0,.32-2Z"/><path class="cls-1" d="M92.19,23.51a6.44,6.44,0,0,1-1.3.7,6.18,6.18,0,0,0-1.69,1,1.72,1.72,0,0,0-.49,2A7.39,7.39,0,0,1,90,26.47a7.39,7.39,0,0,0,1.63-1,1.65,1.65,0,0,0,.53-2Z"/><path class="cls-1" d="M93.54,20.7a6.27,6.27,0,0,1-1.36.56,6.29,6.29,0,0,0-1.79.8,1.72,1.72,0,0,0-.69,2,7.94,7.94,0,0,1,1.38-.61,7.12,7.12,0,0,0,1.73-.8,1.66,1.66,0,0,0,.73-1.93Z"/><path class="cls-1" d="M95.15,18.05a6.37,6.37,0,0,1-1.4.41,6.55,6.55,0,0,0-1.86.62A1.69,1.69,0,0,0,91,21a6.88,6.88,0,0,1,1.43-.46,7.43,7.43,0,0,0,1.8-.63,1.65,1.65,0,0,0,.91-1.84Z"/><path class="cls-1" d="M97,15.56a7,7,0,0,1-1.44.27,6.55,6.55,0,0,0-1.91.43,1.71,1.71,0,0,0-1.07,1.81,6.87,6.87,0,0,1,1.48-.32,7.85,7.85,0,0,0,1.85-.44A1.67,1.67,0,0,0,97,15.56Z"/><path class="cls-1" d="M99.14,13.27a6.92,6.92,0,0,1-1.47.14,6.47,6.47,0,0,0-1.94.22,1.73,1.73,0,0,0-1.24,1.7A7.52,7.52,0,0,1,96,15.15a7.05,7.05,0,0,0,1.87-.25,1.67,1.67,0,0,0,1.27-1.63Z"/><path class="cls-1" d="M97.34,12.74l.81,0a8,8,0,0,0,1.9-.07,1.65,1.65,0,0,0,1.41-1.5,7.24,7.24,0,0,1-1.47,0,7.22,7.22,0,0,0-1.95,0,1.71,1.71,0,0,0-1.4,1.56,4.3,4.3,0,0,1,.7,0Z"/><path class="cls-1" d="M99.25,10.47a9.24,9.24,0,0,1,1.28.13,7.47,7.47,0,0,0,1.9.13A1.66,1.66,0,0,0,104,9.38a6.4,6.4,0,0,1-1.46-.16,6.72,6.72,0,0,0-2-.16A1.74,1.74,0,0,0,99,10.48Z"/><path class="cls-1" d="M101.62,8.42a7,7,0,0,1,1.5.27,8.21,8.21,0,0,0,1.79.31H105a1.67,1.67,0,0,0,1.69-1.19,7.13,7.13,0,0,1-1.44-.3,7.41,7.41,0,0,0-1.8-.35h-.13a1.73,1.73,0,0,0-1.69,1.26Z"/><path class="cls-1" d="M104.43,6.62a6.38,6.38,0,0,1,1.44.42,7.08,7.08,0,0,0,1.85.49,1.65,1.65,0,0,0,1.79-1,6.74,6.74,0,0,1-1.41-.44,6.37,6.37,0,0,0-1.87-.54h-.13a1.7,1.7,0,0,0-1.67,1.09Z"/><path class="cls-1" d="M107.39,5.11a8.28,8.28,0,0,1,1.4.56,7.49,7.49,0,0,0,1.78.68,1.63,1.63,0,0,0,1.88-.83,6.86,6.86,0,0,1-1.34-.58,6.72,6.72,0,0,0-1.82-.73,1.73,1.73,0,0,0-1.9.9Z"/><path class="cls-1" d="M110.49,3.91a7.48,7.48,0,0,1,1.34.69,7.1,7.1,0,0,0,1.7.85,1.65,1.65,0,0,0,2-.64,7.1,7.1,0,0,1-1.28-.71,6.39,6.39,0,0,0-1.73-.9,1.73,1.73,0,0,0-2,.71Z"/><path class="cls-1" d="M113.69,3a7.49,7.49,0,0,1,1.26.83,7.21,7.21,0,0,0,1.61,1,2.09,2.09,0,0,0,.78.16,1.52,1.52,0,0,0,1.23-.6,6.2,6.2,0,0,1-1.21-.84,6.46,6.46,0,0,0-1.63-1.06,1.73,1.73,0,0,0-2,.5Z"/><path class="cls-1" d="M117,2.44a7.29,7.29,0,0,1,1.17,1,7.71,7.71,0,0,0,1.51,1.17,1.66,1.66,0,0,0,2-.24,6.34,6.34,0,0,1-1.11-1A6.72,6.72,0,0,0,119,2.14a1.75,1.75,0,0,0-2.08.3Z"/><path class="cls-1" d="M120.27,2.2a7.07,7.07,0,0,1,1.08,1.06,7.28,7.28,0,0,0,1.38,1.31,1.67,1.67,0,0,0,2.06,0,7.48,7.48,0,0,1-1-1.06,6.63,6.63,0,0,0-1.39-1.37,1.76,1.76,0,0,0-2.11.09Z"/><path class="cls-1" d="M123.6,2.29a6.72,6.72,0,0,1,1,1.16A8,8,0,0,0,125.8,4.9a1.68,1.68,0,0,0,2.06.16A6.49,6.49,0,0,1,127,3.91a6.59,6.59,0,0,0-1.25-1.5,1.74,1.74,0,0,0-2.1-.12Z"/><path class="cls-1" d="M126.9,2.71A6.91,6.91,0,0,1,127.74,4a7.38,7.38,0,0,0,1.09,1.56,1.67,1.67,0,0,0,2,.37,6.2,6.2,0,0,1-.79-1.24A6.56,6.56,0,0,0,129,3a1.75,1.75,0,0,0-2.07-.32Z"/><path class="cls-1" d="M130.14,3.45a7.55,7.55,0,0,1,.71,1.32,7.3,7.3,0,0,0,.93,1.67,1.69,1.69,0,0,0,2,.57,6.8,6.8,0,0,1-.66-1.3A6.57,6.57,0,0,0,132.17,4a1.73,1.73,0,0,0-2-.53Z"/><path class="cls-1" d="M133.28,4.51a7.15,7.15,0,0,1,.59,1.39,7.26,7.26,0,0,0,.76,1.75,1.67,1.67,0,0,0,1.91.77A6.88,6.88,0,0,1,136,7a6.46,6.46,0,0,0-.75-1.8,1.77,1.77,0,0,0-1.46-.81,1.88,1.88,0,0,0-.52.08Z"/><path class="cls-1" d="M136.32,5.88a7.45,7.45,0,0,1,.43,1.45,7.69,7.69,0,0,0,.59,1.81,1.68,1.68,0,0,0,1.49,1,1.37,1.37,0,0,0,.34,0,6.79,6.79,0,0,1-.4-1.42,6.43,6.43,0,0,0-.56-1.87,1.75,1.75,0,0,0-1.89-.92Z"/><path class="cls-1" d="M139.19,7.55a7.26,7.26,0,0,1,.3,1.48,7,7,0,0,0,.4,1.86A1.67,1.67,0,0,0,141.61,12a6.68,6.68,0,0,1-.25-1.45A6.35,6.35,0,0,0,141,8.65a1.7,1.7,0,0,0-1.59-1.11Z"/><path class="cls-1" d="M141.89,9.49A7,7,0,0,1,142,11a7.21,7.21,0,0,0,.21,1.88,1.64,1.64,0,0,0,1.6,1.29h0a6.39,6.39,0,0,1-.1-1.46,6.52,6.52,0,0,0-.19-1.94,1.7,1.7,0,0,0-1.66-1.28Z"/><path class="cls-1" d="M144.38,11.69a7.57,7.57,0,0,1,0,1.51,7.47,7.47,0,0,0,0,1.9,1.67,1.67,0,0,0,1.47,1.45,6.8,6.8,0,0,1,0-1.47,6.78,6.78,0,0,0,0-2,1.73,1.73,0,0,0-1.54-1.43Z"/><path class="cls-1" d="M146.64,14.12a7.31,7.31,0,0,1-.15,1.51,7.13,7.13,0,0,0-.17,1.89,1.67,1.67,0,0,0,1.32,1.59,6.57,6.57,0,0,1,.19-1.46,6.81,6.81,0,0,0,.2-1.94,1.75,1.75,0,0,0-1.39-1.59Z"/><path class="cls-1" d="M148.65,16.77a6.5,6.5,0,0,1-.31,1.49,8,8,0,0,0-.35,1.86,1.67,1.67,0,0,0,1.15,1.71,6.76,6.76,0,0,1,.34-1.43,6.5,6.5,0,0,0,.39-1.91,1.73,1.73,0,0,0-1.22-1.72Z"/><path class="cls-1" d="M150.38,19.61a6.63,6.63,0,0,1-.45,1.44,7.56,7.56,0,0,0-.53,1.83,1.65,1.65,0,0,0,1,1.81,7,7,0,0,1,.48-1.39,6.81,6.81,0,0,0,.58-1.86,1.73,1.73,0,0,0-1.05-1.83Z"/><path class="cls-1" d="M151.83,22.6a7.26,7.26,0,0,1-.59,1.39,7.67,7.67,0,0,0-.72,1.77,1.66,1.66,0,0,0,.79,1.9,6.91,6.91,0,0,1,.61-1.34,6.68,6.68,0,0,0,.77-1.8,1.74,1.74,0,0,0-.86-1.92Z"/><path class="cls-1" d="M153,25.72a7.62,7.62,0,0,1-.73,1.34,7.58,7.58,0,0,0-.89,1.67,1.69,1.69,0,0,0,.6,2,6.73,6.73,0,0,1,.74-1.27,6.54,6.54,0,0,0,.94-1.72,1.75,1.75,0,0,0-.66-2Z"/><path class="cls-1" d="M153.79,28.94a6.93,6.93,0,0,1-.85,1.25,7.38,7.38,0,0,0-1.05,1.59,1.65,1.65,0,0,0,.4,2,6,6,0,0,1,.86-1.18,6.64,6.64,0,0,0,1.1-1.62,1.73,1.73,0,0,0-.46-2.06Z"/><path class="cls-1" d="M154.29,32.23a7.05,7.05,0,0,1-1,1.15,7.8,7.8,0,0,0-1.21,1.48,1.68,1.68,0,0,0,.2,2.06,6.29,6.29,0,0,1,1-1.11,6.23,6.23,0,0,0,1.25-1.49,1.73,1.73,0,0,0-.25-2.09Z"/><path class="cls-1" d="M154.46,35.55a7.8,7.8,0,0,1-1.08,1.06A6.89,6.89,0,0,0,152,38,1.65,1.65,0,0,0,152,40a6.73,6.73,0,0,1,1.08-1,6.5,6.5,0,0,0,1.4-1.36,1.72,1.72,0,0,0,0-2.1Z"/><path class="cls-1" d="M154.3,38.87a7.46,7.46,0,0,1-1.18.94A7.31,7.31,0,0,0,151.65,41a1.67,1.67,0,0,0-.22,2,6.7,6.7,0,0,1,1.17-.88A6.53,6.53,0,0,0,154.14,41a1.75,1.75,0,0,0,.16-2.1Z"/><path class="cls-1" d="M153.81,42.16a7,7,0,0,1-1.27.81A6.92,6.92,0,0,0,151,44a1.64,1.64,0,0,0-.42,2,7.06,7.06,0,0,1,1.27-.77,6.45,6.45,0,0,0,1.63-1.05,1.73,1.73,0,0,0,.37-2.07Z"/><path class="cls-1" d="M153,45.38a7.2,7.2,0,0,1-1.34.69A7.64,7.64,0,0,0,150,47a1.67,1.67,0,0,0-.61,2,6.52,6.52,0,0,1,1.32-.63,6.6,6.6,0,0,0,1.74-.89,1.73,1.73,0,0,0,.58-2Z"/><path class="cls-1" d="M151.87,48.51a6.92,6.92,0,0,1-1.41.55,7.51,7.51,0,0,0-1.76.72,1.69,1.69,0,0,0-.81,1.9,6.51,6.51,0,0,1,1.39-.5,6.41,6.41,0,0,0,1.82-.72,1.73,1.73,0,0,0,.77-2Z"/><path class="cls-1" d="M150.43,51.51a7.48,7.48,0,0,1-1.44.4,7.52,7.52,0,0,0-1.84.55,1.66,1.66,0,0,0-1,1.8,7,7,0,0,1,1.42-.35,6.67,6.67,0,0,0,1.89-.54,1.71,1.71,0,0,0,1-1.86Z"/><path class="cls-1" d="M148.67,54.39a6.81,6.81,0,0,1-1.49.26,7.22,7.22,0,0,0-1.86.36,1.66,1.66,0,0,0-1.17,1.7,6.25,6.25,0,0,1,1.46-.22,6.46,6.46,0,0,0,1.92-.33,1.72,1.72,0,0,0,1.14-1.77Z"/><path class="cls-1" d="M146.61,57.12a6.76,6.76,0,0,1-1.5.1,7.59,7.59,0,0,0-1.91.17A1.66,1.66,0,0,0,141.87,59a6.88,6.88,0,0,1,1.47-.06h.58a4.91,4.91,0,0,0,1.37-.14,1.74,1.74,0,0,0,1.32-1.64Z"/><path class="cls-1" d="M139.69,61a11.55,11.55,0,0,1,1.25.11,6.23,6.23,0,0,0,1.8.07,1.74,1.74,0,0,0,1.49-1.5,6.69,6.69,0,0,1-1.51,0,7.7,7.7,0,0,0-1.91,0A1.66,1.66,0,0,0,139.32,61l.37,0Z"/><path class="cls-1" d="M136.68,62.72a7,7,0,0,1,1.42.24,6.69,6.69,0,0,0,1.94.27,1.87,1.87,0,0,0,1.7-1.4,8.1,8.1,0,0,1-1.54-.18,8.42,8.42,0,0,0-1.92-.19,1.68,1.68,0,0,0-1.63,1.26Z"/><path class="cls-1" d="M133.94,64.11a7.06,7.06,0,0,1,1.42.38,6.52,6.52,0,0,0,1.9.45A1.72,1.72,0,0,0,139,63.77a7.06,7.06,0,0,1-1.47-.34,7.29,7.29,0,0,0-1.86-.41h0a1.66,1.66,0,0,0-1.73,1.09Z"/><path class="cls-1" d="M131,65.26a6.32,6.32,0,0,1,1.38.52,6.8,6.8,0,0,0,1.85.64,1.71,1.71,0,0,0,1.85-1,7.4,7.4,0,0,1-1.42-.5,7.18,7.18,0,0,0-1.81-.59,1.65,1.65,0,0,0-1.85.92Z"/><path class="cls-1" d="M128,66.12a6.74,6.74,0,0,1,1.32.66,6.41,6.41,0,0,0,1.76.82,1.74,1.74,0,0,0,2-.79,7.77,7.77,0,0,1-1.38-.64,7,7,0,0,0-1.74-.77,1.63,1.63,0,0,0-1.92.72Z"/><path class="cls-1" d="M124.86,66.66a7.08,7.08,0,0,1,1.25.78,6.31,6.31,0,0,0,1.67,1,1.72,1.72,0,0,0,2-.59,7.63,7.63,0,0,1-1.29-.78,7.45,7.45,0,0,0-1.66-.94,1.68,1.68,0,0,0-2,.53Z"/><path class="cls-1" d="M121.76,66.88a6.9,6.9,0,0,1,1.16.91,6.54,6.54,0,0,0,1.57,1.15,1.74,1.74,0,0,0,2.07-.39,7.7,7.7,0,0,1-1.22-.89,7.31,7.31,0,0,0-1.54-1.11,1.69,1.69,0,0,0-2,.33Z"/><path class="cls-2" d="M109.61,29.89c.07,0,0-.24,0-.35a6.82,6.82,0,0,0-.84-1.12c-.36-.44-.76-.75-1.08-1.2s-.54-1-.91-1.43c-.6-.74-.65-1-1.73-.76-.36.07-1.52.22-1.17.45,1.55,1,4,2.73,4.41,3.39,0,0,.3.44.33.49a2.71,2.71,0,0,1,.37.79,5.84,5.84,0,0,1-.42-.46,1,1,0,0,0-1.52,0,5.92,5.92,0,0,1,2.43,1.42c.08-.34-.13-1.11.14-1.23"/><path class="cls-2" d="M107,25.92c.17.37.44.67.65,1a1.91,1.91,0,0,0,.29.36c.32.35.59.77,1,.9,0,0,0-.19,0-.29a7.2,7.2,0,0,0-1.28-2.25,7.08,7.08,0,0,0-1.46-1.53,7.82,7.82,0,0,1,2.16,2.31,9.43,9.43,0,0,1,.72,1.17c.15.3,0,.66.2.94.06-.41.34-.66.18-1-.56-1.09-1.14-2.15-1.72-3.22a5.12,5.12,0,0,0-3.91-2.21c-.2,0-1,0-1,.28.9.77,2.19,1.38,3.12,2.15a4.34,4.34,0,0,1,1,1.32"/><path class="cls-2" d="M107.67,23.54c.5.83.78,1.74,1.24,2.6a6.24,6.24,0,0,0,.38.66c.12.18.34.65.34.46a1.83,1.83,0,0,0-.11-.6,30,30,0,0,0-1.38-3.07c.25.44.46.9.74,1.32.17.27.28.57.48.85,0,0,0,.12,0,.18s.06.06.1.09c-.11-1.09-.37-2.16-.55-3.25-1.24-1.14-2.82-3.15-4.51-3.67-.16.28.14.52.27.73.72,1.18,2.23,2.46,3,3.7"/><path class="cls-2" d="M109.13,22.54c.41,1.25.37,2.56.84,3.78.11.28.4-.13.42-.26a5.57,5.57,0,0,0-.23-2.44c-.16-.43-.33-.84-.48-1.27.45.59.55,1.34.93,1.94a8.69,8.69,0,0,0,0-2,6.22,6.22,0,0,1-.18-.95,1.65,1.65,0,0,0-.49-.65,16.4,16.4,0,0,0-3.23-2.79.92.92,0,0,0-.25.08c.14.55,1.12,1.5,1.37,2a17.78,17.78,0,0,1,1.26,2.6"/><path class="cls-2" d="M110.91,23.61c0,.6-.09,1.2-.13,1.81a1.3,1.3,0,0,0,.25.79s.11,0,.12,0a3.78,3.78,0,0,0,.26-1.82,25.78,25.78,0,0,0-.27-3.93,32.53,32.53,0,0,1,.6,5.11,9,9,0,0,0,.49-2.95,6.66,6.66,0,0,0-.62-2.46,6.73,6.73,0,0,0-1.18-1.61c-.11-.13-.62-.57-.7-.37s.36.81.47,1a9.7,9.7,0,0,1,.71,4.39"/><path class="cls-2" d="M111.92,25.82c0,.07.39.13.45-.07a7.32,7.32,0,0,0,.26-.88,11.53,11.53,0,0,0,.19-1.67,8.17,8.17,0,0,0-.11-1.12c.18.15.15.4.19.6a11.19,11.19,0,0,1,0,2.65.06.06,0,0,0,.09.05,2.22,2.22,0,0,0,.65-.76,2.72,2.72,0,0,0,.09-1.23c-.14-1-.4-2.59-1.25-3.22,0,0-.08.06-.08.1s0,1.36,0,1.58a13.71,13.71,0,0,1-.48,4"/><path class="cls-2" d="M112.92,25.73s.07.05.12.08a.39.39,0,0,1,.18.26.35.35,0,0,0,.46.07A4.35,4.35,0,0,0,115,23.83c0-.43,0-1.1-.25-1.22s-.19.29-.24.45a9,9,0,0,1-.63,1.58c-.22.41-.63.66-.93,1.09"/><path class="cls-2" d="M113.92,26.38c-.17.34.24.43.45.67.79-1.07.94-.85,1.36-1.34a1.76,1.76,0,0,0,.14-2,11.32,11.32,0,0,0-1.35,1.84,3.54,3.54,0,0,0-.6.81"/><path class="cls-2" d="M109.93,28.2c.08.12.18.4.24.32a1.31,1.31,0,0,0,.4-.93s0-.12.05-.16a4.91,4.91,0,0,0-.05-1.2c-.35.12-.45.46-.61.73a.9.9,0,0,0-.1.63,1.71,1.71,0,0,0,.07.61"/><path class="cls-2" d="M111.68,26.08a1.42,1.42,0,0,0-.91,1.35c0,.2-.27.54,0,.51a.62.62,0,0,1,.69.37c0,.16.07,0,.13,0a2.63,2.63,0,0,1,.22-2c.06-.08,0-.23-.09-.22"/><path class="cls-2" d="M112.19,28a1.83,1.83,0,0,1,.64-1.58c.12-.09-.07-.29-.22-.37a.16.16,0,0,0-.15,0,1.53,1.53,0,0,0-.6.56,1.61,1.61,0,0,0,0,1.45c.06.13.37.07.36-.07"/><path class="cls-2" d="M113.1,26.83a1.4,1.4,0,0,0,.39-.26.18.18,0,0,0-.12-.24c-.23,0-.38.18-.48.35a1.48,1.48,0,0,0-.47,1.14,2.74,2.74,0,0,1,.68-1"/><path class="cls-2" d="M112.91,28.18a2,2,0,0,0,.6-.51c.19-.24.37-.09.46-.27a.42.42,0,0,0-.08-.44c-.24-.13-.42,0-.63.14a1.37,1.37,0,0,0-.58,1c0,.09.16.06.23,0"/><path class="cls-2" d="M114.11,27.45c.14.08.35,0,.42.17s.09.12.1.18c.11.37-.21.72.08,1,.19-.27.59-.62.77-.9a2.92,2.92,0,0,1,.52-.64c.31-.29,1.14-.58,1.35-1a3.23,3.23,0,0,0,.24-1c0-.14.15-.37,0-.4s-1,.44-1.26.61c-.44.36-.76.75-1.2,1.12a6.61,6.61,0,0,0-1,.84"/><path class="cls-2" d="M116.08,27.55c-.44.4-1.17,1.08-1.11,1.61,0,.16.5,0,.72.11s.07.19,0,.31c.23.06.46,0,.67.07s.06.25.14.35.31.13.34.05a6.17,6.17,0,0,1,2.07-2.21c.25-.15.18-.78-.06-.83-.81-.15-1.89,1-2.15,1.79-.11-.78,1-1.44,1.18-1.64s.21-.51,0-.54c-.54-.09-1.46.56-1.87.93"/><path class="cls-2" d="M117.56,29.28a1.43,1.43,0,0,0-.26.58c-.06.19-.43.69-.26.8s.37-.13.46,0c.42.74.86.27.92.66,0,.11.28,0,.34,0,.54-.59,2.11-1.61,2-2.53-.36-.24-.84,0-1.17.24s-.79.72-1,.88c-.07.06,0-.1,0-.11a6.28,6.28,0,0,1,1.41-1.31c.2-.12.3-.56,0-.66-.52-.2-1.44.49-1.85.87-.21.2-.38.39-.56.59"/><path class="cls-2" d="M118,33.79a1.11,1.11,0,0,0,.41-.14,4.59,4.59,0,0,0,1.31-1.13c.26-.4.6-.72.86-1.12,0-.07.11-.24,0-.2-.31.08-.43.38-.69.53.52-.84,1.21-1.22,1-2.07,0-.16-.82.61-1,.8s-.58.41-.64.71a6.82,6.82,0,0,0,.07,1.08c0,.14.1.34,0,.51s0,.2-.1.13,0-.43-.31-.38-.19.31-.4.32c0-.47.69-.85.18-1.14-.25-.14-.44.22-.73.25.07-.12.21-.21.26-.35a.22.22,0,0,0-.2-.25,3.88,3.88,0,0,0-.79.27c.11-.2.34-.56.12-.69s-.49.21-.77.31c.06-.25.24-.51.11-.71s-.53-.05-.82,0c.11-.21.35-.44.21-.61s-.7-.05-1.06,0c.09-.2.31-.39.18-.51-.3-.24-.79.08-1,.41,0,0,0-.12,0-.15a1.74,1.74,0,0,0,.11-1.18c-.08-.18-.4,0-.52-.09.17-.09.46-.16.49-.34s0-.36-.15-.36a1.43,1.43,0,0,0-1.27.84c0,.05,0,.16,0,.22s-.09,0-.09,0a.14.14,0,0,0-.08-.23.24.24,0,0,0-.22,0c-.23.16-.47.46-.69.59,0-.28.33-.69,0-.82s-.43.29-.68.45a.36.36,0,0,0,.06-.39.34.34,0,0,0-.47-.15,1.24,1.24,0,0,0-.64,1.08,2.43,2.43,0,0,1-.13-.69c0-.12-.16-.23-.21-.21a.65.65,0,0,0-.12.91c.15.21.48.22.62.46a1.23,1.23,0,0,1,0,.28.48.48,0,0,0-.2-.22c-.11,0-.26-.09-.27.06s-.22.78-.12,1,.11.8.48,1A8.23,8.23,0,0,1,114,34.44a12.21,12.21,0,0,1,4-.65"/><path class="cls-2" d="M124.52,28.24c0,.07.18,0,.17.09s-.17.07-.26.06-.06-.08-.07-.15.13,0,.16,0"/><path class="cls-2" d="M123,30.17c-.08.06-.15.14-.22.09s.07-.11,0-.17-.15-.17-.09-.22a.26.26,0,0,1,.36.06c0,.06.06.14-.07.24"/><path class="cls-2" d="M122.17,27c.06-.05.06-.14.14-.2a1.21,1.21,0,0,1,.33-.07c.12,0,.11-.21.14-.29a16.81,16.81,0,0,1,.41-2,10.57,10.57,0,0,0-.07,1.76c0,.14.26.21.42.28s.19-.13.19-.23a9.06,9.06,0,0,0-.18-3.07s-.36.26-.4.28c-1.55.88-1.12,3.35-1,3.51"/><path class="cls-2" d="M124.94,41.35a6.17,6.17,0,0,1-1.64-3.16c0-.16-.07-.21,0-.23.26-.08.11-.36.12-.59a.47.47,0,0,0,.3.25c.11,0,.07-.14.13-.12s-.09.09,0,.17c-.18.11-.33.22-.34.41a3.74,3.74,0,0,0,.64,1.61.74.74,0,0,0,.38.4.17.17,0,0,0,.24-.15.93.93,0,0,0,0-.52,12.74,12.74,0,0,1-.67-1.33c.51.72.86,1.8,1.84,1.94.13,0,.19-.23.1-.34-.61-.75-1.07-1.44-1.67-2.16,0,0-.15-.06-.21-.08a5.42,5.42,0,0,0-1.48-.65c0-.07-.09-.11-.06-.13s.26,0,.27-.17.07-.32-.07-.41-.31,0-.47.14-.14,0-.17.05a.5.5,0,0,1-.38.17c-.24,0-.2-.29-.23-.48s-.07-.09-.09-.08a8.69,8.69,0,0,1-1.24,0c-.08,0-.09-.1-.15-.16s0-.08,0-.11a.24.24,0,0,0,.19.12c.18,0,.08-.3.11-.45s.14.12.2.06a5.87,5.87,0,0,0,.93-1.38c.37-.67.44-1.1.82-1.78,0,0,0-.13,0-.17,0-.19.18-.35.32-.5-.06-.05-.17-.15-.12-.22s.23-.12.21-.15-.16-.16-.15-.23.13-.14.17-.23-.09-.21.07-.32a.17.17,0,0,1,.12,0c.24.14.17.3.1.48s.21,0-.1.47c-.08.12.11.2,0,.46s-.26.27-.31.43a3.93,3.93,0,0,0-.15.94,3.48,3.48,0,0,1-.29,1.14c-.12.3-.4.51-.47.82a.21.21,0,0,0,.26.24c.12,0,.1-.19.19-.28,0,.3,0,.86.41.7.21-.1.08-.48-.07-.68,0,0,.06-.07.07,0s.12.22.22.25a.19.19,0,0,0,.27-.09c.06-.23-.15-.37-.27-.55,0,0,.09,0,.14,0s.1.09.16.12a.33.33,0,0,0,.43-.27c0-.15-.14-.24-.28-.31.14-.14.37-.07.4-.31s-.14-.26-.2-.41c.18,0,.39-.05.43-.23s-.21-.21-.37-.16c0-.05,0-.11,0-.14a.8.8,0,0,0,.5-.33,1.09,1.09,0,0,0-.54-.26s0-.06,0-.08.09.08.15,0,.06-.08.09-.09c.2,0,.41-.13.42-.28s-.46-.14-.38-.38c0-.08.22-.13.27-.23s-.2-.22-.17-.31.36-.09.42-.27-.14-.19-.28-.28,0-.05,0-.08c.21,0,.44,0,.55-.24,0-.05,0-.12-.07-.18s-.27-.14-.25-.19.51,0,.54-.22-.25-.24-.38-.39c.21,0,.5.11.54-.14s-.32-.14-.42-.34c.32,0,.86,0,.94-.39s-.38-.11-.6-.11a.11.11,0,0,0-.05-.13c.33-.1.8-.14.8-.54,0-.16-.22-.24-.37-.22s-.33.4-.65.39a1.83,1.83,0,0,0,.36-.43c.08-.17.21-.3.19-.46s-.19-.06-.31,0-.11.26-.22.37-.11,0-.13,0,0-.16.05-.24,0-.39-.1-.38a.44.44,0,0,0-.37.28c-.12-.15,0-.39-.21-.39s-.23.34-.21.56c-.12-.17-.25-.52-.49-.43-.54.23-.35.85-.6,1.3a7.16,7.16,0,0,0,0-.8s0-.07-.09,0c-.54.35-.45,1-.53,1.56a11.73,11.73,0,0,1-.55,2.13,7.23,7.23,0,0,1-1.26,2,12.23,12.23,0,0,1-1.27,1A6.75,6.75,0,0,0,117.3,35c-.17.2-.35.41-.23.66s.17,0,.22-.1a.35.35,0,0,0,.25.15c.27,0,.22-.24.16-.42.12,0,.15.14.25.17.26,0,.25-.24.35-.4,0,0,.06.06.1,0a.74.74,0,0,1-.17.57c-.11.1-.3-.14-.4,0s0,.15,0,.17.32-.15.46-.08,0,.2-.13.23a.28.28,0,0,1-.42-.09c-.24.11-.51,0-.76,0a.42.42,0,0,1-.28-.12c-.51-.46-.51-1.31-.45-1.09s-.19.25-.21.4.2.1.27.31-.1.33,0,.39a.5.5,0,0,1,.11.81c-.06.05.07.27,0,.33s-.06.19-.16.22a.57.57,0,0,1,.28.37L124,42.32a.42.42,0,0,0,.52,0Z"/><path class="cls-2" d="M124.79,26.29c.34-.38.59-.94,1.1-1.17a12.59,12.59,0,0,0-.81,1.2c0,.07-.07.23,0,.25a1,1,0,0,0,.59-.19c.24-.15.53-.22.64-.39a4.38,4.38,0,0,0,.54-1.23.27.27,0,0,0-.2-.39,2.53,2.53,0,0,0-1.31.36,3.19,3.19,0,0,0-1.15,1.13.34.34,0,0,0,0,.42.34.34,0,0,0,.56,0"/><path class="cls-2" d="M126.39,26.24c-.21.15-.59.08-.64.46,0,.08,0,.21,0,.22a.92.92,0,0,1,.48.31c.27-.24.56-.7.39-1,0-.05-.18,0-.26,0"/><path class="cls-2" d="M127.08,25.71a1.23,1.23,0,0,0-.37.26c.05.05.15.06.19.14.1.24-.22.71,0,.67s.37,0,.48,0a2.72,2.72,0,0,0,.89-1.26c-.38-.23-.81.08-1.17.22"/><path class="cls-2" d="M128.74,27.48c.3-.31.52-.63.45-.79s-.49-.2-.78-.18a1.12,1.12,0,0,0-.82.55c.26,0,.53.06.65.26s-.11.32-.23.47c.2.08.6-.17.73-.31"/><path class="cls-2" d="M126.33,27.38c-.06.1,0,.25.11.24.37,0,.63.18,1,.16.12,0,.43-.38.46-.51.07-.28-.44-.25-.69-.24a1,1,0,0,0-.83.35"/><path class="cls-2" d="M127.64,28.21c0-.28-.69-.34-1.1-.38-.19,0-.32.21-.28.25.27.26.48.21.73.45s.67-.17.65-.32"/><path class="cls-2" d="M128.2,27.75c-.18,0-.51-.05-.52.16s.34.2.29.39-.35.32-.55.46.08.32.21.31a3.21,3.21,0,0,0,1.94-.86,1.58,1.58,0,0,0-1.37-.46"/><path class="cls-2" d="M126.67,28.56a.65.65,0,0,0-.38-.12c-.07,0-.17.21-.11.26.25.21.5.38.74.58.06-.21.34-.11.33-.2,0-.26-.34-.39-.58-.52"/><path class="cls-2" d="M126.59,29.78c.06-.36-.39-.61-.71-.78s-.63.24-.45.33.1.36.54.5c.2.07.59.09.62,0"/><path class="cls-2" d="M129.44,29.41a.69.69,0,0,0-.68-.37,4.08,4.08,0,0,0-1,.34c.36.14.43.47.67.57s.59-.18,1-.41c0,0,0-.09,0-.13"/><path class="cls-2" d="M128.32,30.33a2,2,0,0,0-.71-.78c-.15-.07-.32,0-.45-.14s-.08.08-.08.1.22.24.14.36-.55.09-.72.34a1.55,1.55,0,0,0,1.82.12"/><path class="cls-2" d="M125.29,29.54c-.06.18-.09.39-.21.48s-.08.27-.2.41,0,.09,0,.08c.44-.15.57-.73.63-.51a.67.67,0,0,0-.26-.46"/><path class="cls-2" d="M125.54,30.3s0,.07,0,.08a.58.58,0,0,0,.39-.05.27.27,0,0,0,0-.44l-.26-.22c-.08.13.09.25,0,.37s-.15.16-.21.26"/><path class="cls-2" d="M126.62,24.1c.19,0,.43.13.49.26a1,1,0,0,1,0,.89c0,.05,0,.19,0,.16.67-.51.75-1.55,1.12-2.35a8.94,8.94,0,0,0,.77-1.89,2.94,2.94,0,0,0-.2-2c-.13-.22-.64.54-.77.8a3.55,3.55,0,0,0-.32.61,5.73,5.73,0,0,1-.48,1.18c-.19.35-.44.8-.65,1.12-.39.58-.76.89-1.17,1.42.32,0,.89-.26,1.2-.18"/><path class="cls-2" d="M127.64,25.16c.2.28.54-.1.77.29.12.2,0,.53.08.57.79.28.65-.58.87-1,.51-1,.85-1.76,1.38-2.85a6.24,6.24,0,0,0,.69-1.29,5.14,5.14,0,0,0-.11-2.78s-.07-.13-.13-.08a11.8,11.8,0,0,0-1.13,2.31c-.4.72-.86,1.31-1.19,2-.43.94-.78,1.89-1.23,2.81"/><path class="cls-2" d="M132.81,22.91a1.11,1.11,0,0,0-.31.49,9.47,9.47,0,0,1-1,2.41,4.4,4.4,0,0,1-.7.86c-.41.41-1.15.55-1.41.92-.07.1.46.27.58.48s-.36.34-.25.64a4.44,4.44,0,0,0,2.15-.88,2.59,2.59,0,0,0,.87-1.56A14.76,14.76,0,0,0,135,23.7a10.19,10.19,0,0,0,1.73-3.49c.05-.22.33-.74.39-.93a1.87,1.87,0,0,0-.09-1,6.13,6.13,0,0,0-1.28,1.53c-.83,1.28-2.05,2-3,3.11"/><path class="cls-2" d="M134.92,24.47a16.2,16.2,0,0,0-1.7,1.57,1,1,0,0,0-.2.32A3.12,3.12,0,0,1,131.94,28a4,4,0,0,1-2.39,1s-.06.06-.09.1c.14.1.09.4.21.37a10.2,10.2,0,0,0,3.71-1.41c.83-.56,1.2-1.61,2-2.23,1.37-1.1,3.78-2.15,3.71-4.89a1.51,1.51,0,0,0-.46.26c-.6.56-1.39,1.48-2.05,2S135.55,24,134.92,24.47Z"/><path class="cls-2" d="M136.53,27.62c.2-.12.32-.29.51-.41a3.73,3.73,0,0,0,.82-.86s.11-.21.13-.17a7.3,7.3,0,0,0,1.37-2c0-.06,0-.34-.12-.32a4,4,0,0,0-1.31.72,14.79,14.79,0,0,0-3,2.12,11.53,11.53,0,0,1-2,1.94,6.57,6.57,0,0,1-1.26.59,14.86,14.86,0,0,1-2,.59c-.06,0-.07.12-.12.19s0,.07.05.08a9.67,9.67,0,0,0,2.38-.24c1-.24,1.94-.32,2.9-.62a17.29,17.29,0,0,1-5.6,1.13c-.16,0-.34.16-.51.27a1.91,1.91,0,0,0,1.06.18c1.24,0,2.52-.15,3.75-.21-.48.28-1.08.11-1.54.43.5.08.5.65.81.65a9.3,9.3,0,0,0,3.69-.77,2.24,2.24,0,0,0,1-.72l.17-.22a.83.83,0,0,0-.89-.18,15.68,15.68,0,0,1-2.06.58.58.58,0,0,1-.39,0,8.49,8.49,0,0,0,2.9-1.29c.55-.44,1.72-1.22,2-1.87-.59-.18-1.81.43-2.38.53-.25.05-.49.23-.75.29a1.1,1.1,0,0,1,.41-.39"/><path class="cls-2" d="M134.68,31.7c-.61.11-1.2.1-1.81.18a2.81,2.81,0,0,0-1,.44c.16.14.23.38.42.47a2.09,2.09,0,0,0,1.19.09.94.94,0,0,0,.74-.28c-.12-.08-.18-.25-.12-.27.32-.12.57-.14.77-.41.08-.11-.12-.23-.18-.22"/><path class="cls-2" d="M131.7,32.07c.22,0,.61-.1.61-.36a.77.77,0,0,0-.68-.66,29.57,29.57,0,0,1-3.3-.27c-.4.35-.93.3-1.4.43a9.12,9.12,0,0,0,4.77.86"/><path class="cls-2" d="M126.76,32.24s-.21-.12-.12-.11a7.56,7.56,0,0,1,2,.51,4.62,4.62,0,0,0,.85.32A4.42,4.42,0,0,0,132,33c-.12-.34-.36-.72-.76-.72a8.74,8.74,0,0,1-4.44-.95c-.56.1-.33,1.57-.29,1.66.17.38.66.45,1,.72-.38-.11-1.13-.69-1.14,0a1.12,1.12,0,0,0,.22.57,4.77,4.77,0,0,0,1.69,1.46,2,2,0,0,0,1.53.43c.19-.05.11-.35,0-.49s-.33-.1-.5-.14a6.55,6.55,0,0,1-2.83-1.79c.58.26,1,.74,1.55,1.06a2.51,2.51,0,0,0,1.92.46c.25-.07.08-.48-.09-.52l-.7-.26a4.57,4.57,0,0,1-1-.47c.73.15,1.4.6,2.18.43,0-.39-.33-.61-.56-.85a6.55,6.55,0,0,0-3-1.32"/><path class="cls-2" d="M132.42,33c-.1,0,0,.24-.13.29a3.15,3.15,0,0,1-1.37.08c-.28,0-.54-.06-.82-.1,0,0-.06.06,0,.07s.65.63.48.91-.17.4.08.45.54,0,.59-.19-.16-.53-.32-.72a3.43,3.43,0,0,0,.44.19,1.13,1.13,0,0,0,.48,0,8.27,8.27,0,0,0,1.32-.24C133.11,33.35,132.83,33,132.42,33Z"/><path class="cls-2" d="M127.73,35.37c-.49-.38-.87-.84-1.34-1.24-.06.1-.17,0-.22.08s0,.4.06.54a3.29,3.29,0,0,0,1,1,6.58,6.58,0,0,0,1.08.68,1,1,0,0,0,.82.13c.15,0,.13-.28,0-.34-.42-.37-1-.56-1.44-.9"/><path class="cls-2" d="M127.08,35.91c-.34-.28-.58-.64-.92-.9,0,.09-.18,0-.21.07a.71.71,0,0,0,0,.77,4.24,4.24,0,0,0,1.84,1.39c.17.07.5.15.62,0s-.1-.33-.17-.4c-.4-.39-.76-.6-1.19-1"/><path class="cls-2" d="M126.76,36.92c-.4-.3-.65-.69-1-1,0,0-.11,0-.13,0s-.24.46-.15.59c.47.76,1.26,1.71,2.15,1.69.16,0,.13-.5.06-.6a4.29,4.29,0,0,0-.91-.67"/><path class="cls-2" d="M126.6,38c-.46-.54-.89-1-1.37-1.51-.07-.09-.31-.17-.38-.06a.51.51,0,0,0,0,.52,7.38,7.38,0,0,0,1.86,1.84.3.3,0,0,0,.31,0c.3-.26-.2-.49-.42-.75"/><path class="cls-2" d="M125.6,38.09a10.35,10.35,0,0,1-.85-1c0-.08-.36,0-.32.08a7.9,7.9,0,0,0,1.7,2.12c.05,0,.22,0,.29,0s.1-.27,0-.35c-.32-.32-.54-.6-.84-.93"/><path class="cls-2" d="M125.89,30.78c-.35,0-.3-.14-.63-.13-.15,0-.36-.08-.44.08s-.14.4-.23.44,0,.7,0,.75a1.13,1.13,0,0,0,1,.54c.15,0,.42,0,.5-.16s0-.21-.18-.23l0,0c.14-.08.06-.33,0-.44-.13-.3-.48,0-.69-.25.34,0,.72,0,.91-.23S126.06,30.78,125.89,30.78Z"/><path class="cls-2" d="M125.9,33.87c.19-.07.06-.3,0-.39s-.53-.09-.78-.23-.26-.1-.34-.21-.21-.13-.13-.12c.4,0,.86.41,1.24.12.08-.06.1-.28,0-.31a2.22,2.22,0,0,1-.77-.23,2.45,2.45,0,0,1-.47-.38c-.12-.11-.31,0-.28.09s-.14.56-.13.58c.1.17-.06.32,0,.43s.12.23.25.27.31.21.49.24.62.27,1,.14"/><path class="cls-2" d="M125.68,34.48c-.2-.23-.54-.14-.82-.29a3.85,3.85,0,0,1-.71-.55c-.14-.13-.21.23-.12.35-.2-.27,1.4.76,1.45.78.22,0,.31-.16.2-.29"/><path class="cls-2" d="M125.51,35.24c.26-.39-.34-.5-.67-.61s-.56-.42-.84-.62c-.06,0-.08.07-.14.1.28.24,0,.39.08.54.29.47,1.3,1,1.57.59"/><path class="cls-2" d="M125,35.62c-.07-.15-.25-.13-.41-.2a1.72,1.72,0,0,1-.69-.57c-.13-.17-.47,0-.44,0a2.26,2.26,0,0,0,1.59,1.06c.15,0,0-.2,0-.3"/><path class="cls-2" d="M123.39,35.39c-.22.18-.31,0-.37.09-.34.58.71,1.24,1.13,1.37.26.1.37-.21.29-.43s-.79-1.24-1-1"/><path class="cls-2" d="M129.32,26.2a.84.84,0,0,1-.16,1.15s0,.1,0,.08a5.2,5.2,0,0,0,1.44-1,3.69,3.69,0,0,0,.6-.7,9.06,9.06,0,0,0,.84-1.56,1.94,1.94,0,0,0,.16-.66,1.26,1.26,0,0,1,.2-.59,5.49,5.49,0,0,0,1.4-1.9c.34-1.19.7-3.06,0-4.15a.86.86,0,0,0-.26.31c-.21.39-.49,1.25-.65,1.64A7.93,7.93,0,0,1,131.7,21a3.92,3.92,0,0,0-.62.92c-.68,1.42-1.21,2.84-1.76,4.28"/><path class="cls-2" d="M121.66,35.44c-.06.06-.18.13-.15.2s0,.54.21.57.17-1,.19-.56c0-.15-.19-.12-.25-.21"/><path class="cls-2" d="M119.35,36.58a.39.39,0,0,0,.27-.21s0-.07,0-.09,0-.09,0-.08c.19.1.29-.06.34-.18a.23.23,0,0,0,0,.14c.06.07.18.13.18.22a.24.24,0,0,1-.35.22c-.07.38-.53.43-.9.37,0,0-.11.09-.17.11a.44.44,0,0,1-.52-.1c-.09-.13,0-.2.1-.29a.08.08,0,0,0,.07.08.15.15,0,0,0,.13,0,1.21,1.21,0,0,0,.21-.28c0-.07.13.08.22.11a1.5,1.5,0,0,0,.42,0"/><path class="cls-1" d="M184.24,18.16h-.58l-.59.19-.39.39-.2.79-.1,1.17V29a5.25,5.25,0,0,1-4.89,2.74,4.87,4.87,0,0,1-4.7-2.74V18.94l-.19-.59-.59-.19h-.78l-.1-.1v-.2l.1-.09h1.07l1.57.09,1.56-.09h1.08l.1.09v.2l-.1.1h-.78l-.59.19-.19.59v9.49c0,1.27,1.46,2.45,3.22,2.45s3.43-1.18,3.43-2.45V20.7l-.1-1.17-.19-.79-.4-.39-.58-.19h-.59l-.1-.1v-.2l.1-.09h.88l1.37.09,1.37-.09h.88l.1.09v.2Z"/><path class="cls-1" d="M185.51,31.66a1.37,1.37,0,1,1,1.37-1.37A1.34,1.34,0,0,1,185.51,31.66Z"/><path class="cls-1" d="M192.82,31.76a4,4,0,0,1-3.14-1.08h-.09l-.79.79h-.19l-.1-.1-.2-4.41.1-.19h.29l.1.19.39,1.08c.79,2.15,2,3.23,3.43,3.23h.2a2.68,2.68,0,0,0,2.74-2.74c0-1.47-1-2.54-3.14-3.33-2.8-1-3.81-2.15-3.81-4.11s1.76-3.62,4.4-3.62a3.76,3.76,0,0,1,2.64,1h.1l.69-.68h.19l.1.09v3.62l-.1.2h-.29l-.1-.2-.39-1.07A3.33,3.33,0,0,0,193,18h-.1a2.31,2.31,0,0,0-2.44,2.45c0,1.37.68,2,3.13,2.84,2.6.88,3.81,2.25,3.81,4.3C197.41,30,195.56,31.76,192.82,31.76Z"/><path class="cls-1" d="M199.75,31.66a1.37,1.37,0,1,1,1.37-1.37A1.34,1.34,0,0,1,199.75,31.66Z"/><path class="cls-1" d="M212.67,31.47H211.5l-2.35-.1-1.57.1h-1.17l-.1-.1v-.2l.1-.1h.88l.58-.19.2-.59V18.94l-.2-.59-.58-.19h-.79l-.09-.1v-.2l.09-.09h1.08l1.57.09,2.35-.09h1.17a6.27,6.27,0,0,1,6.46,6.45v.4A6.74,6.74,0,0,1,212.67,31.47Zm-.49-13.22H211l-.59.2-.2.39V30.39l.2.39.59.2h1.17c2.94,0,4.6-2.35,4.6-6.36S215.12,18.25,212.18,18.25Z"/><path class="cls-1" d="M228.37,26.28H222.3l-.1.2v.68c0,2.35,1,3.72,2.74,3.72a2.83,2.83,0,0,0,2.74-2.55l.1-.09H228a.45.45,0,0,1,.4.49,3.68,3.68,0,0,1-3.72,2.93,4.34,4.34,0,0,1-4.6-4.7v-.19a4.61,4.61,0,0,1,4.6-4.89c2.25,0,3.72,1.66,3.81,4.3Zm-3.92-3.92c-1.27,0-2,1.28-2.21,3.39h4l.2-.19C226.41,23.44,225.73,22.36,224.45,22.36Z"/><path class="cls-1" d="M235,31.66a3.15,3.15,0,0,1-2.74-1.17v4.69l.2.4.59.19h.68l.1.1v.2l-.1.09h-1l-1.46-.09-1.47.09H229l-.1-.09v-.2l.1-.1h.58l.59-.19.2-.4V23.05l-.2-.39-.59-.2h-.49l-.09-.1v-.19l.09-.1h3.13l.1.1v1.66a3.44,3.44,0,0,1,2.94-1.95c2.35,0,3.91,1.85,3.91,4.69S237.48,31.66,235,31.66Zm-.39-8.9c-1,0-1.86.78-2.35,2.15v4.5a2.36,2.36,0,0,0,2.25,1.47c1.47,0,2.45-1.57,2.45-4.11S236.21,22.76,234.64,22.76Z"/><path class="cls-1" d="M247.56,31.66a1.88,1.88,0,0,1-1.76-1.76A3,3,0,0,1,243,31.66a2.45,2.45,0,0,1-2.74-2.44c0-1.86,1.66-2.84,4.89-2.84h.49l.1-.1V23.93a1.73,1.73,0,0,0-1.77-1.37,2.29,2.29,0,0,0-1.56.59v1.37a1.15,1.15,0,0,1-1.08.78.78.78,0,0,1-.88-.88c0-1.17,2-2.54,3.92-2.54h.1a3.19,3.19,0,0,1,3.23,1.95v6.36l.19.39.29.3.4.1.58-.2h.2l.09.1v.19A2.74,2.74,0,0,1,247.56,31.66ZM245.7,27l-.1-.09h-.49c-1.86,0-2.94.84-2.94,2.25a1.5,1.5,0,0,0,1.57,1.66,2.1,2.1,0,0,0,2-1.47Z"/><path class="cls-1" d="M256.08,24.81a.91.91,0,0,1-.88-.78v-.1l.68-.68a.57.57,0,0,0-.59-.59c-.78,0-1.47,1.21-1.86,3.33v4.5l.2.39.59.19H255l.1.1v.2l-.1.1h-1.08l-1.47-.1-1.46.1h-.88l-.1-.1v-.2l.1-.1h.58l.59-.19.2-.39V23.25l-.2-.59-.59-.2h-.48l-.1-.1v-.19l.1-.1h2.93l.1.1v2.64c.39-2,1.17-2.93,2.44-2.93a1.46,1.46,0,0,1,1.57,1.56A1.25,1.25,0,0,1,256.08,24.81Z"/><path class="cls-1" d="M261.39,31.66a2.51,2.51,0,0,1-2.45-1.47V22.76l-.1-.1h-1.27l-.1-.1v-.2l.1-.09,1.18-.2.19-.19.39-2,.2-.2,1.18-.58.19.19V22l.1.1h2.44l.1.1v.39l-.1.1H261l-.1.1v6.55c0,1.08.29,1.67,1,1.67s1-.49,1-1.37V28.33l.1-.09c.3,0,.59.29.59.78v.49A2.05,2.05,0,0,1,261.39,31.66Z"/><path class="cls-1" d="M280.22,31.47h-.79l-1.46-.1-1.47.1h-.78l-.1-.1v-.2l.1-.1h.49l.58-.19.2-.39V23.83a1.48,1.48,0,0,0-1.47-1c-.88,0-1.76.79-2.29,2.16v5.48l.2.39.58.19h.49l.1.1v.2l-.1.1h-.74l-1.47-.1-1.47.1H270l-.1-.1v-.2l.1-.1h.49l.59-.19.19-.39V23.83a1.47,1.47,0,0,0-1.47-1c-.87,0-1.76.79-2.29,2.16v5.48l.2.39.59.19h.49l.09.1v.2l-.09.1h-.75l-1.47-.1-1.46.1h-.88l-.1-.1v-.2l.1-.1h.58l.59-.19.2-.39V23.05l-.2-.39-.59-.2h-.48l-.1-.1v-.19l.1-.1h3.09l.09.1V24a3.64,3.64,0,0,1,3.08-2.15A2.66,2.66,0,0,1,273.17,24a3.54,3.54,0,0,1,3-2.15,2.74,2.74,0,0,1,2.7,2.05v6.56l.19.39.59.19h.53l.1.1v.2Z"/><path class="cls-1" d="M289.06,26.28H283l-.1.2v.68c0,2.35,1,3.72,2.74,3.72a2.83,2.83,0,0,0,2.74-2.55l.1-.09h.2a.45.45,0,0,1,.39.49,3.68,3.68,0,0,1-3.72,2.93,4.34,4.34,0,0,1-4.6-4.7v-.19a4.61,4.61,0,0,1,4.6-4.89c2.25,0,3.72,1.66,3.82,4.3Zm-3.92-3.92c-1.27,0-2.05,1.28-2.21,3.39h4l.19-.19C287.1,23.44,286.41,22.36,285.14,22.36Z"/><path class="cls-1" d="M300.32,31.47h-.88l-1.47-.1-1.47.1h-.88l-.09-.1v-.2l.09-.1h.59l.59-.19.2-.39V23.93a1.52,1.52,0,0,0-1.47-1.08c-1.08,0-2,.79-2.45,2.25v5.39l.2.39.58.19h.59l.1.1v.2l-.1.1h-.88l-1.47-.1-1.47.1h-.88l-.09-.1v-.2l.09-.1h.59l.59-.19.19-.39V23.05l-.19-.39-.59-.2h-.49l-.1-.1v-.19l.1-.1H293l.1.1V24a3.52,3.52,0,0,1,3.23-2.15A2.7,2.7,0,0,1,299,23.93v6.56l.2.39.58.19h.59l.1.1v.2Z"/><path class="cls-1" d="M303.94,31.66a2.5,2.5,0,0,1-2.45-1.47V22.76l-.09-.1h-1.28l-.1-.1v-.2l.1-.09,1.18-.2.19-.19.4-2,.19-.2,1.17-.58.2.19V22l.1.1H306l.1.1v.39l-.1.1h-2.44l-.1.1v6.55c0,1.08.29,1.67,1,1.67s1-.49,1-1.37V28.33l.09-.09c.3,0,.59.29.59.78v.49A2.05,2.05,0,0,1,303.94,31.66Z"/><path class="cls-1" d="M175.92,51.71a4.26,4.26,0,0,1-4.4-4.6v-.2c0-2.93,2-5,4.6-5a4.26,4.26,0,0,1,4.4,4.6v.2C180.52,49.65,178.57,51.71,175.92,51.71Zm.1-9.3c-1.56,0-2.35,1.47-2.35,4.41s.79,4.4,2.35,4.4,2.35-1.47,2.35-4.4S177.59,42.41,176,42.41Z"/><path class="cls-1" d="M187.38,39.67a.92.92,0,0,1-1-1V38.6l.68-.69a1.39,1.39,0,0,0-1.18-.59c-.84,0-1.46.79-1.46,1.86V42l.09.1h2.06l.1.09v.4l-.1.1h-2.06l-.09.09v7.73l.19.4.59.19h.88l.1.1v.2l-.1.09H185l-1.56-.09-1.57.09h-.78l-.1-.09v-.2l.1-.1h.59l.58-.19.2-.4V42.8l-.1-.09h-1.27l-.1-.1v-.2l.1-.09,1.17-.2.2-.2V39.77a3.52,3.52,0,0,1,3.33-2.94h.09c1.37,0,2.45.78,2.45,1.86A1.05,1.05,0,0,1,187.38,39.67Z"/><path class="cls-1" d="M202.55,38.2H202l-.59.3-.49.49-.29.58-4,11.94-.19.1h-.59l-.2-.1-4.2-12.62-.49-.49-.59-.2h-.59l-.09-.09v-.2l.09-.1h1l1.57.1,1.56-.1h1.67l.09.1v.2l-.09.09h-.88l-.59.2-.2.39v.29l3,9.11.1.39.09-.39,2.74-8.71V39l-.19-.39-.2-.2-.59-.2h-.78l-.1-.09v-.2l.1-.1h1.28l1.17.1,1.17-.1h.88l.1.1v.2Z"/><path class="cls-1" d="M209,46.33H203l-.1.19v.69c0,2.35,1,3.72,2.74,3.72a2.83,2.83,0,0,0,2.74-2.55l.1-.1h.19a.45.45,0,0,1,.39.49,3.67,3.67,0,0,1-3.72,2.94,4.34,4.34,0,0,1-4.59-4.7v-.19a4.61,4.61,0,0,1,4.59-4.9c2.26,0,3.72,1.67,3.82,4.31Zm-3.91-3.92c-1.27,0-2.06,1.27-2.21,3.39h4l.2-.2C207.09,43.49,206.4,42.41,205.13,42.41Z"/><path class="cls-1" d="M213.31,51.71a2.49,2.49,0,0,1-2.44-1.47V42.8l-.1-.09H209.5l-.1-.1v-.2l.1-.09,1.17-.2.2-.2.39-2,.19-.19,1.18-.59.19.2V42l.1.1h2.45l.09.09v.4l-.09.1h-2.45l-.1.09v6.56c0,1.08.29,1.66,1,1.66s1-.49,1-1.37V48.38l.1-.1c.29,0,.58.3.58.79v.49A2.05,2.05,0,0,1,213.31,51.71Z"/><path class="cls-1" d="M224.5,46.33h-6.07l-.09.19v.69c0,2.35,1,3.72,2.74,3.72a2.83,2.83,0,0,0,2.74-2.55l.09-.1h.2a.45.45,0,0,1,.39.49,3.68,3.68,0,0,1-3.72,2.94,4.34,4.34,0,0,1-4.6-4.7v-.19a4.62,4.62,0,0,1,4.6-4.9c2.25,0,3.72,1.67,3.82,4.31Zm-3.91-3.92c-1.27,0-2.06,1.27-2.21,3.39h4l.19-.2C222.54,43.49,221.86,42.41,220.59,42.41Z"/><path class="cls-1" d="M231.16,44.86a.93.93,0,0,1-.88-.78V44l.69-.69a.58.58,0,0,0-.59-.58c-.78,0-1.47,1.21-1.86,3.32v4.5l.2.4.59.19h.78l.1.1v.2l-.1.09H229l-1.47-.09-1.46.09h-.88l-.1-.09v-.2l.1-.1h.58l.59-.19.2-.4V43.29l-.2-.58-.59-.2h-.48l-.1-.1v-.2l.1-.09h2.93l.1.09v2.65c.39-2,1.17-2.94,2.44-2.94a1.46,1.46,0,0,1,1.57,1.57A1.25,1.25,0,0,1,231.16,44.86Z"/><path class="cls-1" d="M240.13,51.71A1.88,1.88,0,0,1,238.37,50a3.06,3.06,0,0,1-2.84,1.76,2.45,2.45,0,0,1-2.74-2.45c0-1.86,1.66-2.84,4.89-2.84h.49l.1-.09V44a1.73,1.73,0,0,0-1.76-1.37,2.34,2.34,0,0,0-1.57.58v1.38a1.14,1.14,0,0,1-1.08.78.78.78,0,0,1-.87-.88c0-1.18,1.95-2.55,3.91-2.55h.1a3.2,3.2,0,0,1,3.23,2v6.36l.19.39.3.3.39.09.58-.19h.2l.1.1v.19A2.84,2.84,0,0,1,240.13,51.71ZM238.27,47l-.1-.1h-.49c-1.86,0-2.93.85-2.93,2.25a1.5,1.5,0,0,0,1.56,1.67,2.1,2.1,0,0,0,2-1.47Z"/><path class="cls-1" d="M253.25,51.51h-.88l-1.47-.09-1.47.09h-.88l-.1-.09v-.2l.1-.1h.59l.58-.19.2-.4V44a1.52,1.52,0,0,0-1.47-1.08c-1.08,0-1.95.78-2.45,2.25v5.38l.2.4.59.19h.58l.1.1v.2l-.1.09h-.87L245,51.42l-1.47.09h-.88l-.1-.09v-.2l.1-.1h.58l.59-.19.2-.4V43.1l-.2-.39-.59-.2h-.49l-.09-.1v-.2l.09-.09h3.14l.09.09v1.87a3.54,3.54,0,0,1,3.23-2.16A2.73,2.73,0,0,1,251.88,44v6.55l.19.4.59.19h.59l.09.1v.2Z"/><path class="cls-1" d="M257.72,51.71a3.13,3.13,0,0,1-2.34-.78h-.1l-.59.58h-.19l-.1-.09-.2-3.23.1-.1h.29l.1.19c.63,1.86,1.76,3,3,3h.1a1.73,1.73,0,0,0,1.86-1.72c0-.85-.68-1.53-2.35-2.06-2.15-.68-2.93-1.56-2.93-2.93s1.27-2.65,3.32-2.65a2.91,2.91,0,0,1,2.06.75h.08l.55-.55h.15l.1.09v2.65l-.1.1h-.29l-.1-.2c-.43-1.47-1.37-2.41-2.45-2.41h-.09A1.6,1.6,0,0,0,255.86,44c0,.78.69,1.37,2.26,1.76,1.95.49,3,1.57,3,3C261.15,50.53,259.78,51.71,257.72,51.71Z"/><path class="cls-1" d="M278.47,51.51h-.88L276,51.42l-1.57.09H273l-.09-.09v-.2l.09-.1h.69l.58-.19.2-.2.1-.39v-.29l-1.18-3.39-.19-.14h-4.5l-.2.14-1,3v.59l.2.39.29.3.59.19h.49l.09.1v.2l-.09.09H268l-1.17-.09-1.18.09h-.78l-.1-.09v-.2l.1-.1h.49l.59-.29.48-.49.3-.59,4.11-11.64.19-.2.69-.1.69-.2.19.2,4.31,12.53.39.59.58.19h.59l.1.1v.2ZM271.13,40l-.19-.68-.2.68-2,5.92.09.06H273l.1-.06Z"/><path class="cls-1" d="M290.62,39.67a.92.92,0,0,1-1-1V38.6l.69-.69a1.42,1.42,0,0,0-1.18-.59c-.84,0-1.47.79-1.47,1.86V42l.1.1h2.06l.1.09v.4l-.1.1h-2.06l-.1.09v7.77l.2.4.59.19h.88l.1.1v.16l-.1.09h-1.08l-1.57-.09-1.56.09h-.78l-.1-.09v-.16l.1-.1h.58l.59-.19.2-.4V42.8l-.1-.09h-3.52l-.1.09v7.77l.19.4.59.19h.59l.1.1v.16l-.1.09h-.79L281,51.42l-1.57.09h-.78l-.1-.09v-.16l.1-.1h.59l.58-.19.2-.4V42.8l-.1-.09h-1.27l-.1-.1v-.2l.1-.09,1.17-.2.2-.2V40A3.63,3.63,0,0,1,283.58,37a3.31,3.31,0,0,1,2.64,1.27,3.91,3.91,0,0,1,2.93-1.47c1.37,0,2.45.78,2.45,1.86A1.05,1.05,0,0,1,290.62,39.67ZM285.73,39a2.11,2.11,0,0,0-2-1.38,1.75,1.75,0,0,0-1.76,2V42l.1.1h3.52l.1-.1Z"/><path class="cls-1" d="M297.48,51.71A1.88,1.88,0,0,1,295.72,50a3.06,3.06,0,0,1-2.84,1.76,2.45,2.45,0,0,1-2.74-2.45c0-1.86,1.66-2.84,4.89-2.84h.49l.1-.09V44a1.73,1.73,0,0,0-1.76-1.37,2.34,2.34,0,0,0-1.57.58v1.38a1.16,1.16,0,0,1-1.08.78.78.78,0,0,1-.88-.88c0-1.18,2-2.55,3.92-2.55h.1a3.2,3.2,0,0,1,3.23,2v6.36l.19.39.29.3.4.09.58-.19h.2l.1.1v.19A2.84,2.84,0,0,1,297.48,51.71ZM295.62,47l-.1-.1H295c-1.86,0-2.94.85-2.94,2.25a1.5,1.5,0,0,0,1.57,1.67,2.1,2.1,0,0,0,2-1.47Z"/><path class="cls-1" d="M304.72,51.51h-.78l-1.56-.09-1.57.09H300l-.09-.09v-.2l.09-.1h.59l.59-.19.2-.4V43.1l-.2-.39-.59-.2h-.49l-.1-.1v-.2l.1-.09h3.13l.1.09v8.32l.2.4.59.19h.58l.1.1v.2Zm-2.54-11.35A1.18,1.18,0,1,1,303.35,39,1.18,1.18,0,0,1,302.18,40.16Z"/><path class="cls-1" d="M311.6,44.86a.93.93,0,0,1-.88-.78V44l.69-.69a.58.58,0,0,0-.59-.58c-.78,0-1.47,1.21-1.86,3.32v4.5l.2.4.58.19h.79l.09.1v.2l-.09.09h-1.08L308,51.42l-1.47.09h-.88l-.1-.09v-.2l.1-.1h.59l.59-.19.19-.4V43.29l-.19-.58-.59-.2h-.49l-.1-.1v-.2l.1-.09h2.93l.1.09v2.65c.4-2,1.18-2.94,2.45-2.94a1.46,1.46,0,0,1,1.56,1.57A1.24,1.24,0,0,1,311.6,44.86Z"/><path class="cls-1" d="M316.8,51.71a3.14,3.14,0,0,1-2.35-.78h-.1l-.59.58h-.19l-.1-.09-.2-3.23.1-.1h.29l.1.19c.63,1.86,1.76,3,3,3h.09a1.73,1.73,0,0,0,1.86-1.72c0-.85-.68-1.53-2.34-2.06-2.16-.68-2.94-1.56-2.94-2.93s1.27-2.65,3.33-2.65a2.9,2.9,0,0,1,2.05.75h.08l.55-.55h.15l.1.09v2.65l-.1.1h-.29l-.09-.2c-.44-1.47-1.38-2.41-2.45-2.41h-.1A1.59,1.59,0,0,0,314.94,44c0,.78.68,1.37,2.25,1.76,2,.49,3,1.57,3,3C320.22,50.53,318.85,51.71,316.8,51.71Z"/><polygon class="cls-1" points="70.82 60.89 70.19 60.89 70.19 9.38 70.82 9.38 70.82 60.89 70.82 60.89"/><path class="cls-1" d="M10.92,51.56,0,16.73H8.45l4.14,14.73c1.17,4.19,2.23,8.11,3,12.46h.15c.86-4.19,1.92-8.32,3.08-12.3l4.35-14.89h8.2L19.93,51.56Z"/><path class="cls-1" d="M36.21,42.62l-2.43,8.94H25.84L36.21,16.73H46.33L57,51.56H48.6L46,42.62Zm8.65-5.89-2.13-7.39c-.6-2.06-1.21-4.65-1.72-6.72h-.1c-.5,2.07-1,4.71-1.56,6.72l-2,7.39Z"/></g></g></svg>
