<svg width="104" height="40" viewBox="0 0 104 40" fill="none" xmlns="http://www.w3.org/2000/svg">
<rect width="104" height="40" fill="white"/>
<rect x="1" y="1" width="30.9756" height="37.5671" rx="2" fill="white" stroke="#28385B" stroke-width="2"/>
<rect x="36.5117" y="1" width="30.9756" height="37.5671" rx="2" fill="white" stroke="#28385B" stroke-width="2"/>
<rect x="72.0244" y="1" width="30.9756" height="37.5671" rx="2" fill="white" stroke="#28385B" stroke-width="2"/>
<rect x="8.82144" y="12.09" width="16.1778" height="0.732726" rx="0.366363" fill="white" stroke="#9DA3B2" stroke-width="0.732726"/>
<rect x="8.82144" y="15.7536" width="16.1778" height="0.732724" rx="0.366362" fill="white" stroke="#9DA3B2" stroke-width="0.732724"/>
<rect x="8.82144" y="19.4172" width="16.1778" height="0.732724" rx="0.366362" fill="white" stroke="#9DA3B2" stroke-width="0.732724"/>
<rect x="8.82144" y="23.0808" width="16.1778" height="0.732724" rx="0.366362" fill="white" stroke="#9DA3B2" stroke-width="0.732724"/>
<rect x="8.82144" y="26.7445" width="12.4922" height="0.732725" rx="0.366363" fill="white" stroke="#9DA3B2" stroke-width="0.732725"/>
<rect x="44.3341" y="12.09" width="16.1778" height="0.732726" rx="0.366363" fill="white" stroke="#9DA3B2" stroke-width="0.732726"/>
<rect x="44.3341" y="15.7536" width="16.1778" height="0.732724" rx="0.366362" fill="white" stroke="#9DA3B2" stroke-width="0.732724"/>
<rect x="44.3341" y="19.4172" width="16.1778" height="0.732724" rx="0.366362" fill="white" stroke="#9DA3B2" stroke-width="0.732724"/>
<rect x="44.3341" y="23.0808" width="16.1778" height="0.732724" rx="0.366362" fill="white" stroke="#9DA3B2" stroke-width="0.732724"/>
<rect x="44.3341" y="26.7445" width="12.4922" height="0.732725" rx="0.366363" fill="white" stroke="#9DA3B2" stroke-width="0.732725"/>
<rect x="79.8459" y="12.09" width="16.1778" height="0.732726" rx="0.366363" fill="white" stroke="#9DA3B2" stroke-width="0.732726"/>
<rect x="79.8459" y="15.7536" width="16.1778" height="0.732724" rx="0.366362" fill="white" stroke="#9DA3B2" stroke-width="0.732724"/>
<rect x="79.8459" y="19.4172" width="16.1778" height="0.732724" rx="0.366362" fill="white" stroke="#9DA3B2" stroke-width="0.732724"/>
<rect x="79.8459" y="23.0808" width="16.1778" height="0.732724" rx="0.366362" fill="white" stroke="#9DA3B2" stroke-width="0.732724"/>
<rect x="79.8459" y="26.7445" width="12.4922" height="0.732725" rx="0.366363" fill="white" stroke="#9DA3B2" stroke-width="0.732725"/>
</svg>
