<svg width="92" height="91" viewBox="0 0 92 91" fill="none" xmlns="http://www.w3.org/2000/svg">
<rect width="92" height="91" fill="white"/>
<rect x="1.5" y="1.5" width="89" height="88" rx="3.5" stroke="#6E788D" stroke-width="3"/>
<rect x="1" y="1" width="90" height="15" rx="2" fill="#6E788D"/>
<path d="M39.4286 41.9844V39.0156C39.4286 38.5258 39.8263 38.125 40.3125 38.125H43.2589C43.7451 38.125 44.1429 38.5258 44.1429 39.0156V41.9844C44.1429 42.4742 43.7451 42.875 43.2589 42.875H40.3125C39.8263 42.875 39.4286 42.4742 39.4286 41.9844ZM49.7411 42.875H52.6875C53.1737 42.875 53.5714 42.4742 53.5714 41.9844V39.0156C53.5714 38.5258 53.1737 38.125 52.6875 38.125H49.7411C49.2549 38.125 48.8571 38.5258 48.8571 39.0156V41.9844C48.8571 42.4742 49.2549 42.875 49.7411 42.875ZM40.3125 50H43.2589C43.7451 50 44.1429 49.5992 44.1429 49.1094V46.1406C44.1429 45.6508 43.7451 45.25 43.2589 45.25H40.3125C39.8263 45.25 39.4286 45.6508 39.4286 46.1406V49.1094C39.4286 49.5992 39.8263 50 40.3125 50ZM49.7411 50H52.6875C53.1737 50 53.5714 49.5992 53.5714 49.1094V46.1406C53.5714 45.6508 53.1737 45.25 52.6875 45.25H49.7411C49.2549 45.25 48.8571 45.6508 48.8571 46.1406V49.1094C48.8571 49.5992 49.2549 50 49.7411 50ZM44.1429 56.2344V53.2656C44.1429 52.7758 43.7451 52.375 43.2589 52.375H40.3125C39.8263 52.375 39.4286 52.7758 39.4286 53.2656V56.2344C39.4286 56.7242 39.8263 57.125 40.3125 57.125H43.2589C43.7451 57.125 44.1429 56.7242 44.1429 56.2344ZM49.7411 57.125H52.6875C53.1737 57.125 53.5714 56.7242 53.5714 56.2344V53.2656C53.5714 52.7758 53.1737 52.375 52.6875 52.375H49.7411C49.2549 52.375 48.8571 52.7758 48.8571 53.2656V56.2344C48.8571 56.7242 49.2549 57.125 49.7411 57.125ZM63 66.3281V69H30V66.3281C30 65.8383 30.3978 65.4375 30.8839 65.4375H32.3203V32.7812C32.3203 31.7941 33.1085 31 34.0882 31H58.9118C59.8915 31 60.6797 31.7941 60.6797 32.7812V65.4375H62.1161C62.6022 65.4375 63 65.8383 63 66.3281ZM35.856 65.3633H44.1429V60.3906C44.1429 59.9008 44.5406 59.5 45.0268 59.5H47.9732C48.4594 59.5 48.8571 59.9008 48.8571 60.3906V65.3633H57.144V34.6367L35.8929 34.5625L35.856 65.3633Z" fill="#28385B"/>
</svg>
