<svg width="92" height="91" viewBox="0 0 92 91" fill="none" xmlns="http://www.w3.org/2000/svg">
<rect width="92" height="91" fill="white"/>
<path d="M66.4114 45.5723L47.5409 24.5684C47.2062 24.2056 46.7378 24 46.2471 24C45.7565 24 45.2875 24.2056 44.9534 24.5684L25.473 45.6868C24.9945 46.2058 24.8663 46.961 25.1469 47.6113C25.4281 48.2601 26.0641 48.6805 26.7668 48.6805H31.7772V63.9467C31.7772 65.6326 33.0856 67 34.7584 67H36.3202H37.3297H37.6664H38.3393C39.4543 67 40.3584 66.0886 40.3584 64.9645V57.3314C40.3584 56.2073 41.2624 55.2959 42.3775 55.2959H49.4444C50.5594 55.2959 51.4635 56.2073 51.4635 57.3314V64.9645C51.4635 66.0886 52.3675 67 53.4826 67H56.9681C58.6409 67 60.0447 65.6326 60.0447 63.9467V48.6805H65.2232C65.2272 48.681 65.2308 48.6805 65.2333 48.6805C66.2095 48.6805 67 47.8836 67 46.8994C66.9995 46.3722 66.7723 45.8984 66.4114 45.5723Z" fill="#28385B"/>
<rect x="1.5" y="1.5" width="89" height="88" rx="3.5" stroke="#6E788D" stroke-width="3"/>
<rect x="1" y="1" width="90" height="15" rx="2" fill="#6E788D"/>
</svg>
