<svg width="104" height="40" viewBox="0 0 104 40" fill="none" xmlns="http://www.w3.org/2000/svg">
<rect width="104" height="40" fill="white"/>
<rect x="1" y="1" width="102" height="38" rx="2" fill="white" stroke="#28385B" stroke-width="2"/>
<rect x="2.13123" y="1.27869" width="2.55738" height="37.4426" rx="1.27869" fill="white" stroke="#28385B" stroke-width="2.55738"/>
<rect x="28.6309" y="12.5" width="65.4918" height="0.999999" rx="0.5" fill="white" stroke="#9DA3B2" stroke-width="0.999999"/>
<rect x="28.6309" y="17.5" width="65.4918" height="1" rx="0.5" fill="white" stroke="#9DA3B2"/>
<rect x="28.6309" y="22.5" width="65.4918" height="0.999999" rx="0.5" fill="white" stroke="#9DA3B2" stroke-width="0.999999"/>
<rect x="28.6309" y="27.5" width="51" height="0.999999" rx="0.5" fill="white" stroke="#9DA3B2" stroke-width="0.999999"/>
<path d="M22 20.5C22 23.5376 19.5376 26 16.5 26C13.4624 26 11 23.5376 11 20.5C11 17.4624 13.4624 15 16.5 15C19.5376 15 22 17.4624 22 20.5Z" fill="#28385B"/>
</svg>
