<svg width="102" height="40" viewBox="0 0 102 40" fill="none" xmlns="http://www.w3.org/2000/svg">
<rect width="102" height="40" fill="white"/>
<rect x="1" y="7" width="100" height="9.89189" rx="2" fill="white" stroke="#28385B" stroke-width="2"/>
<path d="M95.0158 12.5039H96.4574C96.6343 12.5039 96.7777 12.3489 96.7778 12.1575L96.7778 11.8112C96.7778 11.6199 96.6344 11.4649 96.4574 11.4648L95.0158 11.4648L95.0158 9.90625C95.0158 9.71499 94.8723 9.55995 94.6954 9.55987L94.375 9.55987C94.198 9.55987 94.0546 9.71492 94.0546 9.90625L94.0546 11.4648L92.6129 11.4648C92.436 11.4648 92.2926 11.6198 92.2925 11.8112L92.2925 12.1575C92.2925 12.3488 92.436 12.5039 92.6129 12.5039L94.0546 12.5039V14.0625C94.0546 14.2537 94.198 14.4089 94.375 14.4089H94.6954C94.8723 14.4089 95.0157 14.2538 95.0158 14.0625V12.5039Z" fill="#28385B"/>
<line x1="6" y1="11.9865" x2="40" y2="11.9865" stroke="#9DA3B2"/>
<rect x="1" y="1" width="76" height="2" rx="1" fill="white" stroke="#9DA3B2" stroke-width="2"/>
<rect x="1" y="29" width="100" height="9.89189" rx="2" fill="white" stroke="#28385B" stroke-width="2"/>
<path d="M95.0158 34.5039H96.4574C96.6343 34.5039 96.7777 34.3489 96.7778 34.1575L96.7778 33.8112C96.7778 33.6199 96.6344 33.4649 96.4574 33.4648L95.0158 33.4648L95.0158 31.9062C95.0158 31.715 94.8723 31.5599 94.6954 31.5599L94.375 31.5599C94.198 31.5599 94.0546 31.7149 94.0546 31.9062L94.0546 33.4648L92.6129 33.4648C92.436 33.4648 92.2926 33.6198 92.2925 33.8112L92.2925 34.1575C92.2925 34.3488 92.436 34.5039 92.6129 34.5039L94.0546 34.5039V36.0625C94.0546 36.2537 94.198 36.4089 94.375 36.4089H94.6954C94.8723 36.4089 95.0157 36.2538 95.0158 36.0625V34.5039Z" fill="#28385B"/>
<line x1="6" y1="33.9865" x2="40" y2="33.9865" stroke="#9DA3B2"/>
<rect x="1" y="23" width="76" height="2" rx="1" fill="white" stroke="#9DA3B2" stroke-width="2"/>
</svg>
