<svg width="102" height="40" viewBox="0 0 102 40" fill="none" xmlns="http://www.w3.org/2000/svg">
<rect width="102" height="40" fill="white"/>
<rect x="1" y="1" width="100" height="9.89189" rx="2" fill="white" stroke="#28385B" stroke-width="2"/>
<rect x="1" y="15.054" width="100" height="9.89189" rx="2" fill="white" stroke="#28385B" stroke-width="2"/>
<rect x="1" y="29.1081" width="100" height="9.89189" rx="2" fill="white" stroke="#28385B" stroke-width="2"/>
<path d="M95.0158 6.50393H96.4574C96.6343 6.50393 96.7777 6.34888 96.7778 6.15755L96.7778 5.81117C96.7778 5.61992 96.6344 5.46487 96.4574 5.46479L95.0158 5.46479L95.0158 3.90625C95.0158 3.71499 94.8723 3.55995 94.6954 3.55987L94.375 3.55987C94.198 3.55987 94.0546 3.71492 94.0546 3.90625L94.0546 5.46479L92.6129 5.46479C92.436 5.46479 92.2926 5.61984 92.2925 5.81117L92.2925 6.15755C92.2925 6.34881 92.436 6.50393 92.6129 6.50393L94.0546 6.50393V8.06247C94.0546 8.25373 94.198 8.40885 94.375 8.40885H94.6954C94.8723 8.40885 95.0157 8.25381 95.0158 8.06247V6.50393Z" fill="#28385B"/>
<path d="M95.0158 20.558H96.4574C96.6343 20.558 96.7777 20.4029 96.7778 20.2116L96.7778 19.8652C96.7778 19.674 96.6344 19.5189 96.4574 19.5189L95.0158 19.5189L95.0158 17.9603C95.0158 17.7691 94.8723 17.614 94.6954 17.6139L94.375 17.6139C94.198 17.6139 94.0546 17.769 94.0546 17.9603L94.0546 19.5189L92.6129 19.5189C92.436 19.5189 92.2926 19.6739 92.2925 19.8652L92.2925 20.2116C92.2925 20.4029 92.436 20.558 92.6129 20.558L94.0546 20.558V22.1165C94.0546 22.3078 94.198 22.4629 94.375 22.4629H94.6954C94.8723 22.4629 95.0157 22.3079 95.0158 22.1165V20.558Z" fill="#28385B"/>
<path d="M95.0158 34.612H96.4574C96.6343 34.612 96.7777 34.457 96.7778 34.2657L96.7778 33.9193C96.7778 33.728 96.6344 33.573 96.4574 33.5729L95.0158 33.5729L95.0158 32.0144C95.0158 31.8231 94.8723 31.6681 94.6954 31.668L94.375 31.668C94.198 31.668 94.0546 31.823 94.0546 32.0144L94.0546 33.5729L92.6129 33.5729C92.436 33.5729 92.2926 33.7279 92.2925 33.9193L92.2925 34.2657C92.2925 34.4569 92.436 34.612 92.6129 34.612L94.0546 34.612V36.1706C94.0546 36.3618 94.198 36.517 94.375 36.517H94.6954C94.8723 36.517 95.0157 36.3619 95.0158 36.1706V34.612Z" fill="#28385B"/>
<line x1="6" y1="5.98648" x2="40" y2="5.98648" stroke="#9DA3B2"/>
<line x1="6" y1="20.0405" x2="40" y2="20.0405" stroke="#9DA3B2"/>
<line x1="6" y1="34.0946" x2="40" y2="34.0946" stroke="#9DA3B2"/>
</svg>
