<svg height='100px' width='100px'  fill="#bebebe" xmlns="http://www.w3.org/2000/svg" data-name="Layer 1" viewBox="0 0 100 100" x="0px" y="0px"><title>Artboard 70</title><path d="M15.07,65H24.6A26.09,26.09,0,0,0,28,74.74L22.77,80a3.75,3.75,0,0,0,5.3,5.3l4.73-4.73a26.25,26.25,0,0,0,35.54,0l4.73,4.73a3.75,3.75,0,0,0,5.3-5.3l-5.27-5.28A26.09,26.09,0,0,0,76.56,65h9.52a2,2,0,0,0,2-2V59.53a2,2,0,0,0-2-2H76.56a26.2,26.2,0,0,0-3.45-9.73l5.27-5.28a3.75,3.75,0,0,0-5.3-5.3l-4.73,4.73a26.3,26.3,0,0,0-2.8-2.25c0-5.65-2.13-10-5.48-12.72,0-.14,0-.31.09-.5a8.6,8.6,0,0,1,1-2.68C62.51,21.45,65,20,69.36,20a3.75,3.75,0,0,0,0-7.5c-7.06,0-12,2.81-14.7,7.47A15.81,15.81,0,0,0,53,23.95a16.77,16.77,0,0,0-4.79,0A15.83,15.83,0,0,0,46.61,20c-2.74-4.68-7.68-7.5-14.78-7.5a3.75,3.75,0,0,0,0,7.5c4.44,0,6.91,1.41,8.3,3.78a8.66,8.66,0,0,1,1,2.7c0,.17.06.32.08.45-3.4,2.72-5.58,7.11-5.58,12.76a26.38,26.38,0,0,0-2.83,2.26l-4.73-4.73a3.75,3.75,0,0,0-5.3,5.3L28,47.79a26.2,26.2,0,0,0-3.45,9.73H15.07a2,2,0,0,0-2,2V63A2,2,0,0,0,15.07,65ZM61,46l.25-.11a18.79,18.79,0,0,1,4.5,4.41,5.63,5.63,0,1,0,3.55,10.68q0,.16,0,.32a18.73,18.73,0,0,1-1.08,6.3,5.63,5.63,0,0,0-6.68,8.9,18.66,18.66,0,0,1-7.24,3.18V67.76a7.5,7.5,0,0,0,0-13V47.9A25.37,25.37,0,0,0,61,46ZM43.08,38.77a7.5,7.5,0,1,1,15,0,2,2,0,0,0,0,.29l-.12.05a18.26,18.26,0,0,1-14.67,0L43.05,39A1.56,1.56,0,0,0,43.08,38.77ZM31.83,60.95a5.63,5.63,0,1,0,3.55-10.68,18.79,18.79,0,0,1,4.56-4.45l.34.15a25.38,25.38,0,0,0,6.54,1.9v6.9a7.5,7.5,0,0,0,0,13V79.64a18.66,18.66,0,0,1-7.24-3.18,5.63,5.63,0,0,0-6.68-8.9,18.73,18.73,0,0,1-1.08-6.3Q31.83,61.11,31.83,60.95Z"></path></svg>