<svg height='100px' width='100px'  fill="#bebebe" xmlns="http://www.w3.org/2000/svg" xmlns:xlink="http://www.w3.org/1999/xlink" version="1.1" x="0px" y="0px" viewBox="0 0 100 100" enable-background="new 0 0 100 100" xml:space="preserve"><g><ellipse cx="53.176" cy="83.682" rx="11.305" ry="7.123"></ellipse><path d="M62.345,86.354h7.57l0.262-0.063c0.104-0.025,1.613-0.385,3.646-1.303c1.018-0.459,2.167-1.059,3.337-1.834   c1.169-0.779,2.359-1.732,3.445-2.912l-1.703-1.568l1.57,1.701c0.107-0.102,2.207-2.049,4.324-5.516   c1.057-1.734,2.118-3.854,2.918-6.313c0.8-2.461,1.339-5.266,1.339-8.346c0-0.135-0.002-0.273-0.004-0.41l-4.628,0.07   c0.001,0.115,0.003,0.229,0.003,0.34c-0.001,2.541-0.442,4.855-1.111,6.912c-1.002,3.086-2.525,5.592-3.793,7.305   c-0.633,0.857-1.2,1.516-1.599,1.949c-0.2,0.217-0.356,0.379-0.46,0.48c-0.051,0.051-0.088,0.086-0.111,0.109l-0.021,0.02   l-0.002,0.002l0.604,0.648l-0.602-0.65l-0.002,0.002l0.604,0.648l-0.602-0.65l1.094,1.18l-1.093-1.182l-0.001,0.002l1.094,1.18   l-1.093-1.182l-0.001,0.002l1.532,1.654l-1.53-1.658l-0.002,0.004l1.532,1.654l-1.53-1.658l-0.068,0.064l-0.063,0.07   c-0.784,0.852-1.685,1.582-2.603,2.189c-1.375,0.916-2.784,1.555-3.831,1.951c-0.524,0.199-0.957,0.338-1.248,0.426   c-0.146,0.043-0.258,0.074-0.328,0.092c-0.033,0.01-0.059,0.016-0.072,0.02l-0.012,0.004l0.045,0.184l-0.045-0.184l0,0l0.045,0.184   l-0.045-0.184l0.288,1.197l-0.285-1.199l-0.003,0.002l0.288,1.197l-0.285-1.199l0.413,1.74l-0.411-1.74h-0.002l0.413,1.74   l-0.411-1.74l0,0l0.523,2.211l-0.522-2.211h-0.001l0.523,2.211l-0.522-2.211l0.533,2.252v-2.314h-7.301V86.354z"></path><path d="M18.668,34.944l2.833,1.98l0.152,26.529l-2.156,2.477c0,0-15.139,0.773-15.005-16.673   C4.493,49.256,5.322,33.951,18.668,34.944z"></path><path d="M81.538,35.478l-2.832,1.98l-0.151,26.53l2.154,2.475c0,0,15.14,0.773,15.005-16.672   C95.714,49.791,94.885,34.485,81.538,35.478z"></path><path d="M17.348,37.307l-2.182-0.743l2.181,0.746L17.348,37.307l-2.182-0.743l2.181,0.746l0,0l0.006-0.017   c0.063-0.18,0.659-1.845,1.887-4.215c0.92-1.779,2.196-3.955,3.86-6.203c1.248-1.687,2.715-3.414,4.411-5.05   c2.545-2.454,5.602-4.701,9.233-6.334c3.633-1.632,7.842-2.664,12.783-2.666h0.017h0.017l-0.019-1.446l0.014,1.446h0.005   l-0.019-1.446l0.014,1.446h0.006h0.02c0.23,0,1.983,0.015,4.576,0.43c1.946,0.312,4.364,0.847,6.968,1.76   c1.952,0.685,4.011,1.582,6.059,2.75c3.072,1.756,6.12,4.12,8.799,7.33c2.678,3.212,4.998,7.271,6.59,12.491l4.769-1.453   c-1.053-3.454-2.411-6.508-3.991-9.196c-2.764-4.706-6.205-8.279-9.803-10.957c-2.697-2.009-5.482-3.518-8.15-4.653   c-4.003-1.703-7.743-2.569-10.587-3.015C51.965,7.866,50.013,7.84,49.58,7.84c-0.047,0-0.075,0-0.086,0l0.032,2.493V7.84   c-3.416,0-6.58,0.438-9.484,1.208c-5.083,1.348-9.36,3.715-12.877,6.475c-2.64,2.07-4.859,4.361-6.706,6.627   c-2.771,3.401-4.708,6.748-5.967,9.263c-1.258,2.516-1.835,4.202-1.864,4.287L17.348,37.307z"></path></g></svg>