<svg id="Layer_1" data-name="Layer 1" xmlns="http://www.w3.org/2000/svg" viewBox="0 0 447.07 297.61"><defs><style>.cls-1{fill:#231f20;stroke:#231f20;stroke-miterlimit:10;stroke-width:15px;}</style></defs><path class="cls-1" d="M437.92,391.31H62.08A28.15,28.15,0,0,1,34,363.19V136.81a28.15,28.15,0,0,1,28.11-28.12H437.92A28.15,28.15,0,0,1,466,136.81V363.19A28.15,28.15,0,0,1,437.92,391.31ZM62.08,122.75a14.07,14.07,0,0,0-14,14.06V363.19a14.07,14.07,0,0,0,14,14.06H437.92A14.07,14.07,0,0,0,452,363.19V136.81a14.07,14.07,0,0,0-14.05-14.06Z" transform="translate(-26.47 -101.19)"/><polygon class="cls-1" points="167.49 212.06 167.49 85.55 279.58 148.81 167.49 212.06"/></svg>