<?xml version="1.0" encoding="utf-8"?>
<!-- Svg Vector Icons : http://www.onlinewebfonts.com/icon -->
<!DOCTYPE svg PUBLIC "-//W3C//DTD SVG 1.1//EN" "http://www.w3.org/Graphics/SVG/1.1/DTD/svg11.dtd">
<svg version="1.1" xmlns="http://www.w3.org/2000/svg" xmlns:xlink="http://www.w3.org/1999/xlink" x="0px" y="0px" viewBox="0 0 1000 1000" enable-background="new 0 0 1000 1000" xml:space="preserve">
<metadata> Svg Vector Icons : http://www.onlinewebfonts.com/icon </metadata>
<g><path d="M372.9,729.8c0-45.8,9-90,26.7-131.8c17.1-40.3,41.5-76.6,72.5-107.7c31-31,67.4-55.4,107.7-72.5c14.9-6.3,30.1-11.4,45.6-15.5c2-6.5,3.7-13.2,5.5-19.8c5.9-1.8,11.4-4.9,16.7-9.6c4.7-4.1,9-10,12.8-17.3c3.9-7.5,6.7-17.3,8.4-29.7c1.2-9.4,1-17.3-0.4-23.8c-1.4-6.5-3.3-11.8-5.7-15.9c-2.4-4.7-5.5-8.3-9.6-10.6c0.4-23.6-1-47.2-4.5-70.7c-2.9-20-8.3-41.5-15.5-64.1c-7.5-22.6-18.5-43.4-33.2-62.3c-6.5-8.3-14.9-16.5-25.5-24.4c-10.6-7.9-22.6-15.1-36.2-21.6c-13.6-6.5-28.1-11.8-43.8-15.9c-15.7-4.1-32-6.1-49.1-6.1c-13.6,0-27.7,1.2-42.1,3.5c-14.3,2.4-28.7,6.5-42.8,12.4c-14.1,5.9-28.3,14.1-42,24.4c-13.8,10.2-26.3,23.4-37.5,39.3c-11.8,17.1-20.8,36.2-26.9,57.4c-6.1,21.2-10.4,41.3-12.8,60.1c-2.9,22.4-4.1,44.8-3.5,67.2c-4.7,5.9-8.3,12-10.6,18.5c-2.4,5.9-3.9,13-4.9,20.8c-0.8,7.9,0.2,16.9,3.1,26.9c2.9,10,6.5,17.7,10.6,23c4.1,5.3,7.9,9.4,11.4,12.4c4.1,2.8,8.3,4.9,12.4,6.1c2.9,9.4,5.9,18.5,8.8,27.3c2.9,7.7,6.1,15.3,9.6,22.6c3.5,7.5,7.7,13.2,12.4,17.3c10,8.3,19.1,16.1,26.9,23.8c8.1,7.7,12.6,18.5,13.8,32.6c0.6,8.8,1,17.1,1,24.8c0,7.7-1.4,14.9-3.9,22c-2.8,7.1-7.5,14.1-14.1,21.2c-6.7,7.1-16.3,14.3-28.7,22c-15.3,10-33.2,17.7-53.4,23c-20.2,5.3-109.3,36-128.3,42.4c-19.1,6.5-35.8,15.3-49.9,26.5c-14.1,11.2-23,27.7-26.5,49.5c-5.9,37.7-7.1,43.8-3.9,68c3.1,24.2,8.1,38.5,14.5,43.2c5.3,4.1,20.6,9,46,14.5c23.6,5.1,164.5,31.8,334,35.4c-6.7-11.8-12.8-24-18.3-36.7C381.9,819.8,372.9,775.6,372.9,729.8z"/><path d="M372.9,729.8c0-45.8,9-90,26.7-131.8c17.1-40.3,41.5-76.6,72.5-107.7c31-31,67.4-55.4,107.7-72.5c14.9-6.3,30.1-11.4,45.4-15.5c2-6.7,3.9-13.4,5.7-20.2c5.9-1.8,11.4-4.9,16.7-9.6c4.7-4.1,9-9.8,12.8-17.3c3.9-7.3,6.7-17.3,8.4-29.7c1.2-9.4,1-17.3-0.4-23.8c-1.6-6.5-3.3-11.8-5.7-15.9c-2.4-4.7-5.7-8.3-9.6-10.6c0.6-23.6-1-47.2-4.5-70.7c-2.9-20-8.1-41.5-15.5-64.1c-7.3-22.6-18.5-43.4-33.2-62.3c-6.5-8.3-14.9-16.3-25.5-24.4c-10.6-7.9-22.6-15.1-36.2-21.6c-13.6-6.5-28.1-11.8-43.8-15.9c-15.7-4.1-32-6.1-49.1-6.1c-13.6,0-27.5,1.2-42.1,3.5c-14.3,2.4-28.7,6.5-42.8,12.4c-14.1,5.9-28.1,14-42,24.4c-13.8,10.2-26.3,23.4-37.5,39.3c-11.8,17.1-20.8,36.2-26.9,57.4c-6.1,21.2-10.4,41.3-12.8,60.1c-2.9,22.4-4.1,44.8-3.5,67.2c-4.7,5.9-8.3,12-10.6,18.5c-2.4,5.9-3.9,12.8-4.9,20.8c-0.8,7.9,0.2,16.9,3.1,26.9c2.9,10,6.5,17.7,10.6,23c4.1,5.3,7.9,9.4,11.4,12.4c4.1,2.9,8.3,4.9,12.4,6.1c2.9,9.4,5.9,18.5,8.8,27.3c2.9,7.7,6.1,15.1,9.6,22.6c3.5,7.3,7.7,13.2,12.4,17.3c10,8.3,19.1,16.1,26.9,23.8c7.9,7.7,12.6,18.5,13.8,32.6c0.6,8.8,1,17.1,1,24.8c0,7.7-1.4,14.9-3.9,22c-2.8,7.1-7.3,14.1-14.1,21.2c-6.7,7.1-16.3,14.3-28.7,22c-15.3,10-33.2,17.7-53.4,23c-20.2,5.3-109.3,36-128.3,42.4c-19.1,6.5-35.8,15.3-49.9,26.5c-14.1,11.2-23,27.7-26.5,49.5c-5.9,37.7-7.3,43.8-3.9,68c3.1,24.2,8.1,38.5,14.5,43.2c5.3,4.1,20.6,9,46,14.5c23.6,5.3,164.7,31.8,334.2,35.4c-6.9-11.8-12.8-24.2-18.3-36.7C381.9,819.8,372.9,775.6,372.9,729.8z"/><path d="M976.3,698.5c-2.2-11.8-13.6-23.8-25.3-26.5l-8.8-2c-20.6-6.3-39.1-20-50.7-40.1c-11.6-20.2-14.5-43.4-9.4-64.5l0,0l2.8-8.3c3.5-11.4-1-27.3-10.2-35.2c0,0-8.3-7.1-31.6-20.4c-23.4-13.4-33.4-17.1-33.4-17.1c-11.4-4.1-27.3-0.2-35.6,8.6l-6.1,6.7c-15.7,14.9-36.9,24-60.3,24c-23.4,0-44.8-9-60.5-24.2l-5.9-6.3c-8.3-8.8-24.2-12.8-35.6-8.6c0,0-10.2,3.7-33.6,17.1c-23.4,13.6-31.6,20.6-31.6,20.6c-9.2,7.7-13.8,23.4-10.2,35l2.6,8.5c4.9,21.2,2.4,44-9.4,64.4c-11.6,20.2-30.3,34.2-51.1,40.3l-8.4,2c-11.6,2.8-23.2,14.5-25.3,26.5c0,0-2,10.6-2,37.5c0,26.9,2,37.5,2,37.5c2.2,12,13.6,23.8,25.3,26.5l8.3,2l0,0c20.8,6.1,39.5,20,51.3,40.3c11.6,20.2,14.5,43.4,9.4,64.5l0,0l-2.4,8.3c-3.5,11.4,1,27.3,10.2,35.2c0,0,8.3,7.1,31.6,20.4c23.4,13.6,33.4,17.1,33.4,17.1c11.4,4.1,27.3,0.2,35.6-8.6l5.9-6.3c15.9-14.9,37.1-24.2,60.5-24.2c23.4,0,44.8,9.2,60.5,24.2l0,0l5.9,6.3c8.3,8.8,24.2,12.8,35.6,8.6c0,0,10.2-3.7,33.6-17.1c23.4-13.6,31.6-20.4,31.6-20.4c9.2-7.7,13.8-23.6,10.2-35.2l-2.6-8.4c-4.9-21-2.4-44,9.4-64.3c11.6-20.2,30.5-34.2,51.3-40.3l0,0l8.3-2c11.6-2.8,23.2-14.5,25.3-26.5c0,0,2-10.6,2-37.5C978.1,709.1,976.3,698.5,976.3,698.5L976.3,698.5z M707.3,844.3c-59.5,0-108.1-48.3-108.1-108.1c0-59.5,48.3-107.9,108.1-107.9c59.5,0,108.1,48.3,108.1,108.1C815.4,796,767,844.3,707.3,844.3L707.3,844.3z"/></g>
</svg>