<?xml version="1.0" encoding="utf-8"?>
<!-- Svg Vector Icons : http://www.onlinewebfonts.com/icon -->
<!DOCTYPE svg PUBLIC "-//W3C//DTD SVG 1.1//EN" "http://www.w3.org/Graphics/SVG/1.1/DTD/svg11.dtd">
<svg version="1.1" xmlns="http://www.w3.org/2000/svg" xmlns:xlink="http://www.w3.org/1999/xlink" x="0px" y="0px" viewBox="0 0 1000 1000" enable-background="new 0 0 1000 1000" xml:space="preserve">
<metadata> Svg Vector Icons : http://www.onlinewebfonts.com/icon </metadata>
<g><g><g><ellipse cx="463.3" cy="168.5" rx="442.2" ry="114.5"/><path d="M150,404.8c88.4,26,199.6,41.3,313.3,40.3c250.9-2.2,368.2-60.8,368.2-60.8c47.7-20.2,74.9-42.6,74.9-63v-92.9c0-1.1-0.1-2.2-0.3-3.2c-15.5,25.8-53.9,45.1-89.2,58.2v58.9c0,8.1-6.6,14.7-14.7,14.7c-8.1,0-14.7-6.6-14.7-14.7v-49.1c-8.9,2.7-16.9,4.8-23.5,6.5v71.5c0,10.8-8.8,19.6-19.6,19.6c-10.8,0-19.6-8.8-19.6-19.6v-63c-73.4,13.9-163.7,22-261.5,22c-232.3,0-423-46.2-442.8-105c-0.2,1.1-0.3,2.1-0.3,3.2v94.9C20.2,350.4,68.7,380.9,150,404.8z"/><path d="M989.7,478c-15.5,25.8-53.9,45.1-89.2,58.2v58.9c0,8.1-6.6,14.7-14.7,14.7c-8.1,0-14.7-6.6-14.7-14.7V546c-8.9,2.7-16.9,4.8-23.5,6.5V624c0,10.8-8.8,19.6-19.6,19.6c-10.8,0-19.6-8.8-19.6-19.6v-63c-73.4,13.9-163.7,22-261.5,22c-232.3,0-423-46.2-442.8-105c-0.2,1.1-0.3,2.1-0.3,3.2v94.9c0,27.1,48.5,57.6,129.8,81.5c88.4,26,199.6,41.3,313.3,40.3c250.9-2.2,368.2-60.8,368.2-60.8c47.7-20.2,74.9-42.6,74.9-63v-92.9C990,480.2,989.9,479.1,989.7,478z"/><path d="M453.1,831.2c-97.8,0-188.1-8.2-261.5-22v63c0,10.8-8.8,19.6-19.6,19.6c-10.8,0-19.6-8.8-19.6-19.6v-71.5c-6.6-1.7-14.6-3.8-23.5-6.5v49.1c0,8.1-6.6,14.7-14.7,14.7c-8.1,0-14.7-6.6-14.7-14.7v-58.9c-35.4-13.1-73.7-32.4-89.2-58.2c-0.2,1.1-0.3,2.1-0.3,3.2v92.9c0,20.4,27.2,42.8,74.9,63c0,0,117.3,58.6,368.2,60.8c113.7,1,225-14.3,313.3-40.3c81.3-23.9,129.8-54.3,129.8-81.5v-94.9c0-1.1-0.1-2.2-0.3-3.2C876.1,785,685.4,831.2,453.1,831.2z"/><path d="M477.9,488.3c-113.7,3.1-225-14.3-313.3-40.3c-22.1-6.5-41.7-13.5-58.7-20.7c8.7,61.3,203.2,110.3,441.8,110.3c244.2,0,442.2-51.3,442.2-114.5c0-22.6-25.3-43.7-68.9-61.4v2.9c0,21.4-30,45-82.3,66C838.7,430.6,723.7,481.7,477.9,488.3z"/><path d="M454.3,785.9c238.7,0,433.2-49,441.8-110.3c-16.9,7.3-36.6,14.2-58.7,20.7c-88.4,26-199.7,43.3-313.3,40.3c-245.8-6.6-360.8-57.7-360.8-57.7c-52.3-21-82.3-44.6-82.3-66V610c-43.6,17.8-68.9,38.8-68.9,61.4C12.1,734.6,210,785.9,454.3,785.9z"/></g></g><g></g><g></g><g></g><g></g><g></g><g></g><g></g><g></g><g></g><g></g><g></g><g></g><g></g><g></g><g></g></g>
</svg>