<?xml version="1.0" encoding="UTF-8" standalone="no"?>
<!-- Created with Inkscape (http://www.inkscape.org/) -->
<svg
   xmlns:svg="http://www.w3.org/2000/svg"
   xmlns="http://www.w3.org/2000/svg"
   version="1.0"
   width="500"
   height="500"
   id="svg2394">
  <defs
     id="defs2396" />
  <g
     id="layer1">
    <path
       d="M 97.357129,434.70306 C 99.380791,446.80968 109.88977,456.00501 122.56443,456.00501 L 383.8685,456.00501 C 396.54315,456.00501 407.05213,446.80968 409.0758,434.70306 L 97.357129,434.70306 z M 122.56443,235.88479 C 108.43415,235.88479 97.002058,247.31683 97.002058,261.44713 L 97.002058,416.95142 L 409.43088,416.95142 L 409.43088,261.44713 C 409.43088,247.31683 397.99878,235.88479 383.8685,235.88479 L 368.28255,235.88479 C 368.49559,232.93799 368.6021,169.63567 368.6021,166.65339 C 368.6021,102.92501 316.94484,51.267752 253.21646,51.267752 C 189.4881,51.267752 137.83083,102.92501 137.83083,166.65339 C 137.83083,169.63567 137.93734,232.93799 138.15039,235.88479 L 122.56443,235.88479 z M 298.51862,235.88479 L 207.91431,235.88479 C 207.34625,233.009 207.0622,169.70666 207.0622,166.65339 C 207.0622,141.16205 227.72513,120.49917 253.21646,120.49917 C 278.70782,120.49917 299.37074,141.16205 299.37074,166.65339 C 299.37074,169.70666 299.0867,233.009 298.51862,235.88479 z"
       id="path14"
       style="fill:#000;fill-opacity:1;fill-rule:evenodd" />
  </g>
</svg>
