<svg width="24" height="24" viewBox="0 0 24 24" fill="none" xmlns="http://www.w3.org/2000/svg">
<path d="M12 0.375C5.57972 0.375 0.375 5.57967 0.375 12C0.375 18.4203 5.57972 23.625 12 23.625C18.4203 23.625 23.625 18.4203 23.625 12C23.625 5.57972 18.4203 0.375 12 0.375ZM18.0988 5.90119C21.1667 8.96906 21.3801 13.6581 19.068 16.9467L7.05328 4.932C10.3441 2.61844 15.0326 2.83505 18.0988 5.90119ZM5.90119 18.0988C2.83331 15.0309 2.61994 10.3419 4.93195 7.05333L16.9467 19.068C13.656 21.3816 8.96737 21.165 5.90119 18.0988Z" fill="#D04037"/>
</svg>
