<svg width="24" height="22" viewBox="0 0 24 22" fill="none" xmlns="http://www.w3.org/2000/svg">
<path d="M22.6671 8.03672V1.66703C22.6671 1.30244 22.3762 0.333252 21.3341 0.333252H21.3337C21.037 0.333252 20.7424 0.43242 20.5012 0.625757L16.9582 3.46039C15.1786 4.88292 12.9444 5.66668 10.6669 5.66668H2.66671C1.19377 5.66668 0 6.86045 0 8.33339V12.3335C0 13.8064 1.19377 15.0002 2.66671 15.0002L2.64671 16.3335C2.64671 17.9906 3.03255 19.5565 3.71173 20.9561C3.92798 21.4015 4.40008 21.667 4.89509 21.667H9.32349C10.4089 21.667 11.0606 20.4236 10.4027 19.5603C9.71934 18.6636 9.31308 17.5452 9.31308 16.3335C9.31308 15.8706 9.38058 15.4256 9.49683 15.0002H10.6669C12.9444 15.0002 15.1786 15.7839 16.9578 17.2065L20.5008 20.0411C20.7371 20.2302 21.0306 20.3333 21.3333 20.3336C22.3716 20.3336 22.6666 19.3844 22.6666 19.0002V12.6306C23.4604 12.1685 24 11.3184 24 10.3338C24.0004 9.34883 23.4608 8.49881 22.6671 8.03672ZM5.32218 19.6669C4.87383 18.6065 4.64675 17.4873 4.64675 16.3335C4.64675 15.741 4.71842 15.2777 4.75508 15.0002H7.45971C7.37263 15.446 7.31304 15.8923 7.31304 16.3335C7.31304 17.5094 7.58722 18.6419 8.11347 19.6669H5.32218ZM10.0002 13.0001H2.66671C2.29921 13.0001 2.00003 12.701 2.00003 12.3335V8.33339C2.00003 7.96589 2.29921 7.66671 2.66671 7.66671H10.0002V13.0001ZM20.667 17.6127L18.207 15.6444C16.4236 14.2185 14.2573 13.3372 12.0002 13.0839V7.58296C14.2573 7.32962 16.4236 6.44836 18.2074 5.02208L20.667 3.05413V17.6127Z" fill="#000"/>
</svg>