<?xml version="1.0" encoding="utf-8"?>
<svg version="1.1" id="Layer_1" xmlns="http://www.w3.org/2000/svg" xmlns:xlink="http://www.w3.org/1999/xlink" x="0px" y="0px"
	 viewBox="0 0 1792 1536" style="enable-background:new 0 0 1792 1536;" xml:space="preserve">
<path d="M1664,512c35.3,0,65.5,12.5,90.5,37.5s37.5,55.2,37.5,90.5s-12.5,65.5-37.5,90.5S1699.3,768,1664,768v384
	c0,34.7-12.7,64.7-38,90s-55.3,38-90,38c-278-231.3-548.7-358-812-380c-38.7,12.7-69,34.7-91,66s-32.3,64.8-31,100.5
	s14.7,66.5,40,92.5c-13.3,22-21,43.8-23,65.5s0,41,6,58s17.2,35.3,33.5,55s32.3,36.3,48,50s36.2,30.5,61.5,50.5
	c-19.3,38.7-56.5,66.3-111.5,83s-111.2,20.5-168.5,11.5S386.7,1505,356,1477c-4.7-15.3-14.5-44.5-29.5-87.5s-25.7-74.5-32-94.5
	s-14-49.7-23-89s-14-73-15-101s0.2-60.8,3.5-98.5c3.3-37.7,10.7-74.5,22-110.5H160c-44,0-81.7-15.7-113-47S0,780,0,736V544
	c0-44,15.7-81.7,47-113s69-47,113-47h480c290,0,588.7-128,896-384c34.7,0,64.7,12.7,90,38s38,55.3,38,90V512z M1536,1116V162
	c-262.7,201.3-518.7,315.7-768,343v270C1019.3,803,1275.3,916.7,1536,1116z"/>
</svg>
