<svg width="24" height="22" viewBox="0 0 24 22" fill="none" xmlns="http://www.w3.org/2000/svg">
<path d="M10.3645 8.89041L10.639 13.4965C10.6545 13.7574 10.8734 13.9611 11.1381 13.9611H12.8618C12.9894 13.961 13.1121 13.913 13.2048 13.8266C13.2976 13.7403 13.3535 13.6222 13.361 13.4965L13.6355 8.89041C13.6523 8.60692 13.424 8.3679 13.1363 8.3679H10.8635C10.5759 8.3679 10.3476 8.60692 10.3645 8.89041ZM13.75 16.2641C13.75 17.2181 12.9665 17.9914 12 17.9914C11.0335 17.9914 10.25 17.2181 10.25 16.2641C10.25 15.3102 11.0335 14.5368 12 14.5368C12.9665 14.5368 13.75 15.3102 13.75 16.2641ZM13.7324 1.45809C12.9643 0.144069 11.0371 0.141684 10.2676 1.45809L0.269881 18.5677C-0.497702 19.881 0.463257 21.5283 2.00226 21.5283H21.9975C23.5336 21.5283 24.499 19.8835 23.7299 18.5677L13.7324 1.45809ZM2.2163 19.1842L11.7835 2.8162C11.8797 2.65161 12.1203 2.65161 12.2165 2.8162L21.7837 19.1841C21.8799 19.3486 21.7596 19.5542 21.5672 19.5542H2.43284C2.24046 19.5542 2.12017 19.3487 2.2163 19.1842Z" fill="#000"/>
</svg>