<svg width="25" height="24" viewBox="0 0 25 24" fill="none" xmlns="http://www.w3.org/2000/svg">
<path d="M12.5 0.375C6.08014 0.375 0.875 5.58202 0.875 12C0.875 18.4217 6.08014 23.625 12.5 23.625C18.9199 23.625 24.125 18.4217 24.125 12C24.125 5.58202 18.9199 0.375 12.5 0.375ZM12.5 21.375C7.31881 21.375 3.125 17.1829 3.125 12C3.125 6.82055 7.319 2.625 12.5 2.625C17.6793 2.625 21.875 6.81895 21.875 12C21.875 17.1811 17.6829 21.375 12.5 21.375ZM12.5 5.53125C13.5873 5.53125 14.4688 6.41269 14.4688 7.5C14.4688 8.58731 13.5873 9.46875 12.5 9.46875C11.4127 9.46875 10.5312 8.58731 10.5312 7.5C10.5312 6.41269 11.4127 5.53125 12.5 5.53125ZM15.125 17.4375C15.125 17.7481 14.8731 18 14.5625 18H10.4375C10.1269 18 9.875 17.7481 9.875 17.4375V16.3125C9.875 16.0019 10.1269 15.75 10.4375 15.75H11V12.75H10.4375C10.1269 12.75 9.875 12.4981 9.875 12.1875V11.0625C9.875 10.7519 10.1269 10.5 10.4375 10.5H13.4375C13.7481 10.5 14 10.7519 14 11.0625V15.75H14.5625C14.8731 15.75 15.125 16.0019 15.125 16.3125V17.4375Z" fill="#000"/>
</svg>