<svg width="540" height="131" viewBox="0 0 540 131" fill="none" xmlns="http://www.w3.org/2000/svg">
<g id="connect-guide">
<path id="Social and &#226;&#128;&#168;contact links" d="M14.0117 45.9238V44.4355C14.9453 44.8262 15.7441 45.0215 16.4082 45.0215C16.873 45.0215 17.2383 44.918 17.5039 44.7109C17.7734 44.5039 17.9082 44.2227 17.9082 43.8672C17.9082 43.5859 17.8242 43.3496 17.6562 43.1582C17.4883 42.9629 17.1699 42.7324 16.7012 42.4668L16.1211 42.1445C15.3438 41.707 14.7949 41.2891 14.4746 40.8906C14.1543 40.4883 13.9941 40.0195 13.9941 39.4844C13.9941 38.7695 14.2559 38.1953 14.7793 37.7617C15.3066 37.3281 16.002 37.1113 16.8652 37.1113C17.5566 37.1113 18.3359 37.2109 19.2031 37.4102V38.7988C18.3164 38.4668 17.6152 38.3008 17.0996 38.3008C16.7012 38.3008 16.3809 38.3906 16.1387 38.5703C15.9004 38.7461 15.7812 38.9785 15.7812 39.2676C15.7812 39.5059 15.8652 39.7148 16.0332 39.8945C16.2012 40.0742 16.5176 40.2949 16.9824 40.5566L17.6035 40.9023C18.4395 41.3711 19.0156 41.8027 19.332 42.1973C19.6484 42.5918 19.8066 43.0723 19.8066 43.6387C19.8066 44.4434 19.5078 45.0742 18.9102 45.5312C18.3125 45.9883 17.4883 46.2168 16.4375 46.2168C15.7422 46.2168 14.9336 46.1191 14.0117 45.9238ZM24.0547 46.1465C23.0508 46.1465 22.252 45.8438 21.6582 45.2383C21.0684 44.6289 20.7734 43.8105 20.7734 42.7832C20.7734 41.7441 21.0703 40.9238 21.6641 40.3223C22.2617 39.7207 23.0723 39.4199 24.0957 39.4199C25.123 39.4199 25.9336 39.7207 26.5273 40.3223C27.125 40.9238 27.4238 41.7402 27.4238 42.7715C27.4238 43.8262 27.125 44.6523 26.5273 45.25C25.9297 45.8477 25.1055 46.1465 24.0547 46.1465ZM24.084 45.0625C25.0801 45.0625 25.5781 44.2988 25.5781 42.7715C25.5781 42.0723 25.4453 41.5195 25.1797 41.1133C24.918 40.707 24.5566 40.5039 24.0957 40.5039C23.6387 40.5039 23.2773 40.707 23.0117 41.1133C22.75 41.5195 22.6191 42.0762 22.6191 42.7832C22.6191 43.4824 22.75 44.0371 23.0117 44.4473C23.2734 44.8574 23.6309 45.0625 24.084 45.0625ZM33.7637 45.8594C33.0449 46.0508 32.3789 46.1465 31.7656 46.1465C30.7383 46.1465 29.9258 45.8457 29.3281 45.2441C28.7344 44.6387 28.4375 43.8164 28.4375 42.7773C28.4375 41.7266 28.7441 40.9043 29.3574 40.3105C29.9707 39.7168 30.8184 39.4199 31.9004 39.4199C32.4238 39.4199 33.0273 39.5039 33.7109 39.6719V40.9258C33 40.6953 32.4316 40.5801 32.0059 40.5801C31.4863 40.5801 31.0684 40.7793 30.752 41.1777C30.4355 41.5762 30.2773 42.1055 30.2773 42.7656C30.2773 43.4414 30.4473 43.9824 30.7871 44.3887C31.1309 44.7949 31.5879 44.998 32.1582 44.998C32.6777 44.998 33.2129 44.8848 33.7637 44.6582V45.8594ZM35.4043 46V39.5664H37.1387V46H35.4043ZM35.4043 38.4824V37.0352H37.1387V38.4824H35.4043ZM42.459 45.3086C41.8809 45.8672 41.2617 46.1465 40.6016 46.1465C40.0391 46.1465 39.582 45.9746 39.2305 45.6309C38.8789 45.2871 38.7031 44.8418 38.7031 44.2949C38.7031 43.584 38.9863 43.0371 39.5527 42.6543C40.123 42.2676 40.9375 42.0742 41.9961 42.0742H42.459V41.4883C42.459 40.8203 42.0781 40.4863 41.3164 40.4863C40.6406 40.4863 39.957 40.6777 39.2656 41.0605V39.8652C40.0508 39.5684 40.8281 39.4199 41.5977 39.4199C43.2812 39.4199 44.123 40.0898 44.123 41.4297V44.2773C44.123 44.7812 44.2852 45.0332 44.6094 45.0332C44.668 45.0332 44.7441 45.0254 44.8379 45.0098L44.8789 45.9824C44.5117 46.0918 44.1875 46.1465 43.9062 46.1465C43.1953 46.1465 42.7383 45.8672 42.5352 45.3086H42.459ZM42.459 44.377V43.0703H42.0488C40.9277 43.0703 40.3672 43.4219 40.3672 44.125C40.3672 44.3633 40.4473 44.5645 40.6074 44.7285C40.7715 44.8887 40.9727 44.9688 41.2109 44.9688C41.6172 44.9688 42.0332 44.7715 42.459 44.377ZM46.3613 46V36.748H48.0957V46H46.3613ZM57.377 45.3086C56.7988 45.8672 56.1797 46.1465 55.5195 46.1465C54.957 46.1465 54.5 45.9746 54.1484 45.6309C53.7969 45.2871 53.6211 44.8418 53.6211 44.2949C53.6211 43.584 53.9043 43.0371 54.4707 42.6543C55.041 42.2676 55.8555 42.0742 56.9141 42.0742H57.377V41.4883C57.377 40.8203 56.9961 40.4863 56.2344 40.4863C55.5586 40.4863 54.875 40.6777 54.1836 41.0605V39.8652C54.9688 39.5684 55.7461 39.4199 56.5156 39.4199C58.1992 39.4199 59.041 40.0898 59.041 41.4297V44.2773C59.041 44.7812 59.2031 45.0332 59.5273 45.0332C59.5859 45.0332 59.6621 45.0254 59.7559 45.0098L59.7969 45.9824C59.4297 46.0918 59.1055 46.1465 58.8242 46.1465C58.1133 46.1465 57.6562 45.8672 57.4531 45.3086H57.377ZM57.377 44.377V43.0703H56.9668C55.8457 43.0703 55.2852 43.4219 55.2852 44.125C55.2852 44.3633 55.3652 44.5645 55.5254 44.7285C55.6895 44.8887 55.8906 44.9688 56.1289 44.9688C56.5352 44.9688 56.9512 44.7715 57.377 44.377ZM61.2793 46V39.5664H63.0137V40.7793C63.5801 39.873 64.3105 39.4199 65.2051 39.4199C65.7793 39.4199 66.2324 39.6016 66.5645 39.9648C66.8965 40.3281 67.0625 40.8242 67.0625 41.4531V46H65.3281V41.8809C65.3281 41.1504 65.0859 40.7852 64.6016 40.7852C64.0508 40.7852 63.5215 41.1738 63.0137 41.9512V46H61.2793ZM73.2148 46V44.7871C72.7695 45.6934 72.0684 46.1465 71.1113 46.1465C70.3379 46.1465 69.7305 45.8633 69.2891 45.2969C68.8477 44.7305 68.627 43.9512 68.627 42.959C68.627 41.8809 68.875 41.0215 69.3711 40.3809C69.8711 39.7402 70.541 39.4199 71.3809 39.4199C72.0527 39.4199 72.6641 39.6855 73.2148 40.2168V36.748H74.9551V46H73.2148ZM73.2148 41.248C72.7969 40.7793 72.3496 40.5449 71.873 40.5449C71.4473 40.5449 71.1074 40.75 70.8535 41.1602C70.5996 41.5703 70.4727 42.1211 70.4727 42.8125C70.4727 44.1289 70.8945 44.7871 71.7383 44.7871C72.2539 44.7871 72.7461 44.457 73.2148 43.7969V41.248ZM6.69336 59.8594C5.97461 60.0508 5.30859 60.1465 4.69531 60.1465C3.66797 60.1465 2.85547 59.8457 2.25781 59.2441C1.66406 58.6387 1.36719 57.8164 1.36719 56.7773C1.36719 55.7266 1.67383 54.9043 2.28711 54.3105C2.90039 53.7168 3.74805 53.4199 4.83008 53.4199C5.35352 53.4199 5.95703 53.5039 6.64062 53.6719V54.9258C5.92969 54.6953 5.36133 54.5801 4.93555 54.5801C4.41602 54.5801 3.99805 54.7793 3.68164 55.1777C3.36523 55.5762 3.20703 56.1055 3.20703 56.7656C3.20703 57.4414 3.37695 57.9824 3.7168 58.3887C4.06055 58.7949 4.51758 58.998 5.08789 58.998C5.60742 58.998 6.14258 58.8848 6.69336 58.6582V59.8594ZM11.0352 60.1465C10.0312 60.1465 9.23242 59.8438 8.63867 59.2383C8.04883 58.6289 7.75391 57.8105 7.75391 56.7832C7.75391 55.7441 8.05078 54.9238 8.64453 54.3223C9.24219 53.7207 10.0527 53.4199 11.0762 53.4199C12.1035 53.4199 12.9141 53.7207 13.5078 54.3223C14.1055 54.9238 14.4043 55.7402 14.4043 56.7715C14.4043 57.8262 14.1055 58.6523 13.5078 59.25C12.9102 59.8477 12.0859 60.1465 11.0352 60.1465ZM11.0645 59.0625C12.0605 59.0625 12.5586 58.2988 12.5586 56.7715C12.5586 56.0723 12.4258 55.5195 12.1602 55.1133C11.8984 54.707 11.5371 54.5039 11.0762 54.5039C10.6191 54.5039 10.2578 54.707 9.99219 55.1133C9.73047 55.5195 9.59961 56.0762 9.59961 56.7832C9.59961 57.4824 9.73047 58.0371 9.99219 58.4473C10.2539 58.8574 10.6113 59.0625 11.0645 59.0625ZM15.998 60V53.5664H17.7324V54.7793C18.2988 53.873 19.0293 53.4199 19.9238 53.4199C20.498 53.4199 20.9512 53.6016 21.2832 53.9648C21.6152 54.3281 21.7812 54.8242 21.7812 55.4531V60H20.0469V55.8809C20.0469 55.1504 19.8047 54.7852 19.3203 54.7852C18.7695 54.7852 18.2402 55.1738 17.7324 55.9512V60H15.998ZM27.2012 59.9648C26.7871 60.0859 26.4609 60.1465 26.2227 60.1465C24.7188 60.1465 23.9668 59.4434 23.9668 58.0371V54.6504H23.2461V53.5664H23.9668V52.4824L25.7012 52.2832V53.5664H27.0781V54.6504H25.7012V57.8086C25.7012 58.5977 26.0234 58.9922 26.668 58.9922C26.8164 58.9922 26.9941 58.9648 27.2012 58.9102V59.9648ZM31.9004 59.3086C31.3223 59.8672 30.7031 60.1465 30.043 60.1465C29.4805 60.1465 29.0234 59.9746 28.6719 59.6309C28.3203 59.2871 28.1445 58.8418 28.1445 58.2949C28.1445 57.584 28.4277 57.0371 28.9941 56.6543C29.5645 56.2676 30.3789 56.0742 31.4375 56.0742H31.9004V55.4883C31.9004 54.8203 31.5195 54.4863 30.7578 54.4863C30.082 54.4863 29.3984 54.6777 28.707 55.0605V53.8652C29.4922 53.5684 30.2695 53.4199 31.0391 53.4199C32.7227 53.4199 33.5645 54.0898 33.5645 55.4297V58.2773C33.5645 58.7812 33.7266 59.0332 34.0508 59.0332C34.1094 59.0332 34.1855 59.0254 34.2793 59.0098L34.3203 59.9824C33.9531 60.0918 33.6289 60.1465 33.3477 60.1465C32.6367 60.1465 32.1797 59.8672 31.9766 59.3086H31.9004ZM31.9004 58.377V57.0703H31.4902C30.3691 57.0703 29.8086 57.4219 29.8086 58.125C29.8086 58.3633 29.8887 58.5645 30.0488 58.7285C30.2129 58.8887 30.4141 58.9688 30.6523 58.9688C31.0586 58.9688 31.4746 58.7715 31.9004 58.377ZM40.5488 59.8594C39.8301 60.0508 39.1641 60.1465 38.5508 60.1465C37.5234 60.1465 36.7109 59.8457 36.1133 59.2441C35.5195 58.6387 35.2227 57.8164 35.2227 56.7773C35.2227 55.7266 35.5293 54.9043 36.1426 54.3105C36.7559 53.7168 37.6035 53.4199 38.6855 53.4199C39.209 53.4199 39.8125 53.5039 40.4961 53.6719V54.9258C39.7852 54.6953 39.2168 54.5801 38.791 54.5801C38.2715 54.5801 37.8535 54.7793 37.5371 55.1777C37.2207 55.5762 37.0625 56.1055 37.0625 56.7656C37.0625 57.4414 37.2324 57.9824 37.5723 58.3887C37.916 58.7949 38.373 58.998 38.9434 58.998C39.4629 58.998 39.998 58.8848 40.5488 58.6582V59.8594ZM45.5059 59.9648C45.0918 60.0859 44.7656 60.1465 44.5273 60.1465C43.0234 60.1465 42.2715 59.4434 42.2715 58.0371V54.6504H41.5508V53.5664H42.2715V52.4824L44.0059 52.2832V53.5664H45.3828V54.6504H44.0059V57.8086C44.0059 58.5977 44.3281 58.9922 44.9727 58.9922C45.1211 58.9922 45.2988 58.9648 45.5059 58.9102V59.9648ZM51.0137 60V50.748H52.748V60H51.0137ZM54.916 60V53.5664H56.6504V60H54.916ZM54.916 52.4824V51.0352H56.6504V52.4824H54.916ZM58.8184 60V53.5664H60.5527V54.7793C61.1191 53.873 61.8496 53.4199 62.7441 53.4199C63.3184 53.4199 63.7715 53.6016 64.1035 53.9648C64.4355 54.3281 64.6016 54.8242 64.6016 55.4531V60H62.8672V55.8809C62.8672 55.1504 62.625 54.7852 62.1406 54.7852C61.5898 54.7852 61.0605 55.1738 60.5527 55.9512V60H58.8184ZM66.7051 60V50.748H68.4395V56.5664H68.5508L70.8418 53.5664H72.2832L70.168 56.3203L72.9453 60H70.8359L68.5508 56.7832H68.4395V60H66.7051ZM74.1289 59.7949V58.5234C74.9883 58.8828 75.7227 59.0625 76.332 59.0625C77.043 59.0625 77.3984 58.8203 77.3984 58.3359C77.3984 58.0234 77.1055 57.75 76.5195 57.5156L75.9336 57.2812C75.2969 57.0234 74.8418 56.7461 74.5684 56.4492C74.2949 56.1523 74.1582 55.7852 74.1582 55.3477C74.1582 54.7383 74.3906 54.2656 74.8555 53.9297C75.3203 53.5898 75.9707 53.4199 76.8066 53.4199C77.3301 53.4199 77.9531 53.4961 78.6758 53.6484V54.8672C77.9805 54.625 77.4043 54.5039 76.9473 54.5039C76.2285 54.5039 75.8691 54.7266 75.8691 55.1719C75.8691 55.4648 76.1348 55.7129 76.666 55.916L77.1699 56.1094C77.9238 56.3945 78.4473 56.6836 78.7402 56.9766C79.0371 57.2695 79.1855 57.6465 79.1855 58.1074C79.1855 58.7129 78.9336 59.2051 78.4297 59.584C77.9297 59.959 77.2773 60.1465 76.4727 60.1465C75.6992 60.1465 74.918 60.0293 74.1289 59.7949Z" fill="#4F4F4F"/>
<line id="Line 2" x1="80" y1="45.5" x2="106" y2="45.5" stroke="#060606" stroke-opacity="0.34"/>
<path id="Get updates from Veterans Affairs" d="M125.595 14.165C124.615 14.165 123.755 13.965 123.015 13.565C122.285 13.155 121.72 12.555 121.32 11.765C120.92 10.965 120.72 9.98 120.72 8.81C120.72 7.65 120.92 6.66 121.32 5.84C121.73 5.02 122.31 4.395 123.06 3.965C123.82 3.525 124.725 3.305 125.775 3.305C126.345 3.305 126.935 3.37 127.545 3.5C128.165 3.63 128.79 3.825 129.42 4.085L129.285 6.665H128.175L127.89 5.075C127.55 4.965 127.21 4.88 126.87 4.82C126.53 4.75 126.205 4.715 125.895 4.715C124.895 4.715 124.11 5.065 123.54 5.765C122.98 6.455 122.7 7.46 122.7 8.78C122.7 10.03 122.965 11.005 123.495 11.705C124.035 12.395 124.805 12.74 125.805 12.74C126.375 12.74 126.99 12.625 127.65 12.395V9.995L126.48 9.8V8.84L130.5 8.765V9.74L129.36 10.01V13.34C128.68 13.62 128.02 13.83 127.38 13.97C126.75 14.1 126.155 14.165 125.595 14.165ZM134.979 14.165C133.919 14.165 133.059 13.825 132.399 13.145C131.739 12.455 131.409 11.455 131.409 10.145C131.409 9.265 131.564 8.505 131.874 7.865C132.194 7.215 132.639 6.72 133.209 6.38C133.789 6.03 134.474 5.855 135.264 5.855C136.014 5.855 136.624 6.01 137.094 6.32C137.574 6.62 137.929 7.035 138.159 7.565C138.389 8.095 138.504 8.695 138.504 9.365C138.504 9.665 138.479 9.98 138.429 10.31H133.269C133.319 11.06 133.514 11.665 133.854 12.125C134.204 12.585 134.724 12.815 135.414 12.815C135.764 12.815 136.144 12.75 136.554 12.62C136.964 12.49 137.389 12.29 137.829 12.02L138.444 12.995C137.874 13.385 137.294 13.68 136.704 13.88C136.114 14.07 135.539 14.165 134.979 14.165ZM135.114 7.175C134.574 7.175 134.159 7.36 133.869 7.73C133.579 8.1 133.394 8.58 133.314 9.17H136.644C136.644 8.6 136.524 8.125 136.284 7.745C136.054 7.365 135.664 7.175 135.114 7.175ZM142.387 14.165C141.757 14.165 141.272 13.975 140.932 13.595C140.592 13.205 140.422 12.625 140.422 11.855V7.235H139.192V6.26L140.422 6.005V4.25L142.237 3.935V6.02H144.337L144.307 7.235H142.237V11.615C142.237 12.045 142.312 12.355 142.462 12.545C142.612 12.735 142.827 12.83 143.107 12.83C143.427 12.83 143.827 12.725 144.307 12.515L144.652 13.505C143.862 13.945 143.107 14.165 142.387 14.165ZM151.197 14.165C150.527 14.165 149.967 13.955 149.517 13.535C149.077 13.105 148.857 12.455 148.857 11.585V7.28L147.807 6.995V6.065L150.657 5.96V11.285C150.657 11.795 150.772 12.175 151.002 12.425C151.242 12.665 151.557 12.785 151.947 12.785C152.227 12.785 152.532 12.715 152.862 12.575C153.202 12.425 153.542 12.2 153.882 11.9V7.28L152.832 6.995V6.065L155.682 5.96V12.77L156.747 13.055V13.985L154.287 14.09L154.077 12.905C153.607 13.335 153.122 13.655 152.622 13.865C152.122 14.065 151.647 14.165 151.197 14.165ZM157.361 17.45V16.52L158.426 16.205V7.28L157.361 6.995V6.065L159.821 5.945L159.986 6.995C160.426 6.615 160.856 6.33 161.276 6.14C161.706 5.95 162.141 5.855 162.581 5.855C163.151 5.855 163.656 6.01 164.096 6.32C164.546 6.62 164.896 7.07 165.146 7.67C165.406 8.26 165.536 8.98 165.536 9.83C165.536 11.27 165.176 12.355 164.456 13.085C163.746 13.805 162.806 14.165 161.636 14.165C161.206 14.165 160.736 14.11 160.226 14V16.22L161.471 16.52V17.45H157.361ZM161.411 12.875C162.171 12.875 162.736 12.62 163.106 12.11C163.476 11.6 163.661 10.9 163.661 10.01C163.661 9.14 163.501 8.455 163.181 7.955C162.861 7.445 162.431 7.19 161.891 7.19C161.361 7.19 160.806 7.44 160.226 7.94V12.71C160.656 12.82 161.051 12.875 161.411 12.875ZM169.609 14.165C169.039 14.165 168.529 14.015 168.079 13.715C167.639 13.405 167.289 12.955 167.029 12.365C166.769 11.765 166.639 11.035 166.639 10.175C166.639 8.725 167.009 7.645 167.749 6.935C168.489 6.215 169.519 5.855 170.839 5.855C171.179 5.855 171.554 5.89 171.964 5.96V3.725L170.824 3.395V2.48L173.764 2.36V12.77L174.814 13.055V13.985L172.354 14.09L172.159 13.025C171.329 13.785 170.479 14.165 169.609 14.165ZM170.284 12.83C170.814 12.83 171.374 12.58 171.964 12.08V7.325C171.534 7.205 171.139 7.145 170.779 7.145C170.009 7.145 169.439 7.4 169.069 7.91C168.699 8.42 168.514 9.12 168.514 10.01C168.514 10.88 168.674 11.57 168.994 12.08C169.324 12.58 169.754 12.83 170.284 12.83ZM180.616 14.105L180.391 12.83C179.991 13.28 179.556 13.615 179.086 13.835C178.616 14.055 178.156 14.165 177.706 14.165C177.086 14.165 176.566 13.97 176.146 13.58C175.736 13.18 175.531 12.6 175.531 11.84C175.531 10.98 175.801 10.385 176.341 10.055C176.891 9.715 177.651 9.545 178.621 9.545H180.211V8.57C180.211 8.08 180.086 7.73 179.836 7.52C179.586 7.3 179.231 7.19 178.771 7.19C178.371 7.19 177.916 7.265 177.406 7.415L177.241 8.525H176.086L175.966 6.425C177.266 6.045 178.361 5.855 179.251 5.855C180.131 5.855 180.811 6.05 181.291 6.44C181.771 6.82 182.011 7.42 182.011 8.24V12.755L183.076 13.055V13.985L180.616 14.105ZM177.346 11.675C177.346 12.085 177.441 12.385 177.631 12.575C177.821 12.755 178.066 12.845 178.366 12.845C178.636 12.845 178.931 12.765 179.251 12.605C179.581 12.445 179.901 12.22 180.211 11.93V10.58H178.906C178.316 10.58 177.906 10.67 177.676 10.85C177.456 11.03 177.346 11.305 177.346 11.675ZM186.596 14.165C185.966 14.165 185.481 13.975 185.141 13.595C184.801 13.205 184.631 12.625 184.631 11.855V7.235H183.401V6.26L184.631 6.005V4.25L186.446 3.935V6.02H188.546L188.516 7.235H186.446V11.615C186.446 12.045 186.521 12.355 186.671 12.545C186.821 12.735 187.036 12.83 187.316 12.83C187.636 12.83 188.036 12.725 188.516 12.515L188.861 13.505C188.071 13.945 187.316 14.165 186.596 14.165ZM192.929 14.165C191.869 14.165 191.009 13.825 190.349 13.145C189.689 12.455 189.359 11.455 189.359 10.145C189.359 9.265 189.514 8.505 189.824 7.865C190.144 7.215 190.589 6.72 191.159 6.38C191.739 6.03 192.424 5.855 193.214 5.855C193.964 5.855 194.574 6.01 195.044 6.32C195.524 6.62 195.879 7.035 196.109 7.565C196.339 8.095 196.454 8.695 196.454 9.365C196.454 9.665 196.429 9.98 196.379 10.31H191.219C191.269 11.06 191.464 11.665 191.804 12.125C192.154 12.585 192.674 12.815 193.364 12.815C193.714 12.815 194.094 12.75 194.504 12.62C194.914 12.49 195.339 12.29 195.779 12.02L196.394 12.995C195.824 13.385 195.244 13.68 194.654 13.88C194.064 14.07 193.489 14.165 192.929 14.165ZM193.064 7.175C192.524 7.175 192.109 7.36 191.819 7.73C191.529 8.1 191.344 8.58 191.264 9.17H194.594C194.594 8.6 194.474 8.125 194.234 7.745C194.004 7.365 193.614 7.175 193.064 7.175ZM199.541 8C199.541 8.26 199.641 8.47 199.841 8.63C200.041 8.78 200.301 8.91 200.621 9.02C200.941 9.12 201.276 9.225 201.626 9.335C201.986 9.445 202.321 9.59 202.631 9.77C202.951 9.94 203.211 10.17 203.411 10.46C203.611 10.74 203.711 11.11 203.711 11.57C203.711 12.13 203.556 12.605 203.246 12.995C202.946 13.385 202.531 13.68 202.001 13.88C201.481 14.07 200.891 14.165 200.231 14.165C199.841 14.165 199.431 14.13 199.001 14.06C198.581 14 198.151 13.91 197.711 13.79L197.801 11.6H198.941L199.076 12.785C199.276 12.835 199.481 12.875 199.691 12.905C199.911 12.935 200.106 12.95 200.276 12.95C200.546 12.95 200.806 12.91 201.056 12.83C201.306 12.75 201.511 12.63 201.671 12.47C201.831 12.31 201.911 12.11 201.911 11.87C201.911 11.6 201.811 11.385 201.611 11.225C201.411 11.065 201.151 10.935 200.831 10.835C200.521 10.725 200.191 10.615 199.841 10.505C199.491 10.395 199.156 10.255 198.836 10.085C198.526 9.905 198.271 9.67 198.071 9.38C197.871 9.09 197.771 8.71 197.771 8.24C197.771 7.68 197.911 7.225 198.191 6.875C198.471 6.525 198.841 6.27 199.301 6.11C199.771 5.94 200.276 5.855 200.816 5.855C201.586 5.855 202.451 6 203.411 6.29L203.336 8.195H202.181L201.986 7.22C201.576 7.12 201.211 7.07 200.891 7.07C200.491 7.07 200.166 7.155 199.916 7.325C199.666 7.495 199.541 7.72 199.541 8ZM207.595 14V13.07L208.645 12.785V7.295H207.55V6.335L208.645 6.095V5.27C208.645 4.24 208.915 3.48 209.455 2.99C210.005 2.5 210.73 2.255 211.63 2.255C211.9 2.255 212.18 2.28 212.47 2.33C212.76 2.38 213.065 2.45 213.385 2.54L213.13 3.74C212.92 3.68 212.715 3.635 212.515 3.605C212.315 3.565 212.12 3.545 211.93 3.545C211.49 3.545 211.13 3.67 210.85 3.92C210.58 4.16 210.445 4.56 210.445 5.12V6.095H212.395L212.365 7.295H210.445V12.785L211.72 13.07V14H207.595ZM213.175 14V13.07L214.24 12.785V7.28L213.175 6.995V6.065L215.635 5.945L215.83 7.13C216.24 6.73 216.65 6.42 217.06 6.2C217.47 5.97 217.91 5.855 218.38 5.855C218.69 5.855 219.025 5.905 219.385 6.005L219.265 8.585H218.215L218.035 7.31C217.955 7.29 217.865 7.28 217.765 7.28C217.455 7.28 217.15 7.365 216.85 7.535C216.56 7.705 216.29 7.93 216.04 8.21V12.785L217.345 13.07V14H213.175ZM223.756 5.855C224.906 5.855 225.806 6.205 226.456 6.905C227.106 7.605 227.431 8.59 227.431 9.86C227.431 10.75 227.271 11.515 226.951 12.155C226.641 12.795 226.191 13.29 225.601 13.64C225.021 13.99 224.321 14.165 223.501 14.165C222.351 14.165 221.456 13.82 220.816 13.13C220.186 12.44 219.871 11.45 219.871 10.16C219.871 8.83 220.211 7.78 220.891 7.01C221.581 6.24 222.536 5.855 223.756 5.855ZM223.666 7.145C222.386 7.145 221.746 8.12 221.746 10.07C221.746 11.03 221.901 11.74 222.211 12.2C222.521 12.65 222.981 12.875 223.591 12.875C224.251 12.875 224.746 12.625 225.076 12.125C225.406 11.625 225.571 10.9 225.571 9.95C225.571 8.08 224.936 7.145 223.666 7.145ZM232.249 13.07V14H228.454V13.07L229.519 12.785V7.28L228.454 6.995V6.065L230.914 5.945L231.109 7.13C231.559 6.71 232.034 6.395 232.534 6.185C233.044 5.965 233.524 5.855 233.974 5.855C234.414 5.855 234.809 5.96 235.159 6.17C235.509 6.38 235.774 6.705 235.954 7.145C236.414 6.715 236.894 6.395 237.394 6.185C237.904 5.965 238.384 5.855 238.834 5.855C239.454 5.855 239.974 6.065 240.394 6.485C240.824 6.895 241.039 7.525 241.039 8.375V12.785L242.104 13.07V14H238.309V13.07L239.239 12.815V8.765C239.239 8.245 239.129 7.86 238.909 7.61C238.689 7.36 238.409 7.235 238.069 7.235C237.789 7.235 237.484 7.31 237.154 7.46C236.834 7.61 236.509 7.835 236.179 8.135C236.179 8.185 236.179 8.24 236.179 8.3V12.785L237.124 13.07V14H233.449V13.07L234.379 12.815V8.765C234.379 8.245 234.269 7.86 234.049 7.61C233.829 7.36 233.549 7.235 233.209 7.235C232.929 7.235 232.624 7.31 232.294 7.46C231.964 7.6 231.639 7.82 231.319 8.12V12.8L232.249 13.07ZM249.313 14.015L246.178 4.73L245.143 4.475V3.545L249.433 3.47V4.4L248.233 4.7L250.453 11.975L252.853 4.745L251.668 4.475V3.545L255.583 3.47V4.4L254.548 4.685L251.263 14.015H249.313ZM258.847 14.165C257.787 14.165 256.927 13.825 256.267 13.145C255.607 12.455 255.277 11.455 255.277 10.145C255.277 9.265 255.432 8.505 255.742 7.865C256.062 7.215 256.507 6.72 257.077 6.38C257.657 6.03 258.342 5.855 259.132 5.855C259.882 5.855 260.492 6.01 260.962 6.32C261.442 6.62 261.797 7.035 262.027 7.565C262.257 8.095 262.372 8.695 262.372 9.365C262.372 9.665 262.347 9.98 262.297 10.31H257.137C257.187 11.06 257.382 11.665 257.722 12.125C258.072 12.585 258.592 12.815 259.282 12.815C259.632 12.815 260.012 12.75 260.422 12.62C260.832 12.49 261.257 12.29 261.697 12.02L262.312 12.995C261.742 13.385 261.162 13.68 260.572 13.88C259.982 14.07 259.407 14.165 258.847 14.165ZM258.982 7.175C258.442 7.175 258.027 7.36 257.737 7.73C257.447 8.1 257.262 8.58 257.182 9.17H260.512C260.512 8.6 260.392 8.125 260.152 7.745C259.922 7.365 259.532 7.175 258.982 7.175ZM266.254 14.165C265.624 14.165 265.139 13.975 264.799 13.595C264.459 13.205 264.289 12.625 264.289 11.855V7.235H263.059V6.26L264.289 6.005V4.25L266.104 3.935V6.02H268.204L268.174 7.235H266.104V11.615C266.104 12.045 266.179 12.355 266.329 12.545C266.479 12.735 266.694 12.83 266.974 12.83C267.294 12.83 267.694 12.725 268.174 12.515L268.519 13.505C267.729 13.945 266.974 14.165 266.254 14.165ZM272.587 14.165C271.527 14.165 270.667 13.825 270.007 13.145C269.347 12.455 269.017 11.455 269.017 10.145C269.017 9.265 269.172 8.505 269.482 7.865C269.802 7.215 270.247 6.72 270.817 6.38C271.397 6.03 272.082 5.855 272.872 5.855C273.622 5.855 274.232 6.01 274.702 6.32C275.182 6.62 275.537 7.035 275.767 7.565C275.997 8.095 276.112 8.695 276.112 9.365C276.112 9.665 276.087 9.98 276.037 10.31H270.877C270.927 11.06 271.122 11.665 271.462 12.125C271.812 12.585 272.332 12.815 273.022 12.815C273.372 12.815 273.752 12.75 274.162 12.62C274.572 12.49 274.997 12.29 275.437 12.02L276.052 12.995C275.482 13.385 274.902 13.68 274.312 13.88C273.722 14.07 273.147 14.165 272.587 14.165ZM272.722 7.175C272.182 7.175 271.767 7.36 271.477 7.73C271.187 8.1 271.002 8.58 270.922 9.17H274.252C274.252 8.6 274.132 8.125 273.892 7.745C273.662 7.365 273.272 7.175 272.722 7.175ZM277.16 14V13.07L278.225 12.785V7.28L277.16 6.995V6.065L279.62 5.945L279.815 7.13C280.225 6.73 280.635 6.42 281.045 6.2C281.455 5.97 281.895 5.855 282.365 5.855C282.675 5.855 283.01 5.905 283.37 6.005L283.25 8.585H282.2L282.02 7.31C281.94 7.29 281.85 7.28 281.75 7.28C281.44 7.28 281.135 7.365 280.835 7.535C280.545 7.705 280.275 7.93 280.025 8.21V12.785L281.33 13.07V14H277.16ZM288.824 14.105L288.599 12.83C288.199 13.28 287.764 13.615 287.294 13.835C286.824 14.055 286.364 14.165 285.914 14.165C285.294 14.165 284.774 13.97 284.354 13.58C283.944 13.18 283.739 12.6 283.739 11.84C283.739 10.98 284.009 10.385 284.549 10.055C285.099 9.715 285.859 9.545 286.829 9.545H288.419V8.57C288.419 8.08 288.294 7.73 288.044 7.52C287.794 7.3 287.439 7.19 286.979 7.19C286.579 7.19 286.124 7.265 285.614 7.415L285.449 8.525H284.294L284.174 6.425C285.474 6.045 286.569 5.855 287.459 5.855C288.339 5.855 289.019 6.05 289.499 6.44C289.979 6.82 290.219 7.42 290.219 8.24V12.755L291.284 13.055V13.985L288.824 14.105ZM285.554 11.675C285.554 12.085 285.649 12.385 285.839 12.575C286.029 12.755 286.274 12.845 286.574 12.845C286.844 12.845 287.139 12.765 287.459 12.605C287.789 12.445 288.109 12.22 288.419 11.93V10.58H287.114C286.524 10.58 286.114 10.67 285.884 10.85C285.664 11.03 285.554 11.305 285.554 11.675ZM291.969 14V13.07L293.034 12.785V7.28L291.969 6.995V6.065L294.429 5.945L294.624 7.13C295.084 6.7 295.569 6.38 296.079 6.17C296.589 5.96 297.069 5.855 297.519 5.855C298.189 5.855 298.744 6.065 299.184 6.485C299.634 6.905 299.854 7.54 299.844 8.39V12.785L300.909 13.07V14H297.069V13.07L298.044 12.8V8.78C298.044 8.25 297.924 7.86 297.684 7.61C297.454 7.36 297.144 7.235 296.754 7.235C296.464 7.235 296.154 7.31 295.824 7.46C295.494 7.6 295.164 7.82 294.834 8.12V12.8L295.809 13.07V14H291.969ZM303.604 8C303.604 8.26 303.704 8.47 303.904 8.63C304.104 8.78 304.364 8.91 304.684 9.02C305.004 9.12 305.339 9.225 305.689 9.335C306.049 9.445 306.384 9.59 306.694 9.77C307.014 9.94 307.274 10.17 307.474 10.46C307.674 10.74 307.774 11.11 307.774 11.57C307.774 12.13 307.619 12.605 307.309 12.995C307.009 13.385 306.594 13.68 306.064 13.88C305.544 14.07 304.954 14.165 304.294 14.165C303.904 14.165 303.494 14.13 303.064 14.06C302.644 14 302.214 13.91 301.774 13.79L301.864 11.6H303.004L303.139 12.785C303.339 12.835 303.544 12.875 303.754 12.905C303.974 12.935 304.169 12.95 304.339 12.95C304.609 12.95 304.869 12.91 305.119 12.83C305.369 12.75 305.574 12.63 305.734 12.47C305.894 12.31 305.974 12.11 305.974 11.87C305.974 11.6 305.874 11.385 305.674 11.225C305.474 11.065 305.214 10.935 304.894 10.835C304.584 10.725 304.254 10.615 303.904 10.505C303.554 10.395 303.219 10.255 302.899 10.085C302.589 9.905 302.334 9.67 302.134 9.38C301.934 9.09 301.834 8.71 301.834 8.24C301.834 7.68 301.974 7.225 302.254 6.875C302.534 6.525 302.904 6.27 303.364 6.11C303.834 5.94 304.339 5.855 304.879 5.855C305.649 5.855 306.514 6 307.474 6.29L307.399 8.195H306.244L306.049 7.22C305.639 7.12 305.274 7.07 304.954 7.07C304.554 7.07 304.229 7.155 303.979 7.325C303.729 7.495 303.604 7.72 303.604 8ZM315.032 13.07V14H311.192V13.07L312.167 12.785L315.647 3.5L317.522 3.44L320.807 12.785L321.767 13.07V14H317.597V13.07L318.737 12.77L318.227 11.12H314.432L313.847 12.785L315.032 13.07ZM314.837 9.83H317.852L316.442 5.15L314.837 9.83ZM322.146 14V13.07L323.196 12.785V7.295H322.101V6.335L323.196 6.095V5.465C323.196 4.765 323.346 4.195 323.646 3.755C323.946 3.315 324.351 2.995 324.861 2.795C325.381 2.585 325.961 2.48 326.601 2.48C327.011 2.48 327.436 2.52 327.876 2.6C328.316 2.68 328.756 2.79 329.196 2.93C329.706 2.48 330.406 2.255 331.296 2.255C331.566 2.255 331.841 2.28 332.121 2.33C332.411 2.38 332.721 2.45 333.051 2.54L332.781 3.74C332.581 3.68 332.381 3.635 332.181 3.605C331.981 3.565 331.786 3.545 331.596 3.545C331.156 3.545 330.796 3.67 330.516 3.92C330.246 4.16 330.111 4.56 330.111 5.12V6.095H332.061L332.016 7.295H330.111V12.785L331.386 13.07V14H327.246V13.07L328.311 12.785V7.295H324.996V12.785L326.121 13.07V14H322.146ZM324.996 5.39V6.095H328.311V5.27C328.311 4.81 328.371 4.4 328.491 4.04C328.191 3.95 327.896 3.88 327.606 3.83C327.326 3.78 327.061 3.755 326.811 3.755C326.271 3.755 325.831 3.885 325.491 4.145C325.161 4.395 324.996 4.81 324.996 5.39ZM337.809 14.105L337.584 12.83C337.184 13.28 336.749 13.615 336.279 13.835C335.809 14.055 335.349 14.165 334.899 14.165C334.279 14.165 333.759 13.97 333.339 13.58C332.929 13.18 332.724 12.6 332.724 11.84C332.724 10.98 332.994 10.385 333.534 10.055C334.084 9.715 334.844 9.545 335.814 9.545H337.404V8.57C337.404 8.08 337.279 7.73 337.029 7.52C336.779 7.3 336.424 7.19 335.964 7.19C335.564 7.19 335.109 7.265 334.599 7.415L334.434 8.525H333.279L333.159 6.425C334.459 6.045 335.554 5.855 336.444 5.855C337.324 5.855 338.004 6.05 338.484 6.44C338.964 6.82 339.204 7.42 339.204 8.24V12.755L340.269 13.055V13.985L337.809 14.105ZM334.539 11.675C334.539 12.085 334.634 12.385 334.824 12.575C335.014 12.755 335.259 12.845 335.559 12.845C335.829 12.845 336.124 12.765 336.444 12.605C336.774 12.445 337.094 12.22 337.404 11.93V10.58H336.099C335.509 10.58 335.099 10.67 334.869 10.85C334.649 11.03 334.539 11.305 334.539 11.675ZM344.869 13.07V14H340.954V13.07L342.019 12.785V7.265L340.954 6.995V6.065L343.819 5.96V12.785L344.869 13.07ZM342.844 4.64C342.514 4.64 342.249 4.55 342.049 4.37C341.849 4.18 341.749 3.91 341.749 3.56C341.749 3.19 341.854 2.915 342.064 2.735C342.274 2.545 342.539 2.45 342.859 2.45C343.169 2.45 343.424 2.545 343.624 2.735C343.834 2.915 343.939 3.185 343.939 3.545C343.939 3.905 343.834 4.18 343.624 4.37C343.414 4.55 343.154 4.64 342.844 4.64ZM345.612 14V13.07L346.677 12.785V7.28L345.612 6.995V6.065L348.072 5.945L348.267 7.13C348.677 6.73 349.087 6.42 349.497 6.2C349.907 5.97 350.347 5.855 350.817 5.855C351.127 5.855 351.462 5.905 351.822 6.005L351.702 8.585H350.652L350.472 7.31C350.392 7.29 350.302 7.28 350.202 7.28C349.892 7.28 349.587 7.365 349.287 7.535C348.997 7.705 348.727 7.93 348.477 8.21V12.785L349.782 13.07V14H345.612ZM354.39 8C354.39 8.26 354.49 8.47 354.69 8.63C354.89 8.78 355.15 8.91 355.47 9.02C355.79 9.12 356.125 9.225 356.475 9.335C356.835 9.445 357.17 9.59 357.48 9.77C357.8 9.94 358.06 10.17 358.26 10.46C358.46 10.74 358.56 11.11 358.56 11.57C358.56 12.13 358.405 12.605 358.095 12.995C357.795 13.385 357.38 13.68 356.85 13.88C356.33 14.07 355.74 14.165 355.08 14.165C354.69 14.165 354.28 14.13 353.85 14.06C353.43 14 353 13.91 352.56 13.79L352.65 11.6H353.79L353.925 12.785C354.125 12.835 354.33 12.875 354.54 12.905C354.76 12.935 354.955 12.95 355.125 12.95C355.395 12.95 355.655 12.91 355.905 12.83C356.155 12.75 356.36 12.63 356.52 12.47C356.68 12.31 356.76 12.11 356.76 11.87C356.76 11.6 356.66 11.385 356.46 11.225C356.26 11.065 356 10.935 355.68 10.835C355.37 10.725 355.04 10.615 354.69 10.505C354.34 10.395 354.005 10.255 353.685 10.085C353.375 9.905 353.12 9.67 352.92 9.38C352.72 9.09 352.62 8.71 352.62 8.24C352.62 7.68 352.76 7.225 353.04 6.875C353.32 6.525 353.69 6.27 354.15 6.11C354.62 5.94 355.125 5.855 355.665 5.855C356.435 5.855 357.3 6 358.26 6.29L358.185 8.195H357.03L356.835 7.22C356.425 7.12 356.06 7.07 355.74 7.07C355.34 7.07 355.015 7.155 354.765 7.325C354.515 7.495 354.39 7.72 354.39 8Z" fill="#182E4F"/>
<g id="Group 8">
<rect id="Rectangle 27" x="148" y="41" width="86" height="5" fill="#0071BB" fill-opacity="0.5"/>
<rect id="Rectangle 28" x="148" y="49" width="40" height="5" fill="#0071BB" fill-opacity="0.5"/>
<g id="noun_Email_3680473 1">
<g id="Group">
<path id="Vector" d="M135.607 40.3928H123.393C122.273 40.3928 121.357 41.3089 121.357 42.4285V50.5714C121.357 51.691 122.273 52.6071 123.393 52.6071H135.607C136.727 52.6071 137.643 51.691 137.643 50.5714V42.4285C137.643 41.3089 136.727 40.3928 135.607 40.3928ZM135.336 43.65L129.907 47.7214C129.785 47.8096 129.643 47.8571 129.5 47.8571C129.358 47.8571 129.215 47.8096 129.093 47.7214L123.664 43.65C123.366 43.426 123.305 42.9985 123.529 42.7C123.753 42.4014 124.18 42.3403 124.479 42.5643L129.5 46.3303L134.521 42.5643C134.82 42.3403 135.248 42.4014 135.471 42.7C135.695 42.9985 135.634 43.426 135.336 43.65Z" fill="#80B8DD"/>
</g>
</g>
</g>
<g id="Group 10">
<rect id="Rectangle 31" x="148" y="116" width="86" height="5" fill="#0071BB" fill-opacity="0.5"/>
<rect id="Rectangle 32" x="148" y="124" width="40" height="5" fill="#0071BB" fill-opacity="0.5"/>
<g id="noun_Bird_233023 1">
<g id="Group_2">
<path id="Vector_2" fill-rule="evenodd" clip-rule="evenodd" d="M138 119H137.899C137.436 116.717 135.418 115 133 115C130.431 115 128.34 116.944 128.056 119.437C128.023 119.609 128 119.791 128 120C128 127 124 126 124 126C124 126 124 131 130 131C138 131 138 121 138 121L140 120L138 119ZM134 120C133.448 120 133 119.553 133 119C133 118.447 133.448 118 134 118C134.552 118 135 118.447 135 119C135 119.553 134.552 120 134 120Z" fill="#80B8DD"/>
</g>
</g>
</g>
<g id="Group 9">
<rect id="Rectangle 29" x="148" y="78" width="86" height="5" fill="#0071BB" fill-opacity="0.5"/>
<rect id="Rectangle 30" x="148" y="86" width="40" height="5" fill="#0071BB" fill-opacity="0.5"/>
<g id="noun_Phone_3676097 1">
<g id="Group_3">
<path id="Vector_3" d="M135.522 93.0164C132.11 94.1097 123.256 84.127 123.184 80.819C123.174 79.9864 123.506 79.4059 124.178 79.0764C124.879 78.7544 125.538 78.3437 126.231 78.0262C126.672 77.8119 126.996 77.8588 127.301 78.2562C128.195 79.394 128.972 80.4056 129.631 81.2916C129.926 81.6895 129.931 82.0135 129.604 82.3928C129.316 82.7346 128.991 83.0752 128.73 83.4311C128.177 84.2359 131.708 88.0208 132.433 87.3352C132.75 87.0475 133.12 86.791 133.458 86.5195C133.877 86.2185 134.203 86.193 134.608 86.5329C135.08 86.9355 137.733 89.0075 137.812 89.5358C137.928 90.3134 135.895 92.5792 135.522 93.0164Z" fill="#80B8DD"/>
</g>
</g>
</g>
<g id="Group 18">
<g id="Group 15">
<rect id="Rectangle 29_2" x="454" y="34" width="86" height="5" fill="#0071BB" fill-opacity="0.5"/>
<rect id="Rectangle 30_2" x="454" y="42" width="40" height="5" fill="#0071BB" fill-opacity="0.5"/>
</g>
<g id="noun_instagram_3350460 1" clip-path="url(#clip0)">
<path id="Vector_4" d="M443.333 34H432.667C431.959 34 431.281 34.281 430.781 34.781C430.281 35.2811 430 35.9594 430 36.6667V47.3333C430 48.0406 430.281 48.7189 430.781 49.219C431.281 49.719 431.959 50 432.667 50H443.333C444.041 50 444.719 49.719 445.219 49.219C445.719 48.7189 446 48.0406 446 47.3333V36.6667C446 35.9594 445.719 35.2811 445.219 34.781C444.719 34.281 444.041 34 443.333 34V34ZM444.667 47.3333C444.667 47.687 444.526 48.0261 444.276 48.2761C444.026 48.5262 443.687 48.6667 443.333 48.6667H432.667C432.313 48.6667 431.974 48.5262 431.724 48.2761C431.474 48.0261 431.333 47.687 431.333 47.3333V36.6667C431.333 36.313 431.474 35.9739 431.724 35.7239C431.974 35.4738 432.313 35.3333 432.667 35.3333H443.333C443.687 35.3333 444.026 35.4738 444.276 35.7239C444.526 35.9739 444.667 36.313 444.667 36.6667V47.3333Z" fill="#80B8DD"/>
<path id="Vector_5" d="M438 38C437.209 38 436.436 38.2346 435.778 38.6741C435.12 39.1136 434.607 39.7384 434.304 40.4693C434.002 41.2002 433.923 42.0044 434.077 42.7804C434.231 43.5563 434.612 44.269 435.172 44.8284C435.731 45.3878 436.444 45.7688 437.22 45.9231C437.996 46.0775 438.8 45.9983 439.531 45.6955C440.262 45.3928 440.886 44.8801 441.326 44.2223C441.765 43.5645 442 42.7911 442 42C442 40.9391 441.579 39.9217 440.828 39.1716C440.078 38.4214 439.061 38 438 38ZM438 44.6667C437.473 44.6667 436.957 44.5103 436.518 44.2173C436.08 43.9242 435.738 43.5078 435.536 43.0205C435.334 42.5332 435.282 41.997 435.385 41.4798C435.487 40.9625 435.741 40.4873 436.114 40.1144C436.487 39.7414 436.962 39.4875 437.48 39.3846C437.997 39.2817 438.533 39.3345 439.02 39.5363C439.508 39.7382 439.924 40.0799 440.217 40.5185C440.51 40.957 440.667 41.4726 440.667 42C440.667 42.7072 440.386 43.3855 439.886 43.8856C439.386 44.3857 438.707 44.6667 438 44.6667Z" fill="#80B8DD"/>
<path id="Vector_6" d="M442.333 38.6667C442.886 38.6667 443.333 38.219 443.333 37.6667C443.333 37.1145 442.886 36.6667 442.333 36.6667C441.781 36.6667 441.333 37.1145 441.333 37.6667C441.333 38.219 441.781 38.6667 442.333 38.6667Z" fill="#80B8DD"/>
</g>
</g>
<g id="Group 20">
<g id="Group 13">
<rect id="Rectangle 29_3" x="302" y="38" width="86" height="5" fill="#0071BB" fill-opacity="0.5"/>
<rect id="Rectangle 30_3" x="302" y="46" width="40" height="5" fill="#0071BB" fill-opacity="0.5"/>
</g>
<path id="f" d="M281.556 41.46V40.65C281.556 39.474 281.886 38.544 282.546 37.86C283.206 37.176 284.154 36.834 285.39 36.834C285.966 36.834 286.512 36.894 287.028 37.014C287.556 37.122 287.94 37.23 288.18 37.338L288.54 37.5L288.486 40.164H286.92L286.65 38.832C286.35 38.784 286.002 38.76 285.606 38.76C284.682 38.76 284.22 39.288 284.22 40.344V41.46H286.56L286.506 43.26H284.22V49.11L285.948 49.56V51H280.116V49.56L281.556 49.11V43.26H279.936V41.73L281.556 41.46Z" fill="#80B8DD"/>
</g>
<g id="Group 17">
<g id="Group 16">
<rect id="Rectangle 29_4" x="454" y="72" width="86" height="5" fill="#0071BB" fill-opacity="0.5"/>
<rect id="Rectangle 30_4" x="454" y="80" width="40" height="5" fill="#0071BB" fill-opacity="0.5"/>
</g>
<g id="Group 11">
<rect id="Rectangle 41" x="429" y="72" width="17" height="17" rx="2" fill="#80B8DD"/>
<path id="in" d="M433.1 73.835C432.275 73.835 431.705 74.42 431.705 75.185C431.705 75.95 432.275 76.535 433.1 76.535C433.925 76.535 434.51 75.95 434.51 75.185C434.51 74.42 433.925 73.835 433.1 73.835ZM434.3 78.035H431.93V86H434.3V78.035ZM440.828 77.78C439.838 77.78 439.073 78.185 438.398 78.98L438.233 78.035H436.163V86H438.533V80.555C438.953 79.895 439.388 79.52 439.913 79.52C440.378 79.52 440.663 79.745 440.663 80.585V86H443.033V80.18C443.033 78.665 442.208 77.78 440.828 77.78Z" fill="white"/>
</g>
</g>
<g id="Group 19">
<g id="Group 14">
<rect id="Rectangle 29_5" x="302" y="76" width="86" height="5" fill="#0071BB" fill-opacity="0.5"/>
<rect id="Rectangle 30_5" x="302" y="84" width="40" height="5" fill="#0071BB" fill-opacity="0.5"/>
</g>
<g id="Group 12">
<rect id="Rectangle 42" x="275" y="78" width="18" height="11" rx="2" fill="#80B8DD"/>
<path id="Polygon 4" d="M287 83.5L281.75 86.5311L281.75 80.4689L287 83.5Z" fill="white"/>
</g>
</g>
</g>
<defs>
<clipPath id="clip0">
<rect width="16" height="16" fill="white" transform="translate(430 34)"/>
</clipPath>
</defs>
</svg>
