<svg width="19" height="17" viewBox="0 0 19 17" fill="none" xmlns="http://www.w3.org/2000/svg">
<path id="content-release-tooltip" d="M6.98147 11.672L5.62072 10.3113L7.03896 8.87385L8.39971 10.2346L11.6578 6.99564L13.0761 8.41388L9.81795 11.6528L8.38054 13.0903L6.98147 11.672ZM18.4999 2.3576V14.681C18.4999 15.9651 17.465 17 16.1809 17H2.49675C1.21267 17 0.177734 15.9651 0.177734 14.681V2.3576C0.177734 1.05435 1.23183 0.000252762 2.53508 0.000252762H16.1234C17.4458 -0.0189127 18.4999 1.05435 18.4999 2.3576ZM15.4065 2.28094C15.4065 2.70258 15.7515 3.02839 16.154 3.02839C16.5756 3.02839 16.9014 2.68341 16.9014 2.28094C16.9014 1.8593 16.5564 1.53349 16.154 1.53349C15.7323 1.53349 15.4065 1.8593 15.4065 2.28094ZM13.2025 2.28094C13.2025 2.70258 13.5475 3.02839 13.9499 3.02839C14.3141 3.02839 14.6207 2.77924 14.6782 2.43426C14.6974 2.37677 14.6974 2.33844 14.6974 2.28094C14.6974 2.22344 14.6974 2.18511 14.6782 2.12762C14.6016 1.78264 14.3141 1.53349 13.9499 1.53349C13.5475 1.53349 13.2025 1.8593 13.2025 2.28094ZM11.0176 2.28094C11.0176 2.70258 11.3626 3.02839 11.7651 3.02839C12.1867 3.02839 12.5125 2.68341 12.5125 2.28094C12.5125 1.8593 12.1675 1.53349 11.7651 1.53349C11.3434 1.53349 11.0176 1.8593 11.0176 2.28094ZM16.9667 4.4658H1.71097V14.3935C1.71097 14.9876 2.19011 15.4668 2.78423 15.4668H15.8934C16.4875 15.4668 16.9667 14.9876 16.9667 14.3935V4.4658Z" fill="white"/>
</svg>
