<svg width="487" height="158" viewBox="0 0 487 158" fill="none" xmlns="http://www.w3.org/2000/svg">
<g id="downloadable-resources-guide">
<rect id="Rectangle 5" x="132" y="27" width="250" height="5" fill="#506583"/>
<rect id="Rectangle 21" x="132" width="250" height="14" fill="#182E4F"/>
<rect id="Rectangle 12" x="132" y="39" width="230" height="5" fill="#506583"/>
<g id="Group 2">
<rect id="Rectangle 32" x="132" y="75" width="68" height="3" fill="#506583"/>
<rect id="Rectangle 33" x="132" y="81" width="65.7705" height="3" fill="#506583"/>
<rect id="Rectangle 34" x="132" y="94" width="47.9344" height="3" fill="#80B8DD"/>
<rect id="Rectangle 35" x="132" y="103" width="36.7869" height="3" fill="#80B8DD"/>
<rect id="Rectangle 31" x="132" y="66" width="61.3115" height="5" fill="#182E4F"/>
</g>
<g id="Group 3">
<rect id="Rectangle 32_2" x="236" y="75" width="68" height="3" fill="#506583"/>
<rect id="Rectangle 33_2" x="236" y="81" width="65.7705" height="3" fill="#506583"/>
<rect id="Rectangle 34_2" x="236" y="94" width="47.9344" height="3" fill="#80B8DD"/>
<rect id="Rectangle 35_2" x="236" y="103" width="36.7869" height="3" fill="#80B8DD"/>
<rect id="Rectangle 31_2" x="236" y="66" width="61.3115" height="5" fill="#182E4F"/>
</g>
<g id="Group 4">
<rect id="Rectangle 32_3" x="340" y="75" width="68" height="3" fill="#506583"/>
<rect id="Rectangle 33_3" x="340" y="81" width="65.7705" height="3" fill="#506583"/>
<rect id="Rectangle 34_3" x="340" y="94" width="47.9344" height="3" fill="#80B8DD"/>
<rect id="Rectangle 35_3" x="340" y="103" width="36.7869" height="3" fill="#80B8DD"/>
<rect id="Rectangle 31_3" x="340" y="66" width="61.3115" height="5" fill="#182E4F"/>
</g>
<path id="Heading" d="M26.9668 12V3.32812H28.7715V6.84961H32.3574V3.32812H34.1621V12H32.3574V8.04492H28.7715V12H26.9668ZM41.5684 11.7832C40.7441 12.0254 39.9629 12.1465 39.2246 12.1465C38.1504 12.1465 37.3027 11.8418 36.6816 11.2324C36.0605 10.623 35.75 9.79102 35.75 8.73633C35.75 7.74023 36.0332 6.93945 36.5996 6.33398C37.1699 5.72461 37.9219 5.41992 38.8555 5.41992C39.7969 5.41992 40.4844 5.7168 40.918 6.31055C41.3516 6.9043 41.5684 7.84375 41.5684 9.12891H37.5781C37.6953 10.3555 38.3691 10.9688 39.5996 10.9688C40.1816 10.9688 40.8379 10.834 41.5684 10.5645V11.7832ZM37.5547 8.15039H39.8633C39.8633 7.05273 39.5098 6.50391 38.8027 6.50391C38.084 6.50391 37.668 7.05273 37.5547 8.15039ZM46.5137 11.3086C45.9355 11.8672 45.3164 12.1465 44.6562 12.1465C44.0938 12.1465 43.6367 11.9746 43.2852 11.6309C42.9336 11.2871 42.7578 10.8418 42.7578 10.2949C42.7578 9.58398 43.041 9.03711 43.6074 8.6543C44.1777 8.26758 44.9922 8.07422 46.0508 8.07422H46.5137V7.48828C46.5137 6.82031 46.1328 6.48633 45.3711 6.48633C44.6953 6.48633 44.0117 6.67773 43.3203 7.06055V5.86523C44.1055 5.56836 44.8828 5.41992 45.6523 5.41992C47.3359 5.41992 48.1777 6.08984 48.1777 7.42969V10.2773C48.1777 10.7812 48.3398 11.0332 48.6641 11.0332C48.7227 11.0332 48.7988 11.0254 48.8926 11.0098L48.9336 11.9824C48.5664 12.0918 48.2422 12.1465 47.9609 12.1465C47.25 12.1465 46.793 11.8672 46.5898 11.3086H46.5137ZM46.5137 10.377V9.07031H46.1035C44.9824 9.07031 44.4219 9.42188 44.4219 10.125C44.4219 10.3633 44.502 10.5645 44.6621 10.7285C44.8262 10.8887 45.0273 10.9688 45.2656 10.9688C45.6719 10.9688 46.0879 10.7715 46.5137 10.377ZM54.4648 12V10.7871C54.0195 11.6934 53.3184 12.1465 52.3613 12.1465C51.5879 12.1465 50.9805 11.8633 50.5391 11.2969C50.0977 10.7305 49.877 9.95117 49.877 8.95898C49.877 7.88086 50.125 7.02148 50.6211 6.38086C51.1211 5.74023 51.791 5.41992 52.6309 5.41992C53.3027 5.41992 53.9141 5.68555 54.4648 6.2168V2.74805H56.2051V12H54.4648ZM54.4648 7.24805C54.0469 6.7793 53.5996 6.54492 53.123 6.54492C52.6973 6.54492 52.3574 6.75 52.1035 7.16016C51.8496 7.57031 51.7227 8.12109 51.7227 8.8125C51.7227 10.1289 52.1445 10.7871 52.9883 10.7871C53.5039 10.7871 53.9961 10.457 54.4648 9.79688V7.24805ZM58.373 12V5.56641H60.1074V12H58.373ZM58.373 4.48242V3.03516H60.1074V4.48242H58.373ZM62.2754 12V5.56641H64.0098V6.7793C64.5762 5.87305 65.3066 5.41992 66.2012 5.41992C66.7754 5.41992 67.2285 5.60156 67.5605 5.96484C67.8926 6.32812 68.0586 6.82422 68.0586 7.45312V12H66.3242V7.88086C66.3242 7.15039 66.082 6.78516 65.5977 6.78516C65.0469 6.78516 64.5176 7.17383 64.0098 7.95117V12H62.2754ZM70.209 13.998L70.3496 12.7383C71.0645 13.0664 71.7461 13.2305 72.3945 13.2305C73.0352 13.2305 73.498 13.0938 73.7832 12.8203C74.0684 12.5469 74.2109 12.1035 74.2109 11.4902V10.6113C73.7891 11.5371 73.0918 12 72.1191 12C71.3535 12 70.7461 11.7148 70.2969 11.1445C69.8477 10.5703 69.623 9.79492 69.623 8.81836C69.623 7.79102 69.875 6.96875 70.3789 6.35156C70.8828 5.73047 71.5527 5.41992 72.3887 5.41992C73.0449 5.41992 73.6523 5.68555 74.2109 6.2168L74.3926 5.56641H75.9512V10.4766C75.9512 11.457 75.8906 12.1641 75.7695 12.5977C75.6523 13.0312 75.4219 13.4004 75.0781 13.7051C74.5 14.2051 73.6855 14.4551 72.6348 14.4551C71.8887 14.4551 71.0801 14.3027 70.209 13.998ZM74.2109 9.60352V7.23047C73.793 6.75781 73.3555 6.52148 72.8984 6.52148C72.4609 6.52148 72.1133 6.7207 71.8555 7.11914C71.5977 7.51758 71.4688 8.05273 71.4688 8.72461C71.4688 9.98242 71.873 10.6113 72.6816 10.6113C73.2402 10.6113 73.75 10.2754 74.2109 9.60352Z" fill="#4F4F4F"/>
<path id="Introduction" d="M1.67773 47V38.3281H3.48242V47H1.67773ZM5.66211 47V40.5664H7.39648V41.7793C7.96289 40.873 8.69336 40.4199 9.58789 40.4199C10.1621 40.4199 10.6152 40.6016 10.9473 40.9648C11.2793 41.3281 11.4453 41.8242 11.4453 42.4531V47H9.71094V42.8809C9.71094 42.1504 9.46875 41.7852 8.98438 41.7852C8.43359 41.7852 7.9043 42.1738 7.39648 42.9512V47H5.66211ZM16.8652 46.9648C16.4512 47.0859 16.125 47.1465 15.8867 47.1465C14.3828 47.1465 13.6309 46.4434 13.6309 45.0371V41.6504H12.9102V40.5664H13.6309V39.4824L15.3652 39.2832V40.5664H16.7422V41.6504H15.3652V44.8086C15.3652 45.5977 15.6875 45.9922 16.332 45.9922C16.4805 45.9922 16.6582 45.9648 16.8652 45.9102V46.9648ZM18.4121 47V40.5664H20.1465V41.7793C20.5957 40.873 21.2793 40.4199 22.1973 40.4199C22.3066 40.4199 22.4141 40.4316 22.5195 40.4551V42.002C22.2734 41.9121 22.0449 41.8672 21.834 41.8672C21.1426 41.8672 20.5801 42.2168 20.1465 42.916V47H18.4121ZM26.5742 47.1465C25.5703 47.1465 24.7715 46.8438 24.1777 46.2383C23.5879 45.6289 23.293 44.8105 23.293 43.7832C23.293 42.7441 23.5898 41.9238 24.1836 41.3223C24.7812 40.7207 25.5918 40.4199 26.6152 40.4199C27.6426 40.4199 28.4531 40.7207 29.0469 41.3223C29.6445 41.9238 29.9434 42.7402 29.9434 43.7715C29.9434 44.8262 29.6445 45.6523 29.0469 46.25C28.4492 46.8477 27.625 47.1465 26.5742 47.1465ZM26.6035 46.0625C27.5996 46.0625 28.0977 45.2988 28.0977 43.7715C28.0977 43.0723 27.9648 42.5195 27.6992 42.1133C27.4375 41.707 27.0762 41.5039 26.6152 41.5039C26.1582 41.5039 25.7969 41.707 25.5312 42.1133C25.2695 42.5195 25.1387 43.0762 25.1387 43.7832C25.1387 44.4824 25.2695 45.0371 25.5312 45.4473C25.793 45.8574 26.1504 46.0625 26.6035 46.0625ZM35.5859 47V45.7871C35.1406 46.6934 34.4395 47.1465 33.4824 47.1465C32.709 47.1465 32.1016 46.8633 31.6602 46.2969C31.2188 45.7305 30.998 44.9512 30.998 43.959C30.998 42.8809 31.2461 42.0215 31.7422 41.3809C32.2422 40.7402 32.9121 40.4199 33.752 40.4199C34.4238 40.4199 35.0352 40.6855 35.5859 41.2168V37.748H37.3262V47H35.5859ZM35.5859 42.248C35.168 41.7793 34.7207 41.5449 34.2441 41.5449C33.8184 41.5449 33.4785 41.75 33.2246 42.1602C32.9707 42.5703 32.8438 43.1211 32.8438 43.8125C32.8438 45.1289 33.2656 45.7871 34.1094 45.7871C34.625 45.7871 35.1172 45.457 35.5859 44.7969V42.248ZM43.4727 47V45.7871C42.9102 46.6934 42.1797 47.1465 41.2812 47.1465C40.707 47.1465 40.2539 46.9648 39.9219 46.6016C39.5898 46.2383 39.4238 45.7422 39.4238 45.1133V40.5664H41.1582V44.6855C41.1582 45.416 41.4023 45.7812 41.8906 45.7812C42.4375 45.7812 42.9648 45.3926 43.4727 44.6152V40.5664H45.207V47H43.4727ZM52.127 46.8594C51.4082 47.0508 50.7422 47.1465 50.1289 47.1465C49.1016 47.1465 48.2891 46.8457 47.6914 46.2441C47.0977 45.6387 46.8008 44.8164 46.8008 43.7773C46.8008 42.7266 47.1074 41.9043 47.7207 41.3105C48.334 40.7168 49.1816 40.4199 50.2637 40.4199C50.7871 40.4199 51.3906 40.5039 52.0742 40.6719V41.9258C51.3633 41.6953 50.7949 41.5801 50.3691 41.5801C49.8496 41.5801 49.4316 41.7793 49.1152 42.1777C48.7988 42.5762 48.6406 43.1055 48.6406 43.7656C48.6406 44.4414 48.8105 44.9824 49.1504 45.3887C49.4941 45.7949 49.9512 45.998 50.5215 45.998C51.041 45.998 51.5762 45.8848 52.127 45.6582V46.8594ZM57.084 46.9648C56.6699 47.0859 56.3438 47.1465 56.1055 47.1465C54.6016 47.1465 53.8496 46.4434 53.8496 45.0371V41.6504H53.1289V40.5664H53.8496V39.4824L55.584 39.2832V40.5664H56.9609V41.6504H55.584V44.8086C55.584 45.5977 55.9062 45.9922 56.5508 45.9922C56.6992 45.9922 56.877 45.9648 57.084 45.9102V46.9648ZM58.6309 47V40.5664H60.3652V47H58.6309ZM58.6309 39.4824V38.0352H60.3652V39.4824H58.6309ZM65.2344 47.1465C64.2305 47.1465 63.4316 46.8438 62.8379 46.2383C62.248 45.6289 61.9531 44.8105 61.9531 43.7832C61.9531 42.7441 62.25 41.9238 62.8438 41.3223C63.4414 40.7207 64.252 40.4199 65.2754 40.4199C66.3027 40.4199 67.1133 40.7207 67.707 41.3223C68.3047 41.9238 68.6035 42.7402 68.6035 43.7715C68.6035 44.8262 68.3047 45.6523 67.707 46.25C67.1094 46.8477 66.2852 47.1465 65.2344 47.1465ZM65.2637 46.0625C66.2598 46.0625 66.7578 45.2988 66.7578 43.7715C66.7578 43.0723 66.625 42.5195 66.3594 42.1133C66.0977 41.707 65.7363 41.5039 65.2754 41.5039C64.8184 41.5039 64.457 41.707 64.1914 42.1133C63.9297 42.5195 63.7988 43.0762 63.7988 43.7832C63.7988 44.4824 63.9297 45.0371 64.1914 45.4473C64.4531 45.8574 64.8105 46.0625 65.2637 46.0625ZM70.1973 47V40.5664H71.9316V41.7793C72.498 40.873 73.2285 40.4199 74.123 40.4199C74.6973 40.4199 75.1504 40.6016 75.4824 40.9648C75.8145 41.3281 75.9805 41.8242 75.9805 42.4531V47H74.2461V42.8809C74.2461 42.1504 74.0039 41.7852 73.5195 41.7852C72.9688 41.7852 72.4395 42.1738 71.9316 42.9512V47H70.1973Z" fill="#4F4F4F"/>
<path id="Resources" d="M14.7676 81V72.3281H18.0137C19.7754 72.3281 20.6562 73.0449 20.6562 74.4785C20.6562 75.0137 20.5059 75.502 20.2051 75.9434C19.9082 76.3809 19.498 76.7168 18.9746 76.9512L21.8105 81H19.6133L17.4629 77.4551H16.4668V81H14.7676ZM16.4668 76.2656H16.8828C18.1914 76.2656 18.8457 75.7363 18.8457 74.6777C18.8457 73.9043 18.2617 73.5176 17.0938 73.5176H16.4668V76.2656ZM28.291 80.7832C27.4668 81.0254 26.6855 81.1465 25.9473 81.1465C24.873 81.1465 24.0254 80.8418 23.4043 80.2324C22.7832 79.623 22.4727 78.791 22.4727 77.7363C22.4727 76.7402 22.7559 75.9395 23.3223 75.334C23.8926 74.7246 24.6445 74.4199 25.5781 74.4199C26.5195 74.4199 27.207 74.7168 27.6406 75.3105C28.0742 75.9043 28.291 76.8438 28.291 78.1289H24.3008C24.418 79.3555 25.0918 79.9688 26.3223 79.9688C26.9043 79.9688 27.5605 79.834 28.291 79.5645V80.7832ZM24.2773 77.1504H26.5859C26.5859 76.0527 26.2324 75.5039 25.5254 75.5039C24.8066 75.5039 24.3906 76.0527 24.2773 77.1504ZM29.9141 80.7949V79.5234C30.7734 79.8828 31.5078 80.0625 32.1172 80.0625C32.8281 80.0625 33.1836 79.8203 33.1836 79.3359C33.1836 79.0234 32.8906 78.75 32.3047 78.5156L31.7188 78.2812C31.082 78.0234 30.627 77.7461 30.3535 77.4492C30.0801 77.1523 29.9434 76.7852 29.9434 76.3477C29.9434 75.7383 30.1758 75.2656 30.6406 74.9297C31.1055 74.5898 31.7559 74.4199 32.5918 74.4199C33.1152 74.4199 33.7383 74.4961 34.4609 74.6484V75.8672C33.7656 75.625 33.1895 75.5039 32.7324 75.5039C32.0137 75.5039 31.6543 75.7266 31.6543 76.1719C31.6543 76.4648 31.9199 76.7129 32.4512 76.916L32.9551 77.1094C33.709 77.3945 34.2324 77.6836 34.5254 77.9766C34.8223 78.2695 34.9707 78.6465 34.9707 79.1074C34.9707 79.7129 34.7188 80.2051 34.2148 80.584C33.7148 80.959 33.0625 81.1465 32.2578 81.1465C31.4844 81.1465 30.7031 81.0293 29.9141 80.7949ZM39.5703 81.1465C38.5664 81.1465 37.7676 80.8438 37.1738 80.2383C36.584 79.6289 36.2891 78.8105 36.2891 77.7832C36.2891 76.7441 36.5859 75.9238 37.1797 75.3223C37.7773 74.7207 38.5879 74.4199 39.6113 74.4199C40.6387 74.4199 41.4492 74.7207 42.043 75.3223C42.6406 75.9238 42.9395 76.7402 42.9395 77.7715C42.9395 78.8262 42.6406 79.6523 42.043 80.25C41.4453 80.8477 40.6211 81.1465 39.5703 81.1465ZM39.5996 80.0625C40.5957 80.0625 41.0938 79.2988 41.0938 77.7715C41.0938 77.0723 40.9609 76.5195 40.6953 76.1133C40.4336 75.707 40.0723 75.5039 39.6113 75.5039C39.1543 75.5039 38.793 75.707 38.5273 76.1133C38.2656 76.5195 38.1348 77.0762 38.1348 77.7832C38.1348 78.4824 38.2656 79.0371 38.5273 79.4473C38.7891 79.8574 39.1465 80.0625 39.5996 80.0625ZM48.5117 81V79.7871C47.9492 80.6934 47.2188 81.1465 46.3203 81.1465C45.7461 81.1465 45.293 80.9648 44.9609 80.6016C44.6289 80.2383 44.4629 79.7422 44.4629 79.1133V74.5664H46.1973V78.6855C46.1973 79.416 46.4414 79.7812 46.9297 79.7812C47.4766 79.7812 48.0039 79.3926 48.5117 78.6152V74.5664H50.2461V81H48.5117ZM52.4199 81V74.5664H54.1543V75.7793C54.6035 74.873 55.2871 74.4199 56.2051 74.4199C56.3145 74.4199 56.4219 74.4316 56.5273 74.4551V76.002C56.2812 75.9121 56.0527 75.8672 55.8418 75.8672C55.1504 75.8672 54.5879 76.2168 54.1543 76.916V81H52.4199ZM62.627 80.8594C61.9082 81.0508 61.2422 81.1465 60.6289 81.1465C59.6016 81.1465 58.7891 80.8457 58.1914 80.2441C57.5977 79.6387 57.3008 78.8164 57.3008 77.7773C57.3008 76.7266 57.6074 75.9043 58.2207 75.3105C58.834 74.7168 59.6816 74.4199 60.7637 74.4199C61.2871 74.4199 61.8906 74.5039 62.5742 74.6719V75.9258C61.8633 75.6953 61.2949 75.5801 60.8691 75.5801C60.3496 75.5801 59.9316 75.7793 59.6152 76.1777C59.2988 76.5762 59.1406 77.1055 59.1406 77.7656C59.1406 78.4414 59.3105 78.9824 59.6504 79.3887C59.9941 79.7949 60.4512 79.998 61.0215 79.998C61.541 79.998 62.0762 79.8848 62.627 79.6582V80.8594ZM69.5059 80.7832C68.6816 81.0254 67.9004 81.1465 67.1621 81.1465C66.0879 81.1465 65.2402 80.8418 64.6191 80.2324C63.998 79.623 63.6875 78.791 63.6875 77.7363C63.6875 76.7402 63.9707 75.9395 64.5371 75.334C65.1074 74.7246 65.8594 74.4199 66.793 74.4199C67.7344 74.4199 68.4219 74.7168 68.8555 75.3105C69.2891 75.9043 69.5059 76.8438 69.5059 78.1289H65.5156C65.6328 79.3555 66.3066 79.9688 67.5371 79.9688C68.1191 79.9688 68.7754 79.834 69.5059 79.5645V80.7832ZM65.4922 77.1504H67.8008C67.8008 76.0527 67.4473 75.5039 66.7402 75.5039C66.0215 75.5039 65.6055 76.0527 65.4922 77.1504ZM71.1289 80.7949V79.5234C71.9883 79.8828 72.7227 80.0625 73.332 80.0625C74.043 80.0625 74.3984 79.8203 74.3984 79.3359C74.3984 79.0234 74.1055 78.75 73.5195 78.5156L72.9336 78.2812C72.2969 78.0234 71.8418 77.7461 71.5684 77.4492C71.2949 77.1523 71.1582 76.7852 71.1582 76.3477C71.1582 75.7383 71.3906 75.2656 71.8555 74.9297C72.3203 74.5898 72.9707 74.4199 73.8066 74.4199C74.3301 74.4199 74.9531 74.4961 75.6758 74.6484V75.8672C74.9805 75.625 74.4043 75.5039 73.9473 75.5039C73.2285 75.5039 72.8691 75.7266 72.8691 76.1719C72.8691 76.4648 73.1348 76.7129 73.666 76.916L74.1699 77.1094C74.9238 77.3945 75.4473 77.6836 75.7402 77.9766C76.0371 78.2695 76.1855 78.6465 76.1855 79.1074C76.1855 79.7129 75.9336 80.2051 75.4297 80.584C74.9297 80.959 74.2773 81.1465 73.4727 81.1465C72.6992 81.1465 71.918 81.0293 71.1289 80.7949Z" fill="#4F4F4F"/>
<path id="Download &#226;&#128;&#168;links" d="M435.933 100V92.7734H438.335C439.051 92.7734 439.629 92.8532 440.068 93.0127C440.511 93.1722 440.894 93.4424 441.216 93.8232C441.727 94.4287 441.982 95.2262 441.982 96.2158C441.982 97.417 441.665 98.348 441.03 99.0088C440.396 99.6696 439.502 100 438.35 100H435.933ZM436.958 99.2334H438.271C439.209 99.2334 439.873 98.9811 440.264 98.4766C440.684 97.9395 440.894 97.2184 440.894 96.3135C440.894 95.4639 440.687 94.7965 440.273 94.3115C440.023 94.0153 439.723 93.8135 439.375 93.7061C439.027 93.5954 438.503 93.54 437.803 93.54H436.958V99.2334ZM445.527 100.122C444.769 100.122 444.163 99.8714 443.711 99.3701C443.258 98.8656 443.032 98.1917 443.032 97.3486C443.032 96.4958 443.258 95.8219 443.711 95.3271C444.167 94.8291 444.784 94.5801 445.562 94.5801C446.34 94.5801 446.955 94.8291 447.407 95.3271C447.863 95.8219 448.091 96.4925 448.091 97.3389C448.091 98.2048 447.863 98.8851 447.407 99.3799C446.951 99.8747 446.325 100.122 445.527 100.122ZM445.542 99.3994C446.561 99.3994 447.07 98.7126 447.07 97.3389C447.07 95.9814 446.567 95.3027 445.562 95.3027C444.559 95.3027 444.058 95.9847 444.058 97.3486C444.058 98.7158 444.552 99.3994 445.542 99.3994ZM450.21 100L448.691 94.6973H449.634L450.796 98.8037L452.051 94.6973H453.013L454.111 98.8037L455.444 94.6973H456.27L454.541 100H453.574L452.451 95.8936L451.182 100H450.21ZM457.3 100V94.6973H458.262V95.6934C458.77 94.9512 459.391 94.5801 460.127 94.5801C460.586 94.5801 460.952 94.7266 461.226 95.0195C461.499 95.3092 461.636 95.6999 461.636 96.1914V100H460.674V96.5039C460.674 96.11 460.615 95.8301 460.498 95.6641C460.384 95.4948 460.194 95.4102 459.927 95.4102C459.338 95.4102 458.783 95.7959 458.262 96.5674V100H457.3ZM463.511 100V92.29H464.473V100H463.511ZM468.477 100.122C467.718 100.122 467.113 99.8714 466.66 99.3701C466.208 98.8656 465.981 98.1917 465.981 97.3486C465.981 96.4958 466.208 95.8219 466.66 95.3271C467.116 94.8291 467.733 94.5801 468.511 94.5801C469.289 94.5801 469.904 94.8291 470.356 95.3271C470.812 95.8219 471.04 96.4925 471.04 97.3389C471.04 98.2048 470.812 98.8851 470.356 99.3799C469.901 99.8747 469.274 100.122 468.477 100.122ZM468.491 99.3994C469.51 99.3994 470.02 98.7126 470.02 97.3389C470.02 95.9814 469.517 95.3027 468.511 95.3027C467.508 95.3027 467.007 95.9847 467.007 97.3486C467.007 98.7158 467.502 99.3994 468.491 99.3994ZM475.278 99.3262C474.702 99.8568 474.147 100.122 473.613 100.122C473.174 100.122 472.809 99.9854 472.52 99.7119C472.23 99.4352 472.085 99.0869 472.085 98.667C472.085 98.0876 472.327 97.6432 472.812 97.334C473.301 97.0215 473.999 96.8652 474.907 96.8652H475.137V96.2256C475.137 95.6104 474.821 95.3027 474.189 95.3027C473.682 95.3027 473.133 95.459 472.544 95.7715V94.9756C473.192 94.7119 473.799 94.5801 474.365 94.5801C474.958 94.5801 475.394 94.7135 475.674 94.9805C475.957 95.2474 476.099 95.6624 476.099 96.2256V98.6279C476.099 99.1781 476.268 99.4531 476.606 99.4531C476.649 99.4531 476.711 99.4466 476.792 99.4336L476.86 99.9658C476.642 100.07 476.401 100.122 476.138 100.122C475.688 100.122 475.402 99.8568 475.278 99.3262ZM475.137 98.8037V97.4316L474.814 97.4219C474.287 97.4219 473.861 97.5228 473.535 97.7246C473.21 97.9232 473.047 98.1852 473.047 98.5107C473.047 98.7419 473.128 98.9372 473.291 99.0967C473.454 99.2562 473.652 99.3359 473.887 99.3359C474.287 99.3359 474.704 99.1585 475.137 98.8037ZM481.475 100V99.0039C481.084 99.7493 480.495 100.122 479.707 100.122C479.069 100.122 478.566 99.8893 478.198 99.4238C477.834 98.9583 477.651 98.3219 477.651 97.5146C477.651 96.6325 477.858 95.9229 478.271 95.3857C478.688 94.8486 479.235 94.5801 479.912 94.5801C480.54 94.5801 481.061 94.821 481.475 95.3027V92.29H482.441V100H481.475ZM481.475 95.9619C480.977 95.5225 480.505 95.3027 480.059 95.3027C479.137 95.3027 478.677 96.0075 478.677 97.417C478.677 98.6572 479.087 99.2773 479.907 99.2773C480.441 99.2773 480.964 98.986 481.475 98.4033V95.9619ZM435.962 112V104.29H436.924V112H435.962ZM438.853 112V106.697H439.814V112H438.853ZM438.853 105.735V104.773H439.814V105.735H438.853ZM441.743 112V106.697H442.705V107.693C443.213 106.951 443.835 106.58 444.57 106.58C445.029 106.58 445.396 106.727 445.669 107.02C445.942 107.309 446.079 107.7 446.079 108.191V112H445.117V108.504C445.117 108.11 445.059 107.83 444.941 107.664C444.827 107.495 444.637 107.41 444.37 107.41C443.781 107.41 443.226 107.796 442.705 108.567V112H441.743ZM447.954 112V104.29H448.916V109.271L451.162 106.697H452.197L450.054 109.173L452.642 112H451.411L448.916 109.28V112H447.954ZM455.21 112.122C454.771 112.122 454.237 112.02 453.608 111.814V110.931C454.237 111.243 454.784 111.399 455.249 111.399C455.526 111.399 455.755 111.325 455.938 111.175C456.12 111.025 456.211 110.838 456.211 110.613C456.211 110.285 455.955 110.013 455.444 109.798L454.883 109.559C454.053 109.214 453.638 108.717 453.638 108.069C453.638 107.607 453.8 107.244 454.126 106.98C454.455 106.714 454.904 106.58 455.474 106.58C455.77 106.58 456.136 106.621 456.572 106.702L456.772 106.741V107.542C456.235 107.382 455.809 107.303 455.493 107.303C454.875 107.303 454.565 107.527 454.565 107.977C454.565 108.266 454.8 108.51 455.269 108.709L455.732 108.904C456.257 109.126 456.628 109.36 456.846 109.607C457.064 109.852 457.173 110.158 457.173 110.525C457.173 110.991 456.989 111.373 456.621 111.673C456.253 111.972 455.783 112.122 455.21 112.122Z" fill="#4F4F4F"/>
<line id="Line 1" x1="83" y1="7.5" x2="118" y2="7.5" stroke="#060606" stroke-opacity="0.34"/>
<line id="Line 2" x1="83" y1="41.5" x2="118" y2="41.5" stroke="#060606" stroke-opacity="0.34"/>
<line id="Line 5" x1="83" y1="78.5" x2="124" y2="78.5" stroke="#060606" stroke-opacity="0.34"/>
<line id="Line 4" x1="402" y1="95.5" x2="428" y2="95.5" stroke="#060606" stroke-opacity="0.34"/>
<path id="&#226;&#128;&#152;See more&#226;&#128;&#153;&#226;&#128;&#168;button" d="M16.0977 134.629H16.8242V136.504H14.9434V135.051C14.9434 133.516 15.5703 132.748 16.8242 132.748V133.398C16.3398 133.398 16.0977 133.746 16.0977 134.441V134.629ZM17.9609 141.924V140.436C18.8945 140.826 19.6934 141.021 20.3574 141.021C20.8223 141.021 21.1875 140.918 21.4531 140.711C21.7227 140.504 21.8574 140.223 21.8574 139.867C21.8574 139.586 21.7734 139.35 21.6055 139.158C21.4375 138.963 21.1191 138.732 20.6504 138.467L20.0703 138.145C19.293 137.707 18.7441 137.289 18.4238 136.891C18.1035 136.488 17.9434 136.02 17.9434 135.484C17.9434 134.77 18.2051 134.195 18.7285 133.762C19.2559 133.328 19.9512 133.111 20.8145 133.111C21.5059 133.111 22.2852 133.211 23.1523 133.41V134.799C22.2656 134.467 21.5645 134.301 21.0488 134.301C20.6504 134.301 20.3301 134.391 20.0879 134.57C19.8496 134.746 19.7305 134.979 19.7305 135.268C19.7305 135.506 19.8145 135.715 19.9824 135.895C20.1504 136.074 20.4668 136.295 20.9316 136.557L21.5527 136.902C22.3887 137.371 22.9648 137.803 23.2812 138.197C23.5977 138.592 23.7559 139.072 23.7559 139.639C23.7559 140.443 23.457 141.074 22.8594 141.531C22.2617 141.988 21.4375 142.217 20.3867 142.217C19.6914 142.217 18.8828 142.119 17.9609 141.924ZM30.541 141.783C29.7168 142.025 28.9355 142.146 28.1973 142.146C27.123 142.146 26.2754 141.842 25.6543 141.232C25.0332 140.623 24.7227 139.791 24.7227 138.736C24.7227 137.74 25.0059 136.939 25.5723 136.334C26.1426 135.725 26.8945 135.42 27.8281 135.42C28.7695 135.42 29.457 135.717 29.8906 136.311C30.3242 136.904 30.541 137.844 30.541 139.129H26.5508C26.668 140.355 27.3418 140.969 28.5723 140.969C29.1543 140.969 29.8105 140.834 30.541 140.564V141.783ZM26.5273 138.15H28.8359C28.8359 137.053 28.4824 136.504 27.7754 136.504C27.0566 136.504 26.6406 137.053 26.5273 138.15ZM37.5723 141.783C36.748 142.025 35.9668 142.146 35.2285 142.146C34.1543 142.146 33.3066 141.842 32.6855 141.232C32.0645 140.623 31.7539 139.791 31.7539 138.736C31.7539 137.74 32.0371 136.939 32.6035 136.334C33.1738 135.725 33.9258 135.42 34.8594 135.42C35.8008 135.42 36.4883 135.717 36.9219 136.311C37.3555 136.904 37.5723 137.844 37.5723 139.129H33.582C33.6992 140.355 34.373 140.969 35.6035 140.969C36.1855 140.969 36.8418 140.834 37.5723 140.564V141.783ZM33.5586 138.15H35.8672C35.8672 137.053 35.5137 136.504 34.8066 136.504C34.0879 136.504 33.6719 137.053 33.5586 138.15ZM43.3262 142V135.566H44.9902V136.779C45.498 135.873 46.2207 135.42 47.1582 135.42C47.6426 135.42 48.041 135.539 48.3535 135.777C48.666 136.016 48.8574 136.35 48.9277 136.779C49.5293 135.873 50.2559 135.42 51.1074 135.42C52.2832 135.42 52.8711 136.068 52.8711 137.365V142H51.207V137.934C51.207 137.172 50.9531 136.791 50.4453 136.791C49.9258 136.791 49.4199 137.166 48.9277 137.916V142H47.2637V137.934C47.2637 137.168 47.0078 136.785 46.4961 136.785C45.9844 136.785 45.4824 137.162 44.9902 137.916V142H43.3262ZM57.6641 142.146C56.6602 142.146 55.8613 141.844 55.2676 141.238C54.6777 140.629 54.3828 139.811 54.3828 138.783C54.3828 137.744 54.6797 136.924 55.2734 136.322C55.8711 135.721 56.6816 135.42 57.7051 135.42C58.7324 135.42 59.543 135.721 60.1367 136.322C60.7344 136.924 61.0332 137.74 61.0332 138.771C61.0332 139.826 60.7344 140.652 60.1367 141.25C59.5391 141.848 58.7148 142.146 57.6641 142.146ZM57.6934 141.062C58.6895 141.062 59.1875 140.299 59.1875 138.771C59.1875 138.072 59.0547 137.52 58.7891 137.113C58.5273 136.707 58.166 136.504 57.7051 136.504C57.248 136.504 56.8867 136.707 56.6211 137.113C56.3594 137.52 56.2285 138.076 56.2285 138.783C56.2285 139.482 56.3594 140.037 56.6211 140.447C56.8828 140.857 57.2402 141.062 57.6934 141.062ZM62.627 142V135.566H64.3613V136.779C64.8105 135.873 65.4941 135.42 66.4121 135.42C66.5215 135.42 66.6289 135.432 66.7344 135.455V137.002C66.4883 136.912 66.2598 136.867 66.0488 136.867C65.3574 136.867 64.7949 137.217 64.3613 137.916V142H62.627ZM73.3262 141.783C72.502 142.025 71.7207 142.146 70.9824 142.146C69.9082 142.146 69.0605 141.842 68.4395 141.232C67.8184 140.623 67.5078 139.791 67.5078 138.736C67.5078 137.74 67.791 136.939 68.3574 136.334C68.9277 135.725 69.6797 135.42 70.6133 135.42C71.5547 135.42 72.2422 135.717 72.6758 136.311C73.1094 136.904 73.3262 137.844 73.3262 139.129H69.3359C69.4531 140.355 70.127 140.969 71.3574 140.969C71.9395 140.969 72.5957 140.834 73.3262 140.564V141.783ZM69.3125 138.15H71.6211C71.6211 137.053 71.2676 136.504 70.5605 136.504C69.8418 136.504 69.4258 137.053 69.3125 138.15ZM75.3008 134.629H74.5801V132.748H76.4609V134.201C76.4609 135.736 75.834 136.504 74.5801 136.504V135.854C75.0605 135.854 75.3008 135.506 75.3008 134.811V134.629ZM36.9629 156V146.748H38.6973V150.779C39.1426 149.873 39.8438 149.42 40.8008 149.42C41.5742 149.42 42.1816 149.703 42.623 150.27C43.0684 150.836 43.291 151.615 43.291 152.607C43.291 153.682 43.041 154.541 42.541 155.186C42.041 155.826 41.373 156.146 40.5371 156.146C39.8184 156.146 39.2051 155.881 38.6973 155.35L38.375 156H36.9629ZM38.6973 154.318C39.1191 154.787 39.5684 155.021 40.0449 155.021C40.4707 155.021 40.8105 154.816 41.0645 154.406C41.3184 153.992 41.4453 153.441 41.4453 152.754C41.4453 151.438 41.0215 150.779 40.1738 150.779C39.6621 150.779 39.1699 151.109 38.6973 151.77V154.318ZM48.8984 156V154.787C48.3359 155.693 47.6055 156.146 46.707 156.146C46.1328 156.146 45.6797 155.965 45.3477 155.602C45.0156 155.238 44.8496 154.742 44.8496 154.113V149.566H46.584V153.686C46.584 154.416 46.8281 154.781 47.3164 154.781C47.8633 154.781 48.3906 154.393 48.8984 153.615V149.566H50.6328V156H48.8984ZM56.123 155.965C55.709 156.086 55.3828 156.146 55.1445 156.146C53.6406 156.146 52.8887 155.443 52.8887 154.037V150.65H52.168V149.566H52.8887V148.482L54.623 148.283V149.566H56V150.65H54.623V153.809C54.623 154.598 54.9453 154.992 55.5898 154.992C55.7383 154.992 55.916 154.965 56.123 154.91V155.965ZM60.9863 155.965C60.5723 156.086 60.2461 156.146 60.0078 156.146C58.5039 156.146 57.752 155.443 57.752 154.037V150.65H57.0312V149.566H57.752V148.482L59.4863 148.283V149.566H60.8633V150.65H59.4863V153.809C59.4863 154.598 59.8086 154.992 60.4531 154.992C60.6016 154.992 60.7793 154.965 60.9863 154.91V155.965ZM65.2344 156.146C64.2305 156.146 63.4316 155.844 62.8379 155.238C62.248 154.629 61.9531 153.811 61.9531 152.783C61.9531 151.744 62.25 150.924 62.8438 150.322C63.4414 149.721 64.252 149.42 65.2754 149.42C66.3027 149.42 67.1133 149.721 67.707 150.322C68.3047 150.924 68.6035 151.74 68.6035 152.771C68.6035 153.826 68.3047 154.652 67.707 155.25C67.1094 155.848 66.2852 156.146 65.2344 156.146ZM65.2637 155.062C66.2598 155.062 66.7578 154.299 66.7578 152.771C66.7578 152.072 66.625 151.52 66.3594 151.113C66.0977 150.707 65.7363 150.504 65.2754 150.504C64.8184 150.504 64.457 150.707 64.1914 151.113C63.9297 151.52 63.7988 152.076 63.7988 152.783C63.7988 153.482 63.9297 154.037 64.1914 154.447C64.4531 154.857 64.8105 155.062 65.2637 155.062ZM70.1973 156V149.566H71.9316V150.779C72.498 149.873 73.2285 149.42 74.123 149.42C74.6973 149.42 75.1504 149.602 75.4824 149.965C75.8145 150.328 75.9805 150.824 75.9805 151.453V156H74.2461V151.881C74.2461 151.15 74.0039 150.785 73.5195 150.785C72.9688 150.785 72.4395 151.174 71.9316 151.951V156H70.1973Z" fill="#4F4F4F"/>
<line id="Line 6" x1="83" y1="137.5" x2="126" y2="137.5" stroke="#060606" stroke-opacity="0.34"/>
<rect id="Rectangle 11" x="132" y="128" width="53" height="18" rx="5" stroke="#182E4F" stroke-width="2"/>
</g>
</svg>
