<svg width="521" height="89" viewBox="0 0 521 89" fill="none" xmlns="http://www.w3.org/2000/svg">
<g id="events-guide">
<rect id="Rectangle 21" x="107" width="250" height="14" fill="#182E4F"/>
<g id="Group 2">
<rect id="Rectangle 32" x="107" y="42" width="136" height="3" fill="#506583"/>
<rect id="Rectangle 33" x="107" y="48" width="122.623" height="3" fill="#506583"/>
<rect id="Rectangle 34" x="107" y="54" width="136" height="3" fill="#506583"/>
<rect id="Rectangle 36" x="124" y="68" width="26" height="3" fill="#506583"/>
<rect id="Rectangle 39" x="107" y="68" width="13" height="3" fill="#506583"/>
<rect id="Rectangle 40" x="107" y="86" width="13" height="3" fill="#506583"/>
<rect id="Rectangle 37" x="124" y="74" width="42" height="3" fill="#506583"/>
<rect id="Rectangle 38" x="124" y="86" width="66" height="3" fill="#80B8DD"/>
<rect id="Rectangle 31" x="107" y="33" width="122.623" height="5" fill="#0071BB" fill-opacity="0.5"/>
</g>
<g id="Group 3">
<rect id="Rectangle 32_2" x="277" y="42" width="136" height="3" fill="#506583"/>
<rect id="Rectangle 33_2" x="277" y="48" width="122.623" height="3" fill="#506583"/>
<rect id="Rectangle 34_2" x="277" y="54" width="136" height="3" fill="#506583"/>
<rect id="Rectangle 36_2" x="294" y="68" width="26" height="3" fill="#506583"/>
<rect id="Rectangle 39_2" x="277" y="68" width="13" height="3" fill="#506583"/>
<rect id="Rectangle 40_2" x="277" y="86" width="13" height="3" fill="#506583"/>
<rect id="Rectangle 37_2" x="294" y="74" width="42" height="3" fill="#506583"/>
<rect id="Rectangle 38_2" x="294" y="86" width="66" height="3" fill="#80B8DD"/>
<rect id="Rectangle 31_2" x="277" y="33" width="122.623" height="5" fill="#0071BB" fill-opacity="0.5"/>
</g>
<path id="Heading" d="M1.9668 12V3.32812H3.77148V6.84961H7.35742V3.32812H9.16211V12H7.35742V8.04492H3.77148V12H1.9668ZM16.5684 11.7832C15.7441 12.0254 14.9629 12.1465 14.2246 12.1465C13.1504 12.1465 12.3027 11.8418 11.6816 11.2324C11.0605 10.623 10.75 9.79102 10.75 8.73633C10.75 7.74023 11.0332 6.93945 11.5996 6.33398C12.1699 5.72461 12.9219 5.41992 13.8555 5.41992C14.7969 5.41992 15.4844 5.7168 15.918 6.31055C16.3516 6.9043 16.5684 7.84375 16.5684 9.12891H12.5781C12.6953 10.3555 13.3691 10.9688 14.5996 10.9688C15.1816 10.9688 15.8379 10.834 16.5684 10.5645V11.7832ZM12.5547 8.15039H14.8633C14.8633 7.05273 14.5098 6.50391 13.8027 6.50391C13.084 6.50391 12.668 7.05273 12.5547 8.15039ZM21.5137 11.3086C20.9355 11.8672 20.3164 12.1465 19.6562 12.1465C19.0938 12.1465 18.6367 11.9746 18.2852 11.6309C17.9336 11.2871 17.7578 10.8418 17.7578 10.2949C17.7578 9.58398 18.041 9.03711 18.6074 8.6543C19.1777 8.26758 19.9922 8.07422 21.0508 8.07422H21.5137V7.48828C21.5137 6.82031 21.1328 6.48633 20.3711 6.48633C19.6953 6.48633 19.0117 6.67773 18.3203 7.06055V5.86523C19.1055 5.56836 19.8828 5.41992 20.6523 5.41992C22.3359 5.41992 23.1777 6.08984 23.1777 7.42969V10.2773C23.1777 10.7812 23.3398 11.0332 23.6641 11.0332C23.7227 11.0332 23.7988 11.0254 23.8926 11.0098L23.9336 11.9824C23.5664 12.0918 23.2422 12.1465 22.9609 12.1465C22.25 12.1465 21.793 11.8672 21.5898 11.3086H21.5137ZM21.5137 10.377V9.07031H21.1035C19.9824 9.07031 19.4219 9.42188 19.4219 10.125C19.4219 10.3633 19.502 10.5645 19.6621 10.7285C19.8262 10.8887 20.0273 10.9688 20.2656 10.9688C20.6719 10.9688 21.0879 10.7715 21.5137 10.377ZM29.4648 12V10.7871C29.0195 11.6934 28.3184 12.1465 27.3613 12.1465C26.5879 12.1465 25.9805 11.8633 25.5391 11.2969C25.0977 10.7305 24.877 9.95117 24.877 8.95898C24.877 7.88086 25.125 7.02148 25.6211 6.38086C26.1211 5.74023 26.791 5.41992 27.6309 5.41992C28.3027 5.41992 28.9141 5.68555 29.4648 6.2168V2.74805H31.2051V12H29.4648ZM29.4648 7.24805C29.0469 6.7793 28.5996 6.54492 28.123 6.54492C27.6973 6.54492 27.3574 6.75 27.1035 7.16016C26.8496 7.57031 26.7227 8.12109 26.7227 8.8125C26.7227 10.1289 27.1445 10.7871 27.9883 10.7871C28.5039 10.7871 28.9961 10.457 29.4648 9.79688V7.24805ZM33.373 12V5.56641H35.1074V12H33.373ZM33.373 4.48242V3.03516H35.1074V4.48242H33.373ZM37.2754 12V5.56641H39.0098V6.7793C39.5762 5.87305 40.3066 5.41992 41.2012 5.41992C41.7754 5.41992 42.2285 5.60156 42.5605 5.96484C42.8926 6.32812 43.0586 6.82422 43.0586 7.45312V12H41.3242V7.88086C41.3242 7.15039 41.082 6.78516 40.5977 6.78516C40.0469 6.78516 39.5176 7.17383 39.0098 7.95117V12H37.2754ZM45.209 13.998L45.3496 12.7383C46.0645 13.0664 46.7461 13.2305 47.3945 13.2305C48.0352 13.2305 48.498 13.0938 48.7832 12.8203C49.0684 12.5469 49.2109 12.1035 49.2109 11.4902V10.6113C48.7891 11.5371 48.0918 12 47.1191 12C46.3535 12 45.7461 11.7148 45.2969 11.1445C44.8477 10.5703 44.623 9.79492 44.623 8.81836C44.623 7.79102 44.875 6.96875 45.3789 6.35156C45.8828 5.73047 46.5527 5.41992 47.3887 5.41992C48.0449 5.41992 48.6523 5.68555 49.2109 6.2168L49.3926 5.56641H50.9512V10.4766C50.9512 11.457 50.8906 12.1641 50.7695 12.5977C50.6523 13.0312 50.4219 13.4004 50.0781 13.7051C49.5 14.2051 48.6855 14.4551 47.6348 14.4551C46.8887 14.4551 46.0801 14.3027 45.209 13.998ZM49.2109 9.60352V7.23047C48.793 6.75781 48.3555 6.52148 47.8984 6.52148C47.4609 6.52148 47.1133 6.7207 46.8555 7.11914C46.5977 7.51758 46.4688 8.05273 46.4688 8.72461C46.4688 9.98242 46.873 10.6113 47.6816 10.6113C48.2402 10.6113 48.75 10.2754 49.2109 9.60352Z" fill="#4F4F4F"/>
<path id="Events" d="M12.1855 47V38.3281H17.6055V39.5176H13.9902V41.9375H16.9551V43.0977H13.9902V45.7695H17.8809V47H12.1855ZM20.9805 47L18.5254 40.5664H20.3535L22.1523 45.207L23.9395 40.5664H25.1934L22.7148 47H20.9805ZM31.7559 46.7832C30.9316 47.0254 30.1504 47.1465 29.4121 47.1465C28.3379 47.1465 27.4902 46.8418 26.8691 46.2324C26.248 45.623 25.9375 44.791 25.9375 43.7363C25.9375 42.7402 26.2207 41.9395 26.7871 41.334C27.3574 40.7246 28.1094 40.4199 29.043 40.4199C29.9844 40.4199 30.6719 40.7168 31.1055 41.3105C31.5391 41.9043 31.7559 42.8438 31.7559 44.1289H27.7656C27.8828 45.3555 28.5566 45.9688 29.7871 45.9688C30.3691 45.9688 31.0254 45.834 31.7559 45.5645V46.7832ZM27.7422 43.1504H30.0508C30.0508 42.0527 29.6973 41.5039 28.9902 41.5039C28.2715 41.5039 27.8555 42.0527 27.7422 43.1504ZM33.5488 47V40.5664H35.2832V41.7793C35.8496 40.873 36.5801 40.4199 37.4746 40.4199C38.0488 40.4199 38.502 40.6016 38.834 40.9648C39.166 41.3281 39.332 41.8242 39.332 42.4531V47H37.5977V42.8809C37.5977 42.1504 37.3555 41.7852 36.8711 41.7852C36.3203 41.7852 35.791 42.1738 35.2832 42.9512V47H33.5488ZM44.752 46.9648C44.3379 47.0859 44.0117 47.1465 43.7734 47.1465C42.2695 47.1465 41.5176 46.4434 41.5176 45.0371V41.6504H40.7969V40.5664H41.5176V39.4824L43.252 39.2832V40.5664H44.6289V41.6504H43.252V44.8086C43.252 45.5977 43.5742 45.9922 44.2188 45.9922C44.3672 45.9922 44.5449 45.9648 44.752 45.9102V46.9648ZM46.1289 46.7949V45.5234C46.9883 45.8828 47.7227 46.0625 48.332 46.0625C49.043 46.0625 49.3984 45.8203 49.3984 45.3359C49.3984 45.0234 49.1055 44.75 48.5195 44.5156L47.9336 44.2812C47.2969 44.0234 46.8418 43.7461 46.5684 43.4492C46.2949 43.1523 46.1582 42.7852 46.1582 42.3477C46.1582 41.7383 46.3906 41.2656 46.8555 40.9297C47.3203 40.5898 47.9707 40.4199 48.8066 40.4199C49.3301 40.4199 49.9531 40.4961 50.6758 40.6484V41.8672C49.9805 41.625 49.4043 41.5039 48.9473 41.5039C48.2285 41.5039 47.8691 41.7266 47.8691 42.1719C47.8691 42.4648 48.1348 42.7129 48.666 42.916L49.1699 43.1094C49.9238 43.3945 50.4473 43.6836 50.7402 43.9766C51.0371 44.2695 51.1855 44.6465 51.1855 45.1074C51.1855 45.7129 50.9336 46.2051 50.4297 46.584C49.9297 46.959 49.2773 47.1465 48.4727 47.1465C47.6992 47.1465 46.918 47.0293 46.1289 46.7949Z" fill="#4F4F4F"/>
<line id="Line 1" x1="58" y1="7.5" x2="93" y2="7.5" stroke="#060606" stroke-opacity="0.34"/>
<line id="Line 2" x1="58" y1="41.5" x2="93" y2="41.5" stroke="#060606" stroke-opacity="0.34"/>
<path id="When &#38; where" d="M452.87 84L451.01 76.7734H451.996L453.476 82.4814L454.838 76.7734H455.824L457.113 82.4033L458.705 76.7734H459.54L457.514 84H456.493L455.219 78.4287L453.886 84H452.87ZM460.517 84V76.29H461.479V79.6934C461.986 78.9512 462.608 78.5801 463.344 78.5801C463.803 78.5801 464.169 78.7266 464.442 79.0195C464.716 79.3092 464.853 79.6999 464.853 80.1914V84H463.891V80.5039C463.891 80.11 463.832 79.8301 463.715 79.6641C463.601 79.4948 463.41 79.4102 463.144 79.4102C462.554 79.4102 461.999 79.7959 461.479 80.5674V84H460.517ZM470.614 83.8291C469.97 84.0244 469.418 84.1221 468.959 84.1221C468.178 84.1221 467.54 83.8633 467.045 83.3457C466.553 82.8249 466.308 82.151 466.308 81.3242C466.308 80.5202 466.524 79.861 466.957 79.3467C467.393 78.8324 467.95 78.5752 468.627 78.5752C469.268 78.5752 469.763 78.8031 470.111 79.2588C470.463 79.7145 470.639 80.3623 470.639 81.2021L470.634 81.5H467.289C467.429 82.7598 468.046 83.3896 469.14 83.3896C469.54 83.3896 470.032 83.2822 470.614 83.0674V83.8291ZM467.333 80.7773H469.672C469.672 79.791 469.304 79.2979 468.568 79.2979C467.829 79.2979 467.418 79.791 467.333 80.7773ZM472.304 84V78.6973H473.266V79.6934C473.773 78.9512 474.395 78.5801 475.131 78.5801C475.59 78.5801 475.956 78.7266 476.229 79.0195C476.503 79.3092 476.64 79.6999 476.64 80.1914V84H475.678V80.5039C475.678 80.11 475.619 79.8301 475.502 79.6641C475.388 79.4948 475.198 79.4102 474.931 79.4102C474.341 79.4102 473.786 79.7959 473.266 80.5674V84H472.304ZM485.897 84L485.541 83.5703C485.007 83.9772 484.384 84.1807 483.671 84.1807C482.916 84.1807 482.294 83.9626 481.806 83.5264C481.321 83.0869 481.078 82.5286 481.078 81.8516C481.078 80.7383 481.666 79.9831 482.841 79.5859C482.515 78.9967 482.353 78.5068 482.353 78.1162C482.353 77.6898 482.522 77.3301 482.86 77.0371C483.202 76.7409 483.616 76.5928 484.101 76.5928C484.569 76.5928 484.955 76.7311 485.258 77.0078C485.564 77.2812 485.717 77.6296 485.717 78.0527C485.717 78.7754 485.188 79.4036 484.13 79.9375C484.615 80.7969 485.18 81.5993 485.824 82.3447C486.12 81.915 486.269 81.3063 486.269 80.5186L486.264 80.1572H487.221C487.221 81.2249 486.902 82.1462 486.264 82.9209C486.557 83.292 486.89 83.6517 487.265 84H485.897ZM485.121 83.0137C484.438 82.1738 483.786 81.2217 483.168 80.1572C482.416 80.4567 482.04 80.9434 482.04 81.6172C482.04 82.1283 482.213 82.5628 482.558 82.9209C482.906 83.279 483.329 83.458 483.827 83.458C484.28 83.458 484.711 83.3099 485.121 83.0137ZM483.778 79.3271C484.468 79.0114 484.813 78.5915 484.813 78.0674C484.813 77.5661 484.563 77.3154 484.062 77.3154C483.567 77.3154 483.319 77.5677 483.319 78.0723C483.319 78.4043 483.472 78.8226 483.778 79.3271ZM492.431 84L490.912 78.6973H491.854L493.017 82.8037L494.271 78.6973H495.233L496.332 82.8037L497.665 78.6973H498.49L496.762 84H495.795L494.672 79.8936L493.402 84H492.431ZM499.521 84V76.29H500.482V79.6934C500.99 78.9512 501.612 78.5801 502.348 78.5801C502.807 78.5801 503.173 78.7266 503.446 79.0195C503.72 79.3092 503.856 79.6999 503.856 80.1914V84H502.895V80.5039C502.895 80.11 502.836 79.8301 502.719 79.6641C502.605 79.4948 502.414 79.4102 502.147 79.4102C501.558 79.4102 501.003 79.7959 500.482 80.5674V84H499.521ZM509.618 83.8291C508.974 84.0244 508.422 84.1221 507.963 84.1221C507.182 84.1221 506.544 83.8633 506.049 83.3457C505.557 82.8249 505.312 82.151 505.312 81.3242C505.312 80.5202 505.528 79.861 505.961 79.3467C506.397 78.8324 506.954 78.5752 507.631 78.5752C508.272 78.5752 508.767 78.8031 509.115 79.2588C509.467 79.7145 509.643 80.3623 509.643 81.2021L509.638 81.5H506.293C506.433 82.7598 507.05 83.3896 508.144 83.3896C508.544 83.3896 509.035 83.2822 509.618 83.0674V83.8291ZM506.337 80.7773H508.676C508.676 79.791 508.308 79.2979 507.572 79.2979C506.833 79.2979 506.422 79.791 506.337 80.7773ZM511.308 84V78.6973H512.27V79.6934C512.65 78.9512 513.204 78.5801 513.93 78.5801C514.027 78.5801 514.13 78.5882 514.237 78.6045V79.5029C514.071 79.4476 513.925 79.4199 513.798 79.4199C513.189 79.4199 512.68 79.7812 512.27 80.5039V84H511.308ZM519.286 83.8291C518.642 84.0244 518.09 84.1221 517.631 84.1221C516.85 84.1221 516.212 83.8633 515.717 83.3457C515.225 82.8249 514.979 82.151 514.979 81.3242C514.979 80.5202 515.196 79.861 515.629 79.3467C516.065 78.8324 516.622 78.5752 517.299 78.5752C517.94 78.5752 518.435 78.8031 518.783 79.2588C519.135 79.7145 519.311 80.3623 519.311 81.2021L519.306 81.5H515.961C516.101 82.7598 516.718 83.3896 517.812 83.3896C518.212 83.3896 518.703 83.2822 519.286 83.0674V83.8291ZM516.005 80.7773H518.344C518.344 79.791 517.976 79.2979 517.24 79.2979C516.501 79.2979 516.09 79.791 516.005 80.7773Z" fill="#4F4F4F"/>
<path id="Description" d="M451.933 52V44.7734H454.335C455.051 44.7734 455.629 44.8532 456.068 45.0127C456.511 45.1722 456.894 45.4424 457.216 45.8232C457.727 46.4287 457.982 47.2262 457.982 48.2158C457.982 49.417 457.665 50.348 457.03 51.0088C456.396 51.6696 455.502 52 454.35 52H451.933ZM452.958 51.2334H454.271C455.209 51.2334 455.873 50.9811 456.264 50.4766C456.684 49.9395 456.894 49.2184 456.894 48.3135C456.894 47.4639 456.687 46.7965 456.273 46.3115C456.023 46.0153 455.723 45.8135 455.375 45.7061C455.027 45.5954 454.503 45.54 453.803 45.54H452.958V51.2334ZM463.339 51.8291C462.694 52.0244 462.143 52.1221 461.684 52.1221C460.902 52.1221 460.264 51.8633 459.77 51.3457C459.278 50.8249 459.032 50.151 459.032 49.3242C459.032 48.5202 459.249 47.861 459.682 47.3467C460.118 46.8324 460.674 46.5752 461.352 46.5752C461.993 46.5752 462.488 46.8031 462.836 47.2588C463.188 47.7145 463.363 48.3623 463.363 49.2021L463.358 49.5H460.014C460.154 50.7598 460.771 51.3896 461.864 51.3896C462.265 51.3896 462.756 51.2822 463.339 51.0674V51.8291ZM460.058 48.7773H462.396C462.396 47.791 462.029 47.2979 461.293 47.2979C460.554 47.2979 460.142 47.791 460.058 48.7773ZM466.435 52.1221C465.995 52.1221 465.461 52.0195 464.833 51.8145V50.9307C465.461 51.2432 466.008 51.3994 466.474 51.3994C466.75 51.3994 466.98 51.3245 467.162 51.1748C467.344 51.0251 467.436 50.8379 467.436 50.6133C467.436 50.2845 467.18 50.0127 466.669 49.7979L466.107 49.5586C465.277 49.2135 464.862 48.7171 464.862 48.0693C464.862 47.6071 465.025 47.2441 465.351 46.9805C465.679 46.7135 466.129 46.5801 466.698 46.5801C466.994 46.5801 467.361 46.6208 467.797 46.7021L467.997 46.7412V47.542C467.46 47.3825 467.034 47.3027 466.718 47.3027C466.099 47.3027 465.79 47.5273 465.79 47.9766C465.79 48.2663 466.024 48.5104 466.493 48.709L466.957 48.9043C467.481 49.1257 467.852 49.36 468.07 49.6074C468.288 49.8516 468.397 50.1576 468.397 50.5254C468.397 50.9909 468.214 51.3734 467.846 51.6729C467.478 51.9723 467.007 52.1221 466.435 52.1221ZM472.196 52.1221C471.48 52.1221 470.886 51.8568 470.414 51.3262C469.942 50.7956 469.706 50.1266 469.706 49.3193C469.706 48.4567 469.939 47.7845 470.404 47.3027C470.873 46.821 471.526 46.5801 472.362 46.5801C472.776 46.5801 473.238 46.637 473.749 46.751V47.5566C473.205 47.3971 472.763 47.3174 472.421 47.3174C471.929 47.3174 471.534 47.5029 471.234 47.874C470.938 48.2419 470.79 48.7334 470.79 49.3486C470.79 49.9443 470.943 50.4261 471.249 50.7939C471.555 51.1618 471.955 51.3457 472.45 51.3457C472.89 51.3457 473.342 51.2334 473.808 51.0088V51.8389C473.186 52.0277 472.649 52.1221 472.196 52.1221ZM475.253 52V46.6973H476.215V47.6934C476.596 46.9512 477.149 46.5801 477.875 46.5801C477.973 46.5801 478.075 46.5882 478.183 46.6045V47.5029C478.017 47.4476 477.87 47.4199 477.743 47.4199C477.134 47.4199 476.625 47.7812 476.215 48.5039V52H475.253ZM479.345 52V46.6973H480.307V52H479.345ZM479.345 45.7354V44.7734H480.307V45.7354H479.345ZM482.235 53.9287V46.6973H483.197V47.6934C483.591 46.9512 484.182 46.5801 484.97 46.5801C485.608 46.5801 486.109 46.8128 486.474 47.2783C486.841 47.7438 487.025 48.3802 487.025 49.1875C487.025 50.0664 486.817 50.776 486.4 51.3164C485.987 51.8535 485.442 52.1221 484.765 52.1221C484.136 52.1221 483.614 51.8812 483.197 51.3994V53.9287H482.235ZM483.197 50.7354C483.692 51.1781 484.164 51.3994 484.613 51.3994C485.538 51.3994 486 50.6947 486 49.2852C486 48.0417 485.59 47.4199 484.77 47.4199C484.232 47.4199 483.708 47.7113 483.197 48.2939V50.7354ZM490.126 52.1221C489.638 52.1221 489.257 51.9821 488.983 51.7021C488.71 51.4222 488.573 51.0332 488.573 50.5352V47.4199H487.909V46.6973H488.573V45.7354L489.535 45.6426V46.6973H490.922V47.4199H489.535V50.3594C489.535 51.0527 489.835 51.3994 490.434 51.3994C490.561 51.3994 490.715 51.3783 490.897 51.3359V52C490.601 52.0814 490.344 52.1221 490.126 52.1221ZM492.274 52V46.6973H493.236V52H492.274ZM492.274 45.7354V44.7734H493.236V45.7354H492.274ZM497.24 52.1221C496.482 52.1221 495.876 51.8714 495.424 51.3701C494.971 50.8656 494.745 50.1917 494.745 49.3486C494.745 48.4958 494.971 47.8219 495.424 47.3271C495.88 46.8291 496.496 46.5801 497.274 46.5801C498.052 46.5801 498.668 46.8291 499.12 47.3271C499.576 47.8219 499.804 48.4925 499.804 49.3389C499.804 50.2048 499.576 50.8851 499.12 51.3799C498.664 51.8747 498.038 52.1221 497.24 52.1221ZM497.255 51.3994C498.274 51.3994 498.783 50.7126 498.783 49.3389C498.783 47.9814 498.28 47.3027 497.274 47.3027C496.272 47.3027 495.771 47.9847 495.771 49.3486C495.771 50.7158 496.265 51.3994 497.255 51.3994ZM501.308 52V46.6973H502.27V47.6934C502.777 46.9512 503.399 46.5801 504.135 46.5801C504.594 46.5801 504.96 46.7266 505.233 47.0195C505.507 47.3092 505.644 47.6999 505.644 48.1914V52H504.682V48.5039C504.682 48.11 504.623 47.8301 504.506 47.6641C504.392 47.4948 504.201 47.4102 503.935 47.4102C503.345 47.4102 502.79 47.7959 502.27 48.5674V52H501.308Z" fill="#4F4F4F"/>
<line id="Line 3" x1="378" y1="82.5" x2="444" y2="82.5" stroke="#060606" stroke-opacity="0.34"/>
<line id="Line 4" x1="418" y1="48.5" x2="444" y2="48.5" stroke="#060606" stroke-opacity="0.34"/>
</g>
</svg>
