<svg width="497" height="145" viewBox="0 0 497 145" fill="none" xmlns="http://www.w3.org/2000/svg">
<g id="faqs-guide">
<rect id="Rectangle 5" x="118" y="34" width="250" height="5" fill="#182E4F"/>
<rect id="Rectangle 17" x="118" y="83" width="215" height="5" fill="#182E4F"/>
<rect id="Rectangle 36" x="118" y="109" width="165" height="5" fill="#182E4F"/>
<rect id="Rectangle 37" x="118" y="135" width="215" height="5" fill="#182E4F"/>
<path id="Q&#38;As" d="M9.85742 52.7344C8.30273 52.3242 7.03711 51.8086 6.06055 51.1875C5.77539 51.207 5.56445 51.2168 5.42773 51.2168C4.11523 51.2168 3.06445 50.8027 2.27539 49.9746C1.48633 49.1465 1.0918 48.043 1.0918 46.6641C1.0918 45.2695 1.48828 44.1621 2.28125 43.3418C3.07422 42.5215 4.14453 42.1113 5.49219 42.1113C6.83984 42.1113 7.9082 42.5234 8.69727 43.3477C9.49023 44.168 9.88672 45.2793 9.88672 46.6816C9.88672 48.6504 9.11523 50.0234 7.57227 50.8008C8.70898 51.1914 9.86133 51.4492 11.0293 51.5742L9.85742 52.7344ZM5.46289 50.0215C6.23242 50.0215 6.8418 49.7188 7.29102 49.1133C7.74414 48.5078 7.9707 47.6855 7.9707 46.6465C7.9707 45.6348 7.74414 44.8242 7.29102 44.2148C6.8418 43.6055 6.24219 43.3008 5.49219 43.3008C4.73828 43.3008 4.13477 43.6055 3.68164 44.2148C3.23242 44.8242 3.00781 45.6387 3.00781 46.6582C3.00781 47.6699 3.23242 48.4844 3.68164 49.1016C4.13086 49.7148 4.72461 50.0215 5.46289 50.0215ZM18.7402 51H16.7012L16.3145 50.5371C15.6309 50.9902 14.8789 51.2168 14.0586 51.2168C13.125 51.2168 12.3535 50.9551 11.7441 50.4316C11.1387 49.9082 10.8359 49.2441 10.8359 48.4395C10.8359 47.2441 11.5566 46.3496 12.998 45.7559C12.584 45.0293 12.377 44.4355 12.377 43.9746C12.377 43.4473 12.6055 43.0039 13.0625 42.6445C13.5234 42.2852 14.0938 42.1055 14.7734 42.1055C15.4258 42.1055 15.9629 42.2793 16.3848 42.627C16.8066 42.9707 17.0176 43.4102 17.0176 43.9453C17.0176 44.7773 16.3789 45.4902 15.1016 46.084C15.5977 47.002 16.1836 47.8691 16.8594 48.6855C17.2539 48.1152 17.4512 47.3203 17.4512 46.3008V46.166H18.9102C18.9102 47.4434 18.4492 48.5762 17.5273 49.5645C17.9102 50.0605 18.3145 50.5391 18.7402 51ZM13.5898 46.6523C12.875 46.9766 12.5176 47.4668 12.5176 48.123C12.5176 48.6738 12.6953 49.1406 13.0508 49.5234C13.4102 49.9062 13.8477 50.0977 14.3633 50.0977C14.8164 50.0977 15.2363 49.9609 15.623 49.6875C14.9785 48.8711 14.3711 47.9785 13.8008 47.0098L13.5898 46.6523ZM14.5566 45.2754C15.2324 44.916 15.5703 44.4844 15.5703 43.9805C15.5703 43.457 15.3125 43.1953 14.7969 43.1953C14.2812 43.1953 14.0234 43.4473 14.0234 43.9512C14.0234 44.291 14.2012 44.7324 14.5566 45.2754ZM19.5137 51L22.8887 42.3281H24.6934L28.0684 51H26.2168L25.3145 48.6855H21.7285L20.8262 51H19.5137ZM22.1738 47.5312H24.8691L23.5215 44.0742L22.1738 47.5312ZM29.1289 50.7949V49.5234C29.9883 49.8828 30.7227 50.0625 31.332 50.0625C32.043 50.0625 32.3984 49.8203 32.3984 49.3359C32.3984 49.0234 32.1055 48.75 31.5195 48.5156L30.9336 48.2812C30.2969 48.0234 29.8418 47.7461 29.5684 47.4492C29.2949 47.1523 29.1582 46.7852 29.1582 46.3477C29.1582 45.7383 29.3906 45.2656 29.8555 44.9297C30.3203 44.5898 30.9707 44.4199 31.8066 44.4199C32.3301 44.4199 32.9531 44.4961 33.6758 44.6484V45.8672C32.9805 45.625 32.4043 45.5039 31.9473 45.5039C31.2285 45.5039 30.8691 45.7266 30.8691 46.1719C30.8691 46.4648 31.1348 46.7129 31.666 46.916L32.1699 47.1094C32.9238 47.3945 33.4473 47.6836 33.7402 47.9766C34.0371 48.2695 34.1855 48.6465 34.1855 49.1074C34.1855 49.7129 33.9336 50.2051 33.4297 50.584C32.9297 50.959 32.2773 51.1465 31.4727 51.1465C30.6992 51.1465 29.918 51.0293 29.1289 50.7949Z" fill="#4F4F4F"/>
<line id="Line 2" x1="44" y1="45.5" x2="93" y2="45.5" stroke="#060606" stroke-opacity="0.34"/>
<path id="Frequently asked questions" d="M107.6 14V13.07L108.77 12.755V4.76L107.6 4.475V3.545L110.585 3.47H115.07L115.085 6.08H113.975L113.735 4.805H110.615V8.06H113.93V9.395H110.615V12.755L112.07 13.07V14H107.6ZM115.727 14V13.07L116.792 12.785V7.28L115.727 6.995V6.065L118.187 5.945L118.382 7.13C118.792 6.73 119.202 6.42 119.612 6.2C120.022 5.97 120.462 5.855 120.932 5.855C121.242 5.855 121.577 5.905 121.937 6.005L121.817 8.585H120.767L120.587 7.31C120.507 7.29 120.417 7.28 120.317 7.28C120.007 7.28 119.702 7.365 119.402 7.535C119.112 7.705 118.842 7.93 118.592 8.21V12.785L119.897 13.07V14H115.727ZM126.008 14.165C124.948 14.165 124.088 13.825 123.428 13.145C122.768 12.455 122.438 11.455 122.438 10.145C122.438 9.265 122.593 8.505 122.903 7.865C123.223 7.215 123.668 6.72 124.238 6.38C124.818 6.03 125.503 5.855 126.293 5.855C127.043 5.855 127.653 6.01 128.123 6.32C128.603 6.62 128.958 7.035 129.188 7.565C129.418 8.095 129.533 8.695 129.533 9.365C129.533 9.665 129.508 9.98 129.458 10.31H124.298C124.348 11.06 124.543 11.665 124.883 12.125C125.233 12.585 125.753 12.815 126.443 12.815C126.793 12.815 127.173 12.75 127.583 12.62C127.993 12.49 128.418 12.29 128.858 12.02L129.473 12.995C128.903 13.385 128.323 13.68 127.733 13.88C127.143 14.07 126.568 14.165 126.008 14.165ZM126.143 7.175C125.603 7.175 125.188 7.36 124.898 7.73C124.608 8.1 124.423 8.58 124.343 9.17H127.673C127.673 8.6 127.553 8.125 127.313 7.745C127.083 7.365 126.693 7.175 126.143 7.175ZM134.691 17.45V16.475L135.981 16.145V13.205C135.211 13.845 134.426 14.165 133.626 14.165C133.056 14.165 132.546 14.015 132.096 13.715C131.656 13.405 131.306 12.955 131.046 12.365C130.786 11.765 130.656 11.035 130.656 10.175C130.656 9.135 130.836 8.3 131.196 7.67C131.566 7.04 132.076 6.58 132.726 6.29C133.376 6 134.131 5.855 134.991 5.855C135.421 5.855 135.866 5.885 136.326 5.945C136.796 6.005 137.281 6.09 137.781 6.2V16.16L138.831 16.475V17.45H134.691ZM134.301 12.83C134.831 12.83 135.391 12.585 135.981 12.095V7.325C135.551 7.205 135.156 7.145 134.796 7.145C134.026 7.145 133.456 7.4 133.086 7.91C132.716 8.42 132.531 9.12 132.531 10.01C132.531 10.88 132.691 11.57 133.011 12.08C133.341 12.58 133.771 12.83 134.301 12.83ZM142.46 14.165C141.79 14.165 141.23 13.955 140.78 13.535C140.34 13.105 140.12 12.455 140.12 11.585V7.28L139.07 6.995V6.065L141.92 5.96V11.285C141.92 11.795 142.035 12.175 142.265 12.425C142.505 12.665 142.82 12.785 143.21 12.785C143.49 12.785 143.795 12.715 144.125 12.575C144.465 12.425 144.805 12.2 145.145 11.9V7.28L144.095 6.995V6.065L146.945 5.96V12.77L148.01 13.055V13.985L145.55 14.09L145.34 12.905C144.87 13.335 144.385 13.655 143.885 13.865C143.385 14.065 142.91 14.165 142.46 14.165ZM152.419 14.165C151.359 14.165 150.499 13.825 149.839 13.145C149.179 12.455 148.849 11.455 148.849 10.145C148.849 9.265 149.004 8.505 149.314 7.865C149.634 7.215 150.079 6.72 150.649 6.38C151.229 6.03 151.914 5.855 152.704 5.855C153.454 5.855 154.064 6.01 154.534 6.32C155.014 6.62 155.369 7.035 155.599 7.565C155.829 8.095 155.944 8.695 155.944 9.365C155.944 9.665 155.919 9.98 155.869 10.31H150.709C150.759 11.06 150.954 11.665 151.294 12.125C151.644 12.585 152.164 12.815 152.854 12.815C153.204 12.815 153.584 12.75 153.994 12.62C154.404 12.49 154.829 12.29 155.269 12.02L155.884 12.995C155.314 13.385 154.734 13.68 154.144 13.88C153.554 14.07 152.979 14.165 152.419 14.165ZM152.554 7.175C152.014 7.175 151.599 7.36 151.309 7.73C151.019 8.1 150.834 8.58 150.754 9.17H154.084C154.084 8.6 153.964 8.125 153.724 7.745C153.494 7.365 153.104 7.175 152.554 7.175ZM156.992 14V13.07L158.057 12.785V7.28L156.992 6.995V6.065L159.452 5.945L159.647 7.13C160.107 6.7 160.592 6.38 161.102 6.17C161.612 5.96 162.092 5.855 162.542 5.855C163.212 5.855 163.767 6.065 164.207 6.485C164.657 6.905 164.877 7.54 164.867 8.39V12.785L165.932 13.07V14H162.092V13.07L163.067 12.8V8.78C163.067 8.25 162.947 7.86 162.707 7.61C162.477 7.36 162.167 7.235 161.777 7.235C161.487 7.235 161.177 7.31 160.847 7.46C160.517 7.6 160.187 7.82 159.857 8.12V12.8L160.832 13.07V14H156.992ZM169.421 14.165C168.791 14.165 168.306 13.975 167.966 13.595C167.626 13.205 167.456 12.625 167.456 11.855V7.235H166.226V6.26L167.456 6.005V4.25L169.271 3.935V6.02H171.371L171.341 7.235H169.271V11.615C169.271 12.045 169.346 12.355 169.496 12.545C169.646 12.735 169.861 12.83 170.141 12.83C170.461 12.83 170.861 12.725 171.341 12.515L171.686 13.505C170.896 13.945 170.141 14.165 169.421 14.165ZM175.961 13.07V14H172.046V13.07L173.096 12.785V3.68L172.046 3.41V2.48L174.896 2.36V12.785L175.961 13.07ZM176.159 17.525L176.324 16.235C176.634 16.275 176.889 16.295 177.089 16.295C177.509 16.295 177.854 16.215 178.124 16.055C178.404 15.895 178.639 15.645 178.829 15.305C179.029 14.975 179.224 14.555 179.414 14.045L176.699 7.175L175.919 7.01V6.08L179.504 5.96V6.89L178.499 7.115L180.239 12.17L181.829 7.175L180.854 7.01V6.08L184.274 5.96V6.89L183.509 7.1L181.019 13.985C180.759 14.725 180.469 15.365 180.149 15.905C179.839 16.445 179.449 16.865 178.979 17.165C178.519 17.465 177.934 17.615 177.224 17.615C176.914 17.615 176.559 17.585 176.159 17.525ZM192.68 14.105L192.455 12.83C192.055 13.28 191.62 13.615 191.15 13.835C190.68 14.055 190.22 14.165 189.77 14.165C189.15 14.165 188.63 13.97 188.21 13.58C187.8 13.18 187.595 12.6 187.595 11.84C187.595 10.98 187.865 10.385 188.405 10.055C188.955 9.715 189.715 9.545 190.685 9.545H192.275V8.57C192.275 8.08 192.15 7.73 191.9 7.52C191.65 7.3 191.295 7.19 190.835 7.19C190.435 7.19 189.98 7.265 189.47 7.415L189.305 8.525H188.15L188.03 6.425C189.33 6.045 190.425 5.855 191.315 5.855C192.195 5.855 192.875 6.05 193.355 6.44C193.835 6.82 194.075 7.42 194.075 8.24V12.755L195.14 13.055V13.985L192.68 14.105ZM189.41 11.675C189.41 12.085 189.505 12.385 189.695 12.575C189.885 12.755 190.13 12.845 190.43 12.845C190.7 12.845 190.995 12.765 191.315 12.605C191.645 12.445 191.965 12.22 192.275 11.93V10.58H190.97C190.38 10.58 189.97 10.67 189.74 10.85C189.52 11.03 189.41 11.305 189.41 11.675ZM197.865 8C197.865 8.26 197.965 8.47 198.165 8.63C198.365 8.78 198.625 8.91 198.945 9.02C199.265 9.12 199.6 9.225 199.95 9.335C200.31 9.445 200.645 9.59 200.955 9.77C201.275 9.94 201.535 10.17 201.735 10.46C201.935 10.74 202.035 11.11 202.035 11.57C202.035 12.13 201.88 12.605 201.57 12.995C201.27 13.385 200.855 13.68 200.325 13.88C199.805 14.07 199.215 14.165 198.555 14.165C198.165 14.165 197.755 14.13 197.325 14.06C196.905 14 196.475 13.91 196.035 13.79L196.125 11.6H197.265L197.4 12.785C197.6 12.835 197.805 12.875 198.015 12.905C198.235 12.935 198.43 12.95 198.6 12.95C198.87 12.95 199.13 12.91 199.38 12.83C199.63 12.75 199.835 12.63 199.995 12.47C200.155 12.31 200.235 12.11 200.235 11.87C200.235 11.6 200.135 11.385 199.935 11.225C199.735 11.065 199.475 10.935 199.155 10.835C198.845 10.725 198.515 10.615 198.165 10.505C197.815 10.395 197.48 10.255 197.16 10.085C196.85 9.905 196.595 9.67 196.395 9.38C196.195 9.09 196.095 8.71 196.095 8.24C196.095 7.68 196.235 7.225 196.515 6.875C196.795 6.525 197.165 6.27 197.625 6.11C198.095 5.94 198.6 5.855 199.14 5.855C199.91 5.855 200.775 6 201.735 6.29L201.66 8.195H200.505L200.31 7.22C199.9 7.12 199.535 7.07 199.215 7.07C198.815 7.07 198.49 7.155 198.24 7.325C197.99 7.495 197.865 7.72 197.865 8ZM202.895 14V13.07L203.945 12.785V3.68L202.895 3.41V2.48L205.745 2.36V9.005H207.11L208.295 7.16L207.425 6.995V6.08L210.95 5.96V6.89L210.02 7.085L208.475 9.455L210.29 12.815L211.295 13.07V14H209.045L207.095 10.22H205.745V12.77L206.765 13.07V14H202.895ZM215.026 14.165C213.966 14.165 213.106 13.825 212.446 13.145C211.786 12.455 211.456 11.455 211.456 10.145C211.456 9.265 211.611 8.505 211.921 7.865C212.241 7.215 212.686 6.72 213.256 6.38C213.836 6.03 214.521 5.855 215.311 5.855C216.061 5.855 216.671 6.01 217.141 6.32C217.621 6.62 217.976 7.035 218.206 7.565C218.436 8.095 218.551 8.695 218.551 9.365C218.551 9.665 218.526 9.98 218.476 10.31H213.316C213.366 11.06 213.561 11.665 213.901 12.125C214.251 12.585 214.771 12.815 215.461 12.815C215.811 12.815 216.191 12.75 216.601 12.62C217.011 12.49 217.436 12.29 217.876 12.02L218.491 12.995C217.921 13.385 217.341 13.68 216.751 13.88C216.161 14.07 215.586 14.165 215.026 14.165ZM215.161 7.175C214.621 7.175 214.206 7.36 213.916 7.73C213.626 8.1 213.441 8.58 213.361 9.17H216.691C216.691 8.6 216.571 8.125 216.331 7.745C216.101 7.365 215.711 7.175 215.161 7.175ZM222.644 14.165C222.074 14.165 221.564 14.015 221.114 13.715C220.674 13.405 220.324 12.955 220.064 12.365C219.804 11.765 219.674 11.035 219.674 10.175C219.674 8.725 220.044 7.645 220.784 6.935C221.524 6.215 222.554 5.855 223.874 5.855C224.214 5.855 224.589 5.89 224.999 5.96V3.725L223.859 3.395V2.48L226.799 2.36V12.77L227.849 13.055V13.985L225.389 14.09L225.194 13.025C224.364 13.785 223.514 14.165 222.644 14.165ZM223.319 12.83C223.849 12.83 224.409 12.58 224.999 12.08V7.325C224.569 7.205 224.174 7.145 223.814 7.145C223.044 7.145 222.474 7.4 222.104 7.91C221.734 8.42 221.549 9.12 221.549 10.01C221.549 10.88 221.709 11.57 222.029 12.08C222.359 12.58 222.789 12.83 223.319 12.83ZM235.501 17.45V16.475L236.791 16.145V13.205C236.021 13.845 235.236 14.165 234.436 14.165C233.866 14.165 233.356 14.015 232.906 13.715C232.466 13.405 232.116 12.955 231.856 12.365C231.596 11.765 231.466 11.035 231.466 10.175C231.466 9.135 231.646 8.3 232.006 7.67C232.376 7.04 232.886 6.58 233.536 6.29C234.186 6 234.941 5.855 235.801 5.855C236.231 5.855 236.676 5.885 237.136 5.945C237.606 6.005 238.091 6.09 238.591 6.2V16.16L239.641 16.475V17.45H235.501ZM235.111 12.83C235.641 12.83 236.201 12.585 236.791 12.095V7.325C236.361 7.205 235.966 7.145 235.606 7.145C234.836 7.145 234.266 7.4 233.896 7.91C233.526 8.42 233.341 9.12 233.341 10.01C233.341 10.88 233.501 11.57 233.821 12.08C234.151 12.58 234.581 12.83 235.111 12.83ZM243.27 14.165C242.6 14.165 242.04 13.955 241.59 13.535C241.15 13.105 240.93 12.455 240.93 11.585V7.28L239.88 6.995V6.065L242.73 5.96V11.285C242.73 11.795 242.845 12.175 243.075 12.425C243.315 12.665 243.63 12.785 244.02 12.785C244.3 12.785 244.605 12.715 244.935 12.575C245.275 12.425 245.615 12.2 245.955 11.9V7.28L244.905 6.995V6.065L247.755 5.96V12.77L248.82 13.055V13.985L246.36 14.09L246.15 12.905C245.68 13.335 245.195 13.655 244.695 13.865C244.195 14.065 243.72 14.165 243.27 14.165ZM253.229 14.165C252.169 14.165 251.309 13.825 250.649 13.145C249.989 12.455 249.659 11.455 249.659 10.145C249.659 9.265 249.814 8.505 250.124 7.865C250.444 7.215 250.889 6.72 251.459 6.38C252.039 6.03 252.724 5.855 253.514 5.855C254.264 5.855 254.874 6.01 255.344 6.32C255.824 6.62 256.179 7.035 256.409 7.565C256.639 8.095 256.754 8.695 256.754 9.365C256.754 9.665 256.729 9.98 256.679 10.31H251.519C251.569 11.06 251.764 11.665 252.104 12.125C252.454 12.585 252.974 12.815 253.664 12.815C254.014 12.815 254.394 12.75 254.804 12.62C255.214 12.49 255.639 12.29 256.079 12.02L256.694 12.995C256.124 13.385 255.544 13.68 254.954 13.88C254.364 14.07 253.789 14.165 253.229 14.165ZM253.364 7.175C252.824 7.175 252.409 7.36 252.119 7.73C251.829 8.1 251.644 8.58 251.564 9.17H254.894C254.894 8.6 254.774 8.125 254.534 7.745C254.304 7.365 253.914 7.175 253.364 7.175ZM259.842 8C259.842 8.26 259.942 8.47 260.142 8.63C260.342 8.78 260.602 8.91 260.922 9.02C261.242 9.12 261.577 9.225 261.927 9.335C262.287 9.445 262.622 9.59 262.932 9.77C263.252 9.94 263.512 10.17 263.712 10.46C263.912 10.74 264.012 11.11 264.012 11.57C264.012 12.13 263.857 12.605 263.547 12.995C263.247 13.385 262.832 13.68 262.302 13.88C261.782 14.07 261.192 14.165 260.532 14.165C260.142 14.165 259.732 14.13 259.302 14.06C258.882 14 258.452 13.91 258.012 13.79L258.102 11.6H259.242L259.377 12.785C259.577 12.835 259.782 12.875 259.992 12.905C260.212 12.935 260.407 12.95 260.577 12.95C260.847 12.95 261.107 12.91 261.357 12.83C261.607 12.75 261.812 12.63 261.972 12.47C262.132 12.31 262.212 12.11 262.212 11.87C262.212 11.6 262.112 11.385 261.912 11.225C261.712 11.065 261.452 10.935 261.132 10.835C260.822 10.725 260.492 10.615 260.142 10.505C259.792 10.395 259.457 10.255 259.137 10.085C258.827 9.905 258.572 9.67 258.372 9.38C258.172 9.09 258.072 8.71 258.072 8.24C258.072 7.68 258.212 7.225 258.492 6.875C258.772 6.525 259.142 6.27 259.602 6.11C260.072 5.94 260.577 5.855 261.117 5.855C261.887 5.855 262.752 6 263.712 6.29L263.637 8.195H262.482L262.287 7.22C261.877 7.12 261.512 7.07 261.192 7.07C260.792 7.07 260.467 7.155 260.217 7.325C259.967 7.495 259.842 7.72 259.842 8ZM267.903 14.165C267.273 14.165 266.788 13.975 266.448 13.595C266.108 13.205 265.938 12.625 265.938 11.855V7.235H264.708V6.26L265.938 6.005V4.25L267.753 3.935V6.02H269.853L269.823 7.235H267.753V11.615C267.753 12.045 267.828 12.355 267.978 12.545C268.128 12.735 268.343 12.83 268.623 12.83C268.943 12.83 269.343 12.725 269.823 12.515L270.168 13.505C269.378 13.945 268.623 14.165 267.903 14.165ZM274.74 13.07V14H270.825V13.07L271.89 12.785V7.265L270.825 6.995V6.065L273.69 5.96V12.785L274.74 13.07ZM272.715 4.64C272.385 4.64 272.12 4.55 271.92 4.37C271.72 4.18 271.62 3.91 271.62 3.56C271.62 3.19 271.725 2.915 271.935 2.735C272.145 2.545 272.41 2.45 272.73 2.45C273.04 2.45 273.295 2.545 273.495 2.735C273.705 2.915 273.81 3.185 273.81 3.545C273.81 3.905 273.705 4.18 273.495 4.37C273.285 4.55 273.025 4.64 272.715 4.64ZM279.428 5.855C280.578 5.855 281.478 6.205 282.128 6.905C282.778 7.605 283.103 8.59 283.103 9.86C283.103 10.75 282.943 11.515 282.623 12.155C282.313 12.795 281.863 13.29 281.273 13.64C280.693 13.99 279.993 14.165 279.173 14.165C278.023 14.165 277.128 13.82 276.488 13.13C275.858 12.44 275.543 11.45 275.543 10.16C275.543 8.83 275.883 7.78 276.563 7.01C277.253 6.24 278.208 5.855 279.428 5.855ZM279.338 7.145C278.058 7.145 277.418 8.12 277.418 10.07C277.418 11.03 277.573 11.74 277.883 12.2C278.193 12.65 278.653 12.875 279.263 12.875C279.923 12.875 280.418 12.625 280.748 12.125C281.078 11.625 281.243 10.9 281.243 9.95C281.243 8.08 280.608 7.145 279.338 7.145ZM284.126 14V13.07L285.191 12.785V7.28L284.126 6.995V6.065L286.586 5.945L286.781 7.13C287.241 6.7 287.726 6.38 288.236 6.17C288.746 5.96 289.226 5.855 289.676 5.855C290.346 5.855 290.901 6.065 291.341 6.485C291.791 6.905 292.011 7.54 292.001 8.39V12.785L293.066 13.07V14H289.226V13.07L290.201 12.8V8.78C290.201 8.25 290.081 7.86 289.841 7.61C289.611 7.36 289.301 7.235 288.911 7.235C288.621 7.235 288.311 7.31 287.981 7.46C287.651 7.6 287.321 7.82 286.991 8.12V12.8L287.966 13.07V14H284.126ZM295.76 8C295.76 8.26 295.86 8.47 296.06 8.63C296.26 8.78 296.52 8.91 296.84 9.02C297.16 9.12 297.495 9.225 297.845 9.335C298.205 9.445 298.54 9.59 298.85 9.77C299.17 9.94 299.43 10.17 299.63 10.46C299.83 10.74 299.93 11.11 299.93 11.57C299.93 12.13 299.775 12.605 299.465 12.995C299.165 13.385 298.75 13.68 298.22 13.88C297.7 14.07 297.11 14.165 296.45 14.165C296.06 14.165 295.65 14.13 295.22 14.06C294.8 14 294.37 13.91 293.93 13.79L294.02 11.6H295.16L295.295 12.785C295.495 12.835 295.7 12.875 295.91 12.905C296.13 12.935 296.325 12.95 296.495 12.95C296.765 12.95 297.025 12.91 297.275 12.83C297.525 12.75 297.73 12.63 297.89 12.47C298.05 12.31 298.13 12.11 298.13 11.87C298.13 11.6 298.03 11.385 297.83 11.225C297.63 11.065 297.37 10.935 297.05 10.835C296.74 10.725 296.41 10.615 296.06 10.505C295.71 10.395 295.375 10.255 295.055 10.085C294.745 9.905 294.49 9.67 294.29 9.38C294.09 9.09 293.99 8.71 293.99 8.24C293.99 7.68 294.13 7.225 294.41 6.875C294.69 6.525 295.06 6.27 295.52 6.11C295.99 5.94 296.495 5.855 297.035 5.855C297.805 5.855 298.67 6 299.63 6.29L299.555 8.195H298.4L298.205 7.22C297.795 7.12 297.43 7.07 297.11 7.07C296.71 7.07 296.385 7.155 296.135 7.325C295.885 7.495 295.76 7.72 295.76 8Z" fill="#182E4F"/>
<path id="-" d="M383.855 36.85V34.975H388.1V36.85H383.855Z" fill="#182E4F"/>
<path id="+" d="M383.63 85.835V84.065H386.66V81.005H388.655V84.065H391.655V85.835H388.655V89H386.66V85.835H383.63Z" fill="#182E4F"/>
<path id="+_2" d="M383.63 111.835V110.065H386.66V107.005H388.655V110.065H391.655V111.835H388.655V115H386.66V111.835H383.63Z" fill="#182E4F"/>
<path id="+_3" d="M383.63 137.835V136.065H386.66V133.005H388.655V136.065H391.655V137.835H388.655V141H386.66V137.835H383.63Z" fill="#182E4F"/>
<rect id="Rectangle 32" x="125" y="46" width="222" height="3" fill="#506583"/>
<rect id="Rectangle 33" x="125" y="52" width="214" height="3" fill="#506583"/>
<rect id="Rectangle 34" x="125" y="58" width="222" height="3" fill="#506583"/>
<rect id="Rectangle 35" x="125" y="64" width="214" height="3" fill="#506583"/>
<path id="Question" d="M460.349 39.4453C459.213 39.0775 458.26 38.6396 457.492 38.1318C457.186 38.1644 456.95 38.1807 456.784 38.1807C455.814 38.1807 455.025 37.8291 454.416 37.126C453.811 36.4229 453.508 35.5098 453.508 34.3867C453.508 33.2344 453.814 32.3148 454.426 31.6279C455.041 30.9378 455.861 30.5928 456.887 30.5928C457.915 30.5928 458.736 30.9378 459.348 31.6279C459.96 32.318 460.266 33.2425 460.266 34.4014C460.266 36.0615 459.649 37.2106 458.415 37.8486C459.245 38.2132 460.106 38.4736 460.998 38.6299L460.349 39.4453ZM456.857 37.4141C457.596 37.4141 458.168 37.1488 458.571 36.6182C458.975 36.0876 459.177 35.3372 459.177 34.3672C459.177 33.4264 458.975 32.6908 458.571 32.1602C458.168 31.6263 457.606 31.3594 456.887 31.3594C456.167 31.3594 455.606 31.6263 455.202 32.1602C454.799 32.6908 454.597 33.4297 454.597 34.377C454.597 35.321 454.797 36.0632 455.197 36.6035C455.598 37.1439 456.151 37.4141 456.857 37.4141ZM465.051 38V37.0039C464.54 37.7493 463.92 38.1221 463.19 38.1221C462.728 38.1221 462.36 37.9772 462.087 37.6875C461.813 37.3945 461.677 37.0007 461.677 36.5059V32.6973H462.639V36.1934C462.639 36.5905 462.696 36.8737 462.81 37.043C462.927 37.209 463.12 37.292 463.391 37.292C463.977 37.292 464.53 36.9062 465.051 36.1348V32.6973H466.013V38H465.051ZM471.833 37.8291C471.188 38.0244 470.637 38.1221 470.178 38.1221C469.396 38.1221 468.758 37.8633 468.264 37.3457C467.772 36.8249 467.526 36.151 467.526 35.3242C467.526 34.5202 467.743 33.861 468.176 33.3467C468.612 32.8324 469.169 32.5752 469.846 32.5752C470.487 32.5752 470.982 32.8031 471.33 33.2588C471.682 33.7145 471.857 34.3623 471.857 35.2021L471.853 35.5H468.508C468.648 36.7598 469.265 37.3896 470.358 37.3896C470.759 37.3896 471.25 37.2822 471.833 37.0674V37.8291ZM468.552 34.7773H470.891C470.891 33.791 470.523 33.2979 469.787 33.2979C469.048 33.2979 468.636 33.791 468.552 34.7773ZM474.929 38.1221C474.489 38.1221 473.955 38.0195 473.327 37.8145V36.9307C473.955 37.2432 474.502 37.3994 474.968 37.3994C475.244 37.3994 475.474 37.3245 475.656 37.1748C475.839 37.0251 475.93 36.8379 475.93 36.6133C475.93 36.2845 475.674 36.0127 475.163 35.7979L474.602 35.5586C473.771 35.2135 473.356 34.7171 473.356 34.0693C473.356 33.6071 473.519 33.2441 473.845 32.9805C474.174 32.7135 474.623 32.5801 475.192 32.5801C475.489 32.5801 475.855 32.6208 476.291 32.7021L476.491 32.7412V33.542C475.954 33.3825 475.528 33.3027 475.212 33.3027C474.593 33.3027 474.284 33.5273 474.284 33.9766C474.284 34.2663 474.519 34.5104 474.987 34.709L475.451 34.9043C475.975 35.1257 476.346 35.36 476.564 35.6074C476.783 35.8516 476.892 36.1576 476.892 36.5254C476.892 36.9909 476.708 37.3734 476.34 37.6729C475.972 37.9723 475.502 38.1221 474.929 38.1221ZM480.212 38.1221C479.724 38.1221 479.343 37.9821 479.069 37.7021C478.796 37.4222 478.659 37.0332 478.659 36.5352V33.4199H477.995V32.6973H478.659V31.7354L479.621 31.6426V32.6973H481.008V33.4199H479.621V36.3594C479.621 37.0527 479.921 37.3994 480.52 37.3994C480.646 37.3994 480.801 37.3783 480.983 37.3359V38C480.687 38.0814 480.43 38.1221 480.212 38.1221ZM482.36 38V32.6973H483.322V38H482.36ZM482.36 31.7354V30.7734H483.322V31.7354H482.36ZM487.326 38.1221C486.568 38.1221 485.962 37.8714 485.51 37.3701C485.057 36.8656 484.831 36.1917 484.831 35.3486C484.831 34.4958 485.057 33.8219 485.51 33.3271C485.965 32.8291 486.582 32.5801 487.36 32.5801C488.138 32.5801 488.754 32.8291 489.206 33.3271C489.662 33.8219 489.89 34.4925 489.89 35.3389C489.89 36.2048 489.662 36.8851 489.206 37.3799C488.75 37.8747 488.124 38.1221 487.326 38.1221ZM487.341 37.3994C488.36 37.3994 488.869 36.7126 488.869 35.3389C488.869 33.9814 488.366 33.3027 487.36 33.3027C486.358 33.3027 485.856 33.9847 485.856 35.3486C485.856 36.7158 486.351 37.3994 487.341 37.3994ZM491.394 38V32.6973H492.355V33.6934C492.863 32.9512 493.485 32.5801 494.221 32.5801C494.68 32.5801 495.046 32.7266 495.319 33.0195C495.593 33.3092 495.729 33.6999 495.729 34.1914V38H494.768V34.5039C494.768 34.11 494.709 33.8301 494.592 33.6641C494.478 33.4948 494.287 33.4102 494.021 33.4102C493.431 33.4102 492.876 33.7959 492.355 34.5674V38H491.394Z" fill="#4F4F4F"/>
<path id="Answer" d="M457.595 60.2363L456.364 57.1211L455.129 60.2363H457.595ZM458.679 63L457.893 60.998H454.831L454.035 63H453.083L455.949 55.7734H456.965L459.787 63H458.679ZM460.866 63V57.6973H461.828V58.6934C462.336 57.9512 462.958 57.5801 463.693 57.5801C464.152 57.5801 464.519 57.7266 464.792 58.0195C465.065 58.3092 465.202 58.6999 465.202 59.1914V63H464.24V59.5039C464.24 59.11 464.182 58.8301 464.064 58.6641C463.951 58.4948 463.76 58.4102 463.493 58.4102C462.904 58.4102 462.349 58.7959 461.828 59.5674V63H460.866ZM468.483 63.1221C468.044 63.1221 467.51 63.0195 466.882 62.8145V61.9307C467.51 62.2432 468.057 62.3994 468.522 62.3994C468.799 62.3994 469.029 62.3245 469.211 62.1748C469.393 62.0251 469.484 61.8379 469.484 61.6133C469.484 61.2845 469.229 61.0127 468.718 60.7979L468.156 60.5586C467.326 60.2135 466.911 59.7171 466.911 59.0693C466.911 58.6071 467.074 58.2441 467.399 57.9805C467.728 57.7135 468.177 57.5801 468.747 57.5801C469.043 57.5801 469.41 57.6208 469.846 57.7021L470.046 57.7412V58.542C469.509 58.3825 469.082 58.3027 468.767 58.3027C468.148 58.3027 467.839 58.5273 467.839 58.9766C467.839 59.2663 468.073 59.5104 468.542 59.709L469.006 59.9043C469.53 60.1257 469.901 60.36 470.119 60.6074C470.337 60.8516 470.446 61.1576 470.446 61.5254C470.446 61.9909 470.262 62.3734 469.895 62.6729C469.527 62.9723 469.056 63.1221 468.483 63.1221ZM472.79 63L471.271 57.6973H472.214L473.376 61.8037L474.631 57.6973H475.593L476.691 61.8037L478.024 57.6973H478.85L477.121 63H476.154L475.031 58.8936L473.762 63H472.79ZM483.767 62.8291C483.122 63.0244 482.57 63.1221 482.111 63.1221C481.33 63.1221 480.692 62.8633 480.197 62.3457C479.706 61.8249 479.46 61.151 479.46 60.3242C479.46 59.5202 479.676 58.861 480.109 58.3467C480.546 57.8324 481.102 57.5752 481.779 57.5752C482.421 57.5752 482.915 57.8031 483.264 58.2588C483.615 58.7145 483.791 59.3623 483.791 60.2021L483.786 60.5H480.441C480.581 61.7598 481.198 62.3896 482.292 62.3896C482.692 62.3896 483.184 62.2822 483.767 62.0674V62.8291ZM480.485 59.7773H482.824C482.824 58.791 482.456 58.2979 481.721 58.2979C480.982 58.2979 480.57 58.791 480.485 59.7773ZM485.456 63V57.6973H486.418V58.6934C486.799 57.9512 487.352 57.5801 488.078 57.5801C488.176 57.5801 488.278 57.5882 488.386 57.6045V58.5029C488.22 58.4476 488.073 58.4199 487.946 58.4199C487.338 58.4199 486.828 58.7812 486.418 59.5039V63H485.456Z" fill="#4F4F4F"/>
<line id="Line 4" x1="414" y1="34.5" x2="448" y2="34.5" stroke="#060606" stroke-opacity="0.34"/>
<line id="Line 5" x1="362" y1="59.5" x2="448" y2="59.5" stroke="#060606" stroke-opacity="0.34"/>
</g>
</svg>
