<?xml version="1.0" encoding="utf-8"?>
<!-- Generator: Adobe Illustrator 27.9.0, SVG Export Plug-In . SVG Version: 6.00 Build 0)  -->
<svg version="1.1" id="Layer_1" xmlns="http://www.w3.org/2000/svg" xmlns:xlink="http://www.w3.org/1999/xlink" x="0px" y="0px"
	 viewBox="0 0 731 194" style="enable-background:new 0 0 731 194;" xml:space="preserve">
<style type="text/css">
	.st0{fill:#506583;fill-opacity:0.55;}
	.st1{fill:#0C4371;}
	.st2{fill:#FFFFFF;}
	.st3{fill:#F2F2F2;}
	.st4{fill:none;stroke:#95BCD4;stroke-width:3;}
	.st5{fill:none;stroke:#060606;stroke-opacity:0.34;}
	.st6{fill:#4F4F4F;}
	.st7{font-family:'SourceSansPro-SemiBold';}
	.st8{font-size:13.6958px;}
</style>
<path id="Vector_3" class="st0" d="M387.5,99.5C319,140,130.5,150,108,146.5v45h500l2-92L541.5,38l-78,56.5l-29-24.5L387.5,99.5z"/>
<path id="Rectangle_8" class="st1" d="M113.6,1.5H386V191H113.6c-3.9,0-7.1-3.2-7.1-7.1V8.6C106.5,4.7,109.7,1.5,113.6,1.5z"/>
<rect id="Rectangle_13" x="177" y="29" class="st2" width="165" height="12"/>
<rect id="Rectangle_14" x="177" y="52" class="st2" width="176" height="12"/>
<rect id="Rectangle_15" x="177" y="73" class="st2" width="89" height="12"/>
<path id="Rectangle_11" class="st3" d="M183,157h43c3.3,0,6,2.7,6,6v8c0,3.3-2.7,6-6,6h-43c-3.3,0-6-2.7-6-6v-8
	C177,159.7,179.7,157,183,157z"/>
<rect id="Rectangle_5" x="177" y="114" class="st2" width="185" height="5"/>
<path id="Rectangle_8_00000133531216794165956540000013743545976165111451_" class="st1" d="M575.2,1.9h31.6c1,0,1.8,1.7,1.8,3.8
	v181.9c0,2.1-0.8,3.8-1.9,3.8h-31.6V1.9z"/>
<rect id="Rectangle_12" x="177" y="124" class="st2" width="165" height="5"/>
<path id="Rectangle_16" class="st4" d="M113,1.5h490c3.6,0,6.5,2.9,6.5,6.5v178c0,3.6-2.9,6.5-6.5,6.5H113c-3.6,0-6.5-2.9-6.5-6.5V8
	C106.5,4.4,109.4,1.5,113,1.5z"/>
<line id="Line_1" class="st5" x1="89" y1="34.5" x2="177" y2="34.5"/>
<line id="Line_3" class="st5" x1="92" y1="165.8" x2="177" y2="165.8"/>
<line id="Line_4" class="st5" x1="552" y1="99.4" x2="645" y2="99.4"/>
<text transform="matrix(1 0 0 1 653.084 102.9936)" class="st6 st7 st8">Hero image</text>
<text transform="matrix(1 0 0 1 50.7511 110.8745)"><tspan x="0" y="0" class="st6 st7 st8">Page </tspan><tspan x="-45.1" y="16.4" class="st6 st7 st8">introduction</tspan></text>
<text transform="matrix(1 0 0 1 32.6867 161.1788)"><tspan x="0" y="0" class="st6 st7 st8">Primary</tspan><tspan x="-28.7" y="16.4" class="st6 st7 st8">call to action</tspan></text>
<text transform="matrix(1 0 0 1 23.8801 38.0476)" class="st6 st7 st8">Page title</text>
<line id="Line_2" class="st5" x1="92" y1="115.5" x2="177" y2="115.5"/>
</svg>
