<svg width="731" height="194" viewBox="0 0 731 194" fill="none" xmlns="http://www.w3.org/2000/svg">
<g id="hero-banner-guide">
<path id="Background image" d="M654.084 98V89.3281H657.031C657.902 89.3281 658.564 89.4922 659.018 89.8203C659.475 90.1484 659.703 90.627 659.703 91.2559C659.703 92.2988 659.01 93.0371 657.623 93.4707C659.244 93.8652 660.055 94.6602 660.055 95.8555C660.055 96.5469 659.816 97.0781 659.34 97.4492C658.867 97.8164 658.188 98 657.301 98H654.084ZM655.783 92.9375H656.211C656.719 92.9375 657.121 92.8125 657.418 92.5625C657.719 92.3125 657.869 91.9727 657.869 91.543C657.869 91.1445 657.748 90.875 657.506 90.7344C657.268 90.5898 656.814 90.5176 656.146 90.5176H655.783V92.9375ZM655.783 96.7695H656.17C656.928 96.7695 657.449 96.6895 657.734 96.5293C658.023 96.3652 658.168 96.0684 658.168 95.6387C658.168 95.1973 657.975 94.8301 657.588 94.5371C657.205 94.2441 656.721 94.0977 656.135 94.0977H655.783V96.7695ZM664.795 97.3086C664.217 97.8672 663.598 98.1465 662.938 98.1465C662.375 98.1465 661.918 97.9746 661.566 97.6309C661.215 97.2871 661.039 96.8418 661.039 96.2949C661.039 95.584 661.322 95.0371 661.889 94.6543C662.459 94.2676 663.273 94.0742 664.332 94.0742H664.795V93.4883C664.795 92.8203 664.414 92.4863 663.652 92.4863C662.977 92.4863 662.293 92.6777 661.602 93.0605V91.8652C662.387 91.5684 663.164 91.4199 663.934 91.4199C665.617 91.4199 666.459 92.0898 666.459 93.4297V96.2773C666.459 96.7812 666.621 97.0332 666.945 97.0332C667.004 97.0332 667.08 97.0254 667.174 97.0098L667.215 97.9824C666.848 98.0918 666.523 98.1465 666.242 98.1465C665.531 98.1465 665.074 97.8672 664.871 97.3086H664.795ZM664.795 96.377V95.0703H664.385C663.264 95.0703 662.703 95.4219 662.703 96.125C662.703 96.3633 662.783 96.5645 662.943 96.7285C663.107 96.8887 663.309 96.9688 663.547 96.9688C663.953 96.9688 664.369 96.7715 664.795 96.377ZM673.443 97.8594C672.725 98.0508 672.059 98.1465 671.445 98.1465C670.418 98.1465 669.605 97.8457 669.008 97.2441C668.414 96.6387 668.117 95.8164 668.117 94.7773C668.117 93.7266 668.424 92.9043 669.037 92.3105C669.65 91.7168 670.498 91.4199 671.58 91.4199C672.104 91.4199 672.707 91.5039 673.391 91.6719V92.9258C672.68 92.6953 672.111 92.5801 671.686 92.5801C671.166 92.5801 670.748 92.7793 670.432 93.1777C670.115 93.5762 669.957 94.1055 669.957 94.7656C669.957 95.4414 670.127 95.9824 670.467 96.3887C670.811 96.7949 671.268 96.998 671.838 96.998C672.357 96.998 672.893 96.8848 673.443 96.6582V97.8594ZM675.084 98V88.748H676.818V94.5664H676.93L679.221 91.5664H680.662L678.547 94.3203L681.324 98H679.215L676.93 94.7832H676.818V98H675.084ZM682.725 99.998L682.865 98.7383C683.58 99.0664 684.262 99.2305 684.91 99.2305C685.551 99.2305 686.014 99.0938 686.299 98.8203C686.584 98.5469 686.727 98.1035 686.727 97.4902V96.6113C686.305 97.5371 685.607 98 684.635 98C683.869 98 683.262 97.7148 682.812 97.1445C682.363 96.5703 682.139 95.7949 682.139 94.8184C682.139 93.791 682.391 92.9688 682.895 92.3516C683.398 91.7305 684.068 91.4199 684.904 91.4199C685.561 91.4199 686.168 91.6855 686.727 92.2168L686.908 91.5664H688.467V96.4766C688.467 97.457 688.406 98.1641 688.285 98.5977C688.168 99.0312 687.938 99.4004 687.594 99.7051C687.016 100.205 686.201 100.455 685.15 100.455C684.404 100.455 683.596 100.303 682.725 99.998ZM686.727 95.6035V93.2305C686.309 92.7578 685.871 92.5215 685.414 92.5215C684.977 92.5215 684.629 92.7207 684.371 93.1191C684.113 93.5176 683.984 94.0527 683.984 94.7246C683.984 95.9824 684.389 96.6113 685.197 96.6113C685.756 96.6113 686.266 96.2754 686.727 95.6035ZM690.6 98V91.5664H692.334V92.7793C692.783 91.873 693.467 91.4199 694.385 91.4199C694.494 91.4199 694.602 91.4316 694.707 91.4551V93.002C694.461 92.9121 694.232 92.8672 694.021 92.8672C693.33 92.8672 692.768 93.2168 692.334 93.916V98H690.6ZM698.762 98.1465C697.758 98.1465 696.959 97.8438 696.365 97.2383C695.775 96.6289 695.48 95.8105 695.48 94.7832C695.48 93.7441 695.777 92.9238 696.371 92.3223C696.969 91.7207 697.779 91.4199 698.803 91.4199C699.83 91.4199 700.641 91.7207 701.234 92.3223C701.832 92.9238 702.131 93.7402 702.131 94.7715C702.131 95.8262 701.832 96.6523 701.234 97.25C700.637 97.8477 699.812 98.1465 698.762 98.1465ZM698.791 97.0625C699.787 97.0625 700.285 96.2988 700.285 94.7715C700.285 94.0723 700.152 93.5195 699.887 93.1133C699.625 92.707 699.264 92.5039 698.803 92.5039C698.346 92.5039 697.984 92.707 697.719 93.1133C697.457 93.5195 697.326 94.0762 697.326 94.7832C697.326 95.4824 697.457 96.0371 697.719 96.4473C697.98 96.8574 698.338 97.0625 698.791 97.0625ZM707.703 98V96.7871C707.141 97.6934 706.41 98.1465 705.512 98.1465C704.938 98.1465 704.484 97.9648 704.152 97.6016C703.82 97.2383 703.654 96.7422 703.654 96.1133V91.5664H705.389V95.6855C705.389 96.416 705.633 96.7812 706.121 96.7812C706.668 96.7812 707.195 96.3926 707.703 95.6152V91.5664H709.438V98H707.703ZM711.611 98V91.5664H713.346V92.7793C713.912 91.873 714.643 91.4199 715.537 91.4199C716.111 91.4199 716.564 91.6016 716.896 91.9648C717.229 92.3281 717.395 92.8242 717.395 93.4531V98H715.66V93.8809C715.66 93.1504 715.418 92.7852 714.934 92.7852C714.383 92.7852 713.854 93.1738 713.346 93.9512V98H711.611ZM723.547 98V96.7871C723.102 97.6934 722.4 98.1465 721.443 98.1465C720.67 98.1465 720.062 97.8633 719.621 97.2969C719.18 96.7305 718.959 95.9512 718.959 94.959C718.959 93.8809 719.207 93.0215 719.703 92.3809C720.203 91.7402 720.873 91.4199 721.713 91.4199C722.385 91.4199 722.996 91.6855 723.547 92.2168V88.748H725.287V98H723.547ZM723.547 93.248C723.129 92.7793 722.682 92.5449 722.205 92.5449C721.779 92.5449 721.439 92.75 721.186 93.1602C720.932 93.5703 720.805 94.1211 720.805 94.8125C720.805 96.1289 721.227 96.7871 722.07 96.7871C722.586 96.7871 723.078 96.457 723.547 95.7969V93.248ZM654.084 112V105.566H655.818V112H654.084ZM654.084 104.482V103.035H655.818V104.482H654.084ZM657.986 112V105.566H659.65V106.779C660.158 105.873 660.881 105.42 661.818 105.42C662.303 105.42 662.701 105.539 663.014 105.777C663.326 106.016 663.518 106.35 663.588 106.779C664.189 105.873 664.916 105.42 665.768 105.42C666.943 105.42 667.531 106.068 667.531 107.365V112H665.867V107.934C665.867 107.172 665.613 106.791 665.105 106.791C664.586 106.791 664.08 107.166 663.588 107.916V112H661.924V107.934C661.924 107.168 661.668 106.785 661.156 106.785C660.645 106.785 660.143 107.162 659.65 107.916V112H657.986ZM672.775 111.309C672.197 111.867 671.578 112.146 670.918 112.146C670.355 112.146 669.898 111.975 669.547 111.631C669.195 111.287 669.02 110.842 669.02 110.295C669.02 109.584 669.303 109.037 669.869 108.654C670.439 108.268 671.254 108.074 672.312 108.074H672.775V107.488C672.775 106.82 672.395 106.486 671.633 106.486C670.957 106.486 670.273 106.678 669.582 107.061V105.865C670.367 105.568 671.145 105.42 671.914 105.42C673.598 105.42 674.439 106.09 674.439 107.43V110.277C674.439 110.781 674.602 111.033 674.926 111.033C674.984 111.033 675.061 111.025 675.154 111.01L675.195 111.982C674.828 112.092 674.504 112.146 674.223 112.146C673.512 112.146 673.055 111.867 672.852 111.309H672.775ZM672.775 110.377V109.07H672.365C671.244 109.07 670.684 109.422 670.684 110.125C670.684 110.363 670.764 110.564 670.924 110.729C671.088 110.889 671.289 110.969 671.527 110.969C671.934 110.969 672.35 110.771 672.775 110.377ZM676.725 113.998L676.865 112.738C677.58 113.066 678.262 113.23 678.91 113.23C679.551 113.23 680.014 113.094 680.299 112.82C680.584 112.547 680.727 112.104 680.727 111.49V110.611C680.305 111.537 679.607 112 678.635 112C677.869 112 677.262 111.715 676.812 111.145C676.363 110.57 676.139 109.795 676.139 108.818C676.139 107.791 676.391 106.969 676.895 106.352C677.398 105.73 678.068 105.42 678.904 105.42C679.561 105.42 680.168 105.686 680.727 106.217L680.908 105.566H682.467V110.477C682.467 111.457 682.406 112.164 682.285 112.598C682.168 113.031 681.938 113.4 681.594 113.705C681.016 114.205 680.201 114.455 679.15 114.455C678.404 114.455 677.596 114.303 676.725 113.998ZM680.727 109.604V107.23C680.309 106.758 679.871 106.521 679.414 106.521C678.977 106.521 678.629 106.721 678.371 107.119C678.113 107.518 677.984 108.053 677.984 108.725C677.984 109.982 678.389 110.611 679.197 110.611C679.756 110.611 680.266 110.275 680.727 109.604ZM689.838 111.783C689.014 112.025 688.232 112.146 687.494 112.146C686.42 112.146 685.572 111.842 684.951 111.232C684.33 110.623 684.02 109.791 684.02 108.736C684.02 107.74 684.303 106.939 684.869 106.334C685.439 105.725 686.191 105.42 687.125 105.42C688.066 105.42 688.754 105.717 689.188 106.311C689.621 106.904 689.838 107.844 689.838 109.129H685.848C685.965 110.355 686.639 110.969 687.869 110.969C688.451 110.969 689.107 110.834 689.838 110.564V111.783ZM685.824 108.15H688.133C688.133 107.053 687.779 106.504 687.072 106.504C686.354 106.504 685.938 107.053 685.824 108.15Z" fill="#4F4F4F"/>
<path id="Page title" d="M23.1934 39V30.3281H26.2168C27.2715 30.3281 28.0234 30.5059 28.4727 30.8613C28.9258 31.2129 29.1523 31.8027 29.1523 32.6309C29.1523 33.5684 28.8496 34.2988 28.2441 34.8223C27.6426 35.3418 26.7988 35.6016 25.7129 35.6016H24.9629V39H23.1934ZM24.9629 34.4121H25.3145C25.9316 34.4121 26.418 34.2695 26.7734 33.9844C27.1328 33.6953 27.3125 33.3047 27.3125 32.8125C27.3125 31.9492 26.7637 31.5176 25.666 31.5176H24.9629V34.4121ZM33.7051 38.3086C33.127 38.8672 32.5078 39.1465 31.8477 39.1465C31.2852 39.1465 30.8281 38.9746 30.4766 38.6309C30.125 38.2871 29.9492 37.8418 29.9492 37.2949C29.9492 36.584 30.2324 36.0371 30.7988 35.6543C31.3691 35.2676 32.1836 35.0742 33.2422 35.0742H33.7051V34.4883C33.7051 33.8203 33.3242 33.4863 32.5625 33.4863C31.8867 33.4863 31.2031 33.6777 30.5117 34.0605V32.8652C31.2969 32.5684 32.0742 32.4199 32.8438 32.4199C34.5273 32.4199 35.3691 33.0898 35.3691 34.4297V37.2773C35.3691 37.7812 35.5312 38.0332 35.8555 38.0332C35.9141 38.0332 35.9902 38.0254 36.084 38.0098L36.125 38.9824C35.7578 39.0918 35.4336 39.1465 35.1523 39.1465C34.4414 39.1465 33.9844 38.8672 33.7812 38.3086H33.7051ZM33.7051 37.377V36.0703H33.2949C32.1738 36.0703 31.6133 36.4219 31.6133 37.125C31.6133 37.3633 31.6934 37.5645 31.8535 37.7285C32.0176 37.8887 32.2188 37.9688 32.457 37.9688C32.8633 37.9688 33.2793 37.7715 33.7051 37.377ZM37.6543 40.998L37.7949 39.7383C38.5098 40.0664 39.1914 40.2305 39.8398 40.2305C40.4805 40.2305 40.9434 40.0938 41.2285 39.8203C41.5137 39.5469 41.6562 39.1035 41.6562 38.4902V37.6113C41.2344 38.5371 40.5371 39 39.5645 39C38.7988 39 38.1914 38.7148 37.7422 38.1445C37.293 37.5703 37.0684 36.7949 37.0684 35.8184C37.0684 34.791 37.3203 33.9688 37.8242 33.3516C38.3281 32.7305 38.998 32.4199 39.834 32.4199C40.4902 32.4199 41.0977 32.6855 41.6562 33.2168L41.8379 32.5664H43.3965V37.4766C43.3965 38.457 43.3359 39.1641 43.2148 39.5977C43.0977 40.0312 42.8672 40.4004 42.5234 40.7051C41.9453 41.2051 41.1309 41.4551 40.0801 41.4551C39.334 41.4551 38.5254 41.3027 37.6543 40.998ZM41.6562 36.6035V34.2305C41.2383 33.7578 40.8008 33.5215 40.3438 33.5215C39.9062 33.5215 39.5586 33.7207 39.3008 34.1191C39.043 34.5176 38.9141 35.0527 38.9141 35.7246C38.9141 36.9824 39.3184 37.6113 40.127 37.6113C40.6855 37.6113 41.1953 37.2754 41.6562 36.6035ZM50.7676 38.7832C49.9434 39.0254 49.1621 39.1465 48.4238 39.1465C47.3496 39.1465 46.502 38.8418 45.8809 38.2324C45.2598 37.623 44.9492 36.791 44.9492 35.7363C44.9492 34.7402 45.2324 33.9395 45.7988 33.334C46.3691 32.7246 47.1211 32.4199 48.0547 32.4199C48.9961 32.4199 49.6836 32.7168 50.1172 33.3105C50.5508 33.9043 50.7676 34.8438 50.7676 36.1289H46.7773C46.8945 37.3555 47.5684 37.9688 48.7988 37.9688C49.3809 37.9688 50.0371 37.834 50.7676 37.5645V38.7832ZM46.7539 35.1504H49.0625C49.0625 34.0527 48.709 33.5039 48.002 33.5039C47.2832 33.5039 46.8672 34.0527 46.7539 35.1504ZM59.8379 38.9648C59.4238 39.0859 59.0977 39.1465 58.8594 39.1465C57.3555 39.1465 56.6035 38.4434 56.6035 37.0371V33.6504H55.8828V32.5664H56.6035V31.4824L58.3379 31.2832V32.5664H59.7148V33.6504H58.3379V36.8086C58.3379 37.5977 58.6602 37.9922 59.3047 37.9922C59.4531 37.9922 59.6309 37.9648 59.8379 37.9102V38.9648ZM61.3848 39V32.5664H63.1191V39H61.3848ZM61.3848 31.4824V30.0352H63.1191V31.4824H61.3848ZM68.6035 38.9648C68.1895 39.0859 67.8633 39.1465 67.625 39.1465C66.1211 39.1465 65.3691 38.4434 65.3691 37.0371V33.6504H64.6484V32.5664H65.3691V31.4824L67.1035 31.2832V32.5664H68.4805V33.6504H67.1035V36.8086C67.1035 37.5977 67.4258 37.9922 68.0703 37.9922C68.2188 37.9922 68.3965 37.9648 68.6035 37.9102V38.9648ZM70.1504 39V29.748H71.8848V39H70.1504ZM79.291 38.7832C78.4668 39.0254 77.6855 39.1465 76.9473 39.1465C75.873 39.1465 75.0254 38.8418 74.4043 38.2324C73.7832 37.623 73.4727 36.791 73.4727 35.7363C73.4727 34.7402 73.7559 33.9395 74.3223 33.334C74.8926 32.7246 75.6445 32.4199 76.5781 32.4199C77.5195 32.4199 78.207 32.7168 78.6406 33.3105C79.0742 33.9043 79.291 34.8438 79.291 36.1289H75.3008C75.418 37.3555 76.0918 37.9688 77.3223 37.9688C77.9043 37.9688 78.5605 37.834 79.291 37.5645V38.7832ZM75.2773 35.1504H77.5859C77.5859 34.0527 77.2324 33.5039 76.5254 33.5039C75.8066 33.5039 75.3906 34.0527 75.2773 35.1504Z" fill="#4F4F4F"/>
<path id="Page &#226;&#128;&#168;introduction" d="M47.7559 115V106.328H50.7793C51.834 106.328 52.5859 106.506 53.0352 106.861C53.4883 107.213 53.7148 107.803 53.7148 108.631C53.7148 109.568 53.4121 110.299 52.8066 110.822C52.2051 111.342 51.3613 111.602 50.2754 111.602H49.5254V115H47.7559ZM49.5254 110.412H49.877C50.4941 110.412 50.9805 110.27 51.3359 109.984C51.6953 109.695 51.875 109.305 51.875 108.812C51.875 107.949 51.3262 107.518 50.2285 107.518H49.5254V110.412ZM58.2676 114.309C57.6895 114.867 57.0703 115.146 56.4102 115.146C55.8477 115.146 55.3906 114.975 55.0391 114.631C54.6875 114.287 54.5117 113.842 54.5117 113.295C54.5117 112.584 54.7949 112.037 55.3613 111.654C55.9316 111.268 56.7461 111.074 57.8047 111.074H58.2676V110.488C58.2676 109.82 57.8867 109.486 57.125 109.486C56.4492 109.486 55.7656 109.678 55.0742 110.061V108.865C55.8594 108.568 56.6367 108.42 57.4062 108.42C59.0898 108.42 59.9316 109.09 59.9316 110.43V113.277C59.9316 113.781 60.0938 114.033 60.418 114.033C60.4766 114.033 60.5527 114.025 60.6465 114.01L60.6875 114.982C60.3203 115.092 59.9961 115.146 59.7148 115.146C59.0039 115.146 58.5469 114.867 58.3438 114.309H58.2676ZM58.2676 113.377V112.07H57.8574C56.7363 112.07 56.1758 112.422 56.1758 113.125C56.1758 113.363 56.2559 113.564 56.416 113.729C56.5801 113.889 56.7812 113.969 57.0195 113.969C57.4258 113.969 57.8418 113.771 58.2676 113.377ZM62.2168 116.998L62.3574 115.738C63.0723 116.066 63.7539 116.23 64.4023 116.23C65.043 116.23 65.5059 116.094 65.791 115.82C66.0762 115.547 66.2188 115.104 66.2188 114.49V113.611C65.7969 114.537 65.0996 115 64.127 115C63.3613 115 62.7539 114.715 62.3047 114.145C61.8555 113.57 61.6309 112.795 61.6309 111.818C61.6309 110.791 61.8828 109.969 62.3867 109.352C62.8906 108.73 63.5605 108.42 64.3965 108.42C65.0527 108.42 65.6602 108.686 66.2188 109.217L66.4004 108.566H67.959V113.477C67.959 114.457 67.8984 115.164 67.7773 115.598C67.6602 116.031 67.4297 116.4 67.0859 116.705C66.5078 117.205 65.6934 117.455 64.6426 117.455C63.8965 117.455 63.0879 117.303 62.2168 116.998ZM66.2188 112.604V110.23C65.8008 109.758 65.3633 109.521 64.9062 109.521C64.4688 109.521 64.1211 109.721 63.8633 110.119C63.6055 110.518 63.4766 111.053 63.4766 111.725C63.4766 112.982 63.8809 113.611 64.6895 113.611C65.248 113.611 65.7578 113.275 66.2188 112.604ZM75.3301 114.783C74.5059 115.025 73.7246 115.146 72.9863 115.146C71.9121 115.146 71.0645 114.842 70.4434 114.232C69.8223 113.623 69.5117 112.791 69.5117 111.736C69.5117 110.74 69.7949 109.939 70.3613 109.334C70.9316 108.725 71.6836 108.42 72.6172 108.42C73.5586 108.42 74.2461 108.717 74.6797 109.311C75.1133 109.904 75.3301 110.844 75.3301 112.129H71.3398C71.457 113.355 72.1309 113.969 73.3613 113.969C73.9434 113.969 74.5996 113.834 75.3301 113.564V114.783ZM71.3164 111.15H73.625C73.625 110.053 73.2715 109.504 72.5645 109.504C71.8457 109.504 71.4297 110.053 71.3164 111.15ZM4.75977 129V122.566H6.49414V129H4.75977ZM4.75977 121.482V120.035H6.49414V121.482H4.75977ZM8.66211 129V122.566H10.3965V123.779C10.9629 122.873 11.6934 122.42 12.5879 122.42C13.1621 122.42 13.6152 122.602 13.9473 122.965C14.2793 123.328 14.4453 123.824 14.4453 124.453V129H12.7109V124.881C12.7109 124.15 12.4688 123.785 11.9844 123.785C11.4336 123.785 10.9043 124.174 10.3965 124.951V129H8.66211ZM19.8652 128.965C19.4512 129.086 19.125 129.146 18.8867 129.146C17.3828 129.146 16.6309 128.443 16.6309 127.037V123.65H15.9102V122.566H16.6309V121.482L18.3652 121.283V122.566H19.7422V123.65H18.3652V126.809C18.3652 127.598 18.6875 127.992 19.332 127.992C19.4805 127.992 19.6582 127.965 19.8652 127.91V128.965ZM21.4121 129V122.566H23.1465V123.779C23.5957 122.873 24.2793 122.42 25.1973 122.42C25.3066 122.42 25.4141 122.432 25.5195 122.455V124.002C25.2734 123.912 25.0449 123.867 24.834 123.867C24.1426 123.867 23.5801 124.217 23.1465 124.916V129H21.4121ZM29.5742 129.146C28.5703 129.146 27.7715 128.844 27.1777 128.238C26.5879 127.629 26.293 126.811 26.293 125.783C26.293 124.744 26.5898 123.924 27.1836 123.322C27.7812 122.721 28.5918 122.42 29.6152 122.42C30.6426 122.42 31.4531 122.721 32.0469 123.322C32.6445 123.924 32.9434 124.74 32.9434 125.771C32.9434 126.826 32.6445 127.652 32.0469 128.25C31.4492 128.848 30.625 129.146 29.5742 129.146ZM29.6035 128.062C30.5996 128.062 31.0977 127.299 31.0977 125.771C31.0977 125.072 30.9648 124.52 30.6992 124.113C30.4375 123.707 30.0762 123.504 29.6152 123.504C29.1582 123.504 28.7969 123.707 28.5312 124.113C28.2695 124.52 28.1387 125.076 28.1387 125.783C28.1387 126.482 28.2695 127.037 28.5312 127.447C28.793 127.857 29.1504 128.062 29.6035 128.062ZM38.5859 129V127.787C38.1406 128.693 37.4395 129.146 36.4824 129.146C35.709 129.146 35.1016 128.863 34.6602 128.297C34.2188 127.73 33.998 126.951 33.998 125.959C33.998 124.881 34.2461 124.021 34.7422 123.381C35.2422 122.74 35.9121 122.42 36.752 122.42C37.4238 122.42 38.0352 122.686 38.5859 123.217V119.748H40.3262V129H38.5859ZM38.5859 124.248C38.168 123.779 37.7207 123.545 37.2441 123.545C36.8184 123.545 36.4785 123.75 36.2246 124.16C35.9707 124.57 35.8438 125.121 35.8438 125.812C35.8438 127.129 36.2656 127.787 37.1094 127.787C37.625 127.787 38.1172 127.457 38.5859 126.797V124.248ZM46.4727 129V127.787C45.9102 128.693 45.1797 129.146 44.2812 129.146C43.707 129.146 43.2539 128.965 42.9219 128.602C42.5898 128.238 42.4238 127.742 42.4238 127.113V122.566H44.1582V126.686C44.1582 127.416 44.4023 127.781 44.8906 127.781C45.4375 127.781 45.9648 127.393 46.4727 126.615V122.566H48.207V129H46.4727ZM55.127 128.859C54.4082 129.051 53.7422 129.146 53.1289 129.146C52.1016 129.146 51.2891 128.846 50.6914 128.244C50.0977 127.639 49.8008 126.816 49.8008 125.777C49.8008 124.727 50.1074 123.904 50.7207 123.311C51.334 122.717 52.1816 122.42 53.2637 122.42C53.7871 122.42 54.3906 122.504 55.0742 122.672V123.926C54.3633 123.695 53.7949 123.58 53.3691 123.58C52.8496 123.58 52.4316 123.779 52.1152 124.178C51.7988 124.576 51.6406 125.105 51.6406 125.766C51.6406 126.441 51.8105 126.982 52.1504 127.389C52.4941 127.795 52.9512 127.998 53.5215 127.998C54.041 127.998 54.5762 127.885 55.127 127.658V128.859ZM60.084 128.965C59.6699 129.086 59.3438 129.146 59.1055 129.146C57.6016 129.146 56.8496 128.443 56.8496 127.037V123.65H56.1289V122.566H56.8496V121.482L58.584 121.283V122.566H59.9609V123.65H58.584V126.809C58.584 127.598 58.9062 127.992 59.5508 127.992C59.6992 127.992 59.877 127.965 60.084 127.91V128.965ZM61.6309 129V122.566H63.3652V129H61.6309ZM61.6309 121.482V120.035H63.3652V121.482H61.6309ZM68.2344 129.146C67.2305 129.146 66.4316 128.844 65.8379 128.238C65.248 127.629 64.9531 126.811 64.9531 125.783C64.9531 124.744 65.25 123.924 65.8438 123.322C66.4414 122.721 67.252 122.42 68.2754 122.42C69.3027 122.42 70.1133 122.721 70.707 123.322C71.3047 123.924 71.6035 124.74 71.6035 125.771C71.6035 126.826 71.3047 127.652 70.707 128.25C70.1094 128.848 69.2852 129.146 68.2344 129.146ZM68.2637 128.062C69.2598 128.062 69.7578 127.299 69.7578 125.771C69.7578 125.072 69.625 124.52 69.3594 124.113C69.0977 123.707 68.7363 123.504 68.2754 123.504C67.8184 123.504 67.457 123.707 67.1914 124.113C66.9297 124.52 66.7988 125.076 66.7988 125.783C66.7988 126.482 66.9297 127.037 67.1914 127.447C67.4531 127.857 67.8105 128.062 68.2637 128.062ZM73.1973 129V122.566H74.9316V123.779C75.498 122.873 76.2285 122.42 77.123 122.42C77.6973 122.42 78.1504 122.602 78.4824 122.965C78.8145 123.328 78.9805 123.824 78.9805 124.453V129H77.2461V124.881C77.2461 124.15 77.0039 123.785 76.5195 123.785C75.9688 123.785 75.4395 124.174 74.9316 124.951V129H73.1973Z" fill="#4F4F4F"/>
<path id="Vector 3" d="M387.5 99.5C319 140 130.5 150 108 146.5V191.5H608L610 99.5L541.5 38L463.5 94.5L434.5 70L387.5 99.5Z" fill="#506583" fill-opacity="0.55"/>
<path id="Primary&#226;&#128;&#168;call to action" d="M33.2129 171V162.328H36.2363C37.291 162.328 38.043 162.506 38.4922 162.861C38.9453 163.213 39.1719 163.803 39.1719 164.631C39.1719 165.568 38.8691 166.299 38.2637 166.822C37.6621 167.342 36.8184 167.602 35.7324 167.602H34.9824V171H33.2129ZM34.9824 166.412H35.334C35.9512 166.412 36.4375 166.27 36.793 165.984C37.1523 165.695 37.332 165.305 37.332 164.812C37.332 163.949 36.7832 163.518 35.6855 163.518H34.9824V166.412ZM40.5723 171V164.566H42.3066V165.779C42.7559 164.873 43.4395 164.42 44.3574 164.42C44.4668 164.42 44.5742 164.432 44.6797 164.455V166.002C44.4336 165.912 44.2051 165.867 43.9941 165.867C43.3027 165.867 42.7402 166.217 42.3066 166.916V171H40.5723ZM46.0332 171V164.566H47.7676V171H46.0332ZM46.0332 163.482V162.035H47.7676V163.482H46.0332ZM49.9355 171V164.566H51.5996V165.779C52.1074 164.873 52.8301 164.42 53.7676 164.42C54.252 164.42 54.6504 164.539 54.9629 164.777C55.2754 165.016 55.4668 165.35 55.5371 165.779C56.1387 164.873 56.8652 164.42 57.7168 164.42C58.8926 164.42 59.4805 165.068 59.4805 166.365V171H57.8164V166.934C57.8164 166.172 57.5625 165.791 57.0547 165.791C56.5352 165.791 56.0293 166.166 55.5371 166.916V171H53.873V166.934C53.873 166.168 53.6172 165.785 53.1055 165.785C52.5938 165.785 52.0918 166.162 51.5996 166.916V171H49.9355ZM64.7246 170.309C64.1465 170.867 63.5273 171.146 62.8672 171.146C62.3047 171.146 61.8477 170.975 61.4961 170.631C61.1445 170.287 60.9688 169.842 60.9688 169.295C60.9688 168.584 61.252 168.037 61.8184 167.654C62.3887 167.268 63.2031 167.074 64.2617 167.074H64.7246V166.488C64.7246 165.82 64.3438 165.486 63.582 165.486C62.9062 165.486 62.2227 165.678 61.5312 166.061V164.865C62.3164 164.568 63.0938 164.42 63.8633 164.42C65.5469 164.42 66.3887 165.09 66.3887 166.43V169.277C66.3887 169.781 66.5508 170.033 66.875 170.033C66.9336 170.033 67.0098 170.025 67.1035 170.01L67.1445 170.982C66.7773 171.092 66.4531 171.146 66.1719 171.146C65.4609 171.146 65.0039 170.867 64.8008 170.309H64.7246ZM64.7246 169.377V168.07H64.3145C63.1934 168.07 62.6328 168.422 62.6328 169.125C62.6328 169.363 62.7129 169.564 62.873 169.729C63.0371 169.889 63.2383 169.969 63.4766 169.969C63.8828 169.969 64.2988 169.771 64.7246 169.377ZM68.627 171V164.566H70.3613V165.779C70.8105 164.873 71.4941 164.42 72.4121 164.42C72.5215 164.42 72.6289 164.432 72.7344 164.455V166.002C72.4883 165.912 72.2598 165.867 72.0488 165.867C71.3574 165.867 70.7949 166.217 70.3613 166.916V171H68.627ZM74.1113 173.314L75.5703 171L73.1855 164.566H75.0488L76.6426 168.867L78.5352 164.566H79.8535L75.8809 173.314H74.1113ZM6.37695 184.859C5.6582 185.051 4.99219 185.146 4.37891 185.146C3.35156 185.146 2.53906 184.846 1.94141 184.244C1.34766 183.639 1.05078 182.816 1.05078 181.777C1.05078 180.727 1.35742 179.904 1.9707 179.311C2.58398 178.717 3.43164 178.42 4.51367 178.42C5.03711 178.42 5.64062 178.504 6.32422 178.672V179.926C5.61328 179.695 5.04492 179.58 4.61914 179.58C4.09961 179.58 3.68164 179.779 3.36523 180.178C3.04883 180.576 2.89062 181.105 2.89062 181.766C2.89062 182.441 3.06055 182.982 3.40039 183.389C3.74414 183.795 4.20117 183.998 4.77148 183.998C5.29102 183.998 5.82617 183.885 6.37695 183.658V184.859ZM11.1699 184.309C10.5918 184.867 9.97266 185.146 9.3125 185.146C8.75 185.146 8.29297 184.975 7.94141 184.631C7.58984 184.287 7.41406 183.842 7.41406 183.295C7.41406 182.584 7.69727 182.037 8.26367 181.654C8.83398 181.268 9.64844 181.074 10.707 181.074H11.1699V180.488C11.1699 179.82 10.7891 179.486 10.0273 179.486C9.35156 179.486 8.66797 179.678 7.97656 180.061V178.865C8.76172 178.568 9.53906 178.42 10.3086 178.42C11.9922 178.42 12.834 179.09 12.834 180.43V183.277C12.834 183.781 12.9961 184.033 13.3203 184.033C13.3789 184.033 13.4551 184.025 13.5488 184.01L13.5898 184.982C13.2227 185.092 12.8984 185.146 12.6172 185.146C11.9062 185.146 11.4492 184.867 11.2461 184.309H11.1699ZM11.1699 183.377V182.07H10.7598C9.63867 182.07 9.07812 182.422 9.07812 183.125C9.07812 183.363 9.1582 183.564 9.31836 183.729C9.48242 183.889 9.68359 183.969 9.92188 183.969C10.3281 183.969 10.7441 183.771 11.1699 183.377ZM15.0723 185V175.748H16.8066V185H15.0723ZM18.9746 185V175.748H20.709V185H18.9746ZM30.1543 184.965C29.7402 185.086 29.4141 185.146 29.1758 185.146C27.6719 185.146 26.9199 184.443 26.9199 183.037V179.65H26.1992V178.566H26.9199V177.482L28.6543 177.283V178.566H30.0312V179.65H28.6543V182.809C28.6543 183.598 28.9766 183.992 29.6211 183.992C29.7695 183.992 29.9473 183.965 30.1543 183.91V184.965ZM34.4023 185.146C33.3984 185.146 32.5996 184.844 32.0059 184.238C31.416 183.629 31.1211 182.811 31.1211 181.783C31.1211 180.744 31.418 179.924 32.0117 179.322C32.6094 178.721 33.4199 178.42 34.4434 178.42C35.4707 178.42 36.2812 178.721 36.875 179.322C37.4727 179.924 37.7715 180.74 37.7715 181.771C37.7715 182.826 37.4727 183.652 36.875 184.25C36.2773 184.848 35.4531 185.146 34.4023 185.146ZM34.4316 184.062C35.4277 184.062 35.9258 183.299 35.9258 181.771C35.9258 181.072 35.793 180.52 35.5273 180.113C35.2656 179.707 34.9043 179.504 34.4434 179.504C33.9863 179.504 33.625 179.707 33.3594 180.113C33.0977 180.52 32.9668 181.076 32.9668 181.783C32.9668 182.482 33.0977 183.037 33.3594 183.447C33.6211 183.857 33.9785 184.062 34.4316 184.062ZM46.4785 184.309C45.9004 184.867 45.2812 185.146 44.6211 185.146C44.0586 185.146 43.6016 184.975 43.25 184.631C42.8984 184.287 42.7227 183.842 42.7227 183.295C42.7227 182.584 43.0059 182.037 43.5723 181.654C44.1426 181.268 44.957 181.074 46.0156 181.074H46.4785V180.488C46.4785 179.82 46.0977 179.486 45.3359 179.486C44.6602 179.486 43.9766 179.678 43.2852 180.061V178.865C44.0703 178.568 44.8477 178.42 45.6172 178.42C47.3008 178.42 48.1426 179.09 48.1426 180.43V183.277C48.1426 183.781 48.3047 184.033 48.6289 184.033C48.6875 184.033 48.7637 184.025 48.8574 184.01L48.8984 184.982C48.5312 185.092 48.207 185.146 47.9258 185.146C47.2148 185.146 46.7578 184.867 46.5547 184.309H46.4785ZM46.4785 183.377V182.07H46.0684C44.9473 182.07 44.3867 182.422 44.3867 183.125C44.3867 183.363 44.4668 183.564 44.627 183.729C44.791 183.889 44.9922 183.969 45.2305 183.969C45.6367 183.969 46.0527 183.771 46.4785 183.377ZM55.127 184.859C54.4082 185.051 53.7422 185.146 53.1289 185.146C52.1016 185.146 51.2891 184.846 50.6914 184.244C50.0977 183.639 49.8008 182.816 49.8008 181.777C49.8008 180.727 50.1074 179.904 50.7207 179.311C51.334 178.717 52.1816 178.42 53.2637 178.42C53.7871 178.42 54.3906 178.504 55.0742 178.672V179.926C54.3633 179.695 53.7949 179.58 53.3691 179.58C52.8496 179.58 52.4316 179.779 52.1152 180.178C51.7988 180.576 51.6406 181.105 51.6406 181.766C51.6406 182.441 51.8105 182.982 52.1504 183.389C52.4941 183.795 52.9512 183.998 53.5215 183.998C54.041 183.998 54.5762 183.885 55.127 183.658V184.859ZM60.084 184.965C59.6699 185.086 59.3438 185.146 59.1055 185.146C57.6016 185.146 56.8496 184.443 56.8496 183.037V179.65H56.1289V178.566H56.8496V177.482L58.584 177.283V178.566H59.9609V179.65H58.584V182.809C58.584 183.598 58.9062 183.992 59.5508 183.992C59.6992 183.992 59.877 183.965 60.084 183.91V184.965ZM61.6309 185V178.566H63.3652V185H61.6309ZM61.6309 177.482V176.035H63.3652V177.482H61.6309ZM68.2344 185.146C67.2305 185.146 66.4316 184.844 65.8379 184.238C65.248 183.629 64.9531 182.811 64.9531 181.783C64.9531 180.744 65.25 179.924 65.8438 179.322C66.4414 178.721 67.252 178.42 68.2754 178.42C69.3027 178.42 70.1133 178.721 70.707 179.322C71.3047 179.924 71.6035 180.74 71.6035 181.771C71.6035 182.826 71.3047 183.652 70.707 184.25C70.1094 184.848 69.2852 185.146 68.2344 185.146ZM68.2637 184.062C69.2598 184.062 69.7578 183.299 69.7578 181.771C69.7578 181.072 69.625 180.52 69.3594 180.113C69.0977 179.707 68.7363 179.504 68.2754 179.504C67.8184 179.504 67.457 179.707 67.1914 180.113C66.9297 180.52 66.7988 181.076 66.7988 181.783C66.7988 182.482 66.9297 183.037 67.1914 183.447C67.4531 183.857 67.8105 184.062 68.2637 184.062ZM73.1973 185V178.566H74.9316V179.779C75.498 178.873 76.2285 178.42 77.123 178.42C77.6973 178.42 78.1504 178.602 78.4824 178.965C78.8145 179.328 78.9805 179.824 78.9805 180.453V185H77.2461V180.881C77.2461 180.15 77.0039 179.785 76.5195 179.785C75.9688 179.785 75.4395 180.174 74.9316 180.951V185H73.1973Z" fill="#4F4F4F"/>
<rect id="Rectangle 8" x="164" y="3" width="222" height="188" fill="#182E4F"/>
<rect id="Rectangle 13" x="177" y="29" width="165" height="12" fill="white"/>
<rect id="Rectangle 14" x="177" y="52" width="176" height="12" fill="white"/>
<rect id="Rectangle 15" x="177" y="73" width="89" height="12" fill="white"/>
<rect id="Rectangle 11" x="177" y="157" width="55" height="20" rx="6" fill="#F2F2F2"/>
<rect id="Rectangle 5" x="177" y="114" width="185" height="5" fill="white"/>
<rect id="Rectangle 12" x="177" y="124" width="165" height="5" fill="white"/>
<rect id="Rectangle 16" x="106.5" y="1.5" width="503" height="191" rx="6.5" stroke="#506583" stroke-width="3"/>
<line id="Line 1" x1="89" y1="34.5" x2="177" y2="34.5" stroke="#060606" stroke-opacity="0.34"/>
<line id="Line 2" x1="92" y1="116.5" x2="177" y2="116.5" stroke="#060606" stroke-opacity="0.34"/>
<line id="Line 3" x1="92" y1="166.5" x2="177" y2="166.5" stroke="#060606" stroke-opacity="0.34"/>
<line id="Line 4" x1="552" y1="99.5" x2="645" y2="99.5" stroke="#060606" stroke-opacity="0.34"/>
</g>
</svg>
