<svg width="347" height="74" viewBox="0 0 347 74" fill="none" xmlns="http://www.w3.org/2000/svg">
<g id="related-benefits-guide">
<path id="Learn more about related VA benefits" d="M91.9 10.985H92.995V14H85.6V13.07L86.77 12.77V4.76L85.6 4.475V3.545L89.905 3.47V4.4L88.615 4.76V12.665H91.63L91.9 10.985ZM97.3281 14.165C96.2681 14.165 95.4081 13.825 94.7481 13.145C94.0881 12.455 93.7581 11.455 93.7581 10.145C93.7581 9.265 93.9131 8.505 94.2231 7.865C94.5431 7.215 94.9881 6.72 95.5581 6.38C96.1381 6.03 96.8231 5.855 97.6131 5.855C98.3631 5.855 98.9731 6.01 99.4431 6.32C99.9231 6.62 100.278 7.035 100.508 7.565C100.738 8.095 100.853 8.695 100.853 9.365C100.853 9.665 100.828 9.98 100.778 10.31H95.6181C95.6681 11.06 95.8631 11.665 96.2031 12.125C96.5531 12.585 97.0731 12.815 97.7631 12.815C98.1131 12.815 98.4931 12.75 98.9031 12.62C99.3131 12.49 99.7381 12.29 100.178 12.02L100.793 12.995C100.223 13.385 99.6431 13.68 99.0531 13.88C98.4631 14.07 97.8881 14.165 97.3281 14.165ZM97.4631 7.175C96.9231 7.175 96.5081 7.36 96.2181 7.73C95.9281 8.1 95.7431 8.58 95.6631 9.17H98.9931C98.9931 8.6 98.8731 8.125 98.6331 7.745C98.4031 7.365 98.0131 7.175 97.4631 7.175ZM107.091 14.105L106.866 12.83C106.466 13.28 106.031 13.615 105.561 13.835C105.091 14.055 104.631 14.165 104.181 14.165C103.561 14.165 103.041 13.97 102.621 13.58C102.211 13.18 102.006 12.6 102.006 11.84C102.006 10.98 102.276 10.385 102.816 10.055C103.366 9.715 104.126 9.545 105.096 9.545H106.686V8.57C106.686 8.08 106.561 7.73 106.311 7.52C106.061 7.3 105.706 7.19 105.246 7.19C104.846 7.19 104.391 7.265 103.881 7.415L103.716 8.525H102.561L102.441 6.425C103.741 6.045 104.836 5.855 105.726 5.855C106.606 5.855 107.286 6.05 107.766 6.44C108.246 6.82 108.486 7.42 108.486 8.24V12.755L109.551 13.055V13.985L107.091 14.105ZM103.821 11.675C103.821 12.085 103.916 12.385 104.106 12.575C104.296 12.755 104.541 12.845 104.841 12.845C105.111 12.845 105.406 12.765 105.726 12.605C106.056 12.445 106.376 12.22 106.686 11.93V10.58H105.381C104.791 10.58 104.381 10.67 104.151 10.85C103.931 11.03 103.821 11.305 103.821 11.675ZM110.236 14V13.07L111.301 12.785V7.28L110.236 6.995V6.065L112.696 5.945L112.891 7.13C113.301 6.73 113.711 6.42 114.121 6.2C114.531 5.97 114.971 5.855 115.441 5.855C115.751 5.855 116.086 5.905 116.446 6.005L116.326 8.585H115.276L115.096 7.31C115.016 7.29 114.926 7.28 114.826 7.28C114.516 7.28 114.211 7.365 113.911 7.535C113.621 7.705 113.351 7.93 113.101 8.21V12.785L114.406 13.07V14H110.236ZM117.018 14V13.07L118.083 12.785V7.28L117.018 6.995V6.065L119.478 5.945L119.673 7.13C120.133 6.7 120.618 6.38 121.128 6.17C121.638 5.96 122.118 5.855 122.568 5.855C123.238 5.855 123.793 6.065 124.233 6.485C124.683 6.905 124.903 7.54 124.893 8.39V12.785L125.958 13.07V14H122.118V13.07L123.093 12.8V8.78C123.093 8.25 122.973 7.86 122.733 7.61C122.503 7.36 122.193 7.235 121.803 7.235C121.513 7.235 121.203 7.31 120.873 7.46C120.543 7.6 120.213 7.82 119.883 8.12V12.8L120.858 13.07V14H117.018ZM133.206 13.07V14H129.411V13.07L130.476 12.785V7.28L129.411 6.995V6.065L131.871 5.945L132.066 7.13C132.516 6.71 132.991 6.395 133.491 6.185C134.001 5.965 134.481 5.855 134.931 5.855C135.371 5.855 135.766 5.96 136.116 6.17C136.466 6.38 136.731 6.705 136.911 7.145C137.371 6.715 137.851 6.395 138.351 6.185C138.861 5.965 139.341 5.855 139.791 5.855C140.411 5.855 140.931 6.065 141.351 6.485C141.781 6.895 141.996 7.525 141.996 8.375V12.785L143.061 13.07V14H139.266V13.07L140.196 12.815V8.765C140.196 8.245 140.086 7.86 139.866 7.61C139.646 7.36 139.366 7.235 139.026 7.235C138.746 7.235 138.441 7.31 138.111 7.46C137.791 7.61 137.466 7.835 137.136 8.135C137.136 8.185 137.136 8.24 137.136 8.3V12.785L138.081 13.07V14H134.406V13.07L135.336 12.815V8.765C135.336 8.245 135.226 7.86 135.006 7.61C134.786 7.36 134.506 7.235 134.166 7.235C133.886 7.235 133.581 7.31 133.251 7.46C132.921 7.6 132.596 7.82 132.276 8.12V12.8L133.206 13.07ZM147.667 5.855C148.817 5.855 149.717 6.205 150.367 6.905C151.017 7.605 151.342 8.59 151.342 9.86C151.342 10.75 151.182 11.515 150.862 12.155C150.552 12.795 150.102 13.29 149.512 13.64C148.932 13.99 148.232 14.165 147.412 14.165C146.262 14.165 145.367 13.82 144.727 13.13C144.097 12.44 143.782 11.45 143.782 10.16C143.782 8.83 144.122 7.78 144.802 7.01C145.492 6.24 146.447 5.855 147.667 5.855ZM147.577 7.145C146.297 7.145 145.657 8.12 145.657 10.07C145.657 11.03 145.812 11.74 146.122 12.2C146.432 12.65 146.892 12.875 147.502 12.875C148.162 12.875 148.657 12.625 148.987 12.125C149.317 11.625 149.482 10.9 149.482 9.95C149.482 8.08 148.847 7.145 147.577 7.145ZM152.365 14V13.07L153.43 12.785V7.28L152.365 6.995V6.065L154.825 5.945L155.02 7.13C155.43 6.73 155.84 6.42 156.25 6.2C156.66 5.97 157.1 5.855 157.57 5.855C157.88 5.855 158.215 5.905 158.575 6.005L158.455 8.585H157.405L157.225 7.31C157.145 7.29 157.055 7.28 156.955 7.28C156.645 7.28 156.34 7.365 156.04 7.535C155.75 7.705 155.48 7.93 155.23 8.21V12.785L156.535 13.07V14H152.365ZM162.646 14.165C161.586 14.165 160.726 13.825 160.066 13.145C159.406 12.455 159.076 11.455 159.076 10.145C159.076 9.265 159.231 8.505 159.541 7.865C159.861 7.215 160.306 6.72 160.876 6.38C161.456 6.03 162.141 5.855 162.931 5.855C163.681 5.855 164.291 6.01 164.761 6.32C165.241 6.62 165.596 7.035 165.826 7.565C166.056 8.095 166.171 8.695 166.171 9.365C166.171 9.665 166.146 9.98 166.096 10.31H160.936C160.986 11.06 161.181 11.665 161.521 12.125C161.871 12.585 162.391 12.815 163.081 12.815C163.431 12.815 163.811 12.75 164.221 12.62C164.631 12.49 165.056 12.29 165.496 12.02L166.111 12.995C165.541 13.385 164.961 13.68 164.371 13.88C163.781 14.07 163.206 14.165 162.646 14.165ZM162.781 7.175C162.241 7.175 161.826 7.36 161.536 7.73C161.246 8.1 161.061 8.58 160.981 9.17H164.311C164.311 8.6 164.191 8.125 163.951 7.745C163.721 7.365 163.331 7.175 162.781 7.175ZM175.206 14.105L174.981 12.83C174.581 13.28 174.146 13.615 173.676 13.835C173.206 14.055 172.746 14.165 172.296 14.165C171.676 14.165 171.156 13.97 170.736 13.58C170.326 13.18 170.121 12.6 170.121 11.84C170.121 10.98 170.391 10.385 170.931 10.055C171.481 9.715 172.241 9.545 173.211 9.545H174.801V8.57C174.801 8.08 174.676 7.73 174.426 7.52C174.176 7.3 173.821 7.19 173.361 7.19C172.961 7.19 172.506 7.265 171.996 7.415L171.831 8.525H170.676L170.556 6.425C171.856 6.045 172.951 5.855 173.841 5.855C174.721 5.855 175.401 6.05 175.881 6.44C176.361 6.82 176.601 7.42 176.601 8.24V12.755L177.666 13.055V13.985L175.206 14.105ZM171.936 11.675C171.936 12.085 172.031 12.385 172.221 12.575C172.411 12.755 172.656 12.845 172.956 12.845C173.226 12.845 173.521 12.765 173.841 12.605C174.171 12.445 174.491 12.22 174.801 11.93V10.58H173.496C172.906 10.58 172.496 10.67 172.266 10.85C172.046 11.03 171.936 11.305 171.936 11.675ZM181.606 14.165C180.836 14.165 179.966 14.065 178.996 13.865V3.695L177.931 3.41V2.48L180.796 2.36V6.83C181.146 6.52 181.516 6.28 181.906 6.11C182.306 5.94 182.721 5.855 183.151 5.855C183.721 5.855 184.226 6.01 184.666 6.32C185.116 6.62 185.466 7.07 185.716 7.67C185.976 8.27 186.106 9.005 186.106 9.875C186.106 10.725 185.961 11.475 185.671 12.125C185.381 12.765 184.906 13.265 184.246 13.625C183.596 13.985 182.716 14.165 181.606 14.165ZM181.936 12.875C182.716 12.875 183.291 12.63 183.661 12.14C184.041 11.64 184.231 10.93 184.231 10.01C184.231 9.14 184.071 8.455 183.751 7.955C183.431 7.445 183.001 7.19 182.461 7.19C181.931 7.19 181.376 7.44 180.796 7.94V12.725C181.216 12.825 181.596 12.875 181.936 12.875ZM191.085 5.855C192.235 5.855 193.135 6.205 193.785 6.905C194.435 7.605 194.76 8.59 194.76 9.86C194.76 10.75 194.6 11.515 194.28 12.155C193.97 12.795 193.52 13.29 192.93 13.64C192.35 13.99 191.65 14.165 190.83 14.165C189.68 14.165 188.785 13.82 188.145 13.13C187.515 12.44 187.2 11.45 187.2 10.16C187.2 8.83 187.54 7.78 188.22 7.01C188.91 6.24 189.865 5.855 191.085 5.855ZM190.995 7.145C189.715 7.145 189.075 8.12 189.075 10.07C189.075 11.03 189.23 11.74 189.54 12.2C189.85 12.65 190.31 12.875 190.92 12.875C191.58 12.875 192.075 12.625 192.405 12.125C192.735 11.625 192.9 10.9 192.9 9.95C192.9 8.08 192.265 7.145 190.995 7.145ZM198.873 14.165C198.203 14.165 197.643 13.955 197.193 13.535C196.753 13.105 196.533 12.455 196.533 11.585V7.28L195.483 6.995V6.065L198.333 5.96V11.285C198.333 11.795 198.448 12.175 198.678 12.425C198.918 12.665 199.233 12.785 199.623 12.785C199.903 12.785 200.208 12.715 200.538 12.575C200.878 12.425 201.218 12.2 201.558 11.9V7.28L200.508 6.995V6.065L203.358 5.96V12.77L204.423 13.055V13.985L201.963 14.09L201.753 12.905C201.283 13.335 200.798 13.655 200.298 13.865C199.798 14.065 199.323 14.165 198.873 14.165ZM208.022 14.165C207.392 14.165 206.907 13.975 206.567 13.595C206.227 13.205 206.057 12.625 206.057 11.855V7.235H204.827V6.26L206.057 6.005V4.25L207.872 3.935V6.02H209.972L209.942 7.235H207.872V11.615C207.872 12.045 207.947 12.355 208.097 12.545C208.247 12.735 208.462 12.83 208.742 12.83C209.062 12.83 209.462 12.725 209.942 12.515L210.287 13.505C209.497 13.945 208.742 14.165 208.022 14.165ZM213.742 14V13.07L214.807 12.785V7.28L213.742 6.995V6.065L216.202 5.945L216.397 7.13C216.807 6.73 217.217 6.42 217.627 6.2C218.037 5.97 218.477 5.855 218.947 5.855C219.257 5.855 219.592 5.905 219.952 6.005L219.832 8.585H218.782L218.602 7.31C218.522 7.29 218.432 7.28 218.332 7.28C218.022 7.28 217.717 7.365 217.417 7.535C217.127 7.705 216.857 7.93 216.607 8.21V12.785L217.912 13.07V14H213.742ZM224.022 14.165C222.962 14.165 222.102 13.825 221.442 13.145C220.782 12.455 220.452 11.455 220.452 10.145C220.452 9.265 220.607 8.505 220.917 7.865C221.237 7.215 221.682 6.72 222.252 6.38C222.832 6.03 223.517 5.855 224.307 5.855C225.057 5.855 225.667 6.01 226.137 6.32C226.617 6.62 226.972 7.035 227.202 7.565C227.432 8.095 227.547 8.695 227.547 9.365C227.547 9.665 227.522 9.98 227.472 10.31H222.312C222.362 11.06 222.557 11.665 222.897 12.125C223.247 12.585 223.767 12.815 224.457 12.815C224.807 12.815 225.187 12.75 225.597 12.62C226.007 12.49 226.432 12.29 226.872 12.02L227.487 12.995C226.917 13.385 226.337 13.68 225.747 13.88C225.157 14.07 224.582 14.165 224.022 14.165ZM224.157 7.175C223.617 7.175 223.202 7.36 222.912 7.73C222.622 8.1 222.437 8.58 222.357 9.17H225.687C225.687 8.6 225.567 8.125 225.327 7.745C225.097 7.365 224.707 7.175 224.157 7.175ZM232.315 13.07V14H228.4V13.07L229.45 12.785V3.68L228.4 3.41V2.48L231.25 2.36V12.785L232.315 13.07ZM238.121 14.105L237.896 12.83C237.496 13.28 237.061 13.615 236.591 13.835C236.121 14.055 235.661 14.165 235.211 14.165C234.591 14.165 234.071 13.97 233.651 13.58C233.241 13.18 233.036 12.6 233.036 11.84C233.036 10.98 233.306 10.385 233.846 10.055C234.396 9.715 235.156 9.545 236.126 9.545H237.716V8.57C237.716 8.08 237.591 7.73 237.341 7.52C237.091 7.3 236.736 7.19 236.276 7.19C235.876 7.19 235.421 7.265 234.911 7.415L234.746 8.525H233.591L233.471 6.425C234.771 6.045 235.866 5.855 236.756 5.855C237.636 5.855 238.316 6.05 238.796 6.44C239.276 6.82 239.516 7.42 239.516 8.24V12.755L240.581 13.055V13.985L238.121 14.105ZM234.851 11.675C234.851 12.085 234.946 12.385 235.136 12.575C235.326 12.755 235.571 12.845 235.871 12.845C236.141 12.845 236.436 12.765 236.756 12.605C237.086 12.445 237.406 12.22 237.716 11.93V10.58H236.411C235.821 10.58 235.411 10.67 235.181 10.85C234.961 11.03 234.851 11.305 234.851 11.675ZM244.101 14.165C243.471 14.165 242.986 13.975 242.646 13.595C242.306 13.205 242.136 12.625 242.136 11.855V7.235H240.906V6.26L242.136 6.005V4.25L243.951 3.935V6.02H246.051L246.021 7.235H243.951V11.615C243.951 12.045 244.026 12.355 244.176 12.545C244.326 12.735 244.541 12.83 244.821 12.83C245.141 12.83 245.541 12.725 246.021 12.515L246.366 13.505C245.576 13.945 244.821 14.165 244.101 14.165ZM250.434 14.165C249.374 14.165 248.514 13.825 247.854 13.145C247.194 12.455 246.864 11.455 246.864 10.145C246.864 9.265 247.019 8.505 247.329 7.865C247.649 7.215 248.094 6.72 248.664 6.38C249.244 6.03 249.929 5.855 250.719 5.855C251.469 5.855 252.079 6.01 252.549 6.32C253.029 6.62 253.384 7.035 253.614 7.565C253.844 8.095 253.959 8.695 253.959 9.365C253.959 9.665 253.934 9.98 253.884 10.31H248.724C248.774 11.06 248.969 11.665 249.309 12.125C249.659 12.585 250.179 12.815 250.869 12.815C251.219 12.815 251.599 12.75 252.009 12.62C252.419 12.49 252.844 12.29 253.284 12.02L253.899 12.995C253.329 13.385 252.749 13.68 252.159 13.88C251.569 14.07 250.994 14.165 250.434 14.165ZM250.569 7.175C250.029 7.175 249.614 7.36 249.324 7.73C249.034 8.1 248.849 8.58 248.769 9.17H252.099C252.099 8.6 251.979 8.125 251.739 7.745C251.509 7.365 251.119 7.175 250.569 7.175ZM258.051 14.165C257.481 14.165 256.971 14.015 256.521 13.715C256.081 13.405 255.731 12.955 255.471 12.365C255.211 11.765 255.081 11.035 255.081 10.175C255.081 8.725 255.451 7.645 256.191 6.935C256.931 6.215 257.961 5.855 259.281 5.855C259.621 5.855 259.996 5.89 260.406 5.96V3.725L259.266 3.395V2.48L262.206 2.36V12.77L263.256 13.055V13.985L260.796 14.09L260.601 13.025C259.771 13.785 258.921 14.165 258.051 14.165ZM258.726 12.83C259.256 12.83 259.816 12.58 260.406 12.08V7.325C259.976 7.205 259.581 7.145 259.221 7.145C258.451 7.145 257.881 7.4 257.511 7.91C257.141 8.42 256.956 9.12 256.956 10.01C256.956 10.88 257.116 11.57 257.436 12.08C257.766 12.58 258.196 12.83 258.726 12.83ZM270.548 14.015L267.413 4.73L266.378 4.475V3.545L270.668 3.47V4.4L269.468 4.7L271.688 11.975L274.088 4.745L272.903 4.475V3.545L276.818 3.47V4.4L275.783 4.685L272.498 14.015H270.548ZM279.461 13.07V14H275.621V13.07L276.596 12.785L280.076 3.5L281.951 3.44L285.236 12.785L286.196 13.07V14H282.026V13.07L283.166 12.77L282.656 11.12H278.861L278.276 12.785L279.461 13.07ZM279.266 9.83H282.281L280.871 5.15L279.266 9.83ZM292.788 14.165C292.018 14.165 291.148 14.065 290.178 13.865V3.695L289.113 3.41V2.48L291.978 2.36V6.83C292.328 6.52 292.698 6.28 293.088 6.11C293.488 5.94 293.903 5.855 294.333 5.855C294.903 5.855 295.408 6.01 295.848 6.32C296.298 6.62 296.648 7.07 296.898 7.67C297.158 8.27 297.288 9.005 297.288 9.875C297.288 10.725 297.143 11.475 296.853 12.125C296.563 12.765 296.088 13.265 295.428 13.625C294.778 13.985 293.898 14.165 292.788 14.165ZM293.118 12.875C293.898 12.875 294.473 12.63 294.843 12.14C295.223 11.64 295.413 10.93 295.413 10.01C295.413 9.14 295.253 8.455 294.933 7.955C294.613 7.445 294.183 7.19 293.643 7.19C293.113 7.19 292.558 7.44 291.978 7.94V12.725C292.398 12.825 292.778 12.875 293.118 12.875ZM301.967 14.165C300.907 14.165 300.047 13.825 299.387 13.145C298.727 12.455 298.397 11.455 298.397 10.145C298.397 9.265 298.552 8.505 298.862 7.865C299.182 7.215 299.627 6.72 300.197 6.38C300.777 6.03 301.462 5.855 302.252 5.855C303.002 5.855 303.612 6.01 304.082 6.32C304.562 6.62 304.917 7.035 305.147 7.565C305.377 8.095 305.492 8.695 305.492 9.365C305.492 9.665 305.467 9.98 305.417 10.31H300.257C300.307 11.06 300.502 11.665 300.842 12.125C301.192 12.585 301.712 12.815 302.402 12.815C302.752 12.815 303.132 12.75 303.542 12.62C303.952 12.49 304.377 12.29 304.817 12.02L305.432 12.995C304.862 13.385 304.282 13.68 303.692 13.88C303.102 14.07 302.527 14.165 301.967 14.165ZM302.102 7.175C301.562 7.175 301.147 7.36 300.857 7.73C300.567 8.1 300.382 8.58 300.302 9.17H303.632C303.632 8.6 303.512 8.125 303.272 7.745C303.042 7.365 302.652 7.175 302.102 7.175ZM306.54 14V13.07L307.605 12.785V7.28L306.54 6.995V6.065L309 5.945L309.195 7.13C309.655 6.7 310.14 6.38 310.65 6.17C311.16 5.96 311.64 5.855 312.09 5.855C312.76 5.855 313.315 6.065 313.755 6.485C314.205 6.905 314.425 7.54 314.415 8.39V12.785L315.48 13.07V14H311.64V13.07L312.615 12.8V8.78C312.615 8.25 312.495 7.86 312.255 7.61C312.025 7.36 311.715 7.235 311.325 7.235C311.035 7.235 310.725 7.31 310.395 7.46C310.065 7.6 309.735 7.82 309.405 8.12V12.8L310.38 13.07V14H306.54ZM319.779 14.165C318.719 14.165 317.859 13.825 317.199 13.145C316.539 12.455 316.209 11.455 316.209 10.145C316.209 9.265 316.364 8.505 316.674 7.865C316.994 7.215 317.439 6.72 318.009 6.38C318.589 6.03 319.274 5.855 320.064 5.855C320.814 5.855 321.424 6.01 321.894 6.32C322.374 6.62 322.729 7.035 322.959 7.565C323.189 8.095 323.304 8.695 323.304 9.365C323.304 9.665 323.279 9.98 323.229 10.31H318.069C318.119 11.06 318.314 11.665 318.654 12.125C319.004 12.585 319.524 12.815 320.214 12.815C320.564 12.815 320.944 12.75 321.354 12.62C321.764 12.49 322.189 12.29 322.629 12.02L323.244 12.995C322.674 13.385 322.094 13.68 321.504 13.88C320.914 14.07 320.339 14.165 319.779 14.165ZM319.914 7.175C319.374 7.175 318.959 7.36 318.669 7.73C318.379 8.1 318.194 8.58 318.114 9.17H321.444C321.444 8.6 321.324 8.125 321.084 7.745C320.854 7.365 320.464 7.175 319.914 7.175ZM324.382 14V13.07L325.432 12.785V7.295H324.337V6.335L325.432 6.095V5.27C325.432 4.26 325.697 3.505 326.227 3.005C326.767 2.505 327.462 2.255 328.312 2.255C328.512 2.255 328.727 2.27 328.957 2.3C329.187 2.32 329.417 2.36 329.647 2.42L329.407 3.68C329.257 3.63 329.112 3.6 328.972 3.59C328.832 3.57 328.697 3.56 328.567 3.56C328.137 3.56 327.807 3.685 327.577 3.935C327.347 4.175 327.232 4.57 327.232 5.12V6.095H329.227L329.197 7.295H327.232V12.785L328.507 13.07V14H324.382ZM333.833 13.07V14H329.918V13.07L330.983 12.785V7.265L329.918 6.995V6.065L332.783 5.96V12.785L333.833 13.07ZM331.808 4.64C331.478 4.64 331.213 4.55 331.013 4.37C330.813 4.18 330.713 3.91 330.713 3.56C330.713 3.19 330.818 2.915 331.028 2.735C331.238 2.545 331.503 2.45 331.823 2.45C332.133 2.45 332.388 2.545 332.588 2.735C332.798 2.915 332.903 3.185 332.903 3.545C332.903 3.905 332.798 4.18 332.588 4.37C332.378 4.55 332.118 4.64 331.808 4.64ZM337.412 14.165C336.782 14.165 336.297 13.975 335.957 13.595C335.617 13.205 335.447 12.625 335.447 11.855V7.235H334.217V6.26L335.447 6.005V4.25L337.262 3.935V6.02H339.362L339.332 7.235H337.262V11.615C337.262 12.045 337.337 12.355 337.487 12.545C337.637 12.735 337.852 12.83 338.132 12.83C338.452 12.83 338.852 12.725 339.332 12.515L339.677 13.505C338.887 13.945 338.132 14.165 337.412 14.165ZM342.227 8C342.227 8.26 342.327 8.47 342.527 8.63C342.727 8.78 342.987 8.91 343.307 9.02C343.627 9.12 343.962 9.225 344.312 9.335C344.672 9.445 345.007 9.59 345.317 9.77C345.637 9.94 345.897 10.17 346.097 10.46C346.297 10.74 346.397 11.11 346.397 11.57C346.397 12.13 346.242 12.605 345.932 12.995C345.632 13.385 345.217 13.68 344.687 13.88C344.167 14.07 343.577 14.165 342.917 14.165C342.527 14.165 342.117 14.13 341.687 14.06C341.267 14 340.837 13.91 340.397 13.79L340.487 11.6H341.627L341.762 12.785C341.962 12.835 342.167 12.875 342.377 12.905C342.597 12.935 342.792 12.95 342.962 12.95C343.232 12.95 343.492 12.91 343.742 12.83C343.992 12.75 344.197 12.63 344.357 12.47C344.517 12.31 344.597 12.11 344.597 11.87C344.597 11.6 344.497 11.385 344.297 11.225C344.097 11.065 343.837 10.935 343.517 10.835C343.207 10.725 342.877 10.615 342.527 10.505C342.177 10.395 341.842 10.255 341.522 10.085C341.212 9.905 340.957 9.67 340.757 9.38C340.557 9.09 340.457 8.71 340.457 8.24C340.457 7.68 340.597 7.225 340.877 6.875C341.157 6.525 341.527 6.27 341.987 6.11C342.457 5.94 342.962 5.855 343.502 5.855C344.272 5.855 345.137 6 346.097 6.29L346.022 8.195H344.867L344.672 7.22C344.262 7.12 343.897 7.07 343.577 7.07C343.177 7.07 342.852 7.155 342.602 7.325C342.352 7.495 342.227 7.72 342.227 8Z" fill="#182E4F"/>
<rect id="Rectangle 32" x="92" y="59" width="96" height="3" fill="#506583"/>
<rect id="Rectangle 35" x="239" y="59" width="96" height="3" fill="#506583"/>
<rect id="Rectangle 33" x="92" y="65" width="87" height="3" fill="#506583"/>
<rect id="Rectangle 36" x="239" y="65" width="87" height="3" fill="#506583"/>
<rect id="Rectangle 34" x="92" y="71" width="96" height="3" fill="#506583"/>
<rect id="Rectangle 37" x="239" y="71" width="96" height="3" fill="#506583"/>
<rect id="Rectangle 31" x="115" y="42" width="73" height="5" fill="#0071BB" fill-opacity="0.5"/>
<rect id="Rectangle 38" x="262" y="42" width="73" height="5" fill="#0071BB" fill-opacity="0.5"/>
<circle id="Ellipse 3" cx="97" cy="45" r="8" fill="#864381"/>
<circle id="Ellipse 4" cx="244" cy="45" r="8" fill="#C56C42"/>
<path id="Benefits&#226;&#128;&#168;blocks" d="M1.79492 50V41.3281H4.74219C5.61328 41.3281 6.27539 41.4922 6.72852 41.8203C7.18555 42.1484 7.41406 42.627 7.41406 43.2559C7.41406 44.2988 6.7207 45.0371 5.33398 45.4707C6.95508 45.8652 7.76562 46.6602 7.76562 47.8555C7.76562 48.5469 7.52734 49.0781 7.05078 49.4492C6.57812 49.8164 5.89844 50 5.01172 50H1.79492ZM3.49414 44.9375H3.92188C4.42969 44.9375 4.83203 44.8125 5.12891 44.5625C5.42969 44.3125 5.58008 43.9727 5.58008 43.543C5.58008 43.1445 5.45898 42.875 5.2168 42.7344C4.97852 42.5898 4.52539 42.5176 3.85742 42.5176H3.49414V44.9375ZM3.49414 48.7695H3.88086C4.63867 48.7695 5.16016 48.6895 5.44531 48.5293C5.73438 48.3652 5.87891 48.0684 5.87891 47.6387C5.87891 47.1973 5.68555 46.8301 5.29883 46.5371C4.91602 46.2441 4.43164 46.0977 3.8457 46.0977H3.49414V48.7695ZM14.5918 49.7832C13.7676 50.0254 12.9863 50.1465 12.248 50.1465C11.1738 50.1465 10.3262 49.8418 9.70508 49.2324C9.08398 48.623 8.77344 47.791 8.77344 46.7363C8.77344 45.7402 9.05664 44.9395 9.62305 44.334C10.1934 43.7246 10.9453 43.4199 11.8789 43.4199C12.8203 43.4199 13.5078 43.7168 13.9414 44.3105C14.375 44.9043 14.5918 45.8438 14.5918 47.1289H10.6016C10.7188 48.3555 11.3926 48.9688 12.623 48.9688C13.2051 48.9688 13.8613 48.834 14.5918 48.5645V49.7832ZM10.5781 46.1504H12.8867C12.8867 45.0527 12.5332 44.5039 11.8262 44.5039C11.1074 44.5039 10.6914 45.0527 10.5781 46.1504ZM16.3848 50V43.5664H18.1191V44.7793C18.6855 43.873 19.416 43.4199 20.3105 43.4199C20.8848 43.4199 21.3379 43.6016 21.6699 43.9648C22.002 44.3281 22.168 44.8242 22.168 45.4531V50H20.4336V45.8809C20.4336 45.1504 20.1914 44.7852 19.707 44.7852C19.1562 44.7852 18.627 45.1738 18.1191 45.9512V50H16.3848ZM29.5098 49.7832C28.6855 50.0254 27.9043 50.1465 27.166 50.1465C26.0918 50.1465 25.2441 49.8418 24.623 49.2324C24.002 48.623 23.6914 47.791 23.6914 46.7363C23.6914 45.7402 23.9746 44.9395 24.541 44.334C25.1113 43.7246 25.8633 43.4199 26.7969 43.4199C27.7383 43.4199 28.4258 43.7168 28.8594 44.3105C29.293 44.9043 29.5098 45.8438 29.5098 47.1289H25.5195C25.6367 48.3555 26.3105 48.9688 27.541 48.9688C28.123 48.9688 28.7793 48.834 29.5098 48.5645V49.7832ZM25.4961 46.1504H27.8047C27.8047 45.0527 27.4512 44.5039 26.7441 44.5039C26.0254 44.5039 25.6094 45.0527 25.4961 46.1504ZM31.4844 50V44.6504H30.5996V43.5664H31.4844V43.1211C31.4844 42.3125 31.6758 41.6914 32.0586 41.2578C32.4453 40.8203 32.9941 40.6016 33.7051 40.6016C34.1426 40.6016 34.6074 40.6816 35.0996 40.8418V42.0254C34.6152 41.8105 34.2559 41.7031 34.0215 41.7031C33.4863 41.7031 33.2188 42.1914 33.2188 43.168V43.5664H37.2676V50H35.5332V44.6504H33.2188V50H31.4844ZM35.8203 42.4824V41.0352H37.2676V42.4824H35.8203ZM42.752 49.9648C42.3379 50.0859 42.0117 50.1465 41.7734 50.1465C40.2695 50.1465 39.5176 49.4434 39.5176 48.0371V44.6504H38.7969V43.5664H39.5176V42.4824L41.252 42.2832V43.5664H42.6289V44.6504H41.252V47.8086C41.252 48.5977 41.5742 48.9922 42.2188 48.9922C42.3672 48.9922 42.5449 48.9648 42.752 48.9102V49.9648ZM44.1289 49.7949V48.5234C44.9883 48.8828 45.7227 49.0625 46.332 49.0625C47.043 49.0625 47.3984 48.8203 47.3984 48.3359C47.3984 48.0234 47.1055 47.75 46.5195 47.5156L45.9336 47.2812C45.2969 47.0234 44.8418 46.7461 44.5684 46.4492C44.2949 46.1523 44.1582 45.7852 44.1582 45.3477C44.1582 44.7383 44.3906 44.2656 44.8555 43.9297C45.3203 43.5898 45.9707 43.4199 46.8066 43.4199C47.3301 43.4199 47.9531 43.4961 48.6758 43.6484V44.8672C47.9805 44.625 47.4043 44.5039 46.9473 44.5039C46.2285 44.5039 45.8691 44.7266 45.8691 45.1719C45.8691 45.4648 46.1348 45.7129 46.666 45.916L47.1699 46.1094C47.9238 46.3945 48.4473 46.6836 48.7402 46.9766C49.0371 47.2695 49.1855 47.6465 49.1855 48.1074C49.1855 48.7129 48.9336 49.2051 48.4297 49.584C47.9297 49.959 47.2773 50.1465 46.4727 50.1465C45.6992 50.1465 44.918 50.0293 44.1289 49.7949ZM10.7949 64V54.748H12.5293V58.7793C12.9746 57.873 13.6758 57.4199 14.6328 57.4199C15.4062 57.4199 16.0137 57.7031 16.4551 58.2695C16.9004 58.8359 17.123 59.6152 17.123 60.6074C17.123 61.6816 16.873 62.541 16.373 63.1855C15.873 63.8262 15.2051 64.1465 14.3691 64.1465C13.6504 64.1465 13.0371 63.8809 12.5293 63.3496L12.207 64H10.7949ZM12.5293 62.3184C12.9512 62.7871 13.4004 63.0215 13.877 63.0215C14.3027 63.0215 14.6426 62.8164 14.8965 62.4062C15.1504 61.9922 15.2773 61.4414 15.2773 60.7539C15.2773 59.4375 14.8535 58.7793 14.0059 58.7793C13.4941 58.7793 13.002 59.1094 12.5293 59.7695V62.3184ZM18.752 64V54.748H20.4863V64H18.752ZM25.3555 64.1465C24.3516 64.1465 23.5527 63.8438 22.959 63.2383C22.3691 62.6289 22.0742 61.8105 22.0742 60.7832C22.0742 59.7441 22.3711 58.9238 22.9648 58.3223C23.5625 57.7207 24.373 57.4199 25.3965 57.4199C26.4238 57.4199 27.2344 57.7207 27.8281 58.3223C28.4258 58.9238 28.7246 59.7402 28.7246 60.7715C28.7246 61.8262 28.4258 62.6523 27.8281 63.25C27.2305 63.8477 26.4062 64.1465 25.3555 64.1465ZM25.3848 63.0625C26.3809 63.0625 26.8789 62.2988 26.8789 60.7715C26.8789 60.0723 26.7461 59.5195 26.4805 59.1133C26.2188 58.707 25.8574 58.5039 25.3965 58.5039C24.9395 58.5039 24.5781 58.707 24.3125 59.1133C24.0508 59.5195 23.9199 60.0762 23.9199 60.7832C23.9199 61.4824 24.0508 62.0371 24.3125 62.4473C24.5742 62.8574 24.9316 63.0625 25.3848 63.0625ZM35.0645 63.8594C34.3457 64.0508 33.6797 64.1465 33.0664 64.1465C32.0391 64.1465 31.2266 63.8457 30.6289 63.2441C30.0352 62.6387 29.7383 61.8164 29.7383 60.7773C29.7383 59.7266 30.0449 58.9043 30.6582 58.3105C31.2715 57.7168 32.1191 57.4199 33.2012 57.4199C33.7246 57.4199 34.3281 57.5039 35.0117 57.6719V58.9258C34.3008 58.6953 33.7324 58.5801 33.3066 58.5801C32.7871 58.5801 32.3691 58.7793 32.0527 59.1777C31.7363 59.5762 31.5781 60.1055 31.5781 60.7656C31.5781 61.4414 31.748 61.9824 32.0879 62.3887C32.4316 62.7949 32.8887 62.998 33.459 62.998C33.9785 62.998 34.5137 62.8848 35.0645 62.6582V63.8594ZM36.7051 64V54.748H38.4395V60.5664H38.5508L40.8418 57.5664H42.2832L40.168 60.3203L42.9453 64H40.8359L38.5508 60.7832H38.4395V64H36.7051ZM44.1289 63.7949V62.5234C44.9883 62.8828 45.7227 63.0625 46.332 63.0625C47.043 63.0625 47.3984 62.8203 47.3984 62.3359C47.3984 62.0234 47.1055 61.75 46.5195 61.5156L45.9336 61.2812C45.2969 61.0234 44.8418 60.7461 44.5684 60.4492C44.2949 60.1523 44.1582 59.7852 44.1582 59.3477C44.1582 58.7383 44.3906 58.2656 44.8555 57.9297C45.3203 57.5898 45.9707 57.4199 46.8066 57.4199C47.3301 57.4199 47.9531 57.4961 48.6758 57.6484V58.8672C47.9805 58.625 47.4043 58.5039 46.9473 58.5039C46.2285 58.5039 45.8691 58.7266 45.8691 59.1719C45.8691 59.4648 46.1348 59.7129 46.666 59.916L47.1699 60.1094C47.9238 60.3945 48.4473 60.6836 48.7402 60.9766C49.0371 61.2695 49.1855 61.6465 49.1855 62.1074C49.1855 62.7129 48.9336 63.2051 48.4297 63.584C47.9297 63.959 47.2773 64.1465 46.4727 64.1465C45.6992 64.1465 44.918 64.0293 44.1289 63.7949Z" fill="#4F4F4F"/>
<line id="Line 5" x1="56" y1="45.5" x2="82" y2="45.5" stroke="#060606" stroke-opacity="0.34"/>
</g>
</svg>
