<svg width="401" height="130" viewBox="0 0 401 130" fill="none" xmlns="http://www.w3.org/2000/svg">
<g id="Group 26">
<rect id="Rectangle 5" x="128" y="27" width="250" height="5" fill="#506583"/>
<rect id="Rectangle 21" x="128" width="250" height="14" fill="#182E4F"/>
<rect id="Rectangle 12" x="128" y="39" width="230" height="5" fill="#506583"/>
<rect id="Rectangle 19" x="128" y="51" width="247" height="5" fill="#506583"/>
<rect id="Rectangle 22" x="128" y="63" width="240" height="5" fill="#506583"/>
<g id="Group 2">
<rect id="Rectangle 32" x="128" y="101" width="61" height="3" fill="#506583"/>
<rect id="Rectangle 33" x="128" y="107" width="55" height="3" fill="#506583"/>
<rect id="Rectangle 34" x="128" y="113" width="61" height="3" fill="#506583"/>
<rect id="Rectangle 35" x="128" y="120" width="61" height="3" fill="#506583"/>
<rect id="Rectangle 36" x="128" y="127" width="36" height="3" fill="#506583"/>
<rect id="Rectangle 31" x="128" y="92" width="55" height="5" fill="#0071BB" fill-opacity="0.5"/>
</g>
<g id="Group 3">
<rect id="Rectangle 32_2" x="230" y="99" width="61" height="3" fill="#506583"/>
<rect id="Rectangle 33_2" x="230" y="105" width="55" height="3" fill="#506583"/>
<rect id="Rectangle 34_2" x="230" y="111" width="61" height="3" fill="#506583"/>
<rect id="Rectangle 35_2" x="230" y="118" width="61" height="3" fill="#506583"/>
<rect id="Rectangle 36_2" x="230" y="125" width="36" height="3" fill="#506583"/>
<rect id="Rectangle 31_2" x="230" y="90" width="55" height="5" fill="#0071BB" fill-opacity="0.5"/>
</g>
<g id="Group 4">
<rect id="Rectangle 32_3" x="340" y="99" width="61" height="3" fill="#506583"/>
<rect id="Rectangle 33_3" x="340" y="105" width="55" height="3" fill="#506583"/>
<rect id="Rectangle 34_3" x="340" y="111" width="61" height="3" fill="#506583"/>
<rect id="Rectangle 35_3" x="340" y="118" width="61" height="3" fill="#506583"/>
<rect id="Rectangle 36_3" x="340" y="125" width="36" height="3" fill="#506583"/>
<rect id="Rectangle 31_3" x="340" y="90" width="55" height="5" fill="#0071BB" fill-opacity="0.5"/>
</g>
<path id="Heading" d="M22.9668 12V3.32812H24.7715V6.84961H28.3574V3.32812H30.1621V12H28.3574V8.04492H24.7715V12H22.9668ZM37.5684 11.7832C36.7441 12.0254 35.9629 12.1465 35.2246 12.1465C34.1504 12.1465 33.3027 11.8418 32.6816 11.2324C32.0605 10.623 31.75 9.79102 31.75 8.73633C31.75 7.74023 32.0332 6.93945 32.5996 6.33398C33.1699 5.72461 33.9219 5.41992 34.8555 5.41992C35.7969 5.41992 36.4844 5.7168 36.918 6.31055C37.3516 6.9043 37.5684 7.84375 37.5684 9.12891H33.5781C33.6953 10.3555 34.3691 10.9688 35.5996 10.9688C36.1816 10.9688 36.8379 10.834 37.5684 10.5645V11.7832ZM33.5547 8.15039H35.8633C35.8633 7.05273 35.5098 6.50391 34.8027 6.50391C34.084 6.50391 33.668 7.05273 33.5547 8.15039ZM42.5137 11.3086C41.9355 11.8672 41.3164 12.1465 40.6562 12.1465C40.0938 12.1465 39.6367 11.9746 39.2852 11.6309C38.9336 11.2871 38.7578 10.8418 38.7578 10.2949C38.7578 9.58398 39.041 9.03711 39.6074 8.6543C40.1777 8.26758 40.9922 8.07422 42.0508 8.07422H42.5137V7.48828C42.5137 6.82031 42.1328 6.48633 41.3711 6.48633C40.6953 6.48633 40.0117 6.67773 39.3203 7.06055V5.86523C40.1055 5.56836 40.8828 5.41992 41.6523 5.41992C43.3359 5.41992 44.1777 6.08984 44.1777 7.42969V10.2773C44.1777 10.7812 44.3398 11.0332 44.6641 11.0332C44.7227 11.0332 44.7988 11.0254 44.8926 11.0098L44.9336 11.9824C44.5664 12.0918 44.2422 12.1465 43.9609 12.1465C43.25 12.1465 42.793 11.8672 42.5898 11.3086H42.5137ZM42.5137 10.377V9.07031H42.1035C40.9824 9.07031 40.4219 9.42188 40.4219 10.125C40.4219 10.3633 40.502 10.5645 40.6621 10.7285C40.8262 10.8887 41.0273 10.9688 41.2656 10.9688C41.6719 10.9688 42.0879 10.7715 42.5137 10.377ZM50.4648 12V10.7871C50.0195 11.6934 49.3184 12.1465 48.3613 12.1465C47.5879 12.1465 46.9805 11.8633 46.5391 11.2969C46.0977 10.7305 45.877 9.95117 45.877 8.95898C45.877 7.88086 46.125 7.02148 46.6211 6.38086C47.1211 5.74023 47.791 5.41992 48.6309 5.41992C49.3027 5.41992 49.9141 5.68555 50.4648 6.2168V2.74805H52.2051V12H50.4648ZM50.4648 7.24805C50.0469 6.7793 49.5996 6.54492 49.123 6.54492C48.6973 6.54492 48.3574 6.75 48.1035 7.16016C47.8496 7.57031 47.7227 8.12109 47.7227 8.8125C47.7227 10.1289 48.1445 10.7871 48.9883 10.7871C49.5039 10.7871 49.9961 10.457 50.4648 9.79688V7.24805ZM54.373 12V5.56641H56.1074V12H54.373ZM54.373 4.48242V3.03516H56.1074V4.48242H54.373ZM58.2754 12V5.56641H60.0098V6.7793C60.5762 5.87305 61.3066 5.41992 62.2012 5.41992C62.7754 5.41992 63.2285 5.60156 63.5605 5.96484C63.8926 6.32812 64.0586 6.82422 64.0586 7.45312V12H62.3242V7.88086C62.3242 7.15039 62.082 6.78516 61.5977 6.78516C61.0469 6.78516 60.5176 7.17383 60.0098 7.95117V12H58.2754ZM66.209 13.998L66.3496 12.7383C67.0645 13.0664 67.7461 13.2305 68.3945 13.2305C69.0352 13.2305 69.498 13.0938 69.7832 12.8203C70.0684 12.5469 70.2109 12.1035 70.2109 11.4902V10.6113C69.7891 11.5371 69.0918 12 68.1191 12C67.3535 12 66.7461 11.7148 66.2969 11.1445C65.8477 10.5703 65.623 9.79492 65.623 8.81836C65.623 7.79102 65.875 6.96875 66.3789 6.35156C66.8828 5.73047 67.5527 5.41992 68.3887 5.41992C69.0449 5.41992 69.6523 5.68555 70.2109 6.2168L70.3926 5.56641H71.9512V10.4766C71.9512 11.457 71.8906 12.1641 71.7695 12.5977C71.6523 13.0312 71.4219 13.4004 71.0781 13.7051C70.5 14.2051 69.6855 14.4551 68.6348 14.4551C67.8887 14.4551 67.0801 14.3027 66.209 13.998ZM70.2109 9.60352V7.23047C69.793 6.75781 69.3555 6.52148 68.8984 6.52148C68.4609 6.52148 68.1133 6.7207 67.8555 7.11914C67.5977 7.51758 67.4688 8.05273 67.4688 8.72461C67.4688 9.98242 67.873 10.6113 68.6816 10.6113C69.2402 10.6113 69.75 10.2754 70.2109 9.60352Z" fill="#4F4F4F"/>
<path id="Introduction" d="M1.67773 47V38.3281H3.48242V47H1.67773ZM5.66211 47V40.5664H7.39648V41.7793C7.96289 40.873 8.69336 40.4199 9.58789 40.4199C10.1621 40.4199 10.6152 40.6016 10.9473 40.9648C11.2793 41.3281 11.4453 41.8242 11.4453 42.4531V47H9.71094V42.8809C9.71094 42.1504 9.46875 41.7852 8.98438 41.7852C8.43359 41.7852 7.9043 42.1738 7.39648 42.9512V47H5.66211ZM16.8652 46.9648C16.4512 47.0859 16.125 47.1465 15.8867 47.1465C14.3828 47.1465 13.6309 46.4434 13.6309 45.0371V41.6504H12.9102V40.5664H13.6309V39.4824L15.3652 39.2832V40.5664H16.7422V41.6504H15.3652V44.8086C15.3652 45.5977 15.6875 45.9922 16.332 45.9922C16.4805 45.9922 16.6582 45.9648 16.8652 45.9102V46.9648ZM18.4121 47V40.5664H20.1465V41.7793C20.5957 40.873 21.2793 40.4199 22.1973 40.4199C22.3066 40.4199 22.4141 40.4316 22.5195 40.4551V42.002C22.2734 41.9121 22.0449 41.8672 21.834 41.8672C21.1426 41.8672 20.5801 42.2168 20.1465 42.916V47H18.4121ZM26.5742 47.1465C25.5703 47.1465 24.7715 46.8438 24.1777 46.2383C23.5879 45.6289 23.293 44.8105 23.293 43.7832C23.293 42.7441 23.5898 41.9238 24.1836 41.3223C24.7812 40.7207 25.5918 40.4199 26.6152 40.4199C27.6426 40.4199 28.4531 40.7207 29.0469 41.3223C29.6445 41.9238 29.9434 42.7402 29.9434 43.7715C29.9434 44.8262 29.6445 45.6523 29.0469 46.25C28.4492 46.8477 27.625 47.1465 26.5742 47.1465ZM26.6035 46.0625C27.5996 46.0625 28.0977 45.2988 28.0977 43.7715C28.0977 43.0723 27.9648 42.5195 27.6992 42.1133C27.4375 41.707 27.0762 41.5039 26.6152 41.5039C26.1582 41.5039 25.7969 41.707 25.5312 42.1133C25.2695 42.5195 25.1387 43.0762 25.1387 43.7832C25.1387 44.4824 25.2695 45.0371 25.5312 45.4473C25.793 45.8574 26.1504 46.0625 26.6035 46.0625ZM35.5859 47V45.7871C35.1406 46.6934 34.4395 47.1465 33.4824 47.1465C32.709 47.1465 32.1016 46.8633 31.6602 46.2969C31.2188 45.7305 30.998 44.9512 30.998 43.959C30.998 42.8809 31.2461 42.0215 31.7422 41.3809C32.2422 40.7402 32.9121 40.4199 33.752 40.4199C34.4238 40.4199 35.0352 40.6855 35.5859 41.2168V37.748H37.3262V47H35.5859ZM35.5859 42.248C35.168 41.7793 34.7207 41.5449 34.2441 41.5449C33.8184 41.5449 33.4785 41.75 33.2246 42.1602C32.9707 42.5703 32.8438 43.1211 32.8438 43.8125C32.8438 45.1289 33.2656 45.7871 34.1094 45.7871C34.625 45.7871 35.1172 45.457 35.5859 44.7969V42.248ZM43.4727 47V45.7871C42.9102 46.6934 42.1797 47.1465 41.2812 47.1465C40.707 47.1465 40.2539 46.9648 39.9219 46.6016C39.5898 46.2383 39.4238 45.7422 39.4238 45.1133V40.5664H41.1582V44.6855C41.1582 45.416 41.4023 45.7812 41.8906 45.7812C42.4375 45.7812 42.9648 45.3926 43.4727 44.6152V40.5664H45.207V47H43.4727ZM52.127 46.8594C51.4082 47.0508 50.7422 47.1465 50.1289 47.1465C49.1016 47.1465 48.2891 46.8457 47.6914 46.2441C47.0977 45.6387 46.8008 44.8164 46.8008 43.7773C46.8008 42.7266 47.1074 41.9043 47.7207 41.3105C48.334 40.7168 49.1816 40.4199 50.2637 40.4199C50.7871 40.4199 51.3906 40.5039 52.0742 40.6719V41.9258C51.3633 41.6953 50.7949 41.5801 50.3691 41.5801C49.8496 41.5801 49.4316 41.7793 49.1152 42.1777C48.7988 42.5762 48.6406 43.1055 48.6406 43.7656C48.6406 44.4414 48.8105 44.9824 49.1504 45.3887C49.4941 45.7949 49.9512 45.998 50.5215 45.998C51.041 45.998 51.5762 45.8848 52.127 45.6582V46.8594ZM57.084 46.9648C56.6699 47.0859 56.3438 47.1465 56.1055 47.1465C54.6016 47.1465 53.8496 46.4434 53.8496 45.0371V41.6504H53.1289V40.5664H53.8496V39.4824L55.584 39.2832V40.5664H56.9609V41.6504H55.584V44.8086C55.584 45.5977 55.9062 45.9922 56.5508 45.9922C56.6992 45.9922 56.877 45.9648 57.084 45.9102V46.9648ZM58.6309 47V40.5664H60.3652V47H58.6309ZM58.6309 39.4824V38.0352H60.3652V39.4824H58.6309ZM65.2344 47.1465C64.2305 47.1465 63.4316 46.8438 62.8379 46.2383C62.248 45.6289 61.9531 44.8105 61.9531 43.7832C61.9531 42.7441 62.25 41.9238 62.8438 41.3223C63.4414 40.7207 64.252 40.4199 65.2754 40.4199C66.3027 40.4199 67.1133 40.7207 67.707 41.3223C68.3047 41.9238 68.6035 42.7402 68.6035 43.7715C68.6035 44.8262 68.3047 45.6523 67.707 46.25C67.1094 46.8477 66.2852 47.1465 65.2344 47.1465ZM65.2637 46.0625C66.2598 46.0625 66.7578 45.2988 66.7578 43.7715C66.7578 43.0723 66.625 42.5195 66.3594 42.1133C66.0977 41.707 65.7363 41.5039 65.2754 41.5039C64.8184 41.5039 64.457 41.707 64.1914 42.1133C63.9297 42.5195 63.7988 43.0762 63.7988 43.7832C63.7988 44.4824 63.9297 45.0371 64.1914 45.4473C64.4531 45.8574 64.8105 46.0625 65.2637 46.0625ZM70.1973 47V40.5664H71.9316V41.7793C72.498 40.873 73.2285 40.4199 74.123 40.4199C74.6973 40.4199 75.1504 40.6016 75.4824 40.9648C75.8145 41.3281 75.9805 41.8242 75.9805 42.4531V47H74.2461V42.8809C74.2461 42.1504 74.0039 41.7852 73.5195 41.7852C72.9688 41.7852 72.4395 42.1738 71.9316 42.9512V47H70.1973Z" fill="#4F4F4F"/>
<path id="Link teasers" d="M4.74414 98V89.3281H6.54883V96.7695H10.457V98H4.74414ZM11.7285 98V91.5664H13.4629V98H11.7285ZM11.7285 90.4824V89.0352H13.4629V90.4824H11.7285ZM15.6309 98V91.5664H17.3652V92.7793C17.9316 91.873 18.6621 91.4199 19.5566 91.4199C20.1309 91.4199 20.584 91.6016 20.916 91.9648C21.248 92.3281 21.4141 92.8242 21.4141 93.4531V98H19.6797V93.8809C19.6797 93.1504 19.4375 92.7852 18.9531 92.7852C18.4023 92.7852 17.873 93.1738 17.3652 93.9512V98H15.6309ZM23.5176 98V88.748H25.252V94.5664H25.3633L27.6543 91.5664H29.0957L26.9805 94.3203L29.7578 98H27.6484L25.3633 94.7832H25.252V98H23.5176ZM38.3887 97.9648C37.9746 98.0859 37.6484 98.1465 37.4102 98.1465C35.9062 98.1465 35.1543 97.4434 35.1543 96.0371V92.6504H34.4336V91.5664H35.1543V90.4824L36.8887 90.2832V91.5664H38.2656V92.6504H36.8887V95.8086C36.8887 96.5977 37.2109 96.9922 37.8555 96.9922C38.0039 96.9922 38.1816 96.9648 38.3887 96.9102V97.9648ZM45.1738 97.7832C44.3496 98.0254 43.5684 98.1465 42.8301 98.1465C41.7559 98.1465 40.9082 97.8418 40.2871 97.2324C39.666 96.623 39.3555 95.791 39.3555 94.7363C39.3555 93.7402 39.6387 92.9395 40.2051 92.334C40.7754 91.7246 41.5273 91.4199 42.4609 91.4199C43.4023 91.4199 44.0898 91.7168 44.5234 92.3105C44.957 92.9043 45.1738 93.8438 45.1738 95.1289H41.1836C41.3008 96.3555 41.9746 96.9688 43.2051 96.9688C43.7871 96.9688 44.4434 96.834 45.1738 96.5645V97.7832ZM41.1602 94.1504H43.4688C43.4688 93.0527 43.1152 92.5039 42.4082 92.5039C41.6895 92.5039 41.2734 93.0527 41.1602 94.1504ZM50.1191 97.3086C49.541 97.8672 48.9219 98.1465 48.2617 98.1465C47.6992 98.1465 47.2422 97.9746 46.8906 97.6309C46.5391 97.2871 46.3633 96.8418 46.3633 96.2949C46.3633 95.584 46.6465 95.0371 47.2129 94.6543C47.7832 94.2676 48.5977 94.0742 49.6562 94.0742H50.1191V93.4883C50.1191 92.8203 49.7383 92.4863 48.9766 92.4863C48.3008 92.4863 47.6172 92.6777 46.9258 93.0605V91.8652C47.7109 91.5684 48.4883 91.4199 49.2578 91.4199C50.9414 91.4199 51.7832 92.0898 51.7832 93.4297V96.2773C51.7832 96.7812 51.9453 97.0332 52.2695 97.0332C52.3281 97.0332 52.4043 97.0254 52.498 97.0098L52.5391 97.9824C52.1719 98.0918 51.8477 98.1465 51.5664 98.1465C50.8555 98.1465 50.3984 97.8672 50.1953 97.3086H50.1191ZM50.1191 96.377V95.0703H49.709C48.5879 95.0703 48.0273 95.4219 48.0273 96.125C48.0273 96.3633 48.1074 96.5645 48.2676 96.7285C48.4316 96.8887 48.6328 96.9688 48.8711 96.9688C49.2773 96.9688 49.6934 96.7715 50.1191 96.377ZM53.8516 97.7949V96.5234C54.7109 96.8828 55.4453 97.0625 56.0547 97.0625C56.7656 97.0625 57.1211 96.8203 57.1211 96.3359C57.1211 96.0234 56.8281 95.75 56.2422 95.5156L55.6562 95.2812C55.0195 95.0234 54.5645 94.7461 54.291 94.4492C54.0176 94.1523 53.8809 93.7852 53.8809 93.3477C53.8809 92.7383 54.1133 92.2656 54.5781 91.9297C55.043 91.5898 55.6934 91.4199 56.5293 91.4199C57.0527 91.4199 57.6758 91.4961 58.3984 91.6484V92.8672C57.7031 92.625 57.127 92.5039 56.6699 92.5039C55.9512 92.5039 55.5918 92.7266 55.5918 93.1719C55.5918 93.4648 55.8574 93.7129 56.3887 93.916L56.8926 94.1094C57.6465 94.3945 58.1699 94.6836 58.4629 94.9766C58.7598 95.2695 58.9082 95.6465 58.9082 96.1074C58.9082 96.7129 58.6562 97.2051 58.1523 97.584C57.6523 97.959 57 98.1465 56.1953 98.1465C55.4219 98.1465 54.6406 98.0293 53.8516 97.7949ZM66.0449 97.7832C65.2207 98.0254 64.4395 98.1465 63.7012 98.1465C62.627 98.1465 61.7793 97.8418 61.1582 97.2324C60.5371 96.623 60.2266 95.791 60.2266 94.7363C60.2266 93.7402 60.5098 92.9395 61.0762 92.334C61.6465 91.7246 62.3984 91.4199 63.332 91.4199C64.2734 91.4199 64.9609 91.7168 65.3945 92.3105C65.8281 92.9043 66.0449 93.8438 66.0449 95.1289H62.0547C62.1719 96.3555 62.8457 96.9688 64.0762 96.9688C64.6582 96.9688 65.3145 96.834 66.0449 96.5645V97.7832ZM62.0312 94.1504H64.3398C64.3398 93.0527 63.9863 92.5039 63.2793 92.5039C62.5605 92.5039 62.1445 93.0527 62.0312 94.1504ZM67.8379 98V91.5664H69.5723V92.7793C70.0215 91.873 70.7051 91.4199 71.623 91.4199C71.7324 91.4199 71.8398 91.4316 71.9453 91.4551V93.002C71.6992 92.9121 71.4707 92.8672 71.2598 92.8672C70.5684 92.8672 70.0059 93.2168 69.5723 93.916V98H67.8379ZM73.1289 97.7949V96.5234C73.9883 96.8828 74.7227 97.0625 75.332 97.0625C76.043 97.0625 76.3984 96.8203 76.3984 96.3359C76.3984 96.0234 76.1055 95.75 75.5195 95.5156L74.9336 95.2812C74.2969 95.0234 73.8418 94.7461 73.5684 94.4492C73.2949 94.1523 73.1582 93.7852 73.1582 93.3477C73.1582 92.7383 73.3906 92.2656 73.8555 91.9297C74.3203 91.5898 74.9707 91.4199 75.8066 91.4199C76.3301 91.4199 76.9531 91.4961 77.6758 91.6484V92.8672C76.9805 92.625 76.4043 92.5039 75.9473 92.5039C75.2285 92.5039 74.8691 92.7266 74.8691 93.1719C74.8691 93.4648 75.1348 93.7129 75.666 93.916L76.1699 94.1094C76.9238 94.3945 77.4473 94.6836 77.7402 94.9766C78.0371 95.2695 78.1855 95.6465 78.1855 96.1074C78.1855 96.7129 77.9336 97.2051 77.4297 97.584C76.9297 97.959 76.2773 98.1465 75.4727 98.1465C74.6992 98.1465 73.918 98.0293 73.1289 97.7949Z" fill="#4F4F4F"/>
<line id="Line 1" x1="79" y1="7.5" x2="114" y2="7.5" stroke="#060606" stroke-opacity="0.34"/>
<line id="Line 2" x1="85" y1="41.5" x2="114" y2="41.5" stroke="#060606" stroke-opacity="0.34"/>
<line id="Line 3" x1="85" y1="93.5" x2="117" y2="93.5" stroke="#060606" stroke-opacity="0.34"/>
</g>
</svg>
