<svg width="382" height="183" viewBox="0 0 382 183" fill="none" xmlns="http://www.w3.org/2000/svg">
<g id="stories-guide">
<rect id="Rectangle 5" x="132" y="27" width="250" height="5" fill="#506583"/>
<rect id="Rectangle 21" x="132" width="250" height="14" fill="#182E4F"/>
<rect id="Rectangle 12" x="132" y="39" width="230" height="5" fill="#506583"/>
<g id="Group 4">
<rect id="Rectangle 32" x="217" y="66" width="135" height="3" fill="#506583"/>
<rect id="Rectangle 33" x="217" y="72" width="121.721" height="3" fill="#506583"/>
<rect id="Rectangle 34" x="217" y="78" width="72" height="3" fill="#506583"/>
<rect id="Rectangle 31" x="217" y="57" width="121.721" height="5" fill="#0071BB" fill-opacity="0.5"/>
</g>
<g id="Group 6">
<rect id="Rectangle 32_2" x="217" y="115" width="135" height="3" fill="#506583"/>
<rect id="Rectangle 33_2" x="217" y="121" width="121.721" height="3" fill="#506583"/>
<rect id="Rectangle 34_2" x="217" y="127" width="72" height="3" fill="#506583"/>
<rect id="Rectangle 31_2" x="217" y="106" width="121.721" height="5" fill="#0071BB" fill-opacity="0.5"/>
</g>
<path id="Heading" d="M26.9668 12V3.32812H28.7715V6.84961H32.3574V3.32812H34.1621V12H32.3574V8.04492H28.7715V12H26.9668ZM41.5684 11.7832C40.7441 12.0254 39.9629 12.1465 39.2246 12.1465C38.1504 12.1465 37.3027 11.8418 36.6816 11.2324C36.0605 10.623 35.75 9.79102 35.75 8.73633C35.75 7.74023 36.0332 6.93945 36.5996 6.33398C37.1699 5.72461 37.9219 5.41992 38.8555 5.41992C39.7969 5.41992 40.4844 5.7168 40.918 6.31055C41.3516 6.9043 41.5684 7.84375 41.5684 9.12891H37.5781C37.6953 10.3555 38.3691 10.9688 39.5996 10.9688C40.1816 10.9688 40.8379 10.834 41.5684 10.5645V11.7832ZM37.5547 8.15039H39.8633C39.8633 7.05273 39.5098 6.50391 38.8027 6.50391C38.084 6.50391 37.668 7.05273 37.5547 8.15039ZM46.5137 11.3086C45.9355 11.8672 45.3164 12.1465 44.6562 12.1465C44.0938 12.1465 43.6367 11.9746 43.2852 11.6309C42.9336 11.2871 42.7578 10.8418 42.7578 10.2949C42.7578 9.58398 43.041 9.03711 43.6074 8.6543C44.1777 8.26758 44.9922 8.07422 46.0508 8.07422H46.5137V7.48828C46.5137 6.82031 46.1328 6.48633 45.3711 6.48633C44.6953 6.48633 44.0117 6.67773 43.3203 7.06055V5.86523C44.1055 5.56836 44.8828 5.41992 45.6523 5.41992C47.3359 5.41992 48.1777 6.08984 48.1777 7.42969V10.2773C48.1777 10.7812 48.3398 11.0332 48.6641 11.0332C48.7227 11.0332 48.7988 11.0254 48.8926 11.0098L48.9336 11.9824C48.5664 12.0918 48.2422 12.1465 47.9609 12.1465C47.25 12.1465 46.793 11.8672 46.5898 11.3086H46.5137ZM46.5137 10.377V9.07031H46.1035C44.9824 9.07031 44.4219 9.42188 44.4219 10.125C44.4219 10.3633 44.502 10.5645 44.6621 10.7285C44.8262 10.8887 45.0273 10.9688 45.2656 10.9688C45.6719 10.9688 46.0879 10.7715 46.5137 10.377ZM54.4648 12V10.7871C54.0195 11.6934 53.3184 12.1465 52.3613 12.1465C51.5879 12.1465 50.9805 11.8633 50.5391 11.2969C50.0977 10.7305 49.877 9.95117 49.877 8.95898C49.877 7.88086 50.125 7.02148 50.6211 6.38086C51.1211 5.74023 51.791 5.41992 52.6309 5.41992C53.3027 5.41992 53.9141 5.68555 54.4648 6.2168V2.74805H56.2051V12H54.4648ZM54.4648 7.24805C54.0469 6.7793 53.5996 6.54492 53.123 6.54492C52.6973 6.54492 52.3574 6.75 52.1035 7.16016C51.8496 7.57031 51.7227 8.12109 51.7227 8.8125C51.7227 10.1289 52.1445 10.7871 52.9883 10.7871C53.5039 10.7871 53.9961 10.457 54.4648 9.79688V7.24805ZM58.373 12V5.56641H60.1074V12H58.373ZM58.373 4.48242V3.03516H60.1074V4.48242H58.373ZM62.2754 12V5.56641H64.0098V6.7793C64.5762 5.87305 65.3066 5.41992 66.2012 5.41992C66.7754 5.41992 67.2285 5.60156 67.5605 5.96484C67.8926 6.32812 68.0586 6.82422 68.0586 7.45312V12H66.3242V7.88086C66.3242 7.15039 66.082 6.78516 65.5977 6.78516C65.0469 6.78516 64.5176 7.17383 64.0098 7.95117V12H62.2754ZM70.209 13.998L70.3496 12.7383C71.0645 13.0664 71.7461 13.2305 72.3945 13.2305C73.0352 13.2305 73.498 13.0938 73.7832 12.8203C74.0684 12.5469 74.2109 12.1035 74.2109 11.4902V10.6113C73.7891 11.5371 73.0918 12 72.1191 12C71.3535 12 70.7461 11.7148 70.2969 11.1445C69.8477 10.5703 69.623 9.79492 69.623 8.81836C69.623 7.79102 69.875 6.96875 70.3789 6.35156C70.8828 5.73047 71.5527 5.41992 72.3887 5.41992C73.0449 5.41992 73.6523 5.68555 74.2109 6.2168L74.3926 5.56641H75.9512V10.4766C75.9512 11.457 75.8906 12.1641 75.7695 12.5977C75.6523 13.0312 75.4219 13.4004 75.0781 13.7051C74.5 14.2051 73.6855 14.4551 72.6348 14.4551C71.8887 14.4551 71.0801 14.3027 70.209 13.998ZM74.2109 9.60352V7.23047C73.793 6.75781 73.3555 6.52148 72.8984 6.52148C72.4609 6.52148 72.1133 6.7207 71.8555 7.11914C71.5977 7.51758 71.4688 8.05273 71.4688 8.72461C71.4688 9.98242 71.873 10.6113 72.6816 10.6113C73.2402 10.6113 73.75 10.2754 74.2109 9.60352Z" fill="#4F4F4F"/>
<path id="Introduction" d="M1.67773 47V38.3281H3.48242V47H1.67773ZM5.66211 47V40.5664H7.39648V41.7793C7.96289 40.873 8.69336 40.4199 9.58789 40.4199C10.1621 40.4199 10.6152 40.6016 10.9473 40.9648C11.2793 41.3281 11.4453 41.8242 11.4453 42.4531V47H9.71094V42.8809C9.71094 42.1504 9.46875 41.7852 8.98438 41.7852C8.43359 41.7852 7.9043 42.1738 7.39648 42.9512V47H5.66211ZM16.8652 46.9648C16.4512 47.0859 16.125 47.1465 15.8867 47.1465C14.3828 47.1465 13.6309 46.4434 13.6309 45.0371V41.6504H12.9102V40.5664H13.6309V39.4824L15.3652 39.2832V40.5664H16.7422V41.6504H15.3652V44.8086C15.3652 45.5977 15.6875 45.9922 16.332 45.9922C16.4805 45.9922 16.6582 45.9648 16.8652 45.9102V46.9648ZM18.4121 47V40.5664H20.1465V41.7793C20.5957 40.873 21.2793 40.4199 22.1973 40.4199C22.3066 40.4199 22.4141 40.4316 22.5195 40.4551V42.002C22.2734 41.9121 22.0449 41.8672 21.834 41.8672C21.1426 41.8672 20.5801 42.2168 20.1465 42.916V47H18.4121ZM26.5742 47.1465C25.5703 47.1465 24.7715 46.8438 24.1777 46.2383C23.5879 45.6289 23.293 44.8105 23.293 43.7832C23.293 42.7441 23.5898 41.9238 24.1836 41.3223C24.7812 40.7207 25.5918 40.4199 26.6152 40.4199C27.6426 40.4199 28.4531 40.7207 29.0469 41.3223C29.6445 41.9238 29.9434 42.7402 29.9434 43.7715C29.9434 44.8262 29.6445 45.6523 29.0469 46.25C28.4492 46.8477 27.625 47.1465 26.5742 47.1465ZM26.6035 46.0625C27.5996 46.0625 28.0977 45.2988 28.0977 43.7715C28.0977 43.0723 27.9648 42.5195 27.6992 42.1133C27.4375 41.707 27.0762 41.5039 26.6152 41.5039C26.1582 41.5039 25.7969 41.707 25.5312 42.1133C25.2695 42.5195 25.1387 43.0762 25.1387 43.7832C25.1387 44.4824 25.2695 45.0371 25.5312 45.4473C25.793 45.8574 26.1504 46.0625 26.6035 46.0625ZM35.5859 47V45.7871C35.1406 46.6934 34.4395 47.1465 33.4824 47.1465C32.709 47.1465 32.1016 46.8633 31.6602 46.2969C31.2188 45.7305 30.998 44.9512 30.998 43.959C30.998 42.8809 31.2461 42.0215 31.7422 41.3809C32.2422 40.7402 32.9121 40.4199 33.752 40.4199C34.4238 40.4199 35.0352 40.6855 35.5859 41.2168V37.748H37.3262V47H35.5859ZM35.5859 42.248C35.168 41.7793 34.7207 41.5449 34.2441 41.5449C33.8184 41.5449 33.4785 41.75 33.2246 42.1602C32.9707 42.5703 32.8438 43.1211 32.8438 43.8125C32.8438 45.1289 33.2656 45.7871 34.1094 45.7871C34.625 45.7871 35.1172 45.457 35.5859 44.7969V42.248ZM43.4727 47V45.7871C42.9102 46.6934 42.1797 47.1465 41.2812 47.1465C40.707 47.1465 40.2539 46.9648 39.9219 46.6016C39.5898 46.2383 39.4238 45.7422 39.4238 45.1133V40.5664H41.1582V44.6855C41.1582 45.416 41.4023 45.7812 41.8906 45.7812C42.4375 45.7812 42.9648 45.3926 43.4727 44.6152V40.5664H45.207V47H43.4727ZM52.127 46.8594C51.4082 47.0508 50.7422 47.1465 50.1289 47.1465C49.1016 47.1465 48.2891 46.8457 47.6914 46.2441C47.0977 45.6387 46.8008 44.8164 46.8008 43.7773C46.8008 42.7266 47.1074 41.9043 47.7207 41.3105C48.334 40.7168 49.1816 40.4199 50.2637 40.4199C50.7871 40.4199 51.3906 40.5039 52.0742 40.6719V41.9258C51.3633 41.6953 50.7949 41.5801 50.3691 41.5801C49.8496 41.5801 49.4316 41.7793 49.1152 42.1777C48.7988 42.5762 48.6406 43.1055 48.6406 43.7656C48.6406 44.4414 48.8105 44.9824 49.1504 45.3887C49.4941 45.7949 49.9512 45.998 50.5215 45.998C51.041 45.998 51.5762 45.8848 52.127 45.6582V46.8594ZM57.084 46.9648C56.6699 47.0859 56.3438 47.1465 56.1055 47.1465C54.6016 47.1465 53.8496 46.4434 53.8496 45.0371V41.6504H53.1289V40.5664H53.8496V39.4824L55.584 39.2832V40.5664H56.9609V41.6504H55.584V44.8086C55.584 45.5977 55.9062 45.9922 56.5508 45.9922C56.6992 45.9922 56.877 45.9648 57.084 45.9102V46.9648ZM58.6309 47V40.5664H60.3652V47H58.6309ZM58.6309 39.4824V38.0352H60.3652V39.4824H58.6309ZM65.2344 47.1465C64.2305 47.1465 63.4316 46.8438 62.8379 46.2383C62.248 45.6289 61.9531 44.8105 61.9531 43.7832C61.9531 42.7441 62.25 41.9238 62.8438 41.3223C63.4414 40.7207 64.252 40.4199 65.2754 40.4199C66.3027 40.4199 67.1133 40.7207 67.707 41.3223C68.3047 41.9238 68.6035 42.7402 68.6035 43.7715C68.6035 44.8262 68.3047 45.6523 67.707 46.25C67.1094 46.8477 66.2852 47.1465 65.2344 47.1465ZM65.2637 46.0625C66.2598 46.0625 66.7578 45.2988 66.7578 43.7715C66.7578 43.0723 66.625 42.5195 66.3594 42.1133C66.0977 41.707 65.7363 41.5039 65.2754 41.5039C64.8184 41.5039 64.457 41.707 64.1914 42.1133C63.9297 42.5195 63.7988 43.0762 63.7988 43.7832C63.7988 44.4824 63.9297 45.0371 64.1914 45.4473C64.4531 45.8574 64.8105 46.0625 65.2637 46.0625ZM70.1973 47V40.5664H71.9316V41.7793C72.498 40.873 73.2285 40.4199 74.123 40.4199C74.6973 40.4199 75.1504 40.6016 75.4824 40.9648C75.8145 41.3281 75.9805 41.8242 75.9805 42.4531V47H74.2461V42.8809C74.2461 42.1504 74.0039 41.7852 73.5195 41.7852C72.9688 41.7852 72.4395 42.1738 71.9316 42.9512V47H70.1973Z" fill="#4F4F4F"/>
<path id="Stories" d="M35.0352 85.9238V84.4355C35.9688 84.8262 36.7676 85.0215 37.4316 85.0215C37.8965 85.0215 38.2617 84.918 38.5273 84.7109C38.7969 84.5039 38.9316 84.2227 38.9316 83.8672C38.9316 83.5859 38.8477 83.3496 38.6797 83.1582C38.5117 82.9629 38.1934 82.7324 37.7246 82.4668L37.1445 82.1445C36.3672 81.707 35.8184 81.2891 35.498 80.8906C35.1777 80.4883 35.0176 80.0195 35.0176 79.4844C35.0176 78.7695 35.2793 78.1953 35.8027 77.7617C36.3301 77.3281 37.0254 77.1113 37.8887 77.1113C38.5801 77.1113 39.3594 77.2109 40.2266 77.4102V78.7988C39.3398 78.4668 38.6387 78.3008 38.123 78.3008C37.7246 78.3008 37.4043 78.3906 37.1621 78.5703C36.9238 78.7461 36.8047 78.9785 36.8047 79.2676C36.8047 79.5059 36.8887 79.7148 37.0566 79.8945C37.2246 80.0742 37.541 80.2949 38.0059 80.5566L38.627 80.9023C39.4629 81.3711 40.0391 81.8027 40.3555 82.1973C40.6719 82.5918 40.8301 83.0723 40.8301 83.6387C40.8301 84.4434 40.5312 85.0742 39.9336 85.5312C39.3359 85.9883 38.5117 86.2168 37.4609 86.2168C36.7656 86.2168 35.957 86.1191 35.0352 85.9238ZM45.6934 85.9648C45.2793 86.0859 44.9531 86.1465 44.7148 86.1465C43.2109 86.1465 42.459 85.4434 42.459 84.0371V80.6504H41.7383V79.5664H42.459V78.4824L44.1934 78.2832V79.5664H45.5703V80.6504H44.1934V83.8086C44.1934 84.5977 44.5156 84.9922 45.1602 84.9922C45.3086 84.9922 45.4863 84.9648 45.6934 84.9102V85.9648ZM49.9414 86.1465C48.9375 86.1465 48.1387 85.8438 47.5449 85.2383C46.9551 84.6289 46.6602 83.8105 46.6602 82.7832C46.6602 81.7441 46.957 80.9238 47.5508 80.3223C48.1484 79.7207 48.959 79.4199 49.9824 79.4199C51.0098 79.4199 51.8203 79.7207 52.4141 80.3223C53.0117 80.9238 53.3105 81.7402 53.3105 82.7715C53.3105 83.8262 53.0117 84.6523 52.4141 85.25C51.8164 85.8477 50.9922 86.1465 49.9414 86.1465ZM49.9707 85.0625C50.9668 85.0625 51.4648 84.2988 51.4648 82.7715C51.4648 82.0723 51.332 81.5195 51.0664 81.1133C50.8047 80.707 50.4434 80.5039 49.9824 80.5039C49.5254 80.5039 49.1641 80.707 48.8984 81.1133C48.6367 81.5195 48.5059 82.0762 48.5059 82.7832C48.5059 83.4824 48.6367 84.0371 48.8984 84.4473C49.1602 84.8574 49.5176 85.0625 49.9707 85.0625ZM54.9043 86V79.5664H56.6387V80.7793C57.0879 79.873 57.7715 79.4199 58.6895 79.4199C58.7988 79.4199 58.9062 79.4316 59.0117 79.4551V81.002C58.7656 80.9121 58.5371 80.8672 58.3262 80.8672C57.6348 80.8672 57.0723 81.2168 56.6387 81.916V86H54.9043ZM60.3652 86V79.5664H62.0996V86H60.3652ZM60.3652 78.4824V77.0352H62.0996V78.4824H60.3652ZM69.5059 85.7832C68.6816 86.0254 67.9004 86.1465 67.1621 86.1465C66.0879 86.1465 65.2402 85.8418 64.6191 85.2324C63.998 84.623 63.6875 83.791 63.6875 82.7363C63.6875 81.7402 63.9707 80.9395 64.5371 80.334C65.1074 79.7246 65.8594 79.4199 66.793 79.4199C67.7344 79.4199 68.4219 79.7168 68.8555 80.3105C69.2891 80.9043 69.5059 81.8438 69.5059 83.1289H65.5156C65.6328 84.3555 66.3066 84.9688 67.5371 84.9688C68.1191 84.9688 68.7754 84.834 69.5059 84.5645V85.7832ZM65.4922 82.1504H67.8008C67.8008 81.0527 67.4473 80.5039 66.7402 80.5039C66.0215 80.5039 65.6055 81.0527 65.4922 82.1504ZM71.1289 85.7949V84.5234C71.9883 84.8828 72.7227 85.0625 73.332 85.0625C74.043 85.0625 74.3984 84.8203 74.3984 84.3359C74.3984 84.0234 74.1055 83.75 73.5195 83.5156L72.9336 83.2812C72.2969 83.0234 71.8418 82.7461 71.5684 82.4492C71.2949 82.1523 71.1582 81.7852 71.1582 81.3477C71.1582 80.7383 71.3906 80.2656 71.8555 79.9297C72.3203 79.5898 72.9707 79.4199 73.8066 79.4199C74.3301 79.4199 74.9531 79.4961 75.6758 79.6484V80.8672C74.9805 80.625 74.4043 80.5039 73.9473 80.5039C73.2285 80.5039 72.8691 80.7266 72.8691 81.1719C72.8691 81.4648 73.1348 81.7129 73.666 81.916L74.1699 82.1094C74.9238 82.3945 75.4473 82.6836 75.7402 82.9766C76.0371 83.2695 76.1855 83.6465 76.1855 84.1074C76.1855 84.7129 75.9336 85.2051 75.4297 85.584C74.9297 85.959 74.2773 86.1465 73.4727 86.1465C72.6992 86.1465 71.918 86.0293 71.1289 85.7949Z" fill="#4F4F4F"/>
<path id="&#226;&#128;&#152;See more&#226;&#128;&#153;&#226;&#128;&#168;button" d="M16.0977 159.629H16.8242V161.504H14.9434V160.051C14.9434 158.516 15.5703 157.748 16.8242 157.748V158.398C16.3398 158.398 16.0977 158.746 16.0977 159.441V159.629ZM17.9609 166.924V165.436C18.8945 165.826 19.6934 166.021 20.3574 166.021C20.8223 166.021 21.1875 165.918 21.4531 165.711C21.7227 165.504 21.8574 165.223 21.8574 164.867C21.8574 164.586 21.7734 164.35 21.6055 164.158C21.4375 163.963 21.1191 163.732 20.6504 163.467L20.0703 163.145C19.293 162.707 18.7441 162.289 18.4238 161.891C18.1035 161.488 17.9434 161.02 17.9434 160.484C17.9434 159.77 18.2051 159.195 18.7285 158.762C19.2559 158.328 19.9512 158.111 20.8145 158.111C21.5059 158.111 22.2852 158.211 23.1523 158.41V159.799C22.2656 159.467 21.5645 159.301 21.0488 159.301C20.6504 159.301 20.3301 159.391 20.0879 159.57C19.8496 159.746 19.7305 159.979 19.7305 160.268C19.7305 160.506 19.8145 160.715 19.9824 160.895C20.1504 161.074 20.4668 161.295 20.9316 161.557L21.5527 161.902C22.3887 162.371 22.9648 162.803 23.2812 163.197C23.5977 163.592 23.7559 164.072 23.7559 164.639C23.7559 165.443 23.457 166.074 22.8594 166.531C22.2617 166.988 21.4375 167.217 20.3867 167.217C19.6914 167.217 18.8828 167.119 17.9609 166.924ZM30.541 166.783C29.7168 167.025 28.9355 167.146 28.1973 167.146C27.123 167.146 26.2754 166.842 25.6543 166.232C25.0332 165.623 24.7227 164.791 24.7227 163.736C24.7227 162.74 25.0059 161.939 25.5723 161.334C26.1426 160.725 26.8945 160.42 27.8281 160.42C28.7695 160.42 29.457 160.717 29.8906 161.311C30.3242 161.904 30.541 162.844 30.541 164.129H26.5508C26.668 165.355 27.3418 165.969 28.5723 165.969C29.1543 165.969 29.8105 165.834 30.541 165.564V166.783ZM26.5273 163.15H28.8359C28.8359 162.053 28.4824 161.504 27.7754 161.504C27.0566 161.504 26.6406 162.053 26.5273 163.15ZM37.5723 166.783C36.748 167.025 35.9668 167.146 35.2285 167.146C34.1543 167.146 33.3066 166.842 32.6855 166.232C32.0645 165.623 31.7539 164.791 31.7539 163.736C31.7539 162.74 32.0371 161.939 32.6035 161.334C33.1738 160.725 33.9258 160.42 34.8594 160.42C35.8008 160.42 36.4883 160.717 36.9219 161.311C37.3555 161.904 37.5723 162.844 37.5723 164.129H33.582C33.6992 165.355 34.373 165.969 35.6035 165.969C36.1855 165.969 36.8418 165.834 37.5723 165.564V166.783ZM33.5586 163.15H35.8672C35.8672 162.053 35.5137 161.504 34.8066 161.504C34.0879 161.504 33.6719 162.053 33.5586 163.15ZM43.3262 167V160.566H44.9902V161.779C45.498 160.873 46.2207 160.42 47.1582 160.42C47.6426 160.42 48.041 160.539 48.3535 160.777C48.666 161.016 48.8574 161.35 48.9277 161.779C49.5293 160.873 50.2559 160.42 51.1074 160.42C52.2832 160.42 52.8711 161.068 52.8711 162.365V167H51.207V162.934C51.207 162.172 50.9531 161.791 50.4453 161.791C49.9258 161.791 49.4199 162.166 48.9277 162.916V167H47.2637V162.934C47.2637 162.168 47.0078 161.785 46.4961 161.785C45.9844 161.785 45.4824 162.162 44.9902 162.916V167H43.3262ZM57.6641 167.146C56.6602 167.146 55.8613 166.844 55.2676 166.238C54.6777 165.629 54.3828 164.811 54.3828 163.783C54.3828 162.744 54.6797 161.924 55.2734 161.322C55.8711 160.721 56.6816 160.42 57.7051 160.42C58.7324 160.42 59.543 160.721 60.1367 161.322C60.7344 161.924 61.0332 162.74 61.0332 163.771C61.0332 164.826 60.7344 165.652 60.1367 166.25C59.5391 166.848 58.7148 167.146 57.6641 167.146ZM57.6934 166.062C58.6895 166.062 59.1875 165.299 59.1875 163.771C59.1875 163.072 59.0547 162.52 58.7891 162.113C58.5273 161.707 58.166 161.504 57.7051 161.504C57.248 161.504 56.8867 161.707 56.6211 162.113C56.3594 162.52 56.2285 163.076 56.2285 163.783C56.2285 164.482 56.3594 165.037 56.6211 165.447C56.8828 165.857 57.2402 166.062 57.6934 166.062ZM62.627 167V160.566H64.3613V161.779C64.8105 160.873 65.4941 160.42 66.4121 160.42C66.5215 160.42 66.6289 160.432 66.7344 160.455V162.002C66.4883 161.912 66.2598 161.867 66.0488 161.867C65.3574 161.867 64.7949 162.217 64.3613 162.916V167H62.627ZM73.3262 166.783C72.502 167.025 71.7207 167.146 70.9824 167.146C69.9082 167.146 69.0605 166.842 68.4395 166.232C67.8184 165.623 67.5078 164.791 67.5078 163.736C67.5078 162.74 67.791 161.939 68.3574 161.334C68.9277 160.725 69.6797 160.42 70.6133 160.42C71.5547 160.42 72.2422 160.717 72.6758 161.311C73.1094 161.904 73.3262 162.844 73.3262 164.129H69.3359C69.4531 165.355 70.127 165.969 71.3574 165.969C71.9395 165.969 72.5957 165.834 73.3262 165.564V166.783ZM69.3125 163.15H71.6211C71.6211 162.053 71.2676 161.504 70.5605 161.504C69.8418 161.504 69.4258 162.053 69.3125 163.15ZM75.3008 159.629H74.5801V157.748H76.4609V159.201C76.4609 160.736 75.834 161.504 74.5801 161.504V160.854C75.0605 160.854 75.3008 160.506 75.3008 159.811V159.629ZM36.9629 181V171.748H38.6973V175.779C39.1426 174.873 39.8438 174.42 40.8008 174.42C41.5742 174.42 42.1816 174.703 42.623 175.27C43.0684 175.836 43.291 176.615 43.291 177.607C43.291 178.682 43.041 179.541 42.541 180.186C42.041 180.826 41.373 181.146 40.5371 181.146C39.8184 181.146 39.2051 180.881 38.6973 180.35L38.375 181H36.9629ZM38.6973 179.318C39.1191 179.787 39.5684 180.021 40.0449 180.021C40.4707 180.021 40.8105 179.816 41.0645 179.406C41.3184 178.992 41.4453 178.441 41.4453 177.754C41.4453 176.438 41.0215 175.779 40.1738 175.779C39.6621 175.779 39.1699 176.109 38.6973 176.77V179.318ZM48.8984 181V179.787C48.3359 180.693 47.6055 181.146 46.707 181.146C46.1328 181.146 45.6797 180.965 45.3477 180.602C45.0156 180.238 44.8496 179.742 44.8496 179.113V174.566H46.584V178.686C46.584 179.416 46.8281 179.781 47.3164 179.781C47.8633 179.781 48.3906 179.393 48.8984 178.615V174.566H50.6328V181H48.8984ZM56.123 180.965C55.709 181.086 55.3828 181.146 55.1445 181.146C53.6406 181.146 52.8887 180.443 52.8887 179.037V175.65H52.168V174.566H52.8887V173.482L54.623 173.283V174.566H56V175.65H54.623V178.809C54.623 179.598 54.9453 179.992 55.5898 179.992C55.7383 179.992 55.916 179.965 56.123 179.91V180.965ZM60.9863 180.965C60.5723 181.086 60.2461 181.146 60.0078 181.146C58.5039 181.146 57.752 180.443 57.752 179.037V175.65H57.0312V174.566H57.752V173.482L59.4863 173.283V174.566H60.8633V175.65H59.4863V178.809C59.4863 179.598 59.8086 179.992 60.4531 179.992C60.6016 179.992 60.7793 179.965 60.9863 179.91V180.965ZM65.2344 181.146C64.2305 181.146 63.4316 180.844 62.8379 180.238C62.248 179.629 61.9531 178.811 61.9531 177.783C61.9531 176.744 62.25 175.924 62.8438 175.322C63.4414 174.721 64.252 174.42 65.2754 174.42C66.3027 174.42 67.1133 174.721 67.707 175.322C68.3047 175.924 68.6035 176.74 68.6035 177.771C68.6035 178.826 68.3047 179.652 67.707 180.25C67.1094 180.848 66.2852 181.146 65.2344 181.146ZM65.2637 180.062C66.2598 180.062 66.7578 179.299 66.7578 177.771C66.7578 177.072 66.625 176.52 66.3594 176.113C66.0977 175.707 65.7363 175.504 65.2754 175.504C64.8184 175.504 64.457 175.707 64.1914 176.113C63.9297 176.52 63.7988 177.076 63.7988 177.783C63.7988 178.482 63.9297 179.037 64.1914 179.447C64.4531 179.857 64.8105 180.062 65.2637 180.062ZM70.1973 181V174.566H71.9316V175.779C72.498 174.873 73.2285 174.42 74.123 174.42C74.6973 174.42 75.1504 174.602 75.4824 174.965C75.8145 175.328 75.9805 175.824 75.9805 176.453V181H74.2461V176.881C74.2461 176.15 74.0039 175.785 73.5195 175.785C72.9688 175.785 72.4395 176.174 71.9316 176.951V181H70.1973Z" fill="#4F4F4F"/>
<line id="Line 1" x1="83" y1="7.5" x2="118" y2="7.5" stroke="#060606" stroke-opacity="0.34"/>
<line id="Line 2" x1="83" y1="41.5" x2="118" y2="41.5" stroke="#060606" stroke-opacity="0.34"/>
<line id="Line 3" x1="83" y1="81.5" x2="121" y2="81.5" stroke="#060606" stroke-opacity="0.34"/>
<line id="Line 4" x1="83" y1="165.5" x2="127" y2="165.5" stroke="#060606" stroke-opacity="0.34"/>
<g id="Group 5">
<rect id="Rectangle 28" x="132.75" y="57.75" width="62.5" height="34.5" rx="2.25" stroke="#182E4F" stroke-width="1.5"/>
<path id="Vector 2" d="M144 74L133.5 82V92H195V82L176 65L152.5 82L144 74Z" fill="#182E4F"/>
<circle id="Ellipse 1" cx="150.5" cy="69.5" r="3.5" fill="#182E4F"/>
</g>
<g id="Group 7">
<rect id="Rectangle 28_2" x="132.75" y="106.75" width="62.5" height="34.5" rx="2.25" stroke="#182E4F" stroke-width="1.5"/>
<path id="Vector 2_2" d="M144 123L133.5 131V141H195V131L176 114L152.5 131L144 123Z" fill="#182E4F"/>
<circle id="Ellipse 1_2" cx="150.5" cy="118.5" r="3.5" fill="#182E4F"/>
</g>
<rect id="Rectangle 11" x="133" y="156" width="53" height="18" rx="5" stroke="#182E4F" stroke-width="2"/>
</g>
</svg>
