<svg width="462" height="182" viewBox="0 0 462 182" fill="none" xmlns="http://www.w3.org/2000/svg">
<g id="video-guide">
<rect id="Rectangle 21" x="112" width="219" height="14" fill="#182E4F"/>
<path id="Heading" d="M14.9668 12V3.32812H16.7715V6.84961H20.3574V3.32812H22.1621V12H20.3574V8.04492H16.7715V12H14.9668ZM29.5684 11.7832C28.7441 12.0254 27.9629 12.1465 27.2246 12.1465C26.1504 12.1465 25.3027 11.8418 24.6816 11.2324C24.0605 10.623 23.75 9.79102 23.75 8.73633C23.75 7.74023 24.0332 6.93945 24.5996 6.33398C25.1699 5.72461 25.9219 5.41992 26.8555 5.41992C27.7969 5.41992 28.4844 5.7168 28.918 6.31055C29.3516 6.9043 29.5684 7.84375 29.5684 9.12891H25.5781C25.6953 10.3555 26.3691 10.9688 27.5996 10.9688C28.1816 10.9688 28.8379 10.834 29.5684 10.5645V11.7832ZM25.5547 8.15039H27.8633C27.8633 7.05273 27.5098 6.50391 26.8027 6.50391C26.084 6.50391 25.668 7.05273 25.5547 8.15039ZM34.5137 11.3086C33.9355 11.8672 33.3164 12.1465 32.6562 12.1465C32.0938 12.1465 31.6367 11.9746 31.2852 11.6309C30.9336 11.2871 30.7578 10.8418 30.7578 10.2949C30.7578 9.58398 31.041 9.03711 31.6074 8.6543C32.1777 8.26758 32.9922 8.07422 34.0508 8.07422H34.5137V7.48828C34.5137 6.82031 34.1328 6.48633 33.3711 6.48633C32.6953 6.48633 32.0117 6.67773 31.3203 7.06055V5.86523C32.1055 5.56836 32.8828 5.41992 33.6523 5.41992C35.3359 5.41992 36.1777 6.08984 36.1777 7.42969V10.2773C36.1777 10.7812 36.3398 11.0332 36.6641 11.0332C36.7227 11.0332 36.7988 11.0254 36.8926 11.0098L36.9336 11.9824C36.5664 12.0918 36.2422 12.1465 35.9609 12.1465C35.25 12.1465 34.793 11.8672 34.5898 11.3086H34.5137ZM34.5137 10.377V9.07031H34.1035C32.9824 9.07031 32.4219 9.42188 32.4219 10.125C32.4219 10.3633 32.502 10.5645 32.6621 10.7285C32.8262 10.8887 33.0273 10.9688 33.2656 10.9688C33.6719 10.9688 34.0879 10.7715 34.5137 10.377ZM42.4648 12V10.7871C42.0195 11.6934 41.3184 12.1465 40.3613 12.1465C39.5879 12.1465 38.9805 11.8633 38.5391 11.2969C38.0977 10.7305 37.877 9.95117 37.877 8.95898C37.877 7.88086 38.125 7.02148 38.6211 6.38086C39.1211 5.74023 39.791 5.41992 40.6309 5.41992C41.3027 5.41992 41.9141 5.68555 42.4648 6.2168V2.74805H44.2051V12H42.4648ZM42.4648 7.24805C42.0469 6.7793 41.5996 6.54492 41.123 6.54492C40.6973 6.54492 40.3574 6.75 40.1035 7.16016C39.8496 7.57031 39.7227 8.12109 39.7227 8.8125C39.7227 10.1289 40.1445 10.7871 40.9883 10.7871C41.5039 10.7871 41.9961 10.457 42.4648 9.79688V7.24805ZM46.373 12V5.56641H48.1074V12H46.373ZM46.373 4.48242V3.03516H48.1074V4.48242H46.373ZM50.2754 12V5.56641H52.0098V6.7793C52.5762 5.87305 53.3066 5.41992 54.2012 5.41992C54.7754 5.41992 55.2285 5.60156 55.5605 5.96484C55.8926 6.32812 56.0586 6.82422 56.0586 7.45312V12H54.3242V7.88086C54.3242 7.15039 54.082 6.78516 53.5977 6.78516C53.0469 6.78516 52.5176 7.17383 52.0098 7.95117V12H50.2754ZM58.209 13.998L58.3496 12.7383C59.0645 13.0664 59.7461 13.2305 60.3945 13.2305C61.0352 13.2305 61.498 13.0938 61.7832 12.8203C62.0684 12.5469 62.2109 12.1035 62.2109 11.4902V10.6113C61.7891 11.5371 61.0918 12 60.1191 12C59.3535 12 58.7461 11.7148 58.2969 11.1445C57.8477 10.5703 57.623 9.79492 57.623 8.81836C57.623 7.79102 57.875 6.96875 58.3789 6.35156C58.8828 5.73047 59.5527 5.41992 60.3887 5.41992C61.0449 5.41992 61.6523 5.68555 62.2109 6.2168L62.3926 5.56641H63.9512V10.4766C63.9512 11.457 63.8906 12.1641 63.7695 12.5977C63.6523 13.0312 63.4219 13.4004 63.0781 13.7051C62.5 14.2051 61.6855 14.4551 60.6348 14.4551C59.8887 14.4551 59.0801 14.3027 58.209 13.998ZM62.2109 9.60352V7.23047C61.793 6.75781 61.3555 6.52148 60.8984 6.52148C60.4609 6.52148 60.1133 6.7207 59.8555 7.11914C59.5977 7.51758 59.4688 8.05273 59.4688 8.72461C59.4688 9.98242 59.873 10.6113 60.6816 10.6113C61.2402 10.6113 61.75 10.2754 62.2109 9.60352Z" fill="#4F4F4F"/>
<path id="Video" d="M33.4062 70L30.2012 61.3281H32.1289L34.6133 68.0371L37.0156 61.3281H38.3164L35.2168 70H33.4062ZM39.5293 70V63.5664H41.2637V70H39.5293ZM39.5293 62.4824V61.0352H41.2637V62.4824H39.5293ZM47.4805 70V68.7871C47.0352 69.6934 46.334 70.1465 45.377 70.1465C44.6035 70.1465 43.9961 69.8633 43.5547 69.2969C43.1133 68.7305 42.8926 67.9512 42.8926 66.959C42.8926 65.8809 43.1406 65.0215 43.6367 64.3809C44.1367 63.7402 44.8066 63.4199 45.6465 63.4199C46.3184 63.4199 46.9297 63.6855 47.4805 64.2168V60.748H49.2207V70H47.4805ZM47.4805 65.248C47.0625 64.7793 46.6152 64.5449 46.1387 64.5449C45.7129 64.5449 45.373 64.75 45.1191 65.1602C44.8652 65.5703 44.7383 66.1211 44.7383 66.8125C44.7383 68.1289 45.1602 68.7871 46.0039 68.7871C46.5195 68.7871 47.0117 68.457 47.4805 67.7969V65.248ZM56.627 69.7832C55.8027 70.0254 55.0215 70.1465 54.2832 70.1465C53.209 70.1465 52.3613 69.8418 51.7402 69.2324C51.1191 68.623 50.8086 67.791 50.8086 66.7363C50.8086 65.7402 51.0918 64.9395 51.6582 64.334C52.2285 63.7246 52.9805 63.4199 53.9141 63.4199C54.8555 63.4199 55.543 63.7168 55.9766 64.3105C56.4102 64.9043 56.627 65.8438 56.627 67.1289H52.6367C52.7539 68.3555 53.4277 68.9688 54.6582 68.9688C55.2402 68.9688 55.8965 68.834 56.627 68.5645V69.7832ZM52.6133 66.1504H54.9219C54.9219 65.0527 54.5684 64.5039 53.8613 64.5039C53.1426 64.5039 52.7266 65.0527 52.6133 66.1504ZM61.1211 70.1465C60.1172 70.1465 59.3184 69.8438 58.7246 69.2383C58.1348 68.6289 57.8398 67.8105 57.8398 66.7832C57.8398 65.7441 58.1367 64.9238 58.7305 64.3223C59.3281 63.7207 60.1387 63.4199 61.1621 63.4199C62.1895 63.4199 63 63.7207 63.5938 64.3223C64.1914 64.9238 64.4902 65.7402 64.4902 66.7715C64.4902 67.8262 64.1914 68.6523 63.5938 69.25C62.9961 69.8477 62.1719 70.1465 61.1211 70.1465ZM61.1504 69.0625C62.1465 69.0625 62.6445 68.2988 62.6445 66.7715C62.6445 66.0723 62.5117 65.5195 62.2461 65.1133C61.9844 64.707 61.623 64.5039 61.1621 64.5039C60.7051 64.5039 60.3438 64.707 60.0781 65.1133C59.8164 65.5195 59.6855 66.0762 59.6855 66.7832C59.6855 67.4824 59.8164 68.0371 60.0781 68.4473C60.3398 68.8574 60.6973 69.0625 61.1504 69.0625Z" fill="#4F4F4F"/>
<line id="Line 1" x1="73" y1="7.5" x2="98" y2="7.5" stroke="#060606" stroke-opacity="0.34"/>
<line id="Line 5" x1="73" y1="65.5" x2="99" y2="65.5" stroke="#060606" stroke-opacity="0.34"/>
<rect id="Rectangle 35" x="113" y="22" width="176" height="85" fill="#506383"/>
<path id="Polygon 3" d="M214 64.5L195.25 75.3253L195.25 53.6747L214 64.5Z" fill="white"/>
<rect id="Rectangle 5" x="113" y="115" width="218" height="5" fill="#506583"/>
<rect id="Rectangle 12" x="113" y="127" width="201" height="5" fill="#506583"/>
<rect id="Rectangle 11" x="114" y="143" width="53" height="18" rx="5" stroke="#182E4F" stroke-width="2"/>
<path id="&#226;&#128;&#152;See more &#226;&#128;&#168;videos&#226;&#128;&#153; &#226;&#128;&#168;button" d="M7.10156 144.629H7.82812V146.504H5.94727V145.051C5.94727 143.516 6.57422 142.748 7.82812 142.748V143.398C7.34375 143.398 7.10156 143.746 7.10156 144.441V144.629ZM8.96484 151.924V150.436C9.89844 150.826 10.6973 151.021 11.3613 151.021C11.8262 151.021 12.1914 150.918 12.457 150.711C12.7266 150.504 12.8613 150.223 12.8613 149.867C12.8613 149.586 12.7773 149.35 12.6094 149.158C12.4414 148.963 12.123 148.732 11.6543 148.467L11.0742 148.145C10.2969 147.707 9.74805 147.289 9.42773 146.891C9.10742 146.488 8.94727 146.02 8.94727 145.484C8.94727 144.77 9.20898 144.195 9.73242 143.762C10.2598 143.328 10.9551 143.111 11.8184 143.111C12.5098 143.111 13.2891 143.211 14.1562 143.41V144.799C13.2695 144.467 12.5684 144.301 12.0527 144.301C11.6543 144.301 11.334 144.391 11.0918 144.57C10.8535 144.746 10.7344 144.979 10.7344 145.268C10.7344 145.506 10.8184 145.715 10.9863 145.895C11.1543 146.074 11.4707 146.295 11.9355 146.557L12.5566 146.902C13.3926 147.371 13.9688 147.803 14.2852 148.197C14.6016 148.592 14.7598 149.072 14.7598 149.639C14.7598 150.443 14.4609 151.074 13.8633 151.531C13.2656 151.988 12.4414 152.217 11.3906 152.217C10.6953 152.217 9.88672 152.119 8.96484 151.924ZM21.5449 151.783C20.7207 152.025 19.9395 152.146 19.2012 152.146C18.127 152.146 17.2793 151.842 16.6582 151.232C16.0371 150.623 15.7266 149.791 15.7266 148.736C15.7266 147.74 16.0098 146.939 16.5762 146.334C17.1465 145.725 17.8984 145.42 18.832 145.42C19.7734 145.42 20.4609 145.717 20.8945 146.311C21.3281 146.904 21.5449 147.844 21.5449 149.129H17.5547C17.6719 150.355 18.3457 150.969 19.5762 150.969C20.1582 150.969 20.8145 150.834 21.5449 150.564V151.783ZM17.5312 148.15H19.8398C19.8398 147.053 19.4863 146.504 18.7793 146.504C18.0605 146.504 17.6445 147.053 17.5312 148.15ZM28.5762 151.783C27.752 152.025 26.9707 152.146 26.2324 152.146C25.1582 152.146 24.3105 151.842 23.6895 151.232C23.0684 150.623 22.7578 149.791 22.7578 148.736C22.7578 147.74 23.041 146.939 23.6074 146.334C24.1777 145.725 24.9297 145.42 25.8633 145.42C26.8047 145.42 27.4922 145.717 27.9258 146.311C28.3594 146.904 28.5762 147.844 28.5762 149.129H24.5859C24.7031 150.355 25.377 150.969 26.6074 150.969C27.1895 150.969 27.8457 150.834 28.5762 150.564V151.783ZM24.5625 148.15H26.8711C26.8711 147.053 26.5176 146.504 25.8105 146.504C25.0918 146.504 24.6758 147.053 24.5625 148.15ZM34.3301 152V145.566H35.9941V146.779C36.502 145.873 37.2246 145.42 38.1621 145.42C38.6465 145.42 39.0449 145.539 39.3574 145.777C39.6699 146.016 39.8613 146.35 39.9316 146.779C40.5332 145.873 41.2598 145.42 42.1113 145.42C43.2871 145.42 43.875 146.068 43.875 147.365V152H42.2109V147.934C42.2109 147.172 41.957 146.791 41.4492 146.791C40.9297 146.791 40.4238 147.166 39.9316 147.916V152H38.2676V147.934C38.2676 147.168 38.0117 146.785 37.5 146.785C36.9883 146.785 36.4863 147.162 35.9941 147.916V152H34.3301ZM48.668 152.146C47.6641 152.146 46.8652 151.844 46.2715 151.238C45.6816 150.629 45.3867 149.811 45.3867 148.783C45.3867 147.744 45.6836 146.924 46.2773 146.322C46.875 145.721 47.6855 145.42 48.709 145.42C49.7363 145.42 50.5469 145.721 51.1406 146.322C51.7383 146.924 52.0371 147.74 52.0371 148.771C52.0371 149.826 51.7383 150.652 51.1406 151.25C50.543 151.848 49.7188 152.146 48.668 152.146ZM48.6973 151.062C49.6934 151.062 50.1914 150.299 50.1914 148.771C50.1914 148.072 50.0586 147.52 49.793 147.113C49.5312 146.707 49.1699 146.504 48.709 146.504C48.252 146.504 47.8906 146.707 47.625 147.113C47.3633 147.52 47.2324 148.076 47.2324 148.783C47.2324 149.482 47.3633 150.037 47.625 150.447C47.8867 150.857 48.2441 151.062 48.6973 151.062ZM53.6309 152V145.566H55.3652V146.779C55.8145 145.873 56.498 145.42 57.416 145.42C57.5254 145.42 57.6328 145.432 57.7383 145.455V147.002C57.4922 146.912 57.2637 146.867 57.0527 146.867C56.3613 146.867 55.7988 147.217 55.3652 147.916V152H53.6309ZM64.3301 151.783C63.5059 152.025 62.7246 152.146 61.9863 152.146C60.9121 152.146 60.0645 151.842 59.4434 151.232C58.8223 150.623 58.5117 149.791 58.5117 148.736C58.5117 147.74 58.7949 146.939 59.3613 146.334C59.9316 145.725 60.6836 145.42 61.6172 145.42C62.5586 145.42 63.2461 145.717 63.6797 146.311C64.1133 146.904 64.3301 147.844 64.3301 149.129H60.3398C60.457 150.355 61.1309 150.969 62.3613 150.969C62.9434 150.969 63.5996 150.834 64.3301 150.564V151.783ZM60.3164 148.15H62.625C62.625 147.053 62.2715 146.504 61.5645 146.504C60.8457 146.504 60.4297 147.053 60.3164 148.15ZM24.2812 166L21.8262 159.566H23.6543L25.4531 164.207L27.2402 159.566H28.4941L26.0156 166H24.2812ZM29.8184 166V159.566H31.5527V166H29.8184ZM29.8184 158.482V157.035H31.5527V158.482H29.8184ZM37.7695 166V164.787C37.3242 165.693 36.623 166.146 35.666 166.146C34.8926 166.146 34.2852 165.863 33.8438 165.297C33.4023 164.73 33.1816 163.951 33.1816 162.959C33.1816 161.881 33.4297 161.021 33.9258 160.381C34.4258 159.74 35.0957 159.42 35.9355 159.42C36.6074 159.42 37.2188 159.686 37.7695 160.217V156.748H39.5098V166H37.7695ZM37.7695 161.248C37.3516 160.779 36.9043 160.545 36.4277 160.545C36.002 160.545 35.6621 160.75 35.4082 161.16C35.1543 161.57 35.0273 162.121 35.0273 162.812C35.0273 164.129 35.4492 164.787 36.293 164.787C36.8086 164.787 37.3008 164.457 37.7695 163.797V161.248ZM46.916 165.783C46.0918 166.025 45.3105 166.146 44.5723 166.146C43.498 166.146 42.6504 165.842 42.0293 165.232C41.4082 164.623 41.0977 163.791 41.0977 162.736C41.0977 161.74 41.3809 160.939 41.9473 160.334C42.5176 159.725 43.2695 159.42 44.2031 159.42C45.1445 159.42 45.832 159.717 46.2656 160.311C46.6992 160.904 46.916 161.844 46.916 163.129H42.9258C43.043 164.355 43.7168 164.969 44.9473 164.969C45.5293 164.969 46.1855 164.834 46.916 164.564V165.783ZM42.9023 162.15H45.2109C45.2109 161.053 44.8574 160.504 44.1504 160.504C43.4316 160.504 43.0156 161.053 42.9023 162.15ZM51.4102 166.146C50.4062 166.146 49.6074 165.844 49.0137 165.238C48.4238 164.629 48.1289 163.811 48.1289 162.783C48.1289 161.744 48.4258 160.924 49.0195 160.322C49.6172 159.721 50.4277 159.42 51.4512 159.42C52.4785 159.42 53.2891 159.721 53.8828 160.322C54.4805 160.924 54.7793 161.74 54.7793 162.771C54.7793 163.826 54.4805 164.652 53.8828 165.25C53.2852 165.848 52.4609 166.146 51.4102 166.146ZM51.4395 165.062C52.4355 165.062 52.9336 164.299 52.9336 162.771C52.9336 162.072 52.8008 161.52 52.5352 161.113C52.2734 160.707 51.9121 160.504 51.4512 160.504C50.9941 160.504 50.6328 160.707 50.3672 161.113C50.1055 161.52 49.9746 162.076 49.9746 162.783C49.9746 163.482 50.1055 164.037 50.3672 164.447C50.6289 164.857 50.9863 165.062 51.4395 165.062ZM56.2031 165.795V164.523C57.0625 164.883 57.7969 165.062 58.4062 165.062C59.1172 165.062 59.4727 164.82 59.4727 164.336C59.4727 164.023 59.1797 163.75 58.5938 163.516L58.0078 163.281C57.3711 163.023 56.916 162.746 56.6426 162.449C56.3691 162.152 56.2324 161.785 56.2324 161.348C56.2324 160.738 56.4648 160.266 56.9297 159.93C57.3945 159.59 58.0449 159.42 58.8809 159.42C59.4043 159.42 60.0273 159.496 60.75 159.648V160.867C60.0547 160.625 59.4785 160.504 59.0215 160.504C58.3027 160.504 57.9434 160.727 57.9434 161.172C57.9434 161.465 58.209 161.713 58.7402 161.916L59.2441 162.109C59.998 162.395 60.5215 162.684 60.8145 162.977C61.1113 163.27 61.2598 163.646 61.2598 164.107C61.2598 164.713 61.0078 165.205 60.5039 165.584C60.0039 165.959 59.3516 166.146 58.5469 166.146C57.7734 166.146 56.9922 166.029 56.2031 165.795ZM63.3398 158.629H62.6191V156.748H64.5V158.201C64.5 159.736 63.873 160.504 62.6191 160.504V159.854C63.0996 159.854 63.3398 159.506 63.3398 158.811V158.629ZM28.9629 180V170.748H30.6973V174.779C31.1426 173.873 31.8438 173.42 32.8008 173.42C33.5742 173.42 34.1816 173.703 34.623 174.27C35.0684 174.836 35.291 175.615 35.291 176.607C35.291 177.682 35.041 178.541 34.541 179.186C34.041 179.826 33.373 180.146 32.5371 180.146C31.8184 180.146 31.2051 179.881 30.6973 179.35L30.375 180H28.9629ZM30.6973 178.318C31.1191 178.787 31.5684 179.021 32.0449 179.021C32.4707 179.021 32.8105 178.816 33.0645 178.406C33.3184 177.992 33.4453 177.441 33.4453 176.754C33.4453 175.438 33.0215 174.779 32.1738 174.779C31.6621 174.779 31.1699 175.109 30.6973 175.77V178.318ZM40.8984 180V178.787C40.3359 179.693 39.6055 180.146 38.707 180.146C38.1328 180.146 37.6797 179.965 37.3477 179.602C37.0156 179.238 36.8496 178.742 36.8496 178.113V173.566H38.584V177.686C38.584 178.416 38.8281 178.781 39.3164 178.781C39.8633 178.781 40.3906 178.393 40.8984 177.615V173.566H42.6328V180H40.8984ZM48.123 179.965C47.709 180.086 47.3828 180.146 47.1445 180.146C45.6406 180.146 44.8887 179.443 44.8887 178.037V174.65H44.168V173.566H44.8887V172.482L46.623 172.283V173.566H48V174.65H46.623V177.809C46.623 178.598 46.9453 178.992 47.5898 178.992C47.7383 178.992 47.916 178.965 48.123 178.91V179.965ZM52.9863 179.965C52.5723 180.086 52.2461 180.146 52.0078 180.146C50.5039 180.146 49.752 179.443 49.752 178.037V174.65H49.0312V173.566H49.752V172.482L51.4863 172.283V173.566H52.8633V174.65H51.4863V177.809C51.4863 178.598 51.8086 178.992 52.4531 178.992C52.6016 178.992 52.7793 178.965 52.9863 178.91V179.965ZM57.2344 180.146C56.2305 180.146 55.4316 179.844 54.8379 179.238C54.248 178.629 53.9531 177.811 53.9531 176.783C53.9531 175.744 54.25 174.924 54.8438 174.322C55.4414 173.721 56.252 173.42 57.2754 173.42C58.3027 173.42 59.1133 173.721 59.707 174.322C60.3047 174.924 60.6035 175.74 60.6035 176.771C60.6035 177.826 60.3047 178.652 59.707 179.25C59.1094 179.848 58.2852 180.146 57.2344 180.146ZM57.2637 179.062C58.2598 179.062 58.7578 178.299 58.7578 176.771C58.7578 176.072 58.625 175.52 58.3594 175.113C58.0977 174.707 57.7363 174.504 57.2754 174.504C56.8184 174.504 56.457 174.707 56.1914 175.113C55.9297 175.52 55.7988 176.076 55.7988 176.783C55.7988 177.482 55.9297 178.037 56.1914 178.447C56.4531 178.857 56.8105 179.062 57.2637 179.062ZM62.1973 180V173.566H63.9316V174.779C64.498 173.873 65.2285 173.42 66.123 173.42C66.6973 173.42 67.1504 173.602 67.4824 173.965C67.8145 174.328 67.9805 174.824 67.9805 175.453V180H66.2461V175.881C66.2461 175.15 66.0039 174.785 65.5195 174.785C64.9688 174.785 64.4395 175.174 63.9316 175.951V180H62.1973Z" fill="#4F4F4F"/>
<path id="Description &#226;&#128;&#168;from YouTube&#226;&#128;&#168;(non-editable)" d="M388.839 116V109.496H391.001C391.646 109.496 392.166 109.568 392.562 109.711C392.96 109.855 393.304 110.098 393.594 110.441C394.054 110.986 394.284 111.704 394.284 112.594C394.284 113.675 393.999 114.513 393.427 115.108C392.856 115.703 392.052 116 391.015 116H388.839ZM389.762 115.31H390.944C391.788 115.31 392.386 115.083 392.737 114.629C393.115 114.146 393.304 113.497 393.304 112.682C393.304 111.917 393.118 111.317 392.746 110.88C392.521 110.614 392.251 110.432 391.938 110.335C391.624 110.236 391.152 110.186 390.522 110.186H389.762V115.31ZM399.105 115.846C398.525 116.022 398.028 116.11 397.615 116.11C396.912 116.11 396.338 115.877 395.893 115.411C395.45 114.942 395.229 114.336 395.229 113.592C395.229 112.868 395.424 112.275 395.813 111.812C396.206 111.349 396.707 111.118 397.316 111.118C397.894 111.118 398.339 111.323 398.652 111.733C398.969 112.143 399.127 112.726 399.127 113.482L399.123 113.75H396.112C396.238 114.884 396.793 115.451 397.778 115.451C398.138 115.451 398.581 115.354 399.105 115.161V115.846ZM396.152 113.1H398.257C398.257 112.212 397.926 111.768 397.264 111.768C396.599 111.768 396.228 112.212 396.152 113.1ZM401.891 116.11C401.496 116.11 401.015 116.018 400.45 115.833V115.038C401.015 115.319 401.507 115.459 401.926 115.459C402.175 115.459 402.382 115.392 402.546 115.257C402.71 115.123 402.792 114.954 402.792 114.752C402.792 114.456 402.562 114.211 402.102 114.018L401.597 113.803C400.85 113.492 400.476 113.045 400.476 112.462C400.476 112.046 400.623 111.72 400.916 111.482C401.211 111.242 401.616 111.122 402.128 111.122C402.395 111.122 402.725 111.159 403.117 111.232L403.297 111.267V111.988C402.814 111.844 402.43 111.772 402.146 111.772C401.589 111.772 401.311 111.975 401.311 112.379C401.311 112.64 401.522 112.859 401.944 113.038L402.361 113.214C402.833 113.413 403.167 113.624 403.363 113.847C403.56 114.066 403.658 114.342 403.658 114.673C403.658 115.092 403.492 115.436 403.161 115.706C402.83 115.975 402.407 116.11 401.891 116.11ZM407.077 116.11C406.432 116.11 405.897 115.871 405.473 115.394C405.048 114.916 404.835 114.314 404.835 113.587C404.835 112.811 405.045 112.206 405.464 111.772C405.886 111.339 406.473 111.122 407.226 111.122C407.598 111.122 408.014 111.173 408.474 111.276V112.001C407.985 111.857 407.586 111.786 407.279 111.786C406.836 111.786 406.48 111.953 406.211 112.287C405.944 112.618 405.811 113.06 405.811 113.614C405.811 114.15 405.949 114.583 406.224 114.915C406.5 115.246 406.86 115.411 407.305 115.411C407.701 115.411 408.108 115.31 408.527 115.108V115.855C407.967 116.025 407.484 116.11 407.077 116.11ZM409.828 116V111.228H410.693V112.124C411.036 111.456 411.534 111.122 412.188 111.122C412.275 111.122 412.368 111.129 412.464 111.144V111.953C412.315 111.903 412.183 111.878 412.069 111.878C411.521 111.878 411.062 112.203 410.693 112.854V116H409.828ZM413.51 116V111.228H414.376V116H413.51ZM413.51 110.362V109.496H414.376V110.362H413.51ZM416.112 117.736V111.228H416.978V112.124C417.332 111.456 417.864 111.122 418.573 111.122C419.147 111.122 419.598 111.332 419.926 111.75C420.257 112.169 420.423 112.742 420.423 113.469C420.423 114.26 420.235 114.898 419.86 115.385C419.488 115.868 418.998 116.11 418.388 116.11C417.823 116.11 417.353 115.893 416.978 115.459V117.736H416.112ZM416.978 114.862C417.423 115.26 417.848 115.459 418.252 115.459C419.084 115.459 419.5 114.825 419.5 113.557C419.5 112.438 419.131 111.878 418.393 111.878C417.909 111.878 417.438 112.14 416.978 112.665V114.862ZM423.213 116.11C422.774 116.11 422.431 115.984 422.185 115.732C421.939 115.48 421.816 115.13 421.816 114.682V111.878H421.218V111.228H421.816V110.362L422.682 110.278V111.228H423.93V111.878H422.682V114.523C422.682 115.147 422.951 115.459 423.49 115.459C423.604 115.459 423.744 115.44 423.908 115.402V116C423.641 116.073 423.41 116.11 423.213 116.11ZM425.147 116V111.228H426.013V116H425.147ZM425.147 110.362V109.496H426.013V110.362H425.147ZM429.616 116.11C428.934 116.11 428.389 115.884 427.981 115.433C427.574 114.979 427.371 114.373 427.371 113.614C427.371 112.846 427.574 112.24 427.981 111.794C428.392 111.346 428.947 111.122 429.647 111.122C430.347 111.122 430.901 111.346 431.308 111.794C431.718 112.24 431.923 112.843 431.923 113.605C431.923 114.384 431.718 114.997 431.308 115.442C430.898 115.887 430.334 116.11 429.616 116.11ZM429.629 115.459C430.546 115.459 431.005 114.841 431.005 113.605C431.005 112.383 430.552 111.772 429.647 111.772C428.745 111.772 428.293 112.386 428.293 113.614C428.293 114.844 428.739 115.459 429.629 115.459ZM433.277 116V111.228H434.143V112.124C434.6 111.456 435.159 111.122 435.821 111.122C436.234 111.122 436.564 111.254 436.81 111.518C437.056 111.778 437.179 112.13 437.179 112.572V116H436.313V112.854C436.313 112.499 436.261 112.247 436.155 112.098C436.053 111.945 435.881 111.869 435.641 111.869C435.111 111.869 434.611 112.216 434.143 112.911V116H433.277ZM389.898 122.878V127H389.028V122.878H388.352V122.228H389.028V121.656C389.028 120.52 389.547 119.951 390.584 119.951C390.874 119.951 391.204 120 391.573 120.096V120.782C391.183 120.662 390.871 120.602 390.637 120.602C390.353 120.602 390.158 120.67 390.052 120.808C389.95 120.943 389.898 121.195 389.898 121.564V122.228H391.089V122.878H389.898ZM392.179 127V122.228H393.045V123.124C393.388 122.456 393.886 122.122 394.539 122.122C394.627 122.122 394.719 122.129 394.816 122.144V122.953C394.667 122.903 394.535 122.878 394.42 122.878C393.873 122.878 393.414 123.203 393.045 123.854V127H392.179ZM397.729 127.11C397.047 127.11 396.502 126.884 396.095 126.433C395.688 125.979 395.484 125.373 395.484 124.614C395.484 123.846 395.688 123.24 396.095 122.794C396.505 122.346 397.06 122.122 397.76 122.122C398.46 122.122 399.014 122.346 399.421 122.794C399.832 123.24 400.037 123.843 400.037 124.605C400.037 125.384 399.832 125.997 399.421 126.442C399.011 126.887 398.447 127.11 397.729 127.11ZM397.743 126.459C398.66 126.459 399.118 125.841 399.118 124.605C399.118 123.383 398.666 122.772 397.76 122.772C396.858 122.772 396.407 123.386 396.407 124.614C396.407 125.844 396.852 126.459 397.743 126.459ZM401.39 127V122.228H402.256V123.124C402.678 122.456 403.22 122.122 403.882 122.122C404.521 122.122 404.956 122.456 405.187 123.124C405.597 122.453 406.13 122.118 406.787 122.118C407.208 122.118 407.535 122.242 407.767 122.491C407.998 122.737 408.114 123.083 408.114 123.528V127H407.244V123.665C407.244 123.12 407.028 122.847 406.598 122.847C406.149 122.847 405.679 123.165 405.187 123.801V127H404.317V123.665C404.317 123.117 404.097 122.843 403.658 122.843C403.221 122.843 402.754 123.162 402.256 123.801V127H401.39ZM414.02 127V124.284L411.849 120.496H412.904L414.591 123.432L416.411 120.496H417.268L414.943 124.267V127H414.02ZM420.115 127.11C419.433 127.11 418.888 126.884 418.48 126.433C418.073 125.979 417.87 125.373 417.87 124.614C417.87 123.846 418.073 123.24 418.48 122.794C418.891 122.346 419.446 122.122 420.146 122.122C420.846 122.122 421.4 122.346 421.807 122.794C422.217 123.24 422.422 123.843 422.422 124.605C422.422 125.384 422.217 125.997 421.807 126.442C421.397 126.887 420.833 127.11 420.115 127.11ZM420.128 126.459C421.045 126.459 421.504 125.841 421.504 124.605C421.504 123.383 421.051 122.772 420.146 122.772C419.244 122.772 418.792 123.386 418.792 124.614C418.792 125.844 419.238 126.459 420.128 126.459ZM426.76 127V126.104C426.3 126.774 425.742 127.11 425.085 127.11C424.669 127.11 424.338 126.979 424.092 126.719C423.846 126.455 423.723 126.101 423.723 125.655V122.228H424.589V125.374C424.589 125.731 424.64 125.986 424.743 126.139C424.848 126.288 425.022 126.363 425.266 126.363C425.793 126.363 426.291 126.016 426.76 125.321V122.228H427.625V127H426.76ZM430.886 127V121.186H428.579V120.496H434.116V121.186H431.809V127H430.886ZM438.045 127V126.104C437.585 126.774 437.027 127.11 436.371 127.11C435.955 127.11 435.624 126.979 435.377 126.719C435.131 126.455 435.008 126.101 435.008 125.655V122.228H435.874V125.374C435.874 125.731 435.925 125.986 436.028 126.139C436.133 126.288 436.308 126.363 436.551 126.363C437.078 126.363 437.576 126.016 438.045 125.321V122.228H438.911V127H438.045ZM440.651 127.053V120.061H441.517V123.124C441.871 122.456 442.403 122.122 443.112 122.122C443.686 122.122 444.137 122.332 444.465 122.75C444.796 123.169 444.962 123.742 444.962 124.469C444.962 125.26 444.774 125.898 444.399 126.385C444.027 126.868 443.537 127.11 442.927 127.11C442.362 127.11 441.892 126.893 441.517 126.459L441.411 127.053H440.651ZM441.517 125.862C441.962 126.26 442.387 126.459 442.791 126.459C443.623 126.459 444.039 125.825 444.039 124.557C444.039 123.438 443.67 122.878 442.932 122.878C442.448 122.878 441.977 123.14 441.517 123.665V125.862ZM449.818 126.846C449.238 127.022 448.741 127.11 448.328 127.11C447.625 127.11 447.051 126.877 446.605 126.411C446.163 125.942 445.942 125.336 445.942 124.592C445.942 123.868 446.137 123.275 446.526 122.812C446.919 122.349 447.42 122.118 448.029 122.118C448.606 122.118 449.052 122.323 449.365 122.733C449.682 123.143 449.84 123.726 449.84 124.482L449.835 124.75H446.825C446.951 125.884 447.506 126.451 448.491 126.451C448.851 126.451 449.293 126.354 449.818 126.161V126.846ZM446.865 124.1H448.97C448.97 123.212 448.639 122.768 447.977 122.768C447.312 122.768 446.941 123.212 446.865 124.1ZM390.602 138.703V139.301C389.969 138.87 389.466 138.286 389.094 137.547C388.725 136.806 388.541 136.017 388.541 135.179C388.541 134.344 388.725 133.557 389.094 132.819C389.466 132.078 389.969 131.492 390.602 131.061V131.659C390.171 132.127 389.863 132.631 389.679 133.17C389.497 133.709 389.406 134.379 389.406 135.179C389.406 135.981 389.497 136.652 389.679 137.191C389.863 137.73 390.171 138.234 390.602 138.703ZM391.792 138V133.228H392.658V134.124C393.115 133.456 393.675 133.122 394.337 133.122C394.75 133.122 395.08 133.254 395.326 133.518C395.572 133.778 395.695 134.13 395.695 134.572V138H394.829V134.854C394.829 134.499 394.776 134.247 394.671 134.098C394.568 133.945 394.397 133.869 394.157 133.869C393.626 133.869 393.127 134.216 392.658 134.911V138H391.792ZM399.25 138.11C398.567 138.11 398.022 137.884 397.615 137.433C397.208 136.979 397.004 136.373 397.004 135.614C397.004 134.846 397.208 134.24 397.615 133.794C398.025 133.346 398.581 133.122 399.281 133.122C399.981 133.122 400.535 133.346 400.942 133.794C401.352 134.24 401.557 134.843 401.557 135.605C401.557 136.384 401.352 136.997 400.942 137.442C400.532 137.887 399.968 138.11 399.25 138.11ZM399.263 137.459C400.18 137.459 400.639 136.841 400.639 135.605C400.639 134.383 400.186 133.772 399.281 133.772C398.378 133.772 397.927 134.386 397.927 135.614C397.927 136.844 398.373 137.459 399.263 137.459ZM402.911 138V133.228H403.776V134.124C404.233 133.456 404.793 133.122 405.455 133.122C405.868 133.122 406.198 133.254 406.444 133.518C406.69 133.778 406.813 134.13 406.813 134.572V138H405.947V134.854C405.947 134.499 405.895 134.247 405.789 134.098C405.687 133.945 405.515 133.869 405.275 133.869C404.745 133.869 404.245 134.216 403.776 134.911V138H402.911ZM408.285 135.724V135.073H412.188V135.724H408.285ZM417.21 137.846C416.63 138.022 416.134 138.11 415.721 138.11C415.018 138.11 414.443 137.877 413.998 137.411C413.556 136.942 413.334 136.336 413.334 135.592C413.334 134.868 413.529 134.275 413.919 133.812C414.312 133.349 414.812 133.118 415.422 133.118C415.999 133.118 416.444 133.323 416.758 133.733C417.074 134.143 417.232 134.726 417.232 135.482L417.228 135.75H414.218C414.344 136.884 414.899 137.451 415.883 137.451C416.244 137.451 416.686 137.354 417.21 137.161V137.846ZM414.257 135.1H416.362C416.362 134.212 416.031 133.768 415.369 133.768C414.704 133.768 414.333 134.212 414.257 135.1ZM421.794 138V137.104C421.442 137.774 420.912 138.11 420.203 138.11C419.629 138.11 419.176 137.9 418.845 137.481C418.517 137.062 418.353 136.49 418.353 135.763C418.353 134.969 418.539 134.331 418.911 133.847C419.286 133.364 419.778 133.122 420.388 133.122C420.953 133.122 421.422 133.339 421.794 133.772V131.061H422.664V138H421.794ZM421.794 134.366C421.346 133.97 420.921 133.772 420.52 133.772C419.69 133.772 419.276 134.407 419.276 135.675C419.276 136.792 419.645 137.35 420.383 137.35C420.864 137.35 421.334 137.087 421.794 136.563V134.366ZM424.4 138V133.228H425.266V138H424.4ZM424.4 132.362V131.496H425.266V132.362H424.4ZM428.434 138.11C427.995 138.11 427.652 137.984 427.406 137.732C427.16 137.48 427.037 137.13 427.037 136.682V133.878H426.439V133.228H427.037V132.362L427.902 132.278V133.228H429.15V133.878H427.902V136.523C427.902 137.147 428.172 137.459 428.711 137.459C428.825 137.459 428.964 137.44 429.128 137.402V138C428.862 138.073 428.63 138.11 428.434 138.11ZM432.829 137.394C432.31 137.871 431.811 138.11 431.33 138.11C430.935 138.11 430.606 137.987 430.346 137.741C430.085 137.492 429.955 137.178 429.955 136.8C429.955 136.279 430.173 135.879 430.609 135.601C431.049 135.319 431.677 135.179 432.495 135.179H432.701V134.603C432.701 134.049 432.417 133.772 431.849 133.772C431.392 133.772 430.898 133.913 430.368 134.194V133.478C430.951 133.241 431.497 133.122 432.007 133.122C432.54 133.122 432.933 133.242 433.185 133.482C433.439 133.723 433.567 134.096 433.567 134.603V136.765C433.567 137.26 433.719 137.508 434.024 137.508C434.062 137.508 434.118 137.502 434.191 137.49L434.252 137.969C434.056 138.063 433.839 138.11 433.602 138.11C433.198 138.11 432.94 137.871 432.829 137.394ZM432.701 136.923V135.688L432.411 135.68C431.937 135.68 431.553 135.771 431.26 135.952C430.967 136.131 430.82 136.367 430.82 136.66C430.82 136.868 430.894 137.043 431.04 137.187C431.187 137.331 431.365 137.402 431.576 137.402C431.937 137.402 432.312 137.243 432.701 136.923ZM435.342 138.053V131.061H436.208V134.124C436.562 133.456 437.094 133.122 437.803 133.122C438.377 133.122 438.829 133.332 439.157 133.75C439.488 134.169 439.653 134.742 439.653 135.469C439.653 136.26 439.466 136.898 439.091 137.385C438.719 137.868 438.228 138.11 437.619 138.11C437.053 138.11 436.583 137.893 436.208 137.459L436.103 138.053H435.342ZM436.208 136.862C436.653 137.26 437.078 137.459 437.482 137.459C438.314 137.459 438.73 136.825 438.73 135.557C438.73 134.438 438.361 133.878 437.623 133.878C437.14 133.878 436.668 134.14 436.208 134.665V136.862ZM441.011 138V131.061H441.877V138H441.011ZM447.111 137.846C446.531 138.022 446.034 138.11 445.621 138.11C444.918 138.11 444.344 137.877 443.898 137.411C443.456 136.942 443.235 136.336 443.235 135.592C443.235 134.868 443.43 134.275 443.819 133.812C444.212 133.349 444.713 133.118 445.322 133.118C445.899 133.118 446.345 133.323 446.658 133.733C446.975 134.143 447.133 134.726 447.133 135.482L447.128 135.75H444.118C444.244 136.884 444.799 137.451 445.784 137.451C446.144 137.451 446.586 137.354 447.111 137.161V137.846ZM444.158 135.1H446.263C446.263 134.212 445.932 133.768 445.27 133.768C444.604 133.768 444.234 134.212 444.158 135.1ZM448.091 138.703V139.301C448.724 138.87 449.225 138.286 449.594 137.547C449.966 136.806 450.152 136.017 450.152 135.179C450.152 134.344 449.966 133.557 449.594 132.819C449.225 132.078 448.724 131.492 448.091 131.061V131.659C448.521 132.127 448.828 132.631 449.009 133.17C449.194 133.709 449.286 134.379 449.286 135.179C449.286 135.981 449.194 136.652 449.009 137.191C448.828 137.73 448.521 138.234 448.091 138.703Z" fill="#4F4F4F"/>
<line id="Line 4" x1="73" y1="153.5" x2="99" y2="153.5" stroke="#060606" stroke-opacity="0.34"/>
<line id="Line 6" x1="352" y1="116.5" x2="379" y2="116.5" stroke="#060606" stroke-opacity="0.34"/>
</g>
</svg>
