<svg width="384" height="142" viewBox="0 0 384 142" fill="none" xmlns="http://www.w3.org/2000/svg">
<g id="what-you-can-do-guide">
<rect id="Rectangle 5" x="134" y="27" width="250" height="5" fill="#506583"/>
<rect id="Rectangle 21" x="134" width="250" height="14" fill="#182E4F"/>
<rect id="Rectangle 12" x="134" y="39" width="230" height="5" fill="#506583"/>
<rect id="Rectangle 19" x="134" y="51" width="169" height="5" fill="#506583"/>
<g id="Group 2">
<rect id="Rectangle 32" x="136" y="127" width="61" height="3" fill="#506583"/>
<rect id="Rectangle 33" x="136" y="133" width="55" height="3" fill="#506583"/>
<rect id="Rectangle 34" x="136" y="139" width="61" height="3" fill="#506583"/>
<rect id="Rectangle 28" x="134.75" y="78.75" width="62.5" height="34.5" rx="2.25" stroke="#182E4F" stroke-width="1.5"/>
<rect id="Rectangle 31" x="136" y="118" width="55" height="5" fill="#0071BB" fill-opacity="0.5"/>
<path id="Vector 2" d="M146 95L135.5 103V113H197V103L178 86L154.5 103L146 95Z" fill="#182E4F"/>
<circle id="Ellipse 1" cx="152.5" cy="90.5" r="3.5" fill="#182E4F"/>
</g>
<g id="Group 3">
<rect id="Rectangle 32_2" x="229" y="127" width="61" height="3" fill="#506583"/>
<rect id="Rectangle 33_2" x="229" y="133" width="55" height="3" fill="#506583"/>
<rect id="Rectangle 34_2" x="229" y="139" width="61" height="3" fill="#506583"/>
<rect id="Rectangle 28_2" x="227.75" y="78.75" width="62.5" height="34.5" rx="2.25" stroke="#182E4F" stroke-width="1.5"/>
<rect id="Rectangle 31_2" x="229" y="118" width="55" height="5" fill="#0071BB" fill-opacity="0.5"/>
<path id="Vector 2_2" d="M239 95L228.5 103V113H290V103L271 86L247.5 103L239 95Z" fill="#182E4F"/>
<circle id="Ellipse 1_2" cx="245.5" cy="90.5" r="3.5" fill="#182E4F"/>
</g>
<g id="Group 4">
<rect id="Rectangle 32_3" x="322" y="127" width="61" height="3" fill="#506583"/>
<rect id="Rectangle 33_3" x="322" y="133" width="55" height="3" fill="#506583"/>
<rect id="Rectangle 34_3" x="322" y="139" width="61" height="3" fill="#506583"/>
<rect id="Rectangle 28_3" x="320.75" y="78.75" width="62.5" height="34.5" rx="2.25" stroke="#182E4F" stroke-width="1.5"/>
<rect id="Rectangle 31_3" x="322" y="118" width="55" height="5" fill="#0071BB" fill-opacity="0.5"/>
<path id="Vector 2_3" d="M332 95L321.5 103V113H383V103L364 86L340.5 103L332 95Z" fill="#182E4F"/>
<circle id="Ellipse 1_3" cx="338.5" cy="90.5" r="3.5" fill="#182E4F"/>
</g>
<path id="Heading" d="M28.9668 12V3.32812H30.7715V6.84961H34.3574V3.32812H36.1621V12H34.3574V8.04492H30.7715V12H28.9668ZM43.5684 11.7832C42.7441 12.0254 41.9629 12.1465 41.2246 12.1465C40.1504 12.1465 39.3027 11.8418 38.6816 11.2324C38.0605 10.623 37.75 9.79102 37.75 8.73633C37.75 7.74023 38.0332 6.93945 38.5996 6.33398C39.1699 5.72461 39.9219 5.41992 40.8555 5.41992C41.7969 5.41992 42.4844 5.7168 42.918 6.31055C43.3516 6.9043 43.5684 7.84375 43.5684 9.12891H39.5781C39.6953 10.3555 40.3691 10.9688 41.5996 10.9688C42.1816 10.9688 42.8379 10.834 43.5684 10.5645V11.7832ZM39.5547 8.15039H41.8633C41.8633 7.05273 41.5098 6.50391 40.8027 6.50391C40.084 6.50391 39.668 7.05273 39.5547 8.15039ZM48.5137 11.3086C47.9355 11.8672 47.3164 12.1465 46.6562 12.1465C46.0938 12.1465 45.6367 11.9746 45.2852 11.6309C44.9336 11.2871 44.7578 10.8418 44.7578 10.2949C44.7578 9.58398 45.041 9.03711 45.6074 8.6543C46.1777 8.26758 46.9922 8.07422 48.0508 8.07422H48.5137V7.48828C48.5137 6.82031 48.1328 6.48633 47.3711 6.48633C46.6953 6.48633 46.0117 6.67773 45.3203 7.06055V5.86523C46.1055 5.56836 46.8828 5.41992 47.6523 5.41992C49.3359 5.41992 50.1777 6.08984 50.1777 7.42969V10.2773C50.1777 10.7812 50.3398 11.0332 50.6641 11.0332C50.7227 11.0332 50.7988 11.0254 50.8926 11.0098L50.9336 11.9824C50.5664 12.0918 50.2422 12.1465 49.9609 12.1465C49.25 12.1465 48.793 11.8672 48.5898 11.3086H48.5137ZM48.5137 10.377V9.07031H48.1035C46.9824 9.07031 46.4219 9.42188 46.4219 10.125C46.4219 10.3633 46.502 10.5645 46.6621 10.7285C46.8262 10.8887 47.0273 10.9688 47.2656 10.9688C47.6719 10.9688 48.0879 10.7715 48.5137 10.377ZM56.4648 12V10.7871C56.0195 11.6934 55.3184 12.1465 54.3613 12.1465C53.5879 12.1465 52.9805 11.8633 52.5391 11.2969C52.0977 10.7305 51.877 9.95117 51.877 8.95898C51.877 7.88086 52.125 7.02148 52.6211 6.38086C53.1211 5.74023 53.791 5.41992 54.6309 5.41992C55.3027 5.41992 55.9141 5.68555 56.4648 6.2168V2.74805H58.2051V12H56.4648ZM56.4648 7.24805C56.0469 6.7793 55.5996 6.54492 55.123 6.54492C54.6973 6.54492 54.3574 6.75 54.1035 7.16016C53.8496 7.57031 53.7227 8.12109 53.7227 8.8125C53.7227 10.1289 54.1445 10.7871 54.9883 10.7871C55.5039 10.7871 55.9961 10.457 56.4648 9.79688V7.24805ZM60.373 12V5.56641H62.1074V12H60.373ZM60.373 4.48242V3.03516H62.1074V4.48242H60.373ZM64.2754 12V5.56641H66.0098V6.7793C66.5762 5.87305 67.3066 5.41992 68.2012 5.41992C68.7754 5.41992 69.2285 5.60156 69.5605 5.96484C69.8926 6.32812 70.0586 6.82422 70.0586 7.45312V12H68.3242V7.88086C68.3242 7.15039 68.082 6.78516 67.5977 6.78516C67.0469 6.78516 66.5176 7.17383 66.0098 7.95117V12H64.2754ZM72.209 13.998L72.3496 12.7383C73.0645 13.0664 73.7461 13.2305 74.3945 13.2305C75.0352 13.2305 75.498 13.0938 75.7832 12.8203C76.0684 12.5469 76.2109 12.1035 76.2109 11.4902V10.6113C75.7891 11.5371 75.0918 12 74.1191 12C73.3535 12 72.7461 11.7148 72.2969 11.1445C71.8477 10.5703 71.623 9.79492 71.623 8.81836C71.623 7.79102 71.875 6.96875 72.3789 6.35156C72.8828 5.73047 73.5527 5.41992 74.3887 5.41992C75.0449 5.41992 75.6523 5.68555 76.2109 6.2168L76.3926 5.56641H77.9512V10.4766C77.9512 11.457 77.8906 12.1641 77.7695 12.5977C77.6523 13.0312 77.4219 13.4004 77.0781 13.7051C76.5 14.2051 75.6855 14.4551 74.6348 14.4551C73.8887 14.4551 73.0801 14.3027 72.209 13.998ZM76.2109 9.60352V7.23047C75.793 6.75781 75.3555 6.52148 74.8984 6.52148C74.4609 6.52148 74.1133 6.7207 73.8555 7.11914C73.5977 7.51758 73.4688 8.05273 73.4688 8.72461C73.4688 9.98242 73.873 10.6113 74.6816 10.6113C75.2402 10.6113 75.75 10.2754 76.2109 9.60352Z" fill="#4F4F4F"/>
<path id="Introduction" d="M1.67773 44V35.3281H3.48242V44H1.67773ZM5.66211 44V37.5664H7.39648V38.7793C7.96289 37.873 8.69336 37.4199 9.58789 37.4199C10.1621 37.4199 10.6152 37.6016 10.9473 37.9648C11.2793 38.3281 11.4453 38.8242 11.4453 39.4531V44H9.71094V39.8809C9.71094 39.1504 9.46875 38.7852 8.98438 38.7852C8.43359 38.7852 7.9043 39.1738 7.39648 39.9512V44H5.66211ZM16.8652 43.9648C16.4512 44.0859 16.125 44.1465 15.8867 44.1465C14.3828 44.1465 13.6309 43.4434 13.6309 42.0371V38.6504H12.9102V37.5664H13.6309V36.4824L15.3652 36.2832V37.5664H16.7422V38.6504H15.3652V41.8086C15.3652 42.5977 15.6875 42.9922 16.332 42.9922C16.4805 42.9922 16.6582 42.9648 16.8652 42.9102V43.9648ZM18.4121 44V37.5664H20.1465V38.7793C20.5957 37.873 21.2793 37.4199 22.1973 37.4199C22.3066 37.4199 22.4141 37.4316 22.5195 37.4551V39.002C22.2734 38.9121 22.0449 38.8672 21.834 38.8672C21.1426 38.8672 20.5801 39.2168 20.1465 39.916V44H18.4121ZM26.5742 44.1465C25.5703 44.1465 24.7715 43.8438 24.1777 43.2383C23.5879 42.6289 23.293 41.8105 23.293 40.7832C23.293 39.7441 23.5898 38.9238 24.1836 38.3223C24.7812 37.7207 25.5918 37.4199 26.6152 37.4199C27.6426 37.4199 28.4531 37.7207 29.0469 38.3223C29.6445 38.9238 29.9434 39.7402 29.9434 40.7715C29.9434 41.8262 29.6445 42.6523 29.0469 43.25C28.4492 43.8477 27.625 44.1465 26.5742 44.1465ZM26.6035 43.0625C27.5996 43.0625 28.0977 42.2988 28.0977 40.7715C28.0977 40.0723 27.9648 39.5195 27.6992 39.1133C27.4375 38.707 27.0762 38.5039 26.6152 38.5039C26.1582 38.5039 25.7969 38.707 25.5312 39.1133C25.2695 39.5195 25.1387 40.0762 25.1387 40.7832C25.1387 41.4824 25.2695 42.0371 25.5312 42.4473C25.793 42.8574 26.1504 43.0625 26.6035 43.0625ZM35.5859 44V42.7871C35.1406 43.6934 34.4395 44.1465 33.4824 44.1465C32.709 44.1465 32.1016 43.8633 31.6602 43.2969C31.2188 42.7305 30.998 41.9512 30.998 40.959C30.998 39.8809 31.2461 39.0215 31.7422 38.3809C32.2422 37.7402 32.9121 37.4199 33.752 37.4199C34.4238 37.4199 35.0352 37.6855 35.5859 38.2168V34.748H37.3262V44H35.5859ZM35.5859 39.248C35.168 38.7793 34.7207 38.5449 34.2441 38.5449C33.8184 38.5449 33.4785 38.75 33.2246 39.1602C32.9707 39.5703 32.8438 40.1211 32.8438 40.8125C32.8438 42.1289 33.2656 42.7871 34.1094 42.7871C34.625 42.7871 35.1172 42.457 35.5859 41.7969V39.248ZM43.4727 44V42.7871C42.9102 43.6934 42.1797 44.1465 41.2812 44.1465C40.707 44.1465 40.2539 43.9648 39.9219 43.6016C39.5898 43.2383 39.4238 42.7422 39.4238 42.1133V37.5664H41.1582V41.6855C41.1582 42.416 41.4023 42.7812 41.8906 42.7812C42.4375 42.7812 42.9648 42.3926 43.4727 41.6152V37.5664H45.207V44H43.4727ZM52.127 43.8594C51.4082 44.0508 50.7422 44.1465 50.1289 44.1465C49.1016 44.1465 48.2891 43.8457 47.6914 43.2441C47.0977 42.6387 46.8008 41.8164 46.8008 40.7773C46.8008 39.7266 47.1074 38.9043 47.7207 38.3105C48.334 37.7168 49.1816 37.4199 50.2637 37.4199C50.7871 37.4199 51.3906 37.5039 52.0742 37.6719V38.9258C51.3633 38.6953 50.7949 38.5801 50.3691 38.5801C49.8496 38.5801 49.4316 38.7793 49.1152 39.1777C48.7988 39.5762 48.6406 40.1055 48.6406 40.7656C48.6406 41.4414 48.8105 41.9824 49.1504 42.3887C49.4941 42.7949 49.9512 42.998 50.5215 42.998C51.041 42.998 51.5762 42.8848 52.127 42.6582V43.8594ZM57.084 43.9648C56.6699 44.0859 56.3438 44.1465 56.1055 44.1465C54.6016 44.1465 53.8496 43.4434 53.8496 42.0371V38.6504H53.1289V37.5664H53.8496V36.4824L55.584 36.2832V37.5664H56.9609V38.6504H55.584V41.8086C55.584 42.5977 55.9062 42.9922 56.5508 42.9922C56.6992 42.9922 56.877 42.9648 57.084 42.9102V43.9648ZM58.6309 44V37.5664H60.3652V44H58.6309ZM58.6309 36.4824V35.0352H60.3652V36.4824H58.6309ZM65.2344 44.1465C64.2305 44.1465 63.4316 43.8438 62.8379 43.2383C62.248 42.6289 61.9531 41.8105 61.9531 40.7832C61.9531 39.7441 62.25 38.9238 62.8438 38.3223C63.4414 37.7207 64.252 37.4199 65.2754 37.4199C66.3027 37.4199 67.1133 37.7207 67.707 38.3223C68.3047 38.9238 68.6035 39.7402 68.6035 40.7715C68.6035 41.8262 68.3047 42.6523 67.707 43.25C67.1094 43.8477 66.2852 44.1465 65.2344 44.1465ZM65.2637 43.0625C66.2598 43.0625 66.7578 42.2988 66.7578 40.7715C66.7578 40.0723 66.625 39.5195 66.3594 39.1133C66.0977 38.707 65.7363 38.5039 65.2754 38.5039C64.8184 38.5039 64.457 38.707 64.1914 39.1133C63.9297 39.5195 63.7988 40.0762 63.7988 40.7832C63.7988 41.4824 63.9297 42.0371 64.1914 42.4473C64.4531 42.8574 64.8105 43.0625 65.2637 43.0625ZM70.1973 44V37.5664H71.9316V38.7793C72.498 37.873 73.2285 37.4199 74.123 37.4199C74.6973 37.4199 75.1504 37.6016 75.4824 37.9648C75.8145 38.3281 75.9805 38.8242 75.9805 39.4531V44H74.2461V39.8809C74.2461 39.1504 74.0039 38.7852 73.5195 38.7852C72.9688 38.7852 72.4395 39.1738 71.9316 39.9512V44H70.1973Z" fill="#4F4F4F"/>
<path id="Promos" d="M31.5137 98V89.3281H34.5371C35.5918 89.3281 36.3438 89.5059 36.793 89.8613C37.2461 90.2129 37.4727 90.8027 37.4727 91.6309C37.4727 92.5684 37.1699 93.2988 36.5645 93.8223C35.9629 94.3418 35.1191 94.6016 34.0332 94.6016H33.2832V98H31.5137ZM33.2832 93.4121H33.6348C34.252 93.4121 34.7383 93.2695 35.0938 92.9844C35.4531 92.6953 35.6328 92.3047 35.6328 91.8125C35.6328 90.9492 35.084 90.5176 33.9863 90.5176H33.2832V93.4121ZM38.873 98V91.5664H40.6074V92.7793C41.0566 91.873 41.7402 91.4199 42.6582 91.4199C42.7676 91.4199 42.875 91.4316 42.9805 91.4551V93.002C42.7344 92.9121 42.5059 92.8672 42.2949 92.8672C41.6035 92.8672 41.041 93.2168 40.6074 93.916V98H38.873ZM47.0352 98.1465C46.0312 98.1465 45.2324 97.8438 44.6387 97.2383C44.0488 96.6289 43.7539 95.8105 43.7539 94.7832C43.7539 93.7441 44.0508 92.9238 44.6445 92.3223C45.2422 91.7207 46.0527 91.4199 47.0762 91.4199C48.1035 91.4199 48.9141 91.7207 49.5078 92.3223C50.1055 92.9238 50.4043 93.7402 50.4043 94.7715C50.4043 95.8262 50.1055 96.6523 49.5078 97.25C48.9102 97.8477 48.0859 98.1465 47.0352 98.1465ZM47.0645 97.0625C48.0605 97.0625 48.5586 96.2988 48.5586 94.7715C48.5586 94.0723 48.4258 93.5195 48.1602 93.1133C47.8984 92.707 47.5371 92.5039 47.0762 92.5039C46.6191 92.5039 46.2578 92.707 45.9922 93.1133C45.7305 93.5195 45.5996 94.0762 45.5996 94.7832C45.5996 95.4824 45.7305 96.0371 45.9922 96.4473C46.2539 96.8574 46.6113 97.0625 47.0645 97.0625ZM51.998 98V91.5664H53.6621V92.7793C54.1699 91.873 54.8926 91.4199 55.8301 91.4199C56.3145 91.4199 56.7129 91.5391 57.0254 91.7773C57.3379 92.0156 57.5293 92.3496 57.5996 92.7793C58.2012 91.873 58.9277 91.4199 59.7793 91.4199C60.9551 91.4199 61.543 92.0684 61.543 93.3652V98H59.8789V93.9336C59.8789 93.1719 59.625 92.791 59.1172 92.791C58.5977 92.791 58.0918 93.166 57.5996 93.916V98H55.9355V93.9336C55.9355 93.168 55.6797 92.7852 55.168 92.7852C54.6562 92.7852 54.1543 93.1621 53.6621 93.916V98H51.998ZM66.3359 98.1465C65.332 98.1465 64.5332 97.8438 63.9395 97.2383C63.3496 96.6289 63.0547 95.8105 63.0547 94.7832C63.0547 93.7441 63.3516 92.9238 63.9453 92.3223C64.543 91.7207 65.3535 91.4199 66.377 91.4199C67.4043 91.4199 68.2148 91.7207 68.8086 92.3223C69.4062 92.9238 69.7051 93.7402 69.7051 94.7715C69.7051 95.8262 69.4062 96.6523 68.8086 97.25C68.2109 97.8477 67.3867 98.1465 66.3359 98.1465ZM66.3652 97.0625C67.3613 97.0625 67.8594 96.2988 67.8594 94.7715C67.8594 94.0723 67.7266 93.5195 67.4609 93.1133C67.1992 92.707 66.8379 92.5039 66.377 92.5039C65.9199 92.5039 65.5586 92.707 65.293 93.1133C65.0312 93.5195 64.9004 94.0762 64.9004 94.7832C64.9004 95.4824 65.0312 96.0371 65.293 96.4473C65.5547 96.8574 65.9121 97.0625 66.3652 97.0625ZM71.1289 97.7949V96.5234C71.9883 96.8828 72.7227 97.0625 73.332 97.0625C74.043 97.0625 74.3984 96.8203 74.3984 96.3359C74.3984 96.0234 74.1055 95.75 73.5195 95.5156L72.9336 95.2812C72.2969 95.0234 71.8418 94.7461 71.5684 94.4492C71.2949 94.1523 71.1582 93.7852 71.1582 93.3477C71.1582 92.7383 71.3906 92.2656 71.8555 91.9297C72.3203 91.5898 72.9707 91.4199 73.8066 91.4199C74.3301 91.4199 74.9531 91.4961 75.6758 91.6484V92.8672C74.9805 92.625 74.4043 92.5039 73.9473 92.5039C73.2285 92.5039 72.8691 92.7266 72.8691 93.1719C72.8691 93.4648 73.1348 93.7129 73.666 93.916L74.1699 94.1094C74.9238 94.3945 75.4473 94.6836 75.7402 94.9766C76.0371 95.2695 76.1855 95.6465 76.1855 96.1074C76.1855 96.7129 75.9336 97.2051 75.4297 97.584C74.9297 97.959 74.2773 98.1465 73.4727 98.1465C72.6992 98.1465 71.918 98.0293 71.1289 97.7949Z" fill="#4F4F4F"/>
<line id="Line 1" x1="85" y1="7.5" x2="120" y2="7.5" stroke="#060606" stroke-opacity="0.34"/>
<line id="Line 2" x1="85" y1="41.5" x2="120" y2="41.5" stroke="#060606" stroke-opacity="0.34"/>
<line id="Line 3" x1="85" y1="93.5" x2="123" y2="93.5" stroke="#060606" stroke-opacity="0.34"/>
</g>
</svg>
