<svg width="611" height="139" viewBox="0 0 611 139" fill="none" xmlns="http://www.w3.org/2000/svg">
<g id="why-this-matters-guide">
<path id="Why this matters to you" d="M147.511 3.545L151.366 3.47V4.4L150.301 4.685L147.676 14.015H145.936L143.716 6.275L141.406 14.015H139.666L137.221 4.715L136.156 4.475V3.545L140.191 3.47V4.4L139.096 4.7L140.701 11.615L142.996 3.53L144.691 3.47L146.911 11.6L148.711 4.73L147.511 4.475V3.545ZM151.674 14V13.07L152.724 12.785V3.695L151.674 3.41V2.48L154.524 2.36V6.935C154.964 6.575 155.414 6.305 155.874 6.125C156.344 5.945 156.789 5.855 157.209 5.855C157.879 5.855 158.434 6.065 158.874 6.485C159.324 6.905 159.549 7.535 159.549 8.375V12.785L160.599 13.07V14H156.774V13.07L157.749 12.8V8.765C157.749 8.245 157.629 7.86 157.389 7.61C157.149 7.36 156.834 7.235 156.444 7.235C156.164 7.235 155.854 7.31 155.514 7.46C155.184 7.6 154.854 7.82 154.524 8.12V12.8L155.499 13.07V14H151.674ZM160.489 17.525L160.654 16.235C160.964 16.275 161.219 16.295 161.419 16.295C161.839 16.295 162.184 16.215 162.454 16.055C162.734 15.895 162.969 15.645 163.159 15.305C163.359 14.975 163.554 14.555 163.744 14.045L161.029 7.175L160.249 7.01V6.08L163.834 5.96V6.89L162.829 7.115L164.569 12.17L166.159 7.175L165.184 7.01V6.08L168.604 5.96V6.89L167.839 7.1L165.349 13.985C165.089 14.725 164.799 15.365 164.479 15.905C164.169 16.445 163.779 16.865 163.309 17.165C162.849 17.465 162.264 17.615 161.554 17.615C161.244 17.615 160.889 17.585 160.489 17.525ZM174.655 14.165C174.025 14.165 173.54 13.975 173.2 13.595C172.86 13.205 172.69 12.625 172.69 11.855V7.235H171.46V6.26L172.69 6.005V4.25L174.505 3.935V6.02H176.605L176.575 7.235H174.505V11.615C174.505 12.045 174.58 12.355 174.73 12.545C174.88 12.735 175.095 12.83 175.375 12.83C175.695 12.83 176.095 12.725 176.575 12.515L176.92 13.505C176.13 13.945 175.375 14.165 174.655 14.165ZM177.279 14V13.07L178.329 12.785V3.695L177.279 3.41V2.48L180.129 2.36V6.935C180.569 6.575 181.019 6.305 181.479 6.125C181.949 5.945 182.394 5.855 182.814 5.855C183.484 5.855 184.039 6.065 184.479 6.485C184.929 6.905 185.154 7.535 185.154 8.375V12.785L186.204 13.07V14H182.379V13.07L183.354 12.8V8.765C183.354 8.245 183.234 7.86 182.994 7.61C182.754 7.36 182.439 7.235 182.049 7.235C181.769 7.235 181.459 7.31 181.119 7.46C180.789 7.6 180.459 7.82 180.129 8.12V12.8L181.104 13.07V14H177.279ZM190.793 13.07V14H186.878V13.07L187.943 12.785V7.265L186.878 6.995V6.065L189.743 5.96V12.785L190.793 13.07ZM188.768 4.64C188.438 4.64 188.173 4.55 187.973 4.37C187.773 4.18 187.673 3.91 187.673 3.56C187.673 3.19 187.778 2.915 187.988 2.735C188.198 2.545 188.463 2.45 188.783 2.45C189.093 2.45 189.348 2.545 189.548 2.735C189.758 2.915 189.863 3.185 189.863 3.545C189.863 3.905 189.758 4.18 189.548 4.37C189.338 4.55 189.078 4.64 188.768 4.64ZM193.577 8C193.577 8.26 193.677 8.47 193.877 8.63C194.077 8.78 194.337 8.91 194.657 9.02C194.977 9.12 195.312 9.225 195.662 9.335C196.022 9.445 196.357 9.59 196.667 9.77C196.987 9.94 197.247 10.17 197.447 10.46C197.647 10.74 197.747 11.11 197.747 11.57C197.747 12.13 197.592 12.605 197.282 12.995C196.982 13.385 196.567 13.68 196.037 13.88C195.517 14.07 194.927 14.165 194.267 14.165C193.877 14.165 193.467 14.13 193.037 14.06C192.617 14 192.187 13.91 191.747 13.79L191.837 11.6H192.977L193.112 12.785C193.312 12.835 193.517 12.875 193.727 12.905C193.947 12.935 194.142 12.95 194.312 12.95C194.582 12.95 194.842 12.91 195.092 12.83C195.342 12.75 195.547 12.63 195.707 12.47C195.867 12.31 195.947 12.11 195.947 11.87C195.947 11.6 195.847 11.385 195.647 11.225C195.447 11.065 195.187 10.935 194.867 10.835C194.557 10.725 194.227 10.615 193.877 10.505C193.527 10.395 193.192 10.255 192.872 10.085C192.562 9.905 192.307 9.67 192.107 9.38C191.907 9.09 191.807 8.71 191.807 8.24C191.807 7.68 191.947 7.225 192.227 6.875C192.507 6.525 192.877 6.27 193.337 6.11C193.807 5.94 194.312 5.855 194.852 5.855C195.622 5.855 196.487 6 197.447 6.29L197.372 8.195H196.217L196.022 7.22C195.612 7.12 195.247 7.07 194.927 7.07C194.527 7.07 194.202 7.155 193.952 7.325C193.702 7.495 193.577 7.72 193.577 8ZM205.395 13.07V14H201.6V13.07L202.665 12.785V7.28L201.6 6.995V6.065L204.06 5.945L204.255 7.13C204.705 6.71 205.18 6.395 205.68 6.185C206.19 5.965 206.67 5.855 207.12 5.855C207.56 5.855 207.955 5.96 208.305 6.17C208.655 6.38 208.92 6.705 209.1 7.145C209.56 6.715 210.04 6.395 210.54 6.185C211.05 5.965 211.53 5.855 211.98 5.855C212.6 5.855 213.12 6.065 213.54 6.485C213.97 6.895 214.185 7.525 214.185 8.375V12.785L215.25 13.07V14H211.455V13.07L212.385 12.815V8.765C212.385 8.245 212.275 7.86 212.055 7.61C211.835 7.36 211.555 7.235 211.215 7.235C210.935 7.235 210.63 7.31 210.3 7.46C209.98 7.61 209.655 7.835 209.325 8.135C209.325 8.185 209.325 8.24 209.325 8.3V12.785L210.27 13.07V14H206.595V13.07L207.525 12.815V8.765C207.525 8.245 207.415 7.86 207.195 7.61C206.975 7.36 206.695 7.235 206.355 7.235C206.075 7.235 205.77 7.31 205.44 7.46C205.11 7.6 204.785 7.82 204.465 8.12V12.8L205.395 13.07ZM221.102 14.105L220.877 12.83C220.477 13.28 220.042 13.615 219.572 13.835C219.102 14.055 218.642 14.165 218.192 14.165C217.572 14.165 217.052 13.97 216.632 13.58C216.222 13.18 216.017 12.6 216.017 11.84C216.017 10.98 216.287 10.385 216.827 10.055C217.377 9.715 218.137 9.545 219.107 9.545H220.697V8.57C220.697 8.08 220.572 7.73 220.322 7.52C220.072 7.3 219.717 7.19 219.257 7.19C218.857 7.19 218.402 7.265 217.892 7.415L217.727 8.525H216.572L216.452 6.425C217.752 6.045 218.847 5.855 219.737 5.855C220.617 5.855 221.297 6.05 221.777 6.44C222.257 6.82 222.497 7.42 222.497 8.24V12.755L223.562 13.055V13.985L221.102 14.105ZM217.832 11.675C217.832 12.085 217.927 12.385 218.117 12.575C218.307 12.755 218.552 12.845 218.852 12.845C219.122 12.845 219.417 12.765 219.737 12.605C220.067 12.445 220.387 12.22 220.697 11.93V10.58H219.392C218.802 10.58 218.392 10.67 218.162 10.85C217.942 11.03 217.832 11.305 217.832 11.675ZM227.082 14.165C226.452 14.165 225.967 13.975 225.627 13.595C225.287 13.205 225.117 12.625 225.117 11.855V7.235H223.887V6.26L225.117 6.005V4.25L226.932 3.935V6.02H229.032L229.002 7.235H226.932V11.615C226.932 12.045 227.007 12.355 227.157 12.545C227.307 12.735 227.522 12.83 227.802 12.83C228.122 12.83 228.522 12.725 229.002 12.515L229.347 13.505C228.557 13.945 227.802 14.165 227.082 14.165ZM232.838 14.165C232.208 14.165 231.723 13.975 231.383 13.595C231.043 13.205 230.873 12.625 230.873 11.855V7.235H229.643V6.26L230.873 6.005V4.25L232.688 3.935V6.02H234.788L234.758 7.235H232.688V11.615C232.688 12.045 232.763 12.355 232.913 12.545C233.063 12.735 233.278 12.83 233.558 12.83C233.878 12.83 234.278 12.725 234.758 12.515L235.103 13.505C234.313 13.945 233.558 14.165 232.838 14.165ZM239.171 14.165C238.111 14.165 237.251 13.825 236.591 13.145C235.931 12.455 235.601 11.455 235.601 10.145C235.601 9.265 235.756 8.505 236.066 7.865C236.386 7.215 236.831 6.72 237.401 6.38C237.981 6.03 238.666 5.855 239.456 5.855C240.206 5.855 240.816 6.01 241.286 6.32C241.766 6.62 242.121 7.035 242.351 7.565C242.581 8.095 242.696 8.695 242.696 9.365C242.696 9.665 242.671 9.98 242.621 10.31H237.461C237.511 11.06 237.706 11.665 238.046 12.125C238.396 12.585 238.916 12.815 239.606 12.815C239.956 12.815 240.336 12.75 240.746 12.62C241.156 12.49 241.581 12.29 242.021 12.02L242.636 12.995C242.066 13.385 241.486 13.68 240.896 13.88C240.306 14.07 239.731 14.165 239.171 14.165ZM239.306 7.175C238.766 7.175 238.351 7.36 238.061 7.73C237.771 8.1 237.586 8.58 237.506 9.17H240.836C240.836 8.6 240.716 8.125 240.476 7.745C240.246 7.365 239.856 7.175 239.306 7.175ZM243.744 14V13.07L244.809 12.785V7.28L243.744 6.995V6.065L246.204 5.945L246.399 7.13C246.809 6.73 247.219 6.42 247.629 6.2C248.039 5.97 248.479 5.855 248.949 5.855C249.259 5.855 249.594 5.905 249.954 6.005L249.834 8.585H248.784L248.604 7.31C248.524 7.29 248.434 7.28 248.334 7.28C248.024 7.28 247.719 7.365 247.419 7.535C247.129 7.705 246.859 7.93 246.609 8.21V12.785L247.914 13.07V14H243.744ZM252.522 8C252.522 8.26 252.622 8.47 252.822 8.63C253.022 8.78 253.282 8.91 253.602 9.02C253.922 9.12 254.257 9.225 254.607 9.335C254.967 9.445 255.302 9.59 255.612 9.77C255.932 9.94 256.192 10.17 256.392 10.46C256.592 10.74 256.692 11.11 256.692 11.57C256.692 12.13 256.537 12.605 256.227 12.995C255.927 13.385 255.512 13.68 254.982 13.88C254.462 14.07 253.872 14.165 253.212 14.165C252.822 14.165 252.412 14.13 251.982 14.06C251.562 14 251.132 13.91 250.692 13.79L250.782 11.6H251.922L252.057 12.785C252.257 12.835 252.462 12.875 252.672 12.905C252.892 12.935 253.087 12.95 253.257 12.95C253.527 12.95 253.787 12.91 254.037 12.83C254.287 12.75 254.492 12.63 254.652 12.47C254.812 12.31 254.892 12.11 254.892 11.87C254.892 11.6 254.792 11.385 254.592 11.225C254.392 11.065 254.132 10.935 253.812 10.835C253.502 10.725 253.172 10.615 252.822 10.505C252.472 10.395 252.137 10.255 251.817 10.085C251.507 9.905 251.252 9.67 251.052 9.38C250.852 9.09 250.752 8.71 250.752 8.24C250.752 7.68 250.892 7.225 251.172 6.875C251.452 6.525 251.822 6.27 252.282 6.11C252.752 5.94 253.257 5.855 253.797 5.855C254.567 5.855 255.432 6 256.392 6.29L256.317 8.195H255.162L254.967 7.22C254.557 7.12 254.192 7.07 253.872 7.07C253.472 7.07 253.147 7.155 252.897 7.325C252.647 7.495 252.522 7.72 252.522 8ZM263.38 14.165C262.75 14.165 262.265 13.975 261.925 13.595C261.585 13.205 261.415 12.625 261.415 11.855V7.235H260.185V6.26L261.415 6.005V4.25L263.23 3.935V6.02H265.33L265.3 7.235H263.23V11.615C263.23 12.045 263.305 12.355 263.455 12.545C263.605 12.735 263.82 12.83 264.1 12.83C264.42 12.83 264.82 12.725 265.3 12.515L265.645 13.505C264.855 13.945 264.1 14.165 263.38 14.165ZM270.013 5.855C271.163 5.855 272.063 6.205 272.713 6.905C273.363 7.605 273.688 8.59 273.688 9.86C273.688 10.75 273.528 11.515 273.208 12.155C272.898 12.795 272.448 13.29 271.858 13.64C271.278 13.99 270.578 14.165 269.758 14.165C268.608 14.165 267.713 13.82 267.073 13.13C266.443 12.44 266.128 11.45 266.128 10.16C266.128 8.83 266.468 7.78 267.148 7.01C267.838 6.24 268.793 5.855 270.013 5.855ZM269.923 7.145C268.643 7.145 268.003 8.12 268.003 10.07C268.003 11.03 268.158 11.74 268.468 12.2C268.778 12.65 269.238 12.875 269.848 12.875C270.508 12.875 271.003 12.625 271.333 12.125C271.663 11.625 271.828 10.9 271.828 9.95C271.828 8.08 271.193 7.145 269.923 7.145ZM277.178 17.525L277.343 16.235C277.653 16.275 277.908 16.295 278.108 16.295C278.528 16.295 278.873 16.215 279.143 16.055C279.423 15.895 279.658 15.645 279.848 15.305C280.048 14.975 280.243 14.555 280.433 14.045L277.718 7.175L276.938 7.01V6.08L280.523 5.96V6.89L279.518 7.115L281.258 12.17L282.848 7.175L281.873 7.01V6.08L285.293 5.96V6.89L284.528 7.1L282.038 13.985C281.778 14.725 281.488 15.365 281.168 15.905C280.858 16.445 280.468 16.865 279.998 17.165C279.538 17.465 278.953 17.615 278.243 17.615C277.933 17.615 277.578 17.585 277.178 17.525ZM289.378 5.855C290.528 5.855 291.428 6.205 292.078 6.905C292.728 7.605 293.053 8.59 293.053 9.86C293.053 10.75 292.893 11.515 292.573 12.155C292.263 12.795 291.813 13.29 291.223 13.64C290.643 13.99 289.943 14.165 289.123 14.165C287.973 14.165 287.078 13.82 286.438 13.13C285.808 12.44 285.493 11.45 285.493 10.16C285.493 8.83 285.833 7.78 286.513 7.01C287.203 6.24 288.158 5.855 289.378 5.855ZM289.288 7.145C288.008 7.145 287.368 8.12 287.368 10.07C287.368 11.03 287.523 11.74 287.833 12.2C288.143 12.65 288.603 12.875 289.213 12.875C289.873 12.875 290.368 12.625 290.698 12.125C291.028 11.625 291.193 10.9 291.193 9.95C291.193 8.08 290.558 7.145 289.288 7.145ZM297.166 14.165C296.496 14.165 295.936 13.955 295.486 13.535C295.046 13.105 294.826 12.455 294.826 11.585V7.28L293.776 6.995V6.065L296.626 5.96V11.285C296.626 11.795 296.741 12.175 296.971 12.425C297.211 12.665 297.526 12.785 297.916 12.785C298.196 12.785 298.501 12.715 298.831 12.575C299.171 12.425 299.511 12.2 299.851 11.9V7.28L298.801 6.995V6.065L301.651 5.96V12.77L302.716 13.055V13.985L300.256 14.09L300.046 12.905C299.576 13.335 299.091 13.655 298.591 13.865C298.091 14.065 297.616 14.165 297.166 14.165Z" fill="#182E4F"/>
<rect id="Rectangle 5" x="136" y="36" width="258" height="5" fill="#506583"/>
<rect id="Rectangle 22" x="431" y="34" width="53" height="5" fill="#506583"/>
<rect id="Rectangle 23" x="431" y="48" width="53" height="5" fill="#506583"/>
<rect id="Rectangle 24" x="431" y="63" width="53" height="5" fill="#506583"/>
<rect id="Rectangle 25" x="431" y="77" width="53" height="5" fill="#506583"/>
<rect id="Rectangle 26" x="431" y="108" width="53" height="5" fill="#0071BB" fill-opacity="0.5"/>
<rect id="Rectangle 27" x="431" y="119" width="53" height="5" fill="#0071BB" fill-opacity="0.5"/>
<rect id="Rectangle 12" x="136" y="48" width="237" height="5" fill="#506583"/>
<rect id="Rectangle 19" x="136" y="60" width="247" height="5" fill="#506583"/>
<rect id="Rectangle 20" x="136" y="72" width="254" height="5" fill="#506583"/>
<rect id="Rectangle 21" x="136" y="84" width="247" height="5" fill="#506583"/>
<rect id="Rectangle 11" x="137" y="114" width="53" height="18" rx="5" stroke="#182E4F" stroke-width="2"/>
<path id="Introduction" d="M8.67773 43V34.3281H10.4824V43H8.67773ZM12.6621 43V36.5664H14.3965V37.7793C14.9629 36.873 15.6934 36.4199 16.5879 36.4199C17.1621 36.4199 17.6152 36.6016 17.9473 36.9648C18.2793 37.3281 18.4453 37.8242 18.4453 38.4531V43H16.7109V38.8809C16.7109 38.1504 16.4688 37.7852 15.9844 37.7852C15.4336 37.7852 14.9043 38.1738 14.3965 38.9512V43H12.6621ZM23.8652 42.9648C23.4512 43.0859 23.125 43.1465 22.8867 43.1465C21.3828 43.1465 20.6309 42.4434 20.6309 41.0371V37.6504H19.9102V36.5664H20.6309V35.4824L22.3652 35.2832V36.5664H23.7422V37.6504H22.3652V40.8086C22.3652 41.5977 22.6875 41.9922 23.332 41.9922C23.4805 41.9922 23.6582 41.9648 23.8652 41.9102V42.9648ZM25.4121 43V36.5664H27.1465V37.7793C27.5957 36.873 28.2793 36.4199 29.1973 36.4199C29.3066 36.4199 29.4141 36.4316 29.5195 36.4551V38.002C29.2734 37.9121 29.0449 37.8672 28.834 37.8672C28.1426 37.8672 27.5801 38.2168 27.1465 38.916V43H25.4121ZM33.5742 43.1465C32.5703 43.1465 31.7715 42.8438 31.1777 42.2383C30.5879 41.6289 30.293 40.8105 30.293 39.7832C30.293 38.7441 30.5898 37.9238 31.1836 37.3223C31.7812 36.7207 32.5918 36.4199 33.6152 36.4199C34.6426 36.4199 35.4531 36.7207 36.0469 37.3223C36.6445 37.9238 36.9434 38.7402 36.9434 39.7715C36.9434 40.8262 36.6445 41.6523 36.0469 42.25C35.4492 42.8477 34.625 43.1465 33.5742 43.1465ZM33.6035 42.0625C34.5996 42.0625 35.0977 41.2988 35.0977 39.7715C35.0977 39.0723 34.9648 38.5195 34.6992 38.1133C34.4375 37.707 34.0762 37.5039 33.6152 37.5039C33.1582 37.5039 32.7969 37.707 32.5312 38.1133C32.2695 38.5195 32.1387 39.0762 32.1387 39.7832C32.1387 40.4824 32.2695 41.0371 32.5312 41.4473C32.793 41.8574 33.1504 42.0625 33.6035 42.0625ZM42.5859 43V41.7871C42.1406 42.6934 41.4395 43.1465 40.4824 43.1465C39.709 43.1465 39.1016 42.8633 38.6602 42.2969C38.2188 41.7305 37.998 40.9512 37.998 39.959C37.998 38.8809 38.2461 38.0215 38.7422 37.3809C39.2422 36.7402 39.9121 36.4199 40.752 36.4199C41.4238 36.4199 42.0352 36.6855 42.5859 37.2168V33.748H44.3262V43H42.5859ZM42.5859 38.248C42.168 37.7793 41.7207 37.5449 41.2441 37.5449C40.8184 37.5449 40.4785 37.75 40.2246 38.1602C39.9707 38.5703 39.8438 39.1211 39.8438 39.8125C39.8438 41.1289 40.2656 41.7871 41.1094 41.7871C41.625 41.7871 42.1172 41.457 42.5859 40.7969V38.248ZM50.4727 43V41.7871C49.9102 42.6934 49.1797 43.1465 48.2812 43.1465C47.707 43.1465 47.2539 42.9648 46.9219 42.6016C46.5898 42.2383 46.4238 41.7422 46.4238 41.1133V36.5664H48.1582V40.6855C48.1582 41.416 48.4023 41.7812 48.8906 41.7812C49.4375 41.7812 49.9648 41.3926 50.4727 40.6152V36.5664H52.207V43H50.4727ZM59.127 42.8594C58.4082 43.0508 57.7422 43.1465 57.1289 43.1465C56.1016 43.1465 55.2891 42.8457 54.6914 42.2441C54.0977 41.6387 53.8008 40.8164 53.8008 39.7773C53.8008 38.7266 54.1074 37.9043 54.7207 37.3105C55.334 36.7168 56.1816 36.4199 57.2637 36.4199C57.7871 36.4199 58.3906 36.5039 59.0742 36.6719V37.9258C58.3633 37.6953 57.7949 37.5801 57.3691 37.5801C56.8496 37.5801 56.4316 37.7793 56.1152 38.1777C55.7988 38.5762 55.6406 39.1055 55.6406 39.7656C55.6406 40.4414 55.8105 40.9824 56.1504 41.3887C56.4941 41.7949 56.9512 41.998 57.5215 41.998C58.041 41.998 58.5762 41.8848 59.127 41.6582V42.8594ZM64.084 42.9648C63.6699 43.0859 63.3438 43.1465 63.1055 43.1465C61.6016 43.1465 60.8496 42.4434 60.8496 41.0371V37.6504H60.1289V36.5664H60.8496V35.4824L62.584 35.2832V36.5664H63.9609V37.6504H62.584V40.8086C62.584 41.5977 62.9062 41.9922 63.5508 41.9922C63.6992 41.9922 63.877 41.9648 64.084 41.9102V42.9648ZM65.6309 43V36.5664H67.3652V43H65.6309ZM65.6309 35.4824V34.0352H67.3652V35.4824H65.6309ZM72.2344 43.1465C71.2305 43.1465 70.4316 42.8438 69.8379 42.2383C69.248 41.6289 68.9531 40.8105 68.9531 39.7832C68.9531 38.7441 69.25 37.9238 69.8438 37.3223C70.4414 36.7207 71.252 36.4199 72.2754 36.4199C73.3027 36.4199 74.1133 36.7207 74.707 37.3223C75.3047 37.9238 75.6035 38.7402 75.6035 39.7715C75.6035 40.8262 75.3047 41.6523 74.707 42.25C74.1094 42.8477 73.2852 43.1465 72.2344 43.1465ZM72.2637 42.0625C73.2598 42.0625 73.7578 41.2988 73.7578 39.7715C73.7578 39.0723 73.625 38.5195 73.3594 38.1133C73.0977 37.707 72.7363 37.5039 72.2754 37.5039C71.8184 37.5039 71.457 37.707 71.1914 38.1133C70.9297 38.5195 70.7988 39.0762 70.7988 39.7832C70.7988 40.4824 70.9297 41.0371 71.1914 41.4473C71.4531 41.8574 71.8105 42.0625 72.2637 42.0625ZM77.1973 43V36.5664H78.9316V37.7793C79.498 36.873 80.2285 36.4199 81.123 36.4199C81.6973 36.4199 82.1504 36.6016 82.4824 36.9648C82.8145 37.3281 82.9805 37.8242 82.9805 38.4531V43H81.2461V38.8809C81.2461 38.1504 81.0039 37.7852 80.5195 37.7852C79.9688 37.7852 79.4395 38.1738 78.9316 38.9512V43H77.1973Z" fill="#4F4F4F"/>
<path id="Secondary call to action" d="M21.3047 122.924V121.436C22.2383 121.826 23.0371 122.021 23.7012 122.021C24.166 122.021 24.5312 121.918 24.7969 121.711C25.0664 121.504 25.2012 121.223 25.2012 120.867C25.2012 120.586 25.1172 120.35 24.9492 120.158C24.7812 119.963 24.4629 119.732 23.9941 119.467L23.4141 119.145C22.6367 118.707 22.0879 118.289 21.7676 117.891C21.4473 117.488 21.2871 117.02 21.2871 116.484C21.2871 115.77 21.5488 115.195 22.0723 114.762C22.5996 114.328 23.2949 114.111 24.1582 114.111C24.8496 114.111 25.6289 114.211 26.4961 114.41V115.799C25.6094 115.467 24.9082 115.301 24.3926 115.301C23.9941 115.301 23.6738 115.391 23.4316 115.57C23.1934 115.746 23.0742 115.979 23.0742 116.268C23.0742 116.506 23.1582 116.715 23.3262 116.895C23.4941 117.074 23.8105 117.295 24.2754 117.557L24.8965 117.902C25.7324 118.371 26.3086 118.803 26.625 119.197C26.9414 119.592 27.0996 120.072 27.0996 120.639C27.0996 121.443 26.8008 122.074 26.2031 122.531C25.6055 122.988 24.7812 123.217 23.7305 123.217C23.0352 123.217 22.2266 123.119 21.3047 122.924ZM33.8848 122.783C33.0605 123.025 32.2793 123.146 31.541 123.146C30.4668 123.146 29.6191 122.842 28.998 122.232C28.377 121.623 28.0664 120.791 28.0664 119.736C28.0664 118.74 28.3496 117.939 28.916 117.334C29.4863 116.725 30.2383 116.42 31.1719 116.42C32.1133 116.42 32.8008 116.717 33.2344 117.311C33.668 117.904 33.8848 118.844 33.8848 120.129H29.8945C30.0117 121.355 30.6855 121.969 31.916 121.969C32.498 121.969 33.1543 121.834 33.8848 121.564V122.783ZM29.8711 119.15H32.1797C32.1797 118.053 31.8262 117.504 31.1191 117.504C30.4004 117.504 29.9844 118.053 29.8711 119.15ZM40.4238 122.859C39.7051 123.051 39.0391 123.146 38.4258 123.146C37.3984 123.146 36.5859 122.846 35.9883 122.244C35.3945 121.639 35.0977 120.816 35.0977 119.777C35.0977 118.727 35.4043 117.904 36.0176 117.311C36.6309 116.717 37.4785 116.42 38.5605 116.42C39.084 116.42 39.6875 116.504 40.3711 116.672V117.926C39.6602 117.695 39.0918 117.58 38.666 117.58C38.1465 117.58 37.7285 117.779 37.4121 118.178C37.0957 118.576 36.9375 119.105 36.9375 119.766C36.9375 120.441 37.1074 120.982 37.4473 121.389C37.791 121.795 38.248 121.998 38.8184 121.998C39.3379 121.998 39.873 121.885 40.4238 121.658V122.859ZM44.7656 123.146C43.7617 123.146 42.9629 122.844 42.3691 122.238C41.7793 121.629 41.4844 120.811 41.4844 119.783C41.4844 118.744 41.7812 117.924 42.375 117.322C42.9727 116.721 43.7832 116.42 44.8066 116.42C45.834 116.42 46.6445 116.721 47.2383 117.322C47.8359 117.924 48.1348 118.74 48.1348 119.771C48.1348 120.826 47.8359 121.652 47.2383 122.25C46.6406 122.848 45.8164 123.146 44.7656 123.146ZM44.7949 122.062C45.791 122.062 46.2891 121.299 46.2891 119.771C46.2891 119.072 46.1562 118.52 45.8906 118.113C45.6289 117.707 45.2676 117.504 44.8066 117.504C44.3496 117.504 43.9883 117.707 43.7227 118.113C43.4609 118.52 43.3301 119.076 43.3301 119.783C43.3301 120.482 43.4609 121.037 43.7227 121.447C43.9844 121.857 44.3418 122.062 44.7949 122.062ZM49.7285 123V116.566H51.4629V117.779C52.0293 116.873 52.7598 116.42 53.6543 116.42C54.2285 116.42 54.6816 116.602 55.0137 116.965C55.3457 117.328 55.5117 117.824 55.5117 118.453V123H53.7773V118.881C53.7773 118.15 53.5352 117.785 53.0508 117.785C52.5 117.785 51.9707 118.174 51.4629 118.951V123H49.7285ZM61.6641 123V121.787C61.2188 122.693 60.5176 123.146 59.5605 123.146C58.7871 123.146 58.1797 122.863 57.7383 122.297C57.2969 121.73 57.0762 120.951 57.0762 119.959C57.0762 118.881 57.3242 118.021 57.8203 117.381C58.3203 116.74 58.9902 116.42 59.8301 116.42C60.502 116.42 61.1133 116.686 61.6641 117.217V113.748H63.4043V123H61.6641ZM61.6641 118.248C61.2461 117.779 60.7988 117.545 60.3223 117.545C59.8965 117.545 59.5566 117.75 59.3027 118.16C59.0488 118.57 58.9219 119.121 58.9219 119.812C58.9219 121.129 59.3438 121.787 60.1875 121.787C60.7031 121.787 61.1953 121.457 61.6641 120.797V118.248ZM68.7246 122.309C68.1465 122.867 67.5273 123.146 66.8672 123.146C66.3047 123.146 65.8477 122.975 65.4961 122.631C65.1445 122.287 64.9688 121.842 64.9688 121.295C64.9688 120.584 65.252 120.037 65.8184 119.654C66.3887 119.268 67.2031 119.074 68.2617 119.074H68.7246V118.488C68.7246 117.82 68.3438 117.486 67.582 117.486C66.9062 117.486 66.2227 117.678 65.5312 118.061V116.865C66.3164 116.568 67.0938 116.42 67.8633 116.42C69.5469 116.42 70.3887 117.09 70.3887 118.43V121.277C70.3887 121.781 70.5508 122.033 70.875 122.033C70.9336 122.033 71.0098 122.025 71.1035 122.01L71.1445 122.982C70.7773 123.092 70.4531 123.146 70.1719 123.146C69.4609 123.146 69.0039 122.867 68.8008 122.309H68.7246ZM68.7246 121.377V120.07H68.3145C67.1934 120.07 66.6328 120.422 66.6328 121.125C66.6328 121.363 66.7129 121.564 66.873 121.729C67.0371 121.889 67.2383 121.969 67.4766 121.969C67.8828 121.969 68.2988 121.771 68.7246 121.377ZM72.627 123V116.566H74.3613V117.779C74.8105 116.873 75.4941 116.42 76.4121 116.42C76.5215 116.42 76.6289 116.432 76.7344 116.455V118.002C76.4883 117.912 76.2598 117.867 76.0488 117.867C75.3574 117.867 74.7949 118.217 74.3613 118.916V123H72.627ZM78.1113 125.314L79.5703 123L77.1855 116.566H79.0488L80.6426 120.867L82.5352 116.566H83.8535L79.8809 125.314H78.1113ZM10.377 136.859C9.6582 137.051 8.99219 137.146 8.37891 137.146C7.35156 137.146 6.53906 136.846 5.94141 136.244C5.34766 135.639 5.05078 134.816 5.05078 133.777C5.05078 132.727 5.35742 131.904 5.9707 131.311C6.58398 130.717 7.43164 130.42 8.51367 130.42C9.03711 130.42 9.64062 130.504 10.3242 130.672V131.926C9.61328 131.695 9.04492 131.58 8.61914 131.58C8.09961 131.58 7.68164 131.779 7.36523 132.178C7.04883 132.576 6.89062 133.105 6.89062 133.766C6.89062 134.441 7.06055 134.982 7.40039 135.389C7.74414 135.795 8.20117 135.998 8.77148 135.998C9.29102 135.998 9.82617 135.885 10.377 135.658V136.859ZM15.1699 136.309C14.5918 136.867 13.9727 137.146 13.3125 137.146C12.75 137.146 12.293 136.975 11.9414 136.631C11.5898 136.287 11.4141 135.842 11.4141 135.295C11.4141 134.584 11.6973 134.037 12.2637 133.654C12.834 133.268 13.6484 133.074 14.707 133.074H15.1699V132.488C15.1699 131.82 14.7891 131.486 14.0273 131.486C13.3516 131.486 12.668 131.678 11.9766 132.061V130.865C12.7617 130.568 13.5391 130.42 14.3086 130.42C15.9922 130.42 16.834 131.09 16.834 132.43V135.277C16.834 135.781 16.9961 136.033 17.3203 136.033C17.3789 136.033 17.4551 136.025 17.5488 136.01L17.5898 136.982C17.2227 137.092 16.8984 137.146 16.6172 137.146C15.9062 137.146 15.4492 136.867 15.2461 136.309H15.1699ZM15.1699 135.377V134.07H14.7598C13.6387 134.07 13.0781 134.422 13.0781 135.125C13.0781 135.363 13.1582 135.564 13.3184 135.729C13.4824 135.889 13.6836 135.969 13.9219 135.969C14.3281 135.969 14.7441 135.771 15.1699 135.377ZM19.0723 137V127.748H20.8066V137H19.0723ZM22.9746 137V127.748H24.709V137H22.9746ZM34.1543 136.965C33.7402 137.086 33.4141 137.146 33.1758 137.146C31.6719 137.146 30.9199 136.443 30.9199 135.037V131.65H30.1992V130.566H30.9199V129.482L32.6543 129.283V130.566H34.0312V131.65H32.6543V134.809C32.6543 135.598 32.9766 135.992 33.6211 135.992C33.7695 135.992 33.9473 135.965 34.1543 135.91V136.965ZM38.4023 137.146C37.3984 137.146 36.5996 136.844 36.0059 136.238C35.416 135.629 35.1211 134.811 35.1211 133.783C35.1211 132.744 35.418 131.924 36.0117 131.322C36.6094 130.721 37.4199 130.42 38.4434 130.42C39.4707 130.42 40.2812 130.721 40.875 131.322C41.4727 131.924 41.7715 132.74 41.7715 133.771C41.7715 134.826 41.4727 135.652 40.875 136.25C40.2773 136.848 39.4531 137.146 38.4023 137.146ZM38.4316 136.062C39.4277 136.062 39.9258 135.299 39.9258 133.771C39.9258 133.072 39.793 132.52 39.5273 132.113C39.2656 131.707 38.9043 131.504 38.4434 131.504C37.9863 131.504 37.625 131.707 37.3594 132.113C37.0977 132.52 36.9668 133.076 36.9668 133.783C36.9668 134.482 37.0977 135.037 37.3594 135.447C37.6211 135.857 37.9785 136.062 38.4316 136.062ZM50.4785 136.309C49.9004 136.867 49.2812 137.146 48.6211 137.146C48.0586 137.146 47.6016 136.975 47.25 136.631C46.8984 136.287 46.7227 135.842 46.7227 135.295C46.7227 134.584 47.0059 134.037 47.5723 133.654C48.1426 133.268 48.957 133.074 50.0156 133.074H50.4785V132.488C50.4785 131.82 50.0977 131.486 49.3359 131.486C48.6602 131.486 47.9766 131.678 47.2852 132.061V130.865C48.0703 130.568 48.8477 130.42 49.6172 130.42C51.3008 130.42 52.1426 131.09 52.1426 132.43V135.277C52.1426 135.781 52.3047 136.033 52.6289 136.033C52.6875 136.033 52.7637 136.025 52.8574 136.01L52.8984 136.982C52.5312 137.092 52.207 137.146 51.9258 137.146C51.2148 137.146 50.7578 136.867 50.5547 136.309H50.4785ZM50.4785 135.377V134.07H50.0684C48.9473 134.07 48.3867 134.422 48.3867 135.125C48.3867 135.363 48.4668 135.564 48.627 135.729C48.791 135.889 48.9922 135.969 49.2305 135.969C49.6367 135.969 50.0527 135.771 50.4785 135.377ZM59.127 136.859C58.4082 137.051 57.7422 137.146 57.1289 137.146C56.1016 137.146 55.2891 136.846 54.6914 136.244C54.0977 135.639 53.8008 134.816 53.8008 133.777C53.8008 132.727 54.1074 131.904 54.7207 131.311C55.334 130.717 56.1816 130.42 57.2637 130.42C57.7871 130.42 58.3906 130.504 59.0742 130.672V131.926C58.3633 131.695 57.7949 131.58 57.3691 131.58C56.8496 131.58 56.4316 131.779 56.1152 132.178C55.7988 132.576 55.6406 133.105 55.6406 133.766C55.6406 134.441 55.8105 134.982 56.1504 135.389C56.4941 135.795 56.9512 135.998 57.5215 135.998C58.041 135.998 58.5762 135.885 59.127 135.658V136.859ZM64.084 136.965C63.6699 137.086 63.3438 137.146 63.1055 137.146C61.6016 137.146 60.8496 136.443 60.8496 135.037V131.65H60.1289V130.566H60.8496V129.482L62.584 129.283V130.566H63.9609V131.65H62.584V134.809C62.584 135.598 62.9062 135.992 63.5508 135.992C63.6992 135.992 63.877 135.965 64.084 135.91V136.965ZM65.6309 137V130.566H67.3652V137H65.6309ZM65.6309 129.482V128.035H67.3652V129.482H65.6309ZM72.2344 137.146C71.2305 137.146 70.4316 136.844 69.8379 136.238C69.248 135.629 68.9531 134.811 68.9531 133.783C68.9531 132.744 69.25 131.924 69.8438 131.322C70.4414 130.721 71.252 130.42 72.2754 130.42C73.3027 130.42 74.1133 130.721 74.707 131.322C75.3047 131.924 75.6035 132.74 75.6035 133.771C75.6035 134.826 75.3047 135.652 74.707 136.25C74.1094 136.848 73.2852 137.146 72.2344 137.146ZM72.2637 136.062C73.2598 136.062 73.7578 135.299 73.7578 133.771C73.7578 133.072 73.625 132.52 73.3594 132.113C73.0977 131.707 72.7363 131.504 72.2754 131.504C71.8184 131.504 71.457 131.707 71.1914 132.113C70.9297 132.52 70.7988 133.076 70.7988 133.783C70.7988 134.482 70.9297 135.037 71.1914 135.447C71.4531 135.857 71.8105 136.062 72.2637 136.062ZM77.1973 137V130.566H78.9316V131.779C79.498 130.873 80.2285 130.42 81.123 130.42C81.6973 130.42 82.1504 130.602 82.4824 130.965C82.8145 131.328 82.9805 131.824 82.9805 132.453V137H81.2461V132.881C81.2461 132.15 81.0039 131.785 80.5195 131.785C79.9688 131.785 79.4395 132.174 78.9316 132.951V137H77.1973Z" fill="#4F4F4F"/>
<line id="Line 1" x1="89" y1="38.5" x2="122" y2="38.5" stroke="#060606" stroke-opacity="0.34"/>
<line id="Line 2" x1="89" y1="124.5" x2="122" y2="124.5" stroke="#060606" stroke-opacity="0.34"/>
<path id="Audience" d="M527.135 41L530.51 32.3281H532.314L535.689 41H533.838L532.936 38.6855H529.35L528.447 41H527.135ZM529.795 37.5312H532.49L531.143 34.0742L529.795 37.5312ZM540.898 41V39.7871C540.336 40.6934 539.605 41.1465 538.707 41.1465C538.133 41.1465 537.68 40.9648 537.348 40.6016C537.016 40.2383 536.85 39.7422 536.85 39.1133V34.5664H538.584V38.6855C538.584 39.416 538.828 39.7812 539.316 39.7812C539.863 39.7812 540.391 39.3926 540.898 38.6152V34.5664H542.633V41H540.898ZM548.855 41V39.7871C548.41 40.6934 547.709 41.1465 546.752 41.1465C545.979 41.1465 545.371 40.8633 544.93 40.2969C544.488 39.7305 544.268 38.9512 544.268 37.959C544.268 36.8809 544.516 36.0215 545.012 35.3809C545.512 34.7402 546.182 34.4199 547.021 34.4199C547.693 34.4199 548.305 34.6855 548.855 35.2168V31.748H550.596V41H548.855ZM548.855 36.248C548.438 35.7793 547.99 35.5449 547.514 35.5449C547.088 35.5449 546.748 35.75 546.494 36.1602C546.24 36.5703 546.113 37.1211 546.113 37.8125C546.113 39.1289 546.535 39.7871 547.379 39.7871C547.895 39.7871 548.387 39.457 548.855 38.7969V36.248ZM552.764 41V34.5664H554.498V41H552.764ZM552.764 33.4824V32.0352H554.498V33.4824H552.764ZM561.904 40.7832C561.08 41.0254 560.299 41.1465 559.561 41.1465C558.486 41.1465 557.639 40.8418 557.018 40.2324C556.396 39.623 556.086 38.791 556.086 37.7363C556.086 36.7402 556.369 35.9395 556.936 35.334C557.506 34.7246 558.258 34.4199 559.191 34.4199C560.133 34.4199 560.82 34.7168 561.254 35.3105C561.688 35.9043 561.904 36.8438 561.904 38.1289H557.914C558.031 39.3555 558.705 39.9688 559.936 39.9688C560.518 39.9688 561.174 39.834 561.904 39.5645V40.7832ZM557.891 37.1504H560.199C560.199 36.0527 559.846 35.5039 559.139 35.5039C558.42 35.5039 558.004 36.0527 557.891 37.1504ZM563.697 41V34.5664H565.432V35.7793C565.998 34.873 566.729 34.4199 567.623 34.4199C568.197 34.4199 568.65 34.6016 568.982 34.9648C569.314 35.3281 569.48 35.8242 569.48 36.4531V41H567.746V36.8809C567.746 36.1504 567.504 35.7852 567.02 35.7852C566.469 35.7852 565.939 36.1738 565.432 36.9512V41H563.697ZM576.33 40.8594C575.611 41.0508 574.945 41.1465 574.332 41.1465C573.305 41.1465 572.492 40.8457 571.895 40.2441C571.301 39.6387 571.004 38.8164 571.004 37.7773C571.004 36.7266 571.311 35.9043 571.924 35.3105C572.537 34.7168 573.385 34.4199 574.467 34.4199C574.99 34.4199 575.594 34.5039 576.277 34.6719V35.9258C575.566 35.6953 574.998 35.5801 574.572 35.5801C574.053 35.5801 573.635 35.7793 573.318 36.1777C573.002 36.5762 572.844 37.1055 572.844 37.7656C572.844 38.4414 573.014 38.9824 573.354 39.3887C573.697 39.7949 574.154 39.998 574.725 39.998C575.244 39.998 575.779 39.8848 576.33 39.6582V40.8594ZM583.209 40.7832C582.385 41.0254 581.604 41.1465 580.865 41.1465C579.791 41.1465 578.943 40.8418 578.322 40.2324C577.701 39.623 577.391 38.791 577.391 37.7363C577.391 36.7402 577.674 35.9395 578.24 35.334C578.811 34.7246 579.562 34.4199 580.496 34.4199C581.438 34.4199 582.125 34.7168 582.559 35.3105C582.992 35.9043 583.209 36.8438 583.209 38.1289H579.219C579.336 39.3555 580.01 39.9688 581.24 39.9688C581.822 39.9688 582.479 39.834 583.209 39.5645V40.7832ZM579.195 37.1504H581.504C581.504 36.0527 581.15 35.5039 580.443 35.5039C579.725 35.5039 579.309 36.0527 579.195 37.1504Z" fill="#4F4F4F"/>
<path id="Social share links&#226;&#128;&#168;(not editable)" d="M529.349 107.181C528.864 107.181 528.243 107.075 527.488 106.863V105.848C528.302 106.225 528.971 106.414 529.495 106.414C529.899 106.414 530.223 106.308 530.467 106.097C530.714 105.885 530.838 105.607 530.838 105.262C530.838 104.979 530.757 104.738 530.594 104.539C530.434 104.34 530.138 104.119 529.705 103.875L529.207 103.587C528.592 103.235 528.157 102.905 527.903 102.596C527.653 102.283 527.527 101.92 527.527 101.507C527.527 100.95 527.729 100.493 528.133 100.135C528.536 99.7734 529.051 99.5928 529.676 99.5928C530.232 99.5928 530.82 99.6855 531.438 99.8711V100.809C530.677 100.509 530.109 100.359 529.734 100.359C529.38 100.359 529.087 100.454 528.855 100.643C528.624 100.831 528.509 101.069 528.509 101.355C528.509 101.596 528.593 101.81 528.763 101.995C528.932 102.181 529.241 102.402 529.69 102.659L530.208 102.952C530.833 103.307 531.269 103.642 531.517 103.958C531.764 104.274 531.888 104.653 531.888 105.096C531.888 105.724 531.655 106.229 531.189 106.609C530.727 106.99 530.114 107.181 529.349 107.181ZM535.428 107.122C534.669 107.122 534.064 106.871 533.611 106.37C533.159 105.866 532.933 105.192 532.933 104.349C532.933 103.496 533.159 102.822 533.611 102.327C534.067 101.829 534.684 101.58 535.462 101.58C536.24 101.58 536.855 101.829 537.308 102.327C537.763 102.822 537.991 103.493 537.991 104.339C537.991 105.205 537.763 105.885 537.308 106.38C536.852 106.875 536.225 107.122 535.428 107.122ZM535.442 106.399C536.461 106.399 536.971 105.713 536.971 104.339C536.971 102.981 536.468 102.303 535.462 102.303C534.459 102.303 533.958 102.985 533.958 104.349C533.958 105.716 534.453 106.399 535.442 106.399ZM541.565 107.122C540.849 107.122 540.255 106.857 539.783 106.326C539.311 105.796 539.075 105.127 539.075 104.319C539.075 103.457 539.308 102.785 539.773 102.303C540.242 101.821 540.895 101.58 541.731 101.58C542.145 101.58 542.607 101.637 543.118 101.751V102.557C542.575 102.397 542.132 102.317 541.79 102.317C541.299 102.317 540.903 102.503 540.604 102.874C540.307 103.242 540.159 103.733 540.159 104.349C540.159 104.944 540.312 105.426 540.618 105.794C540.924 106.162 541.325 106.346 541.819 106.346C542.259 106.346 542.711 106.233 543.177 106.009V106.839C542.555 107.028 542.018 107.122 541.565 107.122ZM544.622 107V101.697H545.584V107H544.622ZM544.622 100.735V99.7734H545.584V100.735H544.622ZM550.247 106.326C549.671 106.857 549.116 107.122 548.582 107.122C548.143 107.122 547.778 106.985 547.488 106.712C547.199 106.435 547.054 106.087 547.054 105.667C547.054 105.088 547.296 104.643 547.781 104.334C548.27 104.021 548.968 103.865 549.876 103.865H550.105V103.226C550.105 102.61 549.79 102.303 549.158 102.303C548.65 102.303 548.102 102.459 547.513 102.771V101.976C548.16 101.712 548.768 101.58 549.334 101.58C549.926 101.58 550.363 101.714 550.643 101.98C550.926 102.247 551.067 102.662 551.067 103.226V105.628C551.067 106.178 551.237 106.453 551.575 106.453C551.618 106.453 551.679 106.447 551.761 106.434L551.829 106.966C551.611 107.07 551.37 107.122 551.106 107.122C550.657 107.122 550.371 106.857 550.247 106.326ZM550.105 105.804V104.432L549.783 104.422C549.256 104.422 548.829 104.523 548.504 104.725C548.178 104.923 548.016 105.185 548.016 105.511C548.016 105.742 548.097 105.937 548.26 106.097C548.423 106.256 548.621 106.336 548.855 106.336C549.256 106.336 549.673 106.159 550.105 105.804ZM553.04 107V99.29H554.002V107H553.04ZM560.501 107.122C560.062 107.122 559.528 107.02 558.899 106.814V105.931C559.528 106.243 560.075 106.399 560.54 106.399C560.817 106.399 561.046 106.325 561.229 106.175C561.411 106.025 561.502 105.838 561.502 105.613C561.502 105.285 561.246 105.013 560.735 104.798L560.174 104.559C559.344 104.214 558.929 103.717 558.929 103.069C558.929 102.607 559.091 102.244 559.417 101.98C559.746 101.714 560.195 101.58 560.765 101.58C561.061 101.58 561.427 101.621 561.863 101.702L562.063 101.741V102.542C561.526 102.382 561.1 102.303 560.784 102.303C560.166 102.303 559.856 102.527 559.856 102.977C559.856 103.266 560.091 103.51 560.56 103.709L561.023 103.904C561.548 104.126 561.919 104.36 562.137 104.607C562.355 104.852 562.464 105.158 562.464 105.525C562.464 105.991 562.28 106.373 561.912 106.673C561.544 106.972 561.074 107.122 560.501 107.122ZM564.192 107V99.29H565.154V102.693C565.662 101.951 566.284 101.58 567.02 101.58C567.479 101.58 567.845 101.727 568.118 102.02C568.392 102.309 568.528 102.7 568.528 103.191V107H567.566V103.504C567.566 103.11 567.508 102.83 567.391 102.664C567.277 102.495 567.086 102.41 566.819 102.41C566.23 102.41 565.675 102.796 565.154 103.567V107H564.192ZM573.138 106.326C572.562 106.857 572.007 107.122 571.473 107.122C571.033 107.122 570.669 106.985 570.379 106.712C570.089 106.435 569.944 106.087 569.944 105.667C569.944 105.088 570.187 104.643 570.672 104.334C571.16 104.021 571.858 103.865 572.767 103.865H572.996V103.226C572.996 102.61 572.68 102.303 572.049 102.303C571.541 102.303 570.993 102.459 570.403 102.771V101.976C571.051 101.712 571.658 101.58 572.225 101.58C572.817 101.58 573.253 101.714 573.533 101.98C573.816 102.247 573.958 102.662 573.958 103.226V105.628C573.958 106.178 574.127 106.453 574.466 106.453C574.508 106.453 574.57 106.447 574.651 106.434L574.72 106.966C574.502 107.07 574.261 107.122 573.997 107.122C573.548 107.122 573.261 106.857 573.138 106.326ZM572.996 105.804V104.432L572.674 104.422C572.146 104.422 571.72 104.523 571.395 104.725C571.069 104.923 570.906 105.185 570.906 105.511C570.906 105.742 570.988 105.937 571.15 106.097C571.313 106.256 571.512 106.336 571.746 106.336C572.146 106.336 572.563 106.159 572.996 105.804ZM575.931 107V101.697H576.893V102.693C577.273 101.951 577.827 101.58 578.553 101.58C578.65 101.58 578.753 101.588 578.86 101.604V102.503C578.694 102.448 578.548 102.42 578.421 102.42C577.812 102.42 577.303 102.781 576.893 103.504V107H575.931ZM583.909 106.829C583.265 107.024 582.713 107.122 582.254 107.122C581.473 107.122 580.835 106.863 580.34 106.346C579.848 105.825 579.603 105.151 579.603 104.324C579.603 103.52 579.819 102.861 580.252 102.347C580.688 101.832 581.245 101.575 581.922 101.575C582.563 101.575 583.058 101.803 583.406 102.259C583.758 102.715 583.934 103.362 583.934 104.202L583.929 104.5H580.584C580.724 105.76 581.341 106.39 582.435 106.39C582.835 106.39 583.326 106.282 583.909 106.067V106.829ZM580.628 103.777H582.967C582.967 102.791 582.599 102.298 581.863 102.298C581.124 102.298 580.713 102.791 580.628 103.777ZM588.763 107V99.29H589.725V107H588.763ZM591.653 107V101.697H592.615V107H591.653ZM591.653 100.735V99.7734H592.615V100.735H591.653ZM594.544 107V101.697H595.506V102.693C596.014 101.951 596.635 101.58 597.371 101.58C597.83 101.58 598.196 101.727 598.47 102.02C598.743 102.309 598.88 102.7 598.88 103.191V107H597.918V103.504C597.918 103.11 597.859 102.83 597.742 102.664C597.628 102.495 597.438 102.41 597.171 102.41C596.582 102.41 596.027 102.796 595.506 103.567V107H594.544ZM600.755 107V99.29H601.717V104.271L603.963 101.697H604.998L602.854 104.173L605.442 107H604.212L601.717 104.28V107H600.755ZM608.011 107.122C607.571 107.122 607.037 107.02 606.409 106.814V105.931C607.037 106.243 607.584 106.399 608.05 106.399C608.326 106.399 608.556 106.325 608.738 106.175C608.921 106.025 609.012 105.838 609.012 105.613C609.012 105.285 608.756 105.013 608.245 104.798L607.684 104.559C606.854 104.214 606.438 103.717 606.438 103.069C606.438 102.607 606.601 102.244 606.927 101.98C607.256 101.714 607.705 101.58 608.274 101.58C608.571 101.58 608.937 101.621 609.373 101.702L609.573 101.741V102.542C609.036 102.382 608.61 102.303 608.294 102.303C607.675 102.303 607.366 102.527 607.366 102.977C607.366 103.266 607.601 103.51 608.069 103.709L608.533 103.904C609.057 104.126 609.428 104.36 609.646 104.607C609.865 104.852 609.974 105.158 609.974 105.525C609.974 105.991 609.79 106.373 609.422 106.673C609.054 106.972 608.584 107.122 608.011 107.122ZM529.891 119.781V120.445C529.188 119.967 528.629 119.317 528.216 118.497C527.806 117.674 527.601 116.796 527.601 115.865C527.601 114.938 527.806 114.063 528.216 113.243C528.629 112.42 529.188 111.769 529.891 111.29V111.954C529.412 112.475 529.07 113.035 528.865 113.634C528.663 114.233 528.562 114.977 528.562 115.865C528.562 116.757 528.663 117.503 528.865 118.102C529.07 118.701 529.412 119.26 529.891 119.781ZM531.214 119V113.697H532.176V114.693C532.684 113.951 533.305 113.58 534.041 113.58C534.5 113.58 534.866 113.727 535.14 114.02C535.413 114.309 535.55 114.7 535.55 115.191V119H534.588V115.504C534.588 115.11 534.529 114.83 534.412 114.664C534.298 114.495 534.108 114.41 533.841 114.41C533.252 114.41 532.697 114.796 532.176 115.567V119H531.214ZM539.5 119.122C538.742 119.122 538.136 118.871 537.684 118.37C537.231 117.866 537.005 117.192 537.005 116.349C537.005 115.496 537.231 114.822 537.684 114.327C538.139 113.829 538.756 113.58 539.534 113.58C540.312 113.58 540.927 113.829 541.38 114.327C541.836 114.822 542.063 115.493 542.063 116.339C542.063 117.205 541.836 117.885 541.38 118.38C540.924 118.875 540.298 119.122 539.5 119.122ZM539.515 118.399C540.534 118.399 541.043 117.713 541.043 116.339C541.043 114.981 540.54 114.303 539.534 114.303C538.532 114.303 538.03 114.985 538.03 116.349C538.03 117.716 538.525 118.399 539.515 118.399ZM545.159 119.122C544.671 119.122 544.29 118.982 544.017 118.702C543.743 118.422 543.606 118.033 543.606 117.535V114.42H542.942V113.697H543.606V112.735L544.568 112.643V113.697H545.955V114.42H544.568V117.359C544.568 118.053 544.868 118.399 545.467 118.399C545.594 118.399 545.748 118.378 545.931 118.336V119C545.634 119.081 545.377 119.122 545.159 119.122ZM554.358 118.829C553.714 119.024 553.162 119.122 552.703 119.122C551.922 119.122 551.284 118.863 550.789 118.346C550.298 117.825 550.052 117.151 550.052 116.324C550.052 115.52 550.268 114.861 550.701 114.347C551.137 113.832 551.694 113.575 552.371 113.575C553.012 113.575 553.507 113.803 553.855 114.259C554.207 114.715 554.383 115.362 554.383 116.202L554.378 116.5H551.033C551.173 117.76 551.79 118.39 552.884 118.39C553.284 118.39 553.776 118.282 554.358 118.067V118.829ZM551.077 115.777H553.416C553.416 114.791 553.048 114.298 552.312 114.298C551.574 114.298 551.162 114.791 551.077 115.777ZM559.451 119V118.004C559.061 118.749 558.471 119.122 557.684 119.122C557.046 119.122 556.543 118.889 556.175 118.424C555.81 117.958 555.628 117.322 555.628 116.515C555.628 115.632 555.835 114.923 556.248 114.386C556.665 113.849 557.212 113.58 557.889 113.58C558.517 113.58 559.038 113.821 559.451 114.303V111.29H560.418V119H559.451ZM559.451 114.962C558.953 114.522 558.481 114.303 558.035 114.303C557.114 114.303 556.653 115.007 556.653 116.417C556.653 117.657 557.063 118.277 557.884 118.277C558.418 118.277 558.94 117.986 559.451 117.403V114.962ZM562.347 119V113.697H563.309V119H562.347ZM562.347 112.735V111.773H563.309V112.735H562.347ZM566.829 119.122C566.341 119.122 565.96 118.982 565.687 118.702C565.413 118.422 565.276 118.033 565.276 117.535V114.42H564.612V113.697H565.276V112.735L566.238 112.643V113.697H567.625V114.42H566.238V117.359C566.238 118.053 566.538 118.399 567.137 118.399C567.264 118.399 567.418 118.378 567.601 118.336V119C567.304 119.081 567.047 119.122 566.829 119.122ZM571.712 118.326C571.136 118.857 570.581 119.122 570.047 119.122C569.607 119.122 569.243 118.985 568.953 118.712C568.663 118.435 568.519 118.087 568.519 117.667C568.519 117.088 568.761 116.643 569.246 116.334C569.734 116.021 570.433 115.865 571.341 115.865H571.57V115.226C571.57 114.61 571.255 114.303 570.623 114.303C570.115 114.303 569.567 114.459 568.978 114.771V113.976C569.625 113.712 570.232 113.58 570.799 113.58C571.391 113.58 571.827 113.714 572.107 113.98C572.391 114.247 572.532 114.662 572.532 115.226V117.628C572.532 118.178 572.701 118.453 573.04 118.453C573.082 118.453 573.144 118.447 573.226 118.434L573.294 118.966C573.076 119.07 572.835 119.122 572.571 119.122C572.122 119.122 571.836 118.857 571.712 118.326ZM571.57 117.804V116.432L571.248 116.422C570.721 116.422 570.294 116.523 569.969 116.725C569.643 116.923 569.48 117.185 569.48 117.511C569.48 117.742 569.562 117.937 569.725 118.097C569.887 118.256 570.086 118.336 570.32 118.336C570.721 118.336 571.137 118.159 571.57 117.804ZM574.505 119.059V111.29H575.467V114.693C575.861 113.951 576.451 113.58 577.239 113.58C577.877 113.58 578.379 113.813 578.743 114.278C579.111 114.744 579.295 115.38 579.295 116.188C579.295 117.066 579.087 117.776 578.67 118.316C578.257 118.854 577.711 119.122 577.034 119.122C576.406 119.122 575.883 118.881 575.467 118.399L575.35 119.059H574.505ZM575.467 117.735C575.962 118.178 576.434 118.399 576.883 118.399C577.807 118.399 578.27 117.695 578.27 116.285C578.27 115.042 577.859 114.42 577.039 114.42C576.502 114.42 575.978 114.711 575.467 115.294V117.735ZM580.804 119V111.29H581.766V119H580.804ZM587.581 118.829C586.937 119.024 586.385 119.122 585.926 119.122C585.145 119.122 584.507 118.863 584.012 118.346C583.52 117.825 583.274 117.151 583.274 116.324C583.274 115.52 583.491 114.861 583.924 114.347C584.36 113.832 584.917 113.575 585.594 113.575C586.235 113.575 586.73 113.803 587.078 114.259C587.43 114.715 587.605 115.362 587.605 116.202L587.601 116.5H584.256C584.396 117.76 585.013 118.39 586.106 118.39C586.507 118.39 586.998 118.282 587.581 118.067V118.829ZM584.3 115.777H586.639C586.639 114.791 586.271 114.298 585.535 114.298C584.796 114.298 584.384 114.791 584.3 115.777ZM588.67 119.781V120.445C589.373 119.967 589.93 119.317 590.34 118.497C590.753 117.674 590.96 116.796 590.96 115.865C590.96 114.938 590.753 114.063 590.34 113.243C589.93 112.42 589.373 111.769 588.67 111.29V111.954C589.148 112.475 589.489 113.035 589.69 113.634C589.896 114.233 589.998 114.977 589.998 115.865C589.998 116.757 589.896 117.503 589.69 118.102C589.489 118.701 589.148 119.26 588.67 119.781Z" fill="#4F4F4F"/>
<line id="Line 4" x1="495" y1="36.5" x2="522" y2="36.5" stroke="#060606" stroke-opacity="0.34"/>
<line id="Line 5" x1="495" y1="108.5" x2="522" y2="108.5" stroke="#060606" stroke-opacity="0.34"/>
</g>
</svg>
