<?xml version="1.0" encoding="iso-8859-1"?>
<!-- Generator: Adobe Illustrator 16.0.0, SVG Export Plug-In . SVG Version: 6.00 Build 0)  -->
<!DOCTYPE svg PUBLIC "-//W3C//DTD SVG 1.1//EN" "http://www.w3.org/Graphics/SVG/1.1/DTD/svg11.dtd">
<svg version="1.1" id="Capa_1" xmlns="http://www.w3.org/2000/svg" xmlns:xlink="http://www.w3.org/1999/xlink" x="0px" y="0px"
	 width="562.563px" height="562.562px" viewBox="0 0 562.563 562.562" style="enable-background:new 0 0 562.563 562.562;"
	 xml:space="preserve">
<g>
	<path d="M512.563,50.001H395.896c-27.5,0-65.909,15.909-85.355,35.355L114.584,281.312c-19.445,19.445-19.445,51.265,0,70.711
		l145.957,145.953c19.445,19.446,51.265,19.446,70.711,0l195.954-195.953c19.447-19.446,35.357-57.856,35.357-85.356V100.001
		C562.563,72.501,540.063,50.001,512.563,50.001z M445.896,216.667c-27.614,0-50-22.385-50-50c0-27.614,22.386-50,50-50
		s50,22.386,50,50C495.896,194.282,473.51,216.667,445.896,216.667z M41.013,328.451l178.322,178.321
		c-18.888,9.979-42.949,7.053-58.795-8.796L14.584,352.023c-19.445-19.446-19.445-51.266,0-70.711L210.541,85.356
		c19.446-19.446,57.855-35.355,85.355-35.355L41.013,304.882C34.532,311.364,34.532,321.97,41.013,328.451z"/>
</g>
<g>
</g>
<g>
</g>
<g>
</g>
<g>
</g>
<g>
</g>
<g>
</g>
<g>
</g>
<g>
</g>
<g>
</g>
<g>
</g>
<g>
</g>
<g>
</g>
<g>
</g>
<g>
</g>
<g>
</g>
</svg>
