<?xml version="1.0" encoding="UTF-8" standalone="no"?>
<svg viewBox="0 0 722.14282 618.04224" xmlns="http://www.w3.org/2000/svg">
<g transform="translate(-306.26351,190.84496)">
<g fill="#7f00ff">
<g fill="#000" transform="matrix(5.34921,0,0,5.34921,-1332.0035,-1857.9695)">
<path d="m-180.9753,535.70752h73.94383v73.94382h-73.94383z" fill="#787878" fill-rule="evenodd" transform="matrix(.87274,-.48819,.87274,.48819,0,0)"/>
<path d="m-637.27216,431.13074h36.35996v74.47839h-36.35996z" fill="#787878" fill-rule="evenodd" transform="matrix(0,-1,.87274,-.48819,0,0)"/>
<path d="m-219.51965-425.40167h36.35996v74.47839h-36.35996z" fill="#787878" fill-rule="evenodd" transform="matrix(0,-1,-.87274,-.48819,0,0)"/>
<path d="m40.71429-106.42757c0,8.08703-6.55583,14.64286-14.64286,14.64286s-14.64286-6.55583-14.64286-14.64286 6.55583-14.64285 14.64286-14.64285 14.64286,6.55583 14.64286,14.64285z" fill="#fff" fill-rule="evenodd" transform="matrix(1.2439,0,0,-.69582,305.94032,273.71926)"/>
<path d="m40.71429-106.42757c0,8.08703-6.55583,14.64286-14.64286,14.64286s-14.64286-6.55583-14.64286-14.64286 6.55583-14.64285 14.64286-14.64285 14.64286,6.55583 14.64286,14.64285z" fill="#787878" fill-rule="evenodd" transform="matrix(1.2439,0,0,-.69582,305.94032,266.40121)"/>
<path d="m40.71429-106.42757a14.64286,14.64286 0 1,1 -29.28572,0 14.64286,14.64286 0 1,1 29.28572,0z" fill="#fff" fill-rule="evenodd" transform="matrix(1.2439,0,0,-.69582,339.9046,291.47069)"/>
<path d="m40.71429-106.42757a14.64286,14.64286 0 1,1 -29.28572,0 14.64286,14.64286 0 1,1 29.28572,0z" fill="#787878" fill-rule="evenodd" transform="matrix(1.2439,0,0,-.69582,339.9046,284.15264)"/>
<path d="m40.71429-106.42757c0,8.08703-6.55583,14.64286-14.64286,14.64286s-14.64286-6.55583-14.64286-14.64286 6.55583-14.64285 14.64286-14.64285 14.64286,6.55583 14.64286,14.64285z" fill="#fff" fill-rule="evenodd" transform="matrix(1.2439,0,0,-.69582,374.90461,273.71925)"/>
<path d="m40.71429-106.42757c0,8.08703-6.55583,14.64286-14.64286,14.64286s-14.64286-6.55583-14.64286-14.64286 6.55583-14.64285 14.64286-14.64285 14.64286,6.55583 14.64286,14.64285z" fill="#787878" fill-rule="evenodd" transform="matrix(1.2439,0,0,-.69582,374.90461,266.40121)"/>
<path d="m40.71429-106.42757a14.64286,14.64286 0 1,1 -29.28572,0 14.64286,14.64286 0 1,1 29.28572,0z" fill="#fff" fill-rule="evenodd" transform="matrix(1.2439,0,0,-.69582,339.9046,255.11072)"/>
<path d="m40.71429-106.42757a14.64286,14.64286 0 1,1 -29.28572,0 14.64286,14.64286 0 1,1 29.28572,0z" fill="#787878" fill-rule="evenodd" transform="matrix(1.2439,0,0,-.69582,339.9046,247.79268)"/>
</g>
</g>
</g>
</svg>
