<svg id="Layer_2" data-name="Layer 2" xmlns="http://www.w3.org/2000/svg" viewBox="0 0 381.77 396.64"><defs><style>.cls-1{fill:none;}.cls-1,.cls-2{stroke:#231f20;stroke-miterlimit:10;stroke-width:10px;}</style></defs><path class="cls-1" d="M400.14,279.43l-.25-.17c-2.61-2-1.7-.26-.09.17Z" transform="translate(-59.12 -51.68)"/><path class="cls-1" d="M295.49,136a49.14,49.14,0,0,0-9-46.61A46.27,46.27,0,0,0,251.1,72.78c-25.79,0-46.77,21.57-46.77,48.09a49.09,49.09,0,0,0,2,13.86,99.71,99.71,0,0,1,43.25-9.94A100.81,100.81,0,0,1,295.49,136Z" transform="translate(-59.12 -51.68)"/><path class="cls-1" d="M98,279.12a2.23,2.23,0,0,0,1.54.4l.12-.09A3.26,3.26,0,0,1,98,279.12Z" transform="translate(-59.12 -51.68)"/><path class="cls-1" d="M288.05,150.31a83.35,83.35,0,0,0-74.73-1.13" transform="translate(-59.12 -51.68)"/><path class="cls-1" d="M99.89,279.28l-.22.15H100C101.62,279,102.43,277.27,99.89,279.28Z" transform="translate(-59.12 -51.68)"/><path class="cls-1" d="M352.62,263a155.71,155.71,0,0,0-12.84-55.21" transform="translate(-59.12 -51.68)"/><path class="cls-1" d="M338.29,337.64a154.24,154.24,0,0,0,14.35-58.52" transform="translate(-59.12 -51.68)"/><path class="cls-1" d="M168.79,352.07c18.94,29.95,48.11,49.18,80.78,49.18s62.08-19.37,81-49.52" transform="translate(-59.12 -51.68)"/><path class="cls-1" d="M146.51,279.12A154.28,154.28,0,0,0,161,338" transform="translate(-59.12 -51.68)"/><path class="cls-1" d="M160.3,205.68A154.74,154.74,0,0,0,146.51,263" transform="translate(-59.12 -51.68)"/><path class="cls-1" d="M199.39,157.33a115.35,115.35,0,0,0-31.51,34.21" transform="translate(-59.12 -51.68)"/><path class="cls-1" d="M332.47,193.54c-1.64-2.78-3.36-5.5-5.18-8.13a113.3,113.3,0,0,0-25.51-26.6" transform="translate(-59.12 -51.68)"/><path class="cls-1" d="M401.76,279.12a3.19,3.19,0,0,1-1.62.31l.12.09A2.22,2.22,0,0,0,401.76,279.12Z" transform="translate(-59.12 -51.68)"/><path class="cls-2" d="M339.78,207.81a137.75,137.75,0,0,0-7.31-14.27" transform="translate(-59.12 -51.68)"/><path class="cls-2" d="M427.69,169.24c2.51-1.1,4-4.37,4-7V108.61c0-10.36-16.1-10.38-16.1,0v48.48l4-1.75-4,6.95v-5.2L347.32,187a154.27,154.27,0,0,1,7.22,14.3Z" transform="translate(-59.12 -51.68)"/><path class="cls-2" d="M419.56,155.34l-4,1.75v5.2Z" transform="translate(-59.12 -51.68)"/><path class="cls-2" d="M89.35,157.09v5.2c-1.33-2.32-2.66-4.63-4-6.95l4,1.75V108.61c0-10.36-16.1-10.38-16.1,0v53.68c0,2.58,1.48,5.85,4,7l68.38,30a151.45,151.45,0,0,1,7.47-14.19Z" transform="translate(-59.12 -51.68)"/><path class="cls-2" d="M89.35,162.29v-5.2l-4-1.75C86.69,157.66,88,160,89.35,162.29Z" transform="translate(-59.12 -51.68)"/><path class="cls-2" d="M167.88,191.54a138,138,0,0,0-7.58,14.14" transform="translate(-59.12 -51.68)"/><path class="cls-2" d="M411.13,381.86v5.2l4,1.75Q413.11,385.35,411.13,381.86Z" transform="translate(-59.12 -51.68)"/><path class="cls-2" d="M330.58,351.73a137,137,0,0,0,7.71-14.09" transform="translate(-59.12 -51.68)"/><path class="cls-2" d="M411.13,387.06v-5.2q2,3.48,4,6.95l-4-1.75v48.48c0,10.37,16.1,10.38,16.1,0V381.86c0-2.58-1.48-5.85-4-6.95L353,344.09a153.79,153.79,0,0,1-7.59,14.14Z" transform="translate(-59.12 -51.68)"/><path class="cls-2" d="M76.91,374.91c-2.51,1.1-4,4.37-4,6.95v53.68c0,10.37,16.1,10.38,16.1,0V387.06l-4,1.75,4-6.95v5.2l65-28.49a153.71,153.71,0,0,1-7.63-14.12Z" transform="translate(-59.12 -51.68)"/><path class="cls-2" d="M161,338a137.86,137.86,0,0,0,7.76,14.06" transform="translate(-59.12 -51.68)"/><path class="cls-2" d="M85,388.81l4-1.75v-5.2Z" transform="translate(-59.12 -51.68)"/><path class="cls-2" d="M213.32,149.18a94.13,94.13,0,0,0-13.93,8.15" transform="translate(-59.12 -51.68)"/><path class="cls-2" d="M301.78,158.81a95.66,95.66,0,0,0-13.73-8.5" transform="translate(-59.12 -51.68)"/><path class="cls-2" d="M204.33,120.87c0-26.52,21-48.09,46.77-48.09A46.27,46.27,0,0,1,286.48,89.4a49.14,49.14,0,0,1,9,46.61,112,112,0,0,1,14.05,8.53A65.25,65.25,0,0,0,298.79,79,62.29,62.29,0,0,0,251.1,56.68c-34.67,0-62.87,28.79-62.87,64.19a65.17,65.17,0,0,0,3.82,22.06,110.31,110.31,0,0,1,14.27-8.2A49.09,49.09,0,0,1,204.33,120.87Z" transform="translate(-59.12 -51.68)"/><path class="cls-2" d="M130.38,263H102.31c-12.56,0-24,10.48-34.36,16.8-8.85,5.36-.77,19.29,8.12,13.9L94.75,282.4c1.55-.94,3.33-1.79,4.8-2.88a2.23,2.23,0,0,1-1.54-.4,3.26,3.26,0,0,0,1.66.31l.22-.15c2.54-2,1.73-.3.14.15,1.54,0,3.42-.31,4.19-.31h26.16c-.11-2.67-.18-5.35-.18-8.05S130.27,265.69,130.38,263Z" transform="translate(-59.12 -51.68)"/><path class="cls-2" d="M146.51,263c-.13,2.66-.21,5.35-.21,8.05s.08,5.39.21,8.05" transform="translate(-59.12 -51.68)"/><path class="cls-2" d="M99.55,279.52a1.86,1.86,0,0,0,.48-.09h-.36Z" transform="translate(-59.12 -51.68)"/><path class="cls-2" d="M352.64,279.12c.13-2.66.21-5.35.21-8.05s-.09-5.38-.23-8.05" transform="translate(-59.12 -51.68)"/><path class="cls-2" d="M432,279.56C421.5,273.33,410,263,397.42,263H368.76c.12,2.67.19,5.36.19,8.05s-.07,5.38-.19,8.05h26.73c.78,0,2.74.3,4.31.31-1.61-.43-2.52-2.16.09-.17l.25.17a3.19,3.19,0,0,0,1.62-.31,2.22,2.22,0,0,1-1.5.4c1.26.88,2.74,1.58,4.06,2.36l19.57,11.58C432.83,298.75,440.94,284.83,432,279.56Z" transform="translate(-59.12 -51.68)"/><path class="cls-2" d="M399.8,279.43a3.4,3.4,0,0,0,.46.09l-.12-.09Z" transform="translate(-59.12 -51.68)"/><path class="cls-2" d="M288.05,150.31a48.44,48.44,0,0,0,7.44-14.3,100.81,100.81,0,0,0-45.92-11.22,99.71,99.71,0,0,0-43.25,9.94,48.66,48.66,0,0,0,7,14.45,83.35,83.35,0,0,1,74.73,1.13Z" transform="translate(-59.12 -51.68)"/><path class="cls-2" d="M352.62,263h16.14a172.47,172.47,0,0,0-14.22-61.69l-14.76,6.48A155.71,155.71,0,0,1,352.62,263Z" transform="translate(-59.12 -51.68)"/><path class="cls-2" d="M249.57,401.25c-32.67,0-61.84-19.23-80.78-49.18L154,358.57c21.79,35.66,56.53,58.78,95.6,58.78s74-23.27,95.82-59.12l-14.81-6.5C311.65,381.88,282.37,401.25,249.57,401.25Z" transform="translate(-59.12 -51.68)"/><path class="cls-2" d="M160.3,205.68l-14.68-6.44A170.16,170.16,0,0,0,130.38,263h16.13A154.74,154.74,0,0,1,160.3,205.68Z" transform="translate(-59.12 -51.68)"/><path class="cls-2" d="M199.39,157.33a64.9,64.9,0,0,1-7.34-14.4c-15.37,10.4-28.67,24.83-39,42.12l14.79,6.49A115.35,115.35,0,0,1,199.39,157.33Z" transform="translate(-59.12 -51.68)"/><path class="cls-2" d="M338.29,337.64,353,344.09a169.88,169.88,0,0,0,15.78-65H352.64A154.24,154.24,0,0,1,338.29,337.64Z" transform="translate(-59.12 -51.68)"/><path class="cls-2" d="M146.51,279.12H130.38a170,170,0,0,0,16,65.33L161,338A154.28,154.28,0,0,1,146.51,279.12Z" transform="translate(-59.12 -51.68)"/><path class="cls-2" d="M327.29,185.41c1.82,2.63,3.54,5.35,5.18,8.13L347.32,187q-3.18-5.58-6.81-10.8a128.77,128.77,0,0,0-31-31.69,64.74,64.74,0,0,1-7.76,14.27A113.3,113.3,0,0,1,327.29,185.41Z" transform="translate(-59.12 -51.68)"/><path class="cls-2" d="M339.78,207.81l14.76-6.48a154.27,154.27,0,0,0-7.22-14.3l-14.85,6.51A137.75,137.75,0,0,1,339.78,207.81Z" transform="translate(-59.12 -51.68)"/><path class="cls-2" d="M167.88,191.54l-14.79-6.49a151.45,151.45,0,0,0-7.47,14.19l14.68,6.44A138,138,0,0,1,167.88,191.54Z" transform="translate(-59.12 -51.68)"/><path class="cls-2" d="M330.58,351.73l14.81,6.5A153.79,153.79,0,0,0,353,344.09l-14.69-6.45A137,137,0,0,1,330.58,351.73Z" transform="translate(-59.12 -51.68)"/><path class="cls-2" d="M161,338l-14.69,6.44A153.71,153.71,0,0,0,154,358.57l14.82-6.5A137.86,137.86,0,0,1,161,338Z" transform="translate(-59.12 -51.68)"/><path class="cls-2" d="M213.32,149.18a48.66,48.66,0,0,1-7-14.45,110.31,110.31,0,0,0-14.27,8.2,64.9,64.9,0,0,0,7.34,14.4A94.13,94.13,0,0,1,213.32,149.18Z" transform="translate(-59.12 -51.68)"/><path class="cls-2" d="M288.05,150.31a95.66,95.66,0,0,1,13.73,8.5,64.74,64.74,0,0,0,7.76-14.27A112,112,0,0,0,295.49,136,48.44,48.44,0,0,1,288.05,150.31Z" transform="translate(-59.12 -51.68)"/><path class="cls-2" d="M146.3,271.07c0-2.7.08-5.39.21-8.05H130.38c-.11,2.67-.18,5.35-.18,8.05s.07,5.38.18,8.05h16.13C146.38,276.46,146.3,273.77,146.3,271.07Z" transform="translate(-59.12 -51.68)"/><path class="cls-2" d="M368.76,263H352.62c.14,2.67.23,5.36.23,8.05s-.08,5.39-.21,8.05h16.12c.12-2.67.19-5.35.19-8.05S368.88,265.69,368.76,263Z" transform="translate(-59.12 -51.68)"/></svg>