<svg width="379" height="199" viewBox="0 0 379 199" fill="none" xmlns="http://www.w3.org/2000/svg">
<path d="M49.4628 173.741H170.821C178.078 173.741 183.961 178.317 183.961 183.961C183.961 189.605 178.078 194.181 170.821 194.181H13.1401C5.88301 194.181 4.00307e-07 189.605 4.00307e-07 183.961C4.00307e-07 183.231 0.0984541 182.519 0.2856 181.832C-0.207697 179.827 -0.0896803 177.611 0.857351 175.401L22.5374 124.814C23.4089 122.781 24.8244 121.213 26.516 120.164C27.04 119.402 27.6406 118.677 28.3177 118L140.331 5.98677C148.314 -1.99559 161.256 -1.99559 169.238 5.98677L183.691 20.4401C191.674 28.4225 191.674 41.3645 183.691 49.3468L71.6778 161.36C71.0006 162.037 70.2758 162.638 69.5142 163.162C68.4645 164.854 66.8971 166.269 64.8637 167.141L49.4628 173.741ZM60.8378 143.294L136.718 67.4135L122.265 52.9601L46.3844 128.84L60.8378 143.294ZM151.171 52.9601L169.238 34.8935L154.785 20.4401L136.718 38.5068L151.171 52.9601ZM35.3785 146.741L29.7095 159.969L42.9371 154.3L35.3785 146.741Z" fill="#C4C4C4" fill-opacity="0.5"/>
<path fill-rule="evenodd" clip-rule="evenodd" d="M219.725 156.486C219.519 156.495 219.321 156.566 219.158 156.691C218.994 156.815 218.872 156.987 218.809 157.183L214.064 171.888L198.617 171.857C198.404 171.857 198.197 171.924 198.024 172.049C197.852 172.174 197.723 172.351 197.658 172.553C197.592 172.756 197.592 172.974 197.658 173.177C197.724 173.38 197.852 173.556 198.025 173.681L210.541 182.738L205.736 197.428C205.669 197.63 205.669 197.849 205.735 198.051C205.8 198.254 205.929 198.431 206.101 198.556C206.273 198.681 206.481 198.748 206.694 198.748C206.907 198.748 207.115 198.68 207.287 198.555L219.767 189.447L232.253 198.555C232.426 198.68 232.633 198.748 232.846 198.748C233.059 198.748 233.267 198.681 233.439 198.556C233.611 198.431 233.74 198.254 233.805 198.051C233.871 197.849 233.87 197.63 233.804 197.428L228.998 182.738L241.515 173.681C241.687 173.556 241.816 173.38 241.882 173.177C241.948 172.974 241.948 172.756 241.882 172.553C241.817 172.351 241.688 172.174 241.516 172.049C241.343 171.924 241.135 171.857 240.922 171.857L225.475 171.888L220.726 157.183C220.658 156.973 220.523 156.792 220.343 156.666C220.162 156.54 219.945 156.477 219.725 156.486Z" fill="#C4C4C4" fill-opacity="0.5"/>
<path fill-rule="evenodd" clip-rule="evenodd" d="M288.259 156.486C288.053 156.495 287.855 156.566 287.691 156.691C287.527 156.815 287.406 156.987 287.342 157.183L282.598 171.888L267.151 171.857C266.938 171.857 266.73 171.924 266.558 172.049C266.385 172.174 266.257 172.351 266.191 172.553C266.125 172.756 266.125 172.974 266.192 173.177C266.258 173.38 266.386 173.556 266.559 173.681L279.075 182.738L274.269 197.428C274.203 197.63 274.203 197.849 274.268 198.051C274.334 198.254 274.462 198.431 274.635 198.556C274.807 198.681 275.015 198.748 275.228 198.748C275.441 198.748 275.648 198.68 275.82 198.555L288.301 189.447L300.787 198.555C300.959 198.68 301.167 198.748 301.38 198.748C301.593 198.748 301.8 198.681 301.973 198.556C302.145 198.431 302.273 198.254 302.339 198.051C302.404 197.849 302.404 197.63 302.338 197.428L297.532 182.738L310.048 173.681C310.221 173.556 310.35 173.38 310.416 173.177C310.482 172.974 310.482 172.756 310.416 172.553C310.35 172.351 310.222 172.174 310.049 172.049C309.877 171.924 309.669 171.857 309.456 171.857L294.009 171.888L289.259 157.183C289.192 156.973 289.057 156.792 288.876 156.666C288.696 156.54 288.479 156.477 288.259 156.486Z" fill="#C4C4C4" fill-opacity="0.5"/>
<path fill-rule="evenodd" clip-rule="evenodd" d="M356.794 156.486C356.588 156.495 356.39 156.566 356.226 156.691C356.062 156.815 355.94 156.987 355.877 157.183L351.133 171.888L335.686 171.857C335.473 171.857 335.265 171.924 335.093 172.049C334.92 172.174 334.792 172.351 334.726 172.553C334.66 172.756 334.66 172.974 334.726 173.177C334.792 173.38 334.921 173.556 335.094 173.681L347.61 182.738L342.804 197.428C342.738 197.63 342.738 197.849 342.803 198.051C342.869 198.254 342.997 198.431 343.169 198.556C343.342 198.681 343.549 198.748 343.762 198.748C343.975 198.748 344.183 198.68 344.355 198.555L356.836 189.447L369.322 198.555C369.494 198.68 369.702 198.748 369.915 198.748C370.128 198.748 370.335 198.681 370.507 198.556C370.68 198.431 370.808 198.254 370.874 198.051C370.939 197.849 370.939 197.63 370.873 197.428L366.067 182.738L378.583 173.681C378.756 173.556 378.884 173.38 378.951 173.177C379.017 172.974 379.017 172.756 378.951 172.553C378.885 172.351 378.757 172.174 378.584 172.049C378.412 171.924 378.204 171.857 377.991 171.857L362.544 171.888L357.794 157.183C357.726 156.973 357.592 156.792 357.411 156.666C357.231 156.54 357.014 156.477 356.794 156.486Z" fill="#C4C4C4" fill-opacity="0.5"/>
</svg>
