<svg id="Layer_3" data-name="Layer 3" xmlns="http://www.w3.org/2000/svg" viewBox="0 0 413 404.83"><defs><style>.cls-1{fill:#231f20;stroke:#231f20;stroke-miterlimit:10;stroke-width:15px;}</style></defs><path class="cls-1" d="M420.84,256.22H404.53c0-101.91-69.32-184.83-154.53-184.83S95.47,154.31,95.47,256.22H79.16C79.16,145.31,155.8,55.08,250,55.08S420.84,145.31,420.84,256.22Z" transform="translate(-43.5 -47.58)"/><path class="cls-1" d="M376.36,183.58a72.64,72.64,0,1,1,0,145.27" transform="translate(-43.5 -47.58)"/><path class="cls-1" d="M123.64,183.58a72.64,72.64,0,1,0,0,145.27" transform="translate(-43.5 -47.58)"/><path class="cls-1" d="M299.89,422.71l-.35-16.31c34.8-.74,61.51-11.92,79.42-33.25,36.33-43.29,25.77-115,25.66-115.69l16.12-2.5c.5,3.23,11.85,79.58-29.23,128.61C370.45,408.7,339.62,421.87,299.89,422.71Z" transform="translate(-43.5 -47.58)"/><ellipse class="cls-1" cx="228.26" cy="366.97" rx="52.06" ry="30.37"/></svg>