<svg width="24" height="22" viewBox="0 0 24 22" fill="none" xmlns="http://www.w3.org/2000/svg">
<path d="M23.7299 18.6672C24.499 20.0003 23.5336 21.6667 21.9975 21.6667H2.00226C0.46322 21.6667 -0.497696 19.9977 0.269887 18.6672L10.2676 1.33275C11.0371 -0.000958562 12.9643 0.00145805 13.7324 1.33275L23.7299 18.6672ZM12 15.0834C10.9415 15.0834 10.0833 15.9415 10.0833 17C10.0833 18.0586 10.9415 18.9167 12 18.9167C13.0585 18.9167 13.9167 18.0586 13.9167 17C13.9167 15.9415 13.0585 15.0834 12 15.0834ZM10.1803 8.19395L10.4894 13.8606C10.5038 14.1258 10.7231 14.3334 10.9886 14.3334H13.0114C13.2769 14.3334 13.4962 14.1258 13.5106 13.8606L13.8197 8.19395C13.8353 7.90753 13.6073 7.6667 13.3205 7.6667H10.6795C10.3927 7.6667 10.1647 7.90753 10.1803 8.19395Z" fill="#9D6D02"/>
</svg>
